<svg height="24" viewBox="0 0 24 24" width="24" xmlns="http://www.w3.org/2000/svg">
    <path
        d="M120,106.978a4,4,0,1,0-4-4A4,4,0,0,0,120,106.978Zm0-6a2,2,0,1,1-2,2A2,2,0,0,1,120,100.978Zm8.66,3.157-.719-.239a8,8,0,0,0-7.029-8.865,8.171,8.171,0,0,0-.912-.053,7.992,7.992,0,0,0-7.914,9.092,5.049,5.049,0,0,0-2.548,1.3A4.949,4.949,0,0,0,108,108.978v4.075a5.012,5.012,0,0,0,3.6,4.8l2.87.9a4.978,4.978,0,0,0,1.489.225,5.045,5.045,0,0,0,1.355-.186l5.78-1.71a3,3,0,0,1,1.573,0l2.387.8a4,4,0,0,0,4.832-2.94A3.944,3.944,0,0,0,132,114V108.85a5.016,5.016,0,0,0-3.34-4.716Zm-12.9-5.395a5.988,5.988,0,0,1,8.467-.017l.017.017a6.036,6.036,0,0,1,.011,8.5l-3.553,3.455a.992.992,0,0,1-1.389,0l-3.553-3.44A6.04,6.04,0,0,1,115.758,98.74ZM130,114a1.992,1.992,0,0,1-.764,1.572,1.967,1.967,0,0,1-1.626.4l-2.345-.788a5.025,5.025,0,0,0-2.717-.016l-5.784,1.708a3,3,0,0,1-1.694-.029l-2.894-.9A3.012,3.012,0,0,1,110,113.053v-4.075a2.962,2.962,0,0,1,.92-2.163,3.032,3.032,0,0,1,1.669-.806,8.014,8.014,0,0,0,1.765,2.669l3.567,3.453a2.982,2.982,0,0,0,4.174,0l3.563-3.463a7.95,7.95,0,0,0,1.813-2.821l.537.178A3.007,3.007,0,0,1,130,108.85Z"
        fill="#121418" id="address_icon" transform="translate(-108 -94.978)" />
</svg>
