<svg enable-background="new 0 0 500 500" height="430" version="1.1" width="500"
    xmlns="http://www.w3.org/2000/svg" xml:space="preserve">
 <g class="layer">
  <title>Layer 1</title>
     <g id="svg_597">
   <g id="Background_Complete">
    <g id="svg_1">
     <g id="svg_2">
      <g id="svg_3">
       <g id="svg_4">
        <g id="svg_5">
         <g id="svg_6">
          <g id="svg_7">
           <path
               d="m409.94,222.6c-2.28,1.9 -4.77,3.45 -7.39,4.66l-0.44,8.09l-13.21,2.27l-3.1,-7.49c-2.88,-0.26 -5.75,-0.9 -8.53,-1.93l-6.02,5.41l-10.94,-7.74l3.1,-7.49c-1.9,-2.27 -3.46,-4.76 -4.66,-7.39l-8.1,-0.43l-2.26,-13.21l7.48,-3.1c0.26,-2.88 0.9,-5.75 1.94,-8.53l-5.42,-6.02l7.75,-10.94l7.48,3.1c2.28,-1.9 4.76,-3.46 7.39,-4.66l0.43,-8.1l13.22,-2.26l3.09,7.48c2.88,0.26 5.75,0.9 8.53,1.94l6.02,-5.42l10.95,7.75l-3.1,7.48c1.9,2.28 3.45,4.76 4.66,7.39l8.09,0.43l2.27,13.22l-7.49,3.09c-0.26,2.88 -0.9,5.75 -1.93,8.53l5.41,6.02l-7.74,10.94l-7.48,-3.09l0,0zm-9.78,-16.57c4.59,-6.48 3.05,-15.46 -3.43,-20.04c-6.48,-4.59 -15.46,-3.05 -20.04,3.43c-4.58,6.48 -3.05,15.46 3.43,20.04c6.48,4.59 15.46,3.05 20.04,-3.43z"
               fill="none" id="svg_8" />
          </g>
         </g>
        </g>
       </g>
      </g>
         <g id="svg_9">
       <g id="svg_10">
        <g id="svg_11">
         <g id="svg_12">
          <g id="svg_13">
           <g id="svg_14">
            <path
                d="m400.16,206.03c0,0 -0.58,1.16 -2.29,2.73c-1.68,1.53 -4.73,3.42 -8.94,3.62c-2.08,0.08 -4.41,-0.24 -6.65,-1.28c-2.21,-1.04 -4.41,-2.65 -5.98,-4.96c-0.81,-1.12 -1.45,-2.41 -1.9,-3.79c-0.47,-1.37 -0.73,-2.85 -0.76,-4.37c-0.09,-3.02 0.86,-6.16 2.7,-8.8c1.88,-2.6 4.52,-4.54 7.41,-5.46c1.43,-0.49 2.92,-0.73 4.36,-0.74c1.45,-0.03 2.88,0.15 4.22,0.53c2.69,0.71 4.95,2.24 6.66,3.99c1.72,1.77 2.8,3.86 3.42,5.84c1.21,4.04 0.45,7.54 -0.44,9.64c-0.91,2.13 -1.81,3.06 -1.81,3.06c-0.08,-0.05 0.72,-1.06 1.51,-3.18c0.79,-2.09 1.42,-5.5 0.18,-9.35c-0.62,-1.9 -1.68,-3.88 -3.35,-5.54c-1.66,-1.65 -3.82,-3.08 -6.38,-3.73c-1.26,-0.36 -2.61,-0.51 -3.99,-0.48c-1.37,0.02 -2.78,0.26 -4.13,0.72c-2.73,0.88 -5.21,2.73 -6.99,5.18c-1.73,2.49 -2.63,5.44 -2.56,8.31c0.01,1.43 0.25,2.83 0.69,4.13c0.42,1.31 1.02,2.54 1.78,3.61c1.47,2.19 3.53,3.76 5.63,4.77c2.13,1.01 4.35,1.35 6.35,1.31c4.04,-0.12 7.05,-1.85 8.75,-3.27c1.73,-1.46 2.42,-2.55 2.5,-2.49l0.01,0z"
                fill="#E0E0E0" id="svg_15" />
           </g>
          </g>
         </g>
        </g>
       </g>
      </g>
         <g id="svg_16">
       <g id="svg_17">
        <g id="svg_18">
         <g id="svg_19">
          <g id="svg_20">
           <g id="svg_21">
            <path
                d="m409.94,222.6c-0.01,-0.01 0.16,0.04 0.47,0.17c0.36,0.14 0.82,0.31 1.43,0.56c1.31,0.52 3.19,1.28 5.63,2.26l-0.16,0.04c1.96,-2.81 4.55,-6.51 7.68,-10.98l0.01,0.26c-1.65,-1.83 -3.47,-3.84 -5.43,-6.01l-0.09,-0.1l0.04,-0.14c0.94,-2.56 1.63,-5.41 1.9,-8.46l0.01,-0.16l0.15,-0.07c2.33,-0.96 4.86,-2.02 7.48,-3.12l-0.18,0.33c-0.72,-4.16 -1.48,-8.58 -2.29,-13.21l0.3,0.26c-2.51,-0.13 -5.27,-0.26 -8.1,-0.41l-0.2,-0.01l-0.09,-0.19c-1.11,-2.45 -2.66,-4.99 -4.62,-7.31l-0.14,-0.17l0.08,-0.2c0.95,-2.32 2.01,-4.88 3.08,-7.49l0.13,0.44c-3.43,-2.42 -7.14,-5.05 -10.95,-7.73l0.48,-0.02c-1.88,1.68 -3.93,3.53 -6.02,5.41l-0.18,0.16l-0.22,-0.08c-2.54,-0.94 -5.43,-1.64 -8.42,-1.9l-0.24,-0.02l-0.08,-0.22c-0.98,-2.35 -2.03,-4.91 -3.1,-7.49l0.44,0.24c-4.19,0.72 -8.67,1.49 -13.22,2.27l0.35,-0.38c-0.14,2.56 -0.28,5.32 -0.44,8.09l-0.01,0.25l-0.22,0.1c-2.5,1.14 -5.02,2.7 -7.3,4.59l0,0l0,0c-0.19,0.03 0.42,-0.06 -0.43,0.07l-0.01,-0.01l-0.01,0l-0.03,-0.01l-0.05,-0.03l-0.13,-0.04l-0.23,-0.1l-0.47,-0.19l-0.94,-0.4l-1.88,-0.78c-1.25,-0.51 -2.49,-1.03 -3.72,-1.54l0.49,-0.15c-2.62,3.7 -5.2,7.35 -7.75,10.94l-0.02,-0.5c1.81,2.02 3.62,4.04 5.41,6.02l0.16,0.19l-0.08,0.23c-1.02,2.73 -1.66,5.57 -1.92,8.41l-0.02,0.24l-0.22,0.09c-2.53,1.05 -5.02,2.08 -7.49,3.09l0.24,-0.43c0.77,4.51 1.51,8.92 2.24,13.22l-0.36,-0.31c2.75,0.15 5.44,0.29 8.1,0.44l0.22,0.01l0.09,0.2c1.22,2.7 2.78,5.15 4.59,7.32l0.14,0.17l-0.08,0.2c-1.07,2.57 -2.1,5.06 -3.12,7.48l-0.12,-0.41c3.84,2.73 7.47,5.31 10.93,7.76l-0.4,0.02c2.13,-1.9 4.11,-3.68 6.04,-5.39l0.13,-0.13l0.17,0.06c2.89,1.08 5.73,1.69 8.45,1.94l0.16,0.01l0.06,0.16c1.12,2.72 2.13,5.17 3.07,7.49l-0.26,-0.15c5.12,-0.85 9.48,-1.57 13.22,-2.2l-0.15,0.18c0.19,-3.23 0.35,-5.88 0.48,-8.09l0,-0.08l0.07,-0.03c2.69,-1.22 4.52,-2.43 5.71,-3.26c0.56,-0.41 1,-0.72 1.31,-0.95c0.29,-0.23 0.43,-0.33 0.44,-0.31c0,0.01 -0.14,0.14 -0.4,0.37c-0.27,0.23 -0.69,0.59 -1.28,1.02c-1.16,0.87 -2.98,2.13 -5.66,3.39l0.07,-0.1c-0.1,2.2 -0.23,4.86 -0.38,8.09l-0.01,0.15l-0.15,0.03c-3.72,0.65 -8.09,1.42 -13.21,2.32l-0.19,0.03l-0.07,-0.18c-0.96,-2.32 -1.99,-4.76 -3.13,-7.48l0.23,0.17c-2.77,-0.24 -5.65,-0.84 -8.6,-1.93l0.29,-0.05c-1.91,1.73 -3.89,3.51 -6.01,5.43l-0.19,0.17l-0.2,-0.15c-3.47,-2.44 -7.1,-5.01 -10.96,-7.73l-0.22,-0.15l0.1,-0.26c1,-2.42 2.02,-4.92 3.08,-7.49l0.06,0.37c-1.86,-2.21 -3.46,-4.72 -4.72,-7.47l0.31,0.21c-2.65,-0.14 -5.35,-0.27 -8.1,-0.42l-0.29,-0.01l-0.05,-0.3c-0.74,-4.29 -1.5,-8.7 -2.28,-13.21l-0.05,-0.31l0.28,-0.12c2.46,-1.03 4.96,-2.06 7.49,-3.1l-0.24,0.34c0.25,-2.92 0.9,-5.82 1.95,-8.63l0.07,0.41c-1.78,-1.98 -3.6,-3.99 -5.41,-6.02l-0.22,-0.24l0.19,-0.26c2.54,-3.6 5.12,-7.25 7.74,-10.95l0.19,-0.27l0.3,0.13c1.24,0.51 2.48,1.03 3.72,1.55l1.88,0.78l0.94,0.39l0.47,0.2l0.23,0.09l0.13,0.05l0.05,0.02l0.03,0.01l0.01,0.01l0.01,0c-0.84,0.13 -0.23,0.03 -0.42,0.06l0,0l0,0c2.34,-1.95 4.93,-3.55 7.49,-4.71l-0.24,0.36c0.15,-2.78 0.29,-5.54 0.43,-8.1l0.02,-0.33l0.33,-0.05c4.54,-0.78 9.03,-1.54 13.22,-2.27l0.31,-0.05l0.13,0.3c1.06,2.58 2.12,5.14 3.09,7.49l-0.34,-0.24c3.05,0.27 6.03,0.99 8.62,1.96l-0.4,0.07c2.09,-1.88 4.15,-3.72 6.03,-5.41l0.23,-0.2l0.25,0.17c3.79,2.7 7.49,5.33 10.93,7.76l0.24,0.17l-0.12,0.27c-1.08,2.6 -2.15,5.16 -3.12,7.48l-0.05,-0.37c1.98,2.38 3.56,4.98 4.69,7.49l-0.28,-0.2c2.82,0.16 5.58,0.3 8.09,0.44l0.26,0.02l0.04,0.25c0.79,4.64 1.53,9.05 2.23,13.22l0.03,0.23l-0.21,0.09c-2.63,1.08 -5.16,2.12 -7.5,3.07l0.17,-0.22c-0.29,3.1 -1.01,5.99 -1.97,8.58l-0.05,-0.24c1.94,2.17 3.76,4.21 5.39,6.04l0.12,0.13l-0.1,0.14c-3.18,4.44 -5.8,8.11 -7.8,10.9l-0.06,0.08l-0.09,-0.04c-2.39,-1.03 -4.24,-1.81 -5.52,-2.36c-0.61,-0.27 -1.08,-0.47 -1.43,-0.63c-0.33,-0.15 -0.48,-0.22 -0.48,-0.23l0.05,-0.03z"
                fill="#E0E0E0" id="svg_22" />
           </g>
          </g>
         </g>
        </g>
       </g>
      </g>
     </g>
        <g id="svg_23">
      <g id="svg_24">
       <g id="svg_25">
        <g id="svg_26">
         <g id="svg_27">
          <path clip-rule="evenodd"
              d="m397.06,122.82c-3.21,2.69 -6.73,4.89 -10.46,6.59l-0.61,11.44l-18.68,3.2l-4.38,-10.59c-4.07,-0.36 -8.13,-1.27 -12.05,-2.73l-8.52,7.66l-15.47,-10.95l4.38,-10.58c-2.69,-3.21 -4.88,-6.73 -6.58,-10.46l-11.44,-0.61l-3.2,-18.68l10.58,-4.37c0.37,-4.08 1.27,-8.13 2.74,-12.05l-7.66,-8.52l10.95,-15.48l10.57,4.39c3.22,-2.69 6.74,-4.89 10.46,-6.59l0.61,-11.44l18.69,-3.2l4.37,10.59c4.08,0.36 8.13,1.27 12.05,2.73l8.52,-7.66l15.47,10.95l-4.38,10.57c2.69,3.22 4.89,6.74 6.59,10.47l11.44,0.61l3.2,18.68l-10.59,4.37c-0.37,4.08 -1.27,8.13 -2.73,12.05l7.66,8.52l-10.95,15.48l-10.58,-4.39l0,0zm-13.8,-23.42c6.48,-9.17 4.31,-21.86 -4.86,-28.34c-9.17,-6.49 -21.86,-4.32 -28.34,4.85c-6.49,9.17 -4.32,21.86 4.85,28.34c9.17,6.49 21.86,4.32 28.35,-4.85z"
              fill="#E0E0E0" fill-rule="evenodd" id="svg_28" />
         </g>
        </g>
       </g>
      </g>
     </g>
    </g>
       <g id="svg_29">
     <g id="svg_30">
      <g id="svg_31">
       <g id="svg_32">
        <g id="svg_33">
         <g id="svg_34">
          <g id="svg_35">
           <g id="svg_36">
            <path clip-rule="evenodd"
                d="m162.42,119.38c2.71,2.89 4.97,6.09 6.78,9.51l10.82,-0.04l4.03,17.46l-9.75,4.7c-0.13,3.87 -0.76,7.74 -1.92,11.53l7.68,7.61l-9.5,15.2l-10.22,-3.58c-2.88,2.71 -6.09,4.97 -9.51,6.78l0.04,10.84l-17.45,4.02l-4.71,-9.74c-3.86,-0.13 -7.73,-0.77 -11.52,-1.93l-7.63,7.68l-15.19,-9.49l3.57,-10.23c-2.71,-2.88 -4.97,-6.09 -6.78,-9.51l-10.82,0.04l-4.03,-17.45l9.75,-4.71c0.13,-3.86 0.77,-7.73 1.93,-11.52l-7.69,-7.63l9.5,-15.19l10.22,3.57c2.88,-2.71 6.09,-4.97 9.51,-6.78l-0.04,-10.82l17.46,-4.03l4.7,9.75c3.86,0.13 7.74,0.77 11.52,1.93l7.63,-7.68l15.19,9.49l-3.57,10.22l0,0zm-21.37,14.3c-9,-5.63 -20.85,-2.89 -26.48,6.1c-5.62,9 -2.88,20.85 6.1,26.48c9,5.62 20.86,2.89 26.48,-6.1c5.63,-9 2.89,-20.86 -6.1,-26.48z"
                fill="#E0E0E0" fill-rule="evenodd" id="svg_37" />
           </g>
          </g>
         </g>
        </g>
       </g>
      </g>
         <g id="svg_38">
       <g id="svg_39">
        <g id="svg_40">
         <g id="svg_41">
          <g id="svg_42">
           <g id="svg_43">
            <path clip-rule="evenodd"
                d="m172.97,45.95c1.49,1.6 2.75,3.38 3.74,5.27l6,-0.02l2.22,9.67l-5.4,2.6c-0.06,2.14 -0.42,4.28 -1.06,6.38l4.25,4.22l-5.25,8.41l-5.65,-1.97c-1.6,1.5 -3.38,2.75 -5.28,3.74l0.03,6l-9.67,2.22l-2.6,-5.39c-2.14,-0.07 -4.28,-0.43 -6.38,-1.07l-4.23,4.25l-8.4,-5.25l1.97,-5.65c-1.5,-1.6 -2.75,-3.38 -3.76,-5.28l-5.99,0.03l-2.23,-9.67l5.4,-2.6c0.07,-2.14 0.42,-4.29 1.07,-6.38l-4.26,-4.23l5.27,-8.4l5.65,1.97c1.6,-1.5 3.38,-2.75 5.27,-3.76l-0.02,-5.99l9.67,-2.23l2.6,5.4c2.14,0.07 4.28,0.42 6.38,1.07l4.22,-4.25l8.41,5.25l-1.97,5.65l0,0l0,0.01zm-11.83,7.91c-4.98,-3.12 -11.55,-1.59 -14.66,3.39c-3.12,4.98 -1.59,11.55 3.39,14.66c4.98,3.12 11.54,1.59 14.65,-3.39c3.12,-4.98 1.6,-11.54 -3.38,-14.66z"
                fill="#E0E0E0" fill-rule="evenodd" id="svg_44" />
           </g>
          </g>
         </g>
        </g>
       </g>
      </g>
         <g id="svg_45">
       <g id="svg_46">
        <g id="svg_47">
         <g id="svg_48">
          <g id="svg_49">
           <g id="svg_50">
            <g id="svg_51">
             <path
                 d="m98.46,57.41c1.22,1.3 2.23,2.74 3.04,4.27l4.86,-0.02l1.8,7.84l-4.37,2.11c-0.05,1.73 -0.34,3.47 -0.86,5.17l3.44,3.42l-4.26,6.81l-4.58,-1.59c-1.3,1.22 -2.74,2.22 -4.27,3.04l0.02,4.86l-7.84,1.8l-2.11,-4.37c-1.73,-0.06 -3.47,-0.35 -5.17,-0.87l-3.42,3.45l-6.81,-4.26l1.59,-4.58c-1.21,-1.3 -2.22,-2.74 -3.03,-4.27l-4.87,0.01l-1.8,-7.82l4.38,-2.11c0.05,-1.73 0.34,-3.47 0.86,-5.17l-3.45,-3.42l4.27,-6.82l4.58,1.6c1.29,-1.22 2.73,-2.23 4.27,-3.04l-0.02,-4.86l7.82,-1.8l2.11,4.37c1.74,0.06 3.47,0.35 5.17,0.87l3.42,-3.45l6.82,4.26l-1.6,4.58l0,0l0.01,-0.01zm-9.58,6.41c-4.04,-2.52 -9.36,-1.29 -11.88,2.75c-2.53,4.03 -1.3,9.36 2.74,11.87c4.04,2.53 9.36,1.3 11.88,-2.74c2.52,-4.04 1.29,-9.36 -2.74,-11.88z"
                 fill="none" id="svg_52" />
            </g>
               <g id="svg_53">
             <g id="svg_54">
              <path
                  d="m88.88,63.82c0,-0.01 0.17,0.08 0.48,0.27c0.3,0.19 0.74,0.51 1.23,1.01c0.99,0.94 2.22,2.71 2.49,5.22c0.12,1.25 0.01,2.65 -0.53,4.04c-0.55,1.36 -1.45,2.74 -2.77,3.76c-0.65,0.52 -1.41,0.95 -2.21,1.27c-0.81,0.34 -1.69,0.55 -2.59,0.6c-1.81,0.17 -3.73,-0.3 -5.38,-1.31c-1.63,-1.04 -2.88,-2.56 -3.53,-4.26c-0.34,-0.84 -0.53,-1.72 -0.6,-2.59c-0.06,-0.87 -0.01,-1.73 0.18,-2.55c0.34,-1.64 1.17,-3.04 2.17,-4.13c1,-1.09 2.22,-1.81 3.39,-2.24c2.38,-0.86 4.51,-0.52 5.79,-0.06c0.65,0.23 1.13,0.47 1.44,0.67c0.31,0.2 0.46,0.3 0.46,0.31c-0.03,0.06 -0.67,-0.38 -1.96,-0.78c-1.28,-0.4 -3.34,-0.66 -5.59,0.22c-1.11,0.43 -2.26,1.13 -3.19,2.18c-0.92,1.05 -1.71,2.39 -2.01,3.93c-0.17,0.77 -0.22,1.58 -0.15,2.4c0.06,0.82 0.25,1.65 0.58,2.44c0.61,1.59 1.79,3.01 3.32,3.99c1.54,0.94 3.34,1.38 5.05,1.25c0.85,-0.05 1.68,-0.25 2.44,-0.56c0.77,-0.29 1.48,-0.69 2.09,-1.19c1.26,-0.94 2.13,-2.23 2.66,-3.52c0.52,-1.3 0.66,-2.64 0.57,-3.83c-0.2,-2.41 -1.34,-4.14 -2.24,-5.12c-0.93,-1 -1.6,-1.37 -1.56,-1.43l-0.03,0.01z"
                  fill="#E0E0E0" id="svg_55" />
             </g>
            </g>
               <g id="svg_56">
             <g id="svg_57">
              <path
                  d="m98.46,57.41c0,0 0.02,-0.09 0.08,-0.29c0.07,-0.21 0.17,-0.5 0.28,-0.87c0.27,-0.81 0.65,-1.95 1.15,-3.45l0.03,0.1c-1.75,-1.08 -4.05,-2.5 -6.84,-4.22l0.18,-0.02c-1.04,1.05 -2.18,2.21 -3.41,3.46l-0.06,0.07l-0.09,-0.03c-1.56,-0.47 -3.29,-0.79 -5.13,-0.84l-0.1,0l-0.05,-0.1c-0.66,-1.36 -1.37,-2.83 -2.12,-4.36l0.22,0.1c-2.46,0.58 -5.09,1.19 -7.82,1.83l0.16,-0.21c0.01,1.5 0.02,3.16 0.03,4.86l0,0.14l-0.12,0.06c-1.43,0.76 -2.89,1.77 -4.22,3.01l-0.1,0.09l-0.14,-0.04c-1.42,-0.49 -2.99,-1.04 -4.58,-1.59l0.28,-0.1c-1.33,2.14 -2.77,4.46 -4.25,6.82l-0.03,-0.31c1.07,1.07 2.24,2.23 3.44,3.42l0.12,0.12l-0.04,0.15c-0.48,1.55 -0.8,3.3 -0.85,5.1l-0.01,0.16l-0.15,0.07c-1.36,0.66 -2.86,1.38 -4.37,2.11l0.15,-0.29c0.58,2.48 1.19,5.13 1.81,7.82l-0.27,-0.21c1.54,-0.01 3.2,-0.01 4.87,-0.02l0.16,0l0.08,0.15c0.77,1.45 1.77,2.92 2.99,4.21l0,0l0,0c0.03,0.13 -0.05,-0.27 0.06,0.28l0,0l-0.01,0.01l0,0.02l-0.01,0.03l-0.03,0.07l-0.05,0.15l-0.09,0.28l-0.2,0.58l-0.41,1.15c-0.26,0.77 -0.53,1.52 -0.8,2.29l-0.12,-0.33c2.31,1.44 4.58,2.86 6.82,4.26l-0.34,0.04c1.15,-1.15 2.3,-2.31 3.42,-3.44l0.12,-0.12l0.16,0.04c1.67,0.52 3.39,0.81 5.1,0.86l0.16,0l0.07,0.15c0.71,1.48 1.42,2.94 2.11,4.37l-0.29,-0.14c2.67,-0.61 5.29,-1.22 7.82,-1.79l-0.19,0.24c-0.01,-1.65 -0.01,-3.26 -0.01,-4.86l0,-0.15l0.13,-0.07c1.56,-0.82 2.99,-1.84 4.23,-2.99l0.1,-0.1l0.13,0.05c1.57,0.56 3.09,1.09 4.58,1.6l-0.26,0.09c1.5,-2.39 2.93,-4.65 4.27,-6.8l0.03,0.25c-1.21,-1.21 -2.34,-2.34 -3.43,-3.43l-0.08,-0.08l0.03,-0.1c0.55,-1.77 0.81,-3.48 0.87,-5.12l0.01,-0.12l0.09,-0.04c1.59,-0.76 3.03,-1.45 4.38,-2.1l-0.09,0.19c-0.68,-3.04 -1.26,-5.62 -1.76,-7.85l0.12,0.09c-1.93,0 -3.52,-0.01 -4.86,-0.01l-0.05,0l-0.02,-0.05c-0.82,-1.56 -1.6,-2.61 -2.14,-3.29c-0.26,-0.33 -0.47,-0.58 -0.62,-0.76c-0.15,-0.17 -0.21,-0.25 -0.21,-0.25c0.01,0 0.09,0.07 0.24,0.22c0.15,0.16 0.37,0.4 0.65,0.73c0.57,0.66 1.38,1.71 2.22,3.27l-0.07,-0.05c1.33,-0.01 2.92,-0.03 4.86,-0.05l0.09,0l0.03,0.09c0.51,2.21 1.12,4.79 1.84,7.82l0.03,0.13l-0.12,0.06c-1.35,0.65 -2.78,1.35 -4.36,2.12l0.09,-0.16c-0.04,1.67 -0.3,3.42 -0.85,5.22l-0.05,-0.2c1.1,1.09 2.24,2.21 3.46,3.42l0.12,0.12l-0.09,0.14c-1.34,2.16 -2.75,4.43 -4.25,6.83l-0.09,0.16l-0.17,-0.06c-1.49,-0.51 -3.01,-1.05 -4.58,-1.59l0.23,-0.05c-1.26,1.19 -2.71,2.23 -4.31,3.08l0.13,-0.22c0.01,1.59 0.02,3.21 0.03,4.87l0,0.2l-0.2,0.04c-2.55,0.59 -5.15,1.2 -7.82,1.81l-0.2,0.04l-0.09,-0.19c-0.69,-1.44 -1.4,-2.88 -2.12,-4.36l0.23,0.15c-1.75,-0.06 -3.51,-0.35 -5.23,-0.88l0.27,-0.06c-1.13,1.14 -2.28,2.29 -3.42,3.45l-0.16,0.15l-0.18,-0.1c-2.24,-1.41 -4.51,-2.82 -6.82,-4.27l-0.19,-0.12l0.07,-0.2c0.26,-0.76 0.53,-1.52 0.8,-2.29l0.4,-1.15l0.21,-0.58l0.09,-0.28l0.05,-0.15l0.02,-0.07l0.02,-0.03l0,-0.02l0.01,-0.01l0,0c0.12,0.55 0.03,0.15 0.05,0.27l0,0l0,0c-1.25,-1.33 -2.3,-2.83 -3.07,-4.32l0.24,0.15c-1.67,0 -3.32,0.01 -4.87,0.01l-0.21,0l-0.05,-0.21c-0.62,-2.7 -1.23,-5.35 -1.8,-7.82l-0.04,-0.21l0.19,-0.09c1.51,-0.72 3.01,-1.45 4.38,-2.11l-0.16,0.23c0.06,-1.85 0.39,-3.65 0.88,-5.23l0.06,0.26c-1.19,-1.19 -2.36,-2.36 -3.44,-3.43l-0.15,-0.14l0.12,-0.18c1.48,-2.36 2.93,-4.67 4.27,-6.81l0.1,-0.17l0.18,0.06c1.59,0.57 3.17,1.11 4.58,1.62l-0.24,0.05c1.35,-1.27 2.86,-2.31 4.32,-3.07l-0.12,0.2c0,-1.7 -0.01,-3.35 -0.01,-4.86l0,-0.17l0.17,-0.04c2.75,-0.63 5.37,-1.23 7.84,-1.78l0.15,-0.03l0.07,0.14c0.73,1.53 1.44,3.01 2.1,4.38l-0.16,-0.1c1.87,0.06 3.63,0.4 5.21,0.89l-0.17,0.04c1.24,-1.24 2.39,-2.39 3.44,-3.43l0.07,-0.08l0.09,0.06c2.76,1.75 5.05,3.2 6.79,4.3l0.06,0.04l-0.02,0.06c-0.53,1.47 -0.94,2.59 -1.24,3.39c-0.14,0.37 -0.24,0.65 -0.33,0.87c-0.07,0.19 -0.12,0.29 -0.13,0.29l0.01,-0.01z"
                  fill="#E0E0E0" id="svg_58" />
             </g>
            </g>
           </g>
          </g>
         </g>
        </g>
       </g>
      </g>
     </g>
    </g>
   </g>
         <g id="Device">
    <g id="svg_61">
     <g id="svg_62">
      <g id="svg_63">
       <g id="svg_64">
        <g id="svg_65">
         <g id="svg_66">
          <g id="svg_67">
           <g id="svg_68">
            <path
                d="m337.75,417.75l-139.37,-0.64c-16.75,-0.08 -30.28,-13.73 -30.21,-30.49l1.47,-349.37c0.07,-16.77 13.73,-30.31 30.5,-30.23l139.36,0.64c16.76,0.07 30.29,13.72 30.22,30.48l-1.48,349.38c-0.07,16.77 -13.73,30.31 -30.49,30.23z"
                fill="#455A64" id="svg_69" />
           </g>
          </g>
             <g id="svg_70">
           <g id="svg_71">
            <path
                d="m339.3,19.71l-27.02,-0.12c-3.62,-0.02 -6.58,3.03 -6.59,6.83l-0.02,4.9c-0.02,3.79 -2.97,6.84 -6.59,6.83l-52.66,-0.24c-3.63,-0.02 -6.56,-3.1 -6.53,-6.89l0.02,-4.9c0.01,-3.79 -2.92,-6.88 -6.53,-6.89l-9.5,-0.04l-23.65,-0.12c-11.74,-0.05 -21.3,9.43 -21.36,21.18l-1.44,341.02c-0.05,11.74 9.42,21.29 21.16,21.35l139.08,0.64c11.75,0.06 21.3,-9.42 21.36,-21.17l1.45,-341.02c0.05,-11.74 -9.43,-21.29 -21.17,-21.36l-0.01,0z"
                fill="#FAFAFA" id="svg_72" />
           </g>
          </g>
         </g>
        </g>
       </g>
      </g>
         <g id="svg_73">
       <path
           d="m298.64,185.78l-54.58,0c-5.65,0 -10.24,-4.59 -10.24,-10.25l0,-54.58c0,-5.65 4.58,-10.24 10.24,-10.24l54.58,0c5.65,0 10.24,4.58 10.24,10.24l0,54.58c0,5.65 -4.58,10.25 -10.24,10.25z"
           fill="#55AE7B" id="svg_74" />
      </g>
         <g id="svg_75">
       <polygon fill="#55AE7B" id="svg_76"
           points="214.0050811767578,138.01734924316406 215.81546020507812,141.6842803955078 219.8621063232422,142.27272033691406 216.93359375,145.1267547607422 217.62481689453125,149.15765380859375 214.0050811767578,147.25497436523438 210.38534545898438,149.15765380859375 211.07656860351562,145.1267547607422 208.14910888671875,142.27272033691406 212.1957244873047,141.6842803955078 " />
      </g>
         <g id="svg_77">
       <polygon fill="#55AE7B" id="svg_78"
           points="330.95472717285156,101.67105865478516 332.35398864746094,104.5062026977539 335.4838409423828,104.96142578125 333.2192840576172,107.16830444335938 333.75318908691406,110.28562927246094 330.95472717285156,108.81403350830078 328.1552276611328,110.28562927246094 328.69017028808594,107.16830444335938 326.4256134033203,104.96142578125 329.5554962158203,104.5062026977539 " />
      </g>
         <g id="svg_79">
       <polygon fill="#55AE7B" id="svg_80"
           points="328.20350646972656,169.6950225830078 329.4170379638672,171.34072875976562 331.46031188964844,171.27359008789062 330.2698211669922,172.93714904785156 330.96522521972656,174.85977172851562 329.01637268066406,174.24195861816406 327.4021453857422,175.49644470214844 327.38743591308594,173.4521484375 325.6945037841797,172.30465698242188 327.6349639892578,171.6595916748047 " />
      </g>
         <g id="svg_81">
       <path
           d="m212.62,113.67c-1.06,0 -1.92,-0.86 -1.92,-1.91c0,-1.06 0.86,-1.92 1.92,-1.92c1.05,0 1.91,0.86 1.91,1.92c0,1.06 -0.86,1.91 -1.91,1.91zm0,-2.78c-0.48,0 -0.87,0.39 -0.87,0.87c0,0.47 0.39,0.86 0.87,0.86c0.47,0 0.86,-0.39 0.86,-0.86c0,-0.48 -0.39,-0.87 -0.86,-0.87z"
           fill="#55AE7B" id="svg_82" />
      </g>
         <g id="svg_83">
       <path
           d="m320.84,140.14c-1.06,0 -1.92,-0.86 -1.92,-1.91c0,-1.06 0.86,-1.92 1.92,-1.92c1.06,0 1.91,0.86 1.91,1.92c0,1.05 -0.85,1.91 -1.91,1.91zm0,-2.78c-0.48,0 -0.87,0.39 -0.87,0.87c0,0.47 0.39,0.86 0.87,0.86c0.47,0 0.86,-0.39 0.86,-0.86c0,-0.48 -0.39,-0.87 -0.86,-0.87z"
           fill="#55AE7B" id="svg_84" />
      </g>
         <g id="svg_85">
       <path
           d="m295.86,99.73c-1.06,0 -1.91,-0.86 -1.91,-1.91c0,-1.06 0.85,-1.92 1.91,-1.92c1.06,0 1.92,0.86 1.92,1.92c0,1.05 -0.86,1.91 -1.92,1.91zm0,-2.78c-0.47,0 -0.86,0.39 -0.86,0.87c0,0.47 0.39,0.86 0.86,0.86c0.48,0 0.87,-0.39 0.87,-0.86c0,-0.48 -0.39,-0.87 -0.87,-0.87z"
           fill="#55AE7B" id="svg_86" />
      </g>
         <g id="svg_87">
       <circle cx="202.2" cy="173.99" fill="#55AE7B" id="svg_88" r="1.39" />
      </g>
         <g id="svg_89">
       <path
           d="m267.69,193.83c0,0.77 -0.62,1.38 -1.4,1.38c-0.77,0 -1.38,-0.62 -1.38,-1.38s0.62,-1.4 1.38,-1.4c0.77,0 1.4,0.63 1.4,1.4z"
           fill="#55AE7B" id="svg_90" />
      </g>
         <g id="svg_91">
       <circle cx="252.82" cy="83.71" fill="#55AE7B" id="svg_92" r="1.39" />
      </g>
         <g id="svg_93">
       <path
           d="m238.35,299.34l0,-5.88l1.09,0l0,5.84c0,2.43 1.14,3.56 3.15,3.56c2.01,0 3.16,-1.11 3.16,-3.56l0,-5.84l1.06,0l0,5.88c0,2.96 -1.58,4.48 -4.22,4.48c-2.63,0 -4.24,-1.52 -4.24,-4.48z"
           fill="#263238" id="svg_94" />
             <path
                 d="m258.12,296.98c0,2.18 -1.58,3.5 -4.2,3.5l-2.77,0l0,3.25l-1.08,0l0,-10.28l3.85,0c2.61,0 4.2,1.32 4.2,3.52l0,0.01zm-1.08,0c0,-1.65 -1.09,-2.59 -3.15,-2.59l-2.74,0l0,5.14l2.74,0c2.06,0 3.15,-0.93 3.15,-2.55z"
                 fill="#263238" id="svg_95" />
             <path
                 d="m260.47,293.45l4.19,0c3.29,0 5.51,2.11 5.51,5.14c0,3.02 -2.21,5.14 -5.51,5.14l-4.19,0l0,-10.28zm4.13,9.34c2.73,0 4.49,-1.73 4.49,-4.2c0,-2.48 -1.76,-4.21 -4.49,-4.21l-3.04,0l0,8.4l3.04,0l0,0.01z"
                 fill="#263238" id="svg_96" />
             <path
                 d="m278.9,300.98l-5.73,0l-1.24,2.75l-1.13,0l4.71,-10.29l1.07,0l4.7,10.29l-1.14,0l-1.24,-2.75zm-0.4,-0.88l-2.46,-5.53l-2.46,5.53l4.93,0l-0.01,0z"
                 fill="#263238" id="svg_97" />
             <path d="m284.47,294.39l-3.62,0l0,-0.94l8.32,0l0,0.94l-3.62,0l0,9.35l-1.08,0l0,-9.35z"
                 fill="#263238" id="svg_98" />
             <path
                 d="m298.17,302.79l0,0.94l-7.27,0l0,-10.29l7.05,0l0,0.94l-5.97,0l0,3.66l5.32,0l0,0.92l-5.32,0l0,3.82l6.19,0l0,0.01z"
                 fill="#263238" id="svg_99" />
      </g>
         <g id="svg_100">
       <g id="svg_101">
        <g id="svg_102">
         <g id="svg_103">
          <g id="svg_104">
           <g id="svg_105">
            <path
                d="m281.51,135.1c1.14,0.86 2.16,1.86 3.02,2.96l3.86,-0.7l2.55,5.97l-3.18,2.3c0.2,1.4 0.22,2.81 0.04,4.24l3.23,2.22l-2.42,6.03l-3.87,-0.63c-0.86,1.15 -1.86,2.17 -2.97,3.03l0.71,3.86l-5.98,2.55l-2.3,-3.19c-1.38,0.21 -2.81,0.23 -4.23,0.05l-2.23,3.22l-6.02,-2.41l0.62,-3.87c-1.15,-0.86 -2.16,-1.86 -3.02,-2.97l-3.86,0.7l-2.55,-5.97l3.18,-2.3c-0.2,-1.38 -0.22,-2.81 -0.04,-4.24l-3.23,-2.22l2.42,-6.03l3.87,0.63c0.86,-1.15 1.86,-2.16 2.96,-3.03l-0.7,-3.86l5.97,-2.54l2.31,3.18c1.38,-0.21 2.8,-0.22 4.23,-0.05l2.23,-3.22l6.02,2.41l-0.62,3.88l0,0zm-6.71,6.46c-3.57,-1.44 -7.63,0.29 -9.06,3.86c-1.43,3.57 0.3,7.63 3.87,9.06c3.57,1.43 7.63,-0.3 9.05,-3.87c1.44,-3.57 -0.29,-7.63 -3.86,-9.05z"
                fill="#FAFAFA" id="svg_106" />
           </g>
          </g>
         </g>
        </g>
       </g>
             <g id="svg_107">
        <g id="svg_108">
         <g id="svg_109">
          <g id="svg_110">
           <g id="svg_111">
            <g id="svg_112">
             <path
                 d="m274.8,141.56c0,0 0.61,0.14 1.54,0.77c0.91,0.62 2.14,1.85 2.71,3.81c0.27,0.96 0.38,2.11 0.15,3.27c-0.24,1.16 -0.76,2.38 -1.67,3.38c-0.44,0.5 -0.98,0.95 -1.57,1.32c-0.6,0.38 -1.26,0.66 -1.97,0.84c-1.42,0.39 -3,0.28 -4.45,-0.28c-1.44,-0.59 -2.65,-1.62 -3.41,-2.87c-0.39,-0.62 -0.67,-1.29 -0.84,-1.97c-0.18,-0.68 -0.25,-1.37 -0.22,-2.05c0.03,-1.34 0.5,-2.58 1.13,-3.59c0.64,-1.01 1.5,-1.75 2.37,-2.26c1.76,-1.03 3.5,-1.06 4.58,-0.88c1.1,0.19 1.65,0.51 1.65,0.51c-0.01,0.04 -0.58,-0.22 -1.67,-0.36c-1.07,-0.14 -2.75,-0.05 -4.43,0.96c-0.82,0.5 -1.64,1.23 -2.23,2.19c-0.59,0.96 -1.02,2.15 -1.04,3.43c-0.03,0.63 0.05,1.29 0.22,1.93c0.17,0.65 0.43,1.28 0.81,1.87c0.71,1.19 1.87,2.15 3.22,2.71c1.36,0.53 2.86,0.63 4.21,0.27c0.67,-0.17 1.3,-0.44 1.87,-0.79c0.57,-0.35 1.08,-0.77 1.5,-1.25c0.87,-0.93 1.37,-2.09 1.62,-3.19c0.24,-1.11 0.15,-2.2 -0.09,-3.14c-0.51,-1.89 -1.67,-3.1 -2.53,-3.76c-0.88,-0.65 -1.47,-0.85 -1.45,-0.89l-0.01,0.02z"
                 fill="#FAFAFA" id="svg_113" />
            </g>
           </g>
          </g>
         </g>
        </g>
       </g>
             <g id="svg_114">
        <g id="svg_115">
         <g id="svg_116">
          <g id="svg_117">
           <g id="svg_118">
            <g id="svg_119">
             <path
                 d="m281.51,135.1c-0.01,0 0,-0.08 0.02,-0.25c0.03,-0.18 0.06,-0.42 0.1,-0.73c0.09,-0.67 0.24,-1.64 0.43,-2.89l0.04,0.06c-1.55,-0.61 -3.59,-1.42 -6.04,-2.38l0.13,-0.04c-0.67,0.99 -1.43,2.08 -2.22,3.24l-0.04,0.05l-0.06,0c-1.31,-0.16 -2.74,-0.16 -4.21,0.05l-0.07,0.01l-0.05,-0.06c-0.71,-0.99 -1.5,-2.06 -2.31,-3.17l0.18,0.04c-1.89,0.81 -3.88,1.67 -5.97,2.56l0.09,-0.17c0.22,1.2 0.46,2.51 0.71,3.86l0.01,0.09l-0.07,0.06c-1.03,0.81 -2.06,1.81 -2.93,3l-0.06,0.08l-0.1,-0.02c-1.2,-0.19 -2.52,-0.4 -3.87,-0.62l0.19,-0.1c-0.76,1.89 -1.57,3.93 -2.41,6.03l-0.06,-0.23c1.01,0.7 2.11,1.46 3.23,2.23l0.09,0.06l-0.02,0.12c-0.16,1.3 -0.16,2.75 0.05,4.17l0.02,0.12l-0.09,0.07c-1,0.72 -2.09,1.51 -3.18,2.3l0.06,-0.23c0.81,1.89 1.67,3.91 2.55,5.97l-0.22,-0.12c1.22,-0.22 2.54,-0.46 3.86,-0.7l0.12,-0.02l0.08,0.09c0.81,1.05 1.83,2.07 2.98,2.92l0,0l0,0c0.03,0.09 -0.07,-0.19 0.07,0.2l0,0l0,0.01l0,0.01l0,0.03l-0.01,0.06l-0.02,0.13l-0.04,0.24l-0.07,0.48l-0.16,0.98c-0.1,0.65 -0.21,1.29 -0.31,1.93l-0.12,-0.22c2.03,0.82 4.04,1.63 6.02,2.42l-0.24,0.07c0.76,-1.08 1.5,-2.16 2.23,-3.22l0.06,-0.1l0.13,0.02c1.41,0.17 2.81,0.15 4.17,-0.04l0.12,-0.02l0.07,0.09c0.78,1.08 1.54,2.14 2.3,3.18l-0.23,-0.06c2.03,-0.86 4.03,-1.71 5.97,-2.54l-0.1,0.2c-0.24,-1.31 -0.47,-2.59 -0.7,-3.86l-0.01,-0.1l0.08,-0.06c1.12,-0.88 2.11,-1.89 2.93,-2.99l0.06,-0.08l0.1,0.02c1.33,0.21 2.61,0.42 3.87,0.63l-0.18,0.09c0.86,-2.12 1.67,-4.11 2.43,-6.01l0.05,0.18c-1.13,-0.79 -2.19,-1.52 -3.22,-2.23l-0.07,-0.05l0.01,-0.08c0.19,-1.49 0.16,-2.88 -0.03,-4.2l-0.01,-0.08l0.06,-0.04c1.15,-0.84 2.2,-1.58 3.19,-2.29l-0.04,0.14c-0.98,-2.32 -1.8,-4.29 -2.52,-5.98l0.09,0.05c-1.54,0.27 -2.81,0.49 -3.86,0.68l-0.04,0l-0.02,-0.03c-0.87,-1.12 -1.66,-1.85 -2.17,-2.32c-0.26,-0.22 -0.46,-0.39 -0.61,-0.5c-0.14,-0.13 -0.2,-0.18 -0.19,-0.18c0,-0.01 0.07,0.04 0.22,0.14c0.14,0.1 0.35,0.26 0.62,0.49c0.53,0.45 1.34,1.16 2.23,2.29l-0.06,-0.02c1.05,-0.2 2.32,-0.44 3.86,-0.73l0.06,-0.01l0.03,0.06c0.72,1.69 1.57,3.65 2.57,5.96l0.04,0.09l-0.07,0.05c-0.99,0.71 -2.02,1.47 -3.18,2.31l0.05,-0.13c0.2,1.33 0.24,2.76 0.06,4.27l-0.06,-0.14c1.03,0.71 2.1,1.45 3.23,2.22l0.1,0.07l-0.04,0.12c-0.77,1.9 -1.56,3.9 -2.41,6.02l-0.05,0.13l-0.13,-0.02c-1.26,-0.2 -2.55,-0.4 -3.87,-0.61l0.16,-0.07c-0.83,1.12 -1.84,2.16 -2.99,3.06l0.07,-0.18c0.23,1.27 0.46,2.56 0.7,3.86l0.03,0.15l-0.14,0.06c-1.94,0.83 -3.93,1.68 -5.97,2.55l-0.14,0.06l-0.09,-0.13c-0.76,-1.05 -1.52,-2.1 -2.3,-3.18l0.18,0.08c-1.4,0.2 -2.84,0.22 -4.28,0.04l0.19,-0.08c-0.74,1.07 -1.48,2.14 -2.23,3.23l-0.08,0.13l-0.15,-0.05c-1.98,-0.8 -4,-1.6 -6.03,-2.42l-0.15,-0.05l0.02,-0.16c0.1,-0.65 0.21,-1.29 0.31,-1.94l0.16,-0.96l0.07,-0.49l0.04,-0.24l0.02,-0.12l0.01,-0.06l0,-0.03l0.01,-0.01l0,-0.01l0,-0.01c0.16,0.39 0.04,0.12 0.07,0.2l0,0l0,-0.01c-1.19,-0.87 -2.22,-1.92 -3.06,-2.99l0.2,0.07c-1.33,0.24 -2.64,0.48 -3.86,0.7l-0.16,0.03l-0.06,-0.15c-0.88,-2.06 -1.74,-4.08 -2.55,-5.98l-0.06,-0.14l0.13,-0.09c1.1,-0.8 2.19,-1.57 3.19,-2.3l-0.08,0.19c-0.21,-1.48 -0.21,-2.96 -0.04,-4.29l0.08,0.18c-1.12,-0.77 -2.22,-1.53 -3.23,-2.23l-0.12,-0.08l0.05,-0.14c0.84,-2.09 1.67,-4.12 2.42,-6.02l0.06,-0.13l0.14,0.02c1.34,0.22 2.67,0.43 3.87,0.63l-0.17,0.06c0.9,-1.2 1.95,-2.23 3,-3.05l-0.06,0.17c-0.24,-1.35 -0.48,-2.67 -0.69,-3.87l-0.02,-0.12l0.12,-0.05c2.1,-0.89 4.09,-1.74 5.97,-2.54l0.1,-0.04l0.07,0.09c0.8,1.11 1.57,2.19 2.29,3.19l-0.13,-0.06c1.5,-0.21 2.94,-0.2 4.27,-0.03l-0.12,0.05c0.81,-1.15 1.56,-2.24 2.24,-3.22l0.05,-0.06l0.07,0.03c2.44,1 4.47,1.83 6.01,2.45l0.04,0.02l-0.01,0.05c-0.21,1.24 -0.38,2.2 -0.49,2.86c-0.05,0.31 -0.09,0.56 -0.14,0.74c-0.03,0.16 -0.05,0.25 -0.05,0.25l0.04,0.01z"
                 fill="#FAFAFA" id="svg_120" />
            </g>
           </g>
          </g>
         </g>
        </g>
       </g>
      </g>
         <g id="svg_121">
       <g id="svg_122">
        <rect fill="#263238" height="55.45" id="svg_123" width="76.65" x="244.36" y="209.96" />
       </g>
             <g id="svg_124">
        <rect fill="#455A64" height="55.45" id="svg_125" width="66.82" x="219.18" y="209.96" />
       </g>
             <g id="svg_126">
        <polygon fill="#455A64" id="svg_127"
            points="219.1792755126953,209.95578002929688 207.3173370361328,198.0938262939453 237.37759399414062,198.0938262939453 248.54307556152344,209.95578002929688 " />
       </g>
             <g id="svg_128">
        <polygon fill="#455A64" id="svg_129"
            points="285.99913024902344,209.95578002929688 299.6452178955078,198.0938262939453 337.08238220214844,198.0938262939453 321.0091094970703,209.95578002929688 " />
       </g>
             <g id="svg_130">
        <g id="svg_131">
         <path
             d="m286,209.96c0,0.15 -14.96,0.27 -33.41,0.27c-18.45,0 -33.41,-0.13 -33.41,-0.27c0,-0.16 14.96,-0.27 33.41,-0.27c18.45,-0.01 33.41,0.12 33.41,0.27z"
             fill="#263238" id="svg_132" />
        </g>
       </g>
      </g>
         <g id="svg_133">
       <g id="svg_134">
        <g id="svg_135">
         <path
             d="m333.04,335.32l-123.39,0c-2.94,0 -5.33,-2.39 -5.33,-5.33l0,-0.26c0,-2.94 2.39,-5.33 5.33,-5.33l123.39,0c2.94,0 5.33,2.39 5.33,5.33l0,0.26c0,2.94 -2.38,5.33 -5.33,5.33z"
             fill="#E0E0E0" id="svg_136" />
        </g>
           <g id="svg_137">
         <path
             d="m270.12,335.32l-60.47,0c-2.94,0 -5.33,-2.39 -5.33,-5.33l0,-0.26c0,-2.94 2.39,-5.33 5.33,-5.33l60.47,0c2.94,0 5.33,2.39 5.33,5.33l0,0.26c0,2.94 -2.39,5.33 -5.33,5.33z"
             fill="#55AE7B" id="svg_138" />
        </g>
       </g>
      </g>
     </g>
        <g id="svg_139">
      <path
          d="m262.48,362.12c0,2.23 -1.55,3.98 -4.76,3.98c-1.9,0 -3.7,-0.65 -4.72,-1.69l0.66,-1.07c0.84,0.88 2.35,1.52 4.04,1.52c2.23,0 3.42,-1.09 3.42,-2.69c0,-1.69 -1.06,-2.74 -4.39,-2.74l-2.8,0l0.67,-6.59l7.2,0l0,1.2l-6.01,0l-0.45,4.19l1.69,0c3.96,0 5.46,1.56 5.46,3.89l-0.01,0z"
          fill="#55AE7B" id="svg_140" />
            <path
                d="m273.01,362.12c0,2.23 -1.55,3.98 -4.77,3.98c-1.89,0 -3.69,-0.65 -4.71,-1.69l0.66,-1.07c0.84,0.88 2.35,1.52 4.04,1.52c2.23,0 3.41,-1.09 3.41,-2.69c0,-1.69 -1.05,-2.74 -4.38,-2.74l-2.8,0l0.67,-6.59l7.2,0l0,1.2l-6.01,0l-0.45,4.19l1.69,0c3.96,0 5.46,1.56 5.46,3.89l-0.01,0z"
                fill="#55AE7B" id="svg_141" />
            <path
                d="m274.34,356.32c0,-2.14 1.21,-3.57 2.97,-3.57c1.74,0 2.97,1.41 2.97,3.57s-1.23,3.57 -2.97,3.57c-1.76,0 -2.97,-1.43 -2.97,-3.57zm4.99,0c0,-1.71 -0.81,-2.73 -2.02,-2.73c-1.24,0 -2.03,1.04 -2.03,2.73s0.8,2.73 2.03,2.73c1.22,-0.01 2.02,-1.02 2.02,-2.73zm5.94,-3.47l1.1,0l-8.97,13.14l-1.11,0l8.98,-13.14zm-2.87,9.66c0,-2.14 1.22,-3.57 2.97,-3.57c1.76,0 2.96,1.44 2.96,3.57c0,2.15 -1.2,3.58 -2.96,3.58c-1.75,0 -2.97,-1.43 -2.97,-3.58zm4.99,0c0,-1.69 -0.79,-2.72 -2.02,-2.72c-1.23,0 -2.03,1.02 -2.03,2.72c0,1.71 0.81,2.73 2.03,2.73c1.24,0 2.02,-1.03 2.02,-2.73z"
                fill="#55AE7B" id="svg_142" />
     </g>
    </g>
   </g>
         <g id="Floor">
    <g id="svg_143">
     <g id="svg_144">
      <path
          d="m496.7,417.44c0,0.15 -110.46,0.27 -246.69,0.27c-136.27,0 -246.71,-0.13 -246.71,-0.27c0,-0.15 110.44,-0.27 246.71,-0.27c136.23,0 246.69,0.13 246.69,0.27z"
          fill="#263238" id="svg_145" />
     </g>
    </g>
   </g>
         <g id="Character">
    <g id="svg_146">
     <g id="svg_147">
      <path
          d="m195.84,405.46l3.02,11.54l33.76,-0.3c0,0 -4.62,-3.49 -21.59,-3.24l-1.65,-7.99l-13.55,0l0.01,-0.01z"
          fill="#FFBE9D" id="svg_148" />
     </g>
        <g id="svg_149">
      <g id="svg_150">
       <path
           d="m159.03,275.13l-25.33,2.39l-10.29,2.91c-4.39,1.25 -8.42,3.56 -11.72,6.72l-33.16,31.81l-6.05,-49.43l-16.56,1.45l2.76,63.64c2.48,7.74 9.66,13.16 18.06,13.18c4.97,0.01 9.71,-2.09 13.33,-5.49l23.61,-22.19l-2.35,29.29l-8.11,18.2l57.95,32.73c0,0 6.81,-33.69 10.46,-57c2.96,-18.86 4.46,-59.92 4.46,-59.92l-17.07,-8.28l0.01,-0.01z"
           fill="#55AE7B" id="svg_151" />
      </g>
            <g id="svg_152">
       <path
           d="m174.58,282.82c0,0 12.82,4.75 15.92,14.79c2.75,8.89 11.9,58.94 11.9,58.94l9.1,52.97l-19.05,0.72l-21.93,-90.27l4.05,-37.15l0.01,0z"
           fill="#55AE7B" id="svg_153" />
      </g>
            <g id="svg_154">
       <g id="svg_155">
        <path
            d="m110.86,348.1c-0.16,-0.01 0.69,-10.15 1.89,-22.65c1.21,-12.49 2.3,-22.61 2.44,-22.59c0.15,0.01 -0.7,10.15 -1.9,22.65c-1.2,12.49 -2.29,22.61 -2.43,22.59z"
            fill="#263238" id="svg_156" />
       </g>
      </g>
            <g id="svg_157">
       <g id="svg_158">
        <path
            d="m153.04,323.21c0.02,0 -0.04,0.17 -0.17,0.49c-0.16,0.37 -0.35,0.83 -0.58,1.37c-0.25,0.61 -0.58,1.33 -1.02,2.14c-0.44,0.82 -0.89,1.77 -1.53,2.75c-0.3,0.49 -0.63,1.01 -0.95,1.55c-0.34,0.53 -0.74,1.06 -1.13,1.63c-0.77,1.13 -1.71,2.26 -2.69,3.45c-2.01,2.33 -4.43,4.72 -7.2,6.95c-2.8,2.2 -5.69,4 -8.41,5.43c-1.38,0.68 -2.69,1.35 -3.96,1.84c-0.64,0.25 -1.24,0.52 -1.84,0.73c-0.61,0.2 -1.19,0.4 -1.74,0.58c-1.09,0.41 -2.12,0.63 -3.01,0.87c-0.89,0.25 -1.68,0.4 -2.32,0.51c-0.59,0.09 -1.07,0.18 -1.47,0.25c-0.35,0.04 -0.52,0.06 -0.52,0.04c0,-0.01 0.17,-0.07 0.5,-0.16c0.39,-0.09 0.87,-0.21 1.45,-0.35c0.63,-0.14 1.41,-0.33 2.28,-0.6c0.88,-0.27 1.9,-0.51 2.98,-0.93c0.55,-0.2 1.11,-0.4 1.7,-0.61c0.6,-0.22 1.19,-0.5 1.81,-0.77c1.27,-0.49 2.55,-1.17 3.91,-1.86c2.69,-1.45 5.53,-3.24 8.31,-5.42c2.74,-2.2 5.13,-4.56 7.15,-6.85c0.98,-1.17 1.92,-2.28 2.7,-3.39c0.4,-0.56 0.81,-1.07 1.15,-1.59c0.34,-0.53 0.66,-1.04 0.98,-1.52c0.65,-0.96 1.12,-1.9 1.58,-2.69c0.47,-0.8 0.82,-1.5 1.1,-2.09c0.26,-0.53 0.48,-0.98 0.67,-1.33c0.16,-0.3 0.24,-0.46 0.26,-0.45l0.01,0.03z"
            fill="#263238" id="svg_159" />
       </g>
      </g>
            <g id="svg_160" opacity="0.2">
       <g id="svg_161">
        <path
            d="m117.59,353.24c-1.85,-0.52 -2.81,-2.8 -2.34,-4.66c0.47,-1.87 2.05,-3.28 3.78,-4.11c1.73,-0.84 3.65,-1.19 5.52,-1.64c8.1,-1.98 15.64,-6.21 21.54,-12.08c0.55,-0.55 1.33,-1.15 2.01,-0.79c0.9,0.5 0.34,1.89 -0.34,2.69c-8.14,9.48 -18.9,16.71 -30.76,20.63"
            id="svg_162" />
       </g>
      </g>
            <g id="svg_163">
       <g id="svg_164">
        <path
            d="m175.44,341.31c-0.03,0.01 -0.17,-0.37 -0.39,-1.07c-0.21,-0.7 -0.5,-1.73 -0.84,-3c-0.69,-2.53 -1.57,-6.05 -2.45,-9.95c-0.87,-3.91 -1.58,-7.47 -2.06,-10.06c-0.23,-1.29 -0.41,-2.34 -0.51,-3.06c-0.1,-0.72 -0.15,-1.13 -0.1,-1.14c0.03,0 0.15,0.39 0.31,1.1c0.19,0.84 0.42,1.85 0.68,3.03c0.6,2.7 1.36,6.17 2.21,10.01c0.88,3.84 1.68,7.3 2.29,9.99c0.26,1.2 0.49,2.2 0.68,3.03c0.15,0.72 0.22,1.12 0.18,1.13l0,-0.01z"
            fill="#263238" id="svg_165" />
       </g>
      </g>
            <g id="svg_166">
       <g id="svg_167">
        <path
            d="m58.85,275.73c-0.15,0.01 -0.37,-1.11 -0.48,-2.5c-0.12,-1.4 -0.09,-2.54 0.06,-2.55c0.15,-0.01 0.37,1.1 0.48,2.5c0.12,1.4 0.09,2.53 -0.06,2.55z"
            fill="#263238" id="svg_168" />
       </g>
      </g>
            <g id="svg_169">
       <g id="svg_170">
        <path
            d="m63.7,275.87c-0.15,0.01 -0.33,-1.17 -0.41,-2.65c-0.07,-1.48 -0.01,-2.69 0.14,-2.69s0.34,1.17 0.41,2.65c0.08,1.48 0.02,2.69 -0.14,2.69z"
            fill="#263238" id="svg_171" />
       </g>
      </g>
            <g id="svg_172">
       <g id="svg_173">
        <path
            d="m68.52,275.57c-0.16,0.01 -0.35,-1.32 -0.44,-2.96c-0.09,-1.65 -0.04,-2.99 0.1,-3c0.15,0 0.35,1.32 0.44,2.97c0.09,1.64 0.04,2.98 -0.1,2.99z"
            fill="#263238" id="svg_174" />
       </g>
      </g>
            <g id="svg_175">
       <g id="svg_176">
        <path
            d="m77.83,326.57c-0.16,-0.02 -0.07,-1.98 0.18,-4.38c0.24,-2.4 0.57,-4.34 0.71,-4.32c0.16,0.01 0.07,1.97 -0.18,4.37c-0.24,2.4 -0.57,4.34 -0.71,4.33z"
            fill="#263238" id="svg_177" />
       </g>
      </g>
            <g id="svg_178">
       <g id="svg_179">
        <path
            d="m195.6,404.73c0.15,-0.03 0.47,1.15 0.73,2.65c0.25,1.49 0.35,2.72 0.19,2.75c-0.15,0.02 -0.47,-1.16 -0.73,-2.65c-0.25,-1.5 -0.35,-2.73 -0.19,-2.75z"
            fill="#263238" id="svg_180" />
       </g>
      </g>
            <g id="svg_181">
       <g id="svg_182">
        <path
            d="m201.87,404.72c0.15,-0.02 0.45,1.06 0.67,2.41c0.23,1.35 0.29,2.46 0.14,2.5c-0.15,0.02 -0.45,-1.06 -0.67,-2.41c-0.22,-1.35 -0.28,-2.46 -0.14,-2.5z"
            fill="#263238" id="svg_183" />
       </g>
      </g>
            <g id="svg_184">
       <g id="svg_185">
        <path
            d="m207.8,404.12c0.16,-0.01 0.38,1.22 0.63,2.72c0.25,1.51 0.45,2.74 0.29,2.78c-0.14,0.03 -0.58,-1.15 -0.84,-2.69c-0.25,-1.53 -0.23,-2.8 -0.08,-2.81z"
            fill="#263238" id="svg_186" />
       </g>
      </g>
            <g id="svg_187">
       <g id="svg_188">
        <path
            d="m184.87,288.98c0,0.1 -1.33,0.02 -3.4,0.46c-2.05,0.41 -4.85,1.47 -7.26,3.58c-2.42,2.12 -3.85,4.75 -4.54,6.72c-0.7,1.98 -0.81,3.31 -0.9,3.3c-0.04,-0.01 -0.04,-0.34 0.01,-0.93c0.06,-0.6 0.21,-1.47 0.52,-2.5c0.61,-2.06 2.03,-4.81 4.54,-7.01c2.52,-2.18 5.44,-3.22 7.56,-3.56c1.06,-0.17 1.93,-0.2 2.54,-0.18c0.6,0.02 0.92,0.07 0.92,0.1l0.01,0.02z"
            fill="#263238" id="svg_189" />
       </g>
      </g>
            <g id="svg_190">
       <g id="svg_191">
        <path
            d="m192.71,310.52c0.02,0.06 -1.19,0.59 -3.16,1.34c-1.98,0.74 -4.75,1.71 -7.84,2.67c-3.08,0.96 -5.91,1.74 -7.96,2.26c-2.07,0.51 -3.35,0.77 -3.37,0.69c-0.02,-0.07 1.24,-0.46 3.26,-1.07c2.17,-0.66 4.9,-1.48 7.9,-2.39c3,-0.96 5.71,-1.84 7.87,-2.53c2.01,-0.65 3.26,-1.05 3.29,-0.98l0.01,0.01z"
            fill="#FAFAFA" id="svg_192" />
       </g>
      </g>
            <g id="svg_193">
       <g id="svg_194">
        <path
            d="m200.79,347.03c0.01,0.07 -1.25,0.41 -3.28,0.89c-2.05,0.48 -4.88,1.11 -8,1.77c-3.14,0.66 -5.98,1.23 -8.03,1.6c-2.07,0.39 -3.36,0.59 -3.37,0.51c-0.02,-0.07 1.24,-0.41 3.27,-0.88c2.05,-0.48 4.88,-1.11 8.01,-1.77c3.14,-0.67 5.98,-1.24 8.03,-1.62c2.07,-0.39 3.35,-0.59 3.37,-0.51l0,0.01z"
            fill="#FAFAFA" id="svg_195" />
       </g>
      </g>
            <g id="svg_196">
       <g id="svg_197">
        <path
            d="m209.94,392.73c0,0.07 -1.21,0.12 -3.15,0.16c-1.94,0.05 -4.63,0.14 -7.57,0.3c-2.96,0.17 -5.63,0.4 -7.56,0.57c-1.94,0.18 -3.14,0.28 -3.15,0.2c-0.01,-0.06 1.17,-0.3 3.09,-0.58c1.93,-0.27 4.62,-0.57 7.58,-0.73c2.96,-0.17 5.65,-0.19 7.6,-0.14c1.94,0.04 3.15,0.15 3.15,0.22l0.01,0z"
            fill="#FAFAFA" id="svg_198" />
       </g>
      </g>
            <g id="svg_199">
       <g id="svg_200">
        <path
            d="m125.87,349.77c-0.03,0.06 -0.86,-0.3 -2.17,-0.93c-1.51,-0.71 -3.23,-1.54 -5.14,-2.45c-1.91,-0.9 -3.64,-1.71 -5.15,-2.42c-1.31,-0.63 -2.12,-1.04 -2.1,-1.1c0.03,-0.07 0.89,0.21 2.26,0.74c1.35,0.53 3.21,1.33 5.22,2.29c2.01,0.95 3.81,1.89 5.09,2.61c1.27,0.71 2.03,1.21 1.99,1.27l0,-0.01z"
            fill="#FAFAFA" id="svg_201" />
       </g>
      </g>
            <g id="svg_202">
       <g id="svg_203">
        <path
            d="m168.09,356.92c-0.02,0.04 -0.46,-0.13 -1.24,-0.46c-0.88,-0.39 -1.99,-0.87 -3.3,-1.44c-2.78,-1.22 -6.64,-2.87 -10.94,-4.59c-4.31,-1.72 -8.24,-3.19 -11.1,-4.22c-1.34,-0.49 -2.48,-0.91 -3.38,-1.24c-0.8,-0.29 -1.24,-0.48 -1.22,-0.51c0.01,-0.04 0.46,0.07 1.28,0.31c0.82,0.23 1.99,0.6 3.44,1.07c2.89,0.94 6.86,2.35 11.17,4.07c4.31,1.73 8.16,3.44 10.9,4.75c1.37,0.66 2.49,1.21 3.23,1.59c0.76,0.4 1.16,0.63 1.15,0.66l0.01,0.01z"
            fill="#FAFAFA" id="svg_204" />
       </g>
      </g>
            <g id="svg_205">
       <g id="svg_206">
        <path
            d="m171.37,327.12c0,0.02 -0.21,0 -0.59,-0.05c-0.44,-0.06 -1,-0.15 -1.68,-0.25c-1.53,-0.24 -3.61,-0.58 -6.15,-1c-5.19,-0.84 -12.38,-1.99 -20.31,-3.16c-7.95,-1.17 -15.15,-2.14 -20.37,-2.82c-2.55,-0.34 -4.64,-0.62 -6.17,-0.82c-0.68,-0.09 -1.24,-0.18 -1.68,-0.24c-0.39,-0.06 -0.59,-0.1 -0.59,-0.13c0,-0.01 0.21,-0.01 0.6,0.02c0.44,0.03 1,0.08 1.69,0.14c1.46,0.14 3.58,0.35 6.2,0.64c5.22,0.59 12.44,1.5 20.39,2.66c7.95,1.17 15.11,2.38 20.3,3.32c2.59,0.47 4.68,0.87 6.12,1.16c0.67,0.15 1.23,0.26 1.67,0.36c0.38,0.08 0.58,0.14 0.57,0.16l0,0.01z"
            fill="#FAFAFA" id="svg_207" />
       </g>
      </g>
            <g id="svg_208">
       <g id="svg_209">
        <path
            d="m169,295.64c-0.02,0.15 -11.37,-1.43 -25.35,-3.51c-13.98,-2.09 -25.29,-3.9 -25.27,-4.05c0.02,-0.15 11.37,1.42 25.35,3.51c13.97,2.09 25.29,3.9 25.27,4.05z"
            fill="#FAFAFA" id="svg_210" />
       </g>
      </g>
            <g id="svg_211">
       <g id="svg_212">
        <path
            d="m109.55,323.18c-0.07,0.03 -0.67,-1.28 -1.62,-3.41c-1,-2.27 -2.28,-5.13 -3.68,-8.31c-1.45,-3.16 -2.75,-6.01 -3.77,-8.27c-0.98,-2.11 -1.55,-3.43 -1.49,-3.46c0.04,-0.02 0.23,0.28 0.55,0.86c0.31,0.57 0.76,1.4 1.29,2.43c1.05,2.08 2.45,4.97 3.91,8.21c1.46,3.24 2.7,6.21 3.55,8.38c0.43,1.08 0.76,1.96 0.98,2.58c0.21,0.61 0.31,0.95 0.28,0.98l0,0.01z"
            fill="#FAFAFA" id="svg_213" />
       </g>
      </g>
            <g id="svg_214">
       <g id="svg_215">
        <path
            d="m86.96,345.29c-0.16,0.03 -1.59,-6.3 -3.23,-14.15c-1.64,-7.85 -2.84,-14.22 -2.7,-14.25c0.15,-0.03 1.59,6.29 3.23,14.14c1.64,7.85 2.84,14.23 2.7,14.26z"
            fill="#FAFAFA" id="svg_216" />
       </g>
      </g>
            <g id="svg_217">
       <g id="svg_218">
        <path
            d="m77.61,310.87c0.03,0.15 -4.36,1.22 -9.83,2.38c-5.46,1.17 -9.91,2 -9.94,1.86c-0.03,-0.16 4.36,-1.22 9.83,-2.39c5.46,-1.16 9.91,-1.99 9.94,-1.85z"
            fill="#FAFAFA" id="svg_219" />
       </g>
      </g>
            <g id="svg_220">
       <g id="svg_221">
        <path
            d="m74.33,282.19c0.01,0.07 -0.98,0.29 -2.59,0.57c-1.6,0.27 -3.84,0.6 -6.31,0.88c-2.48,0.28 -4.72,0.46 -6.36,0.56c-1.63,0.09 -2.63,0.1 -2.64,0.03c0,-0.07 1,-0.22 2.61,-0.41c1.81,-0.21 3.96,-0.45 6.32,-0.72c2.37,-0.26 4.51,-0.51 6.32,-0.71c1.63,-0.18 2.63,-0.26 2.64,-0.19l0.01,-0.01z"
            fill="#FAFAFA" id="svg_222" />
       </g>
      </g>
     </g>
        <g id="svg_223">
      <g id="svg_224">
       <g id="svg_225">
        <path
            d="m82.86,232.36c0.29,0.59 8.17,41.07 8.17,41.07l-18.57,0.87l-7.2,-34.81l17.59,-7.13l0.01,0z"
            fill="#455A64" id="svg_226" />
       </g>
          <g id="svg_227">
        <polygon fill="#263238" id="svg_228"
            points="91.0316390991211,273.44329833984375 93.15879821777344,272.5433349609375 85.12216186523438,232.63392639160156 82.60166931152344,232.46609497070312 " />
       </g>
          <g id="svg_229">
        <path
            d="m75.39,241.22c0.06,0.52 -0.31,1.01 -0.84,1.07c-0.52,0.06 -1.01,-0.31 -1.07,-0.84c-0.06,-0.52 0.31,-1.01 0.84,-1.07c0.52,-0.06 1.01,0.3 1.07,0.84z"
            fill="#263238" id="svg_230" />
       </g>
      </g>
            <g id="svg_231">
       <path
           d="m71.56,269.63l-0.28,-5.3l7.94,-3.27l-3.09,-7.34c-1.51,-3.43 -5.62,-4.84 -8.92,-3.05c-1.06,0.58 -2.17,1.19 -3.18,1.73c-2.27,1.23 -3.92,3.36 -4.52,5.86c-1.03,4.33 -1.93,13.36 -1.84,12.95"
           fill="#FFBE9D" id="svg_232" />
      </g>
     </g>
        <g id="svg_233">
      <g id="svg_234">
       <path
           d="m50.32,404.61c0,0 -32.64,9.03 -33.95,9.49c-1.96,0.69 -1.64,7.9 1.43,7.78c1.45,-0.05 25.07,0.88 28.06,0.69c2.98,-0.18 11.99,-3.73 11.99,-3.73l-7.52,-14.23l-0.01,0z"
           fill="#55AE7B" id="svg_235" />
      </g>
            <g id="svg_236">
       <g id="svg_237">
        <path
            d="m36.73,417.06c-0.17,0.02 -0.39,-1.7 -1.44,-3.5c-1.03,-1.81 -2.41,-2.87 -2.31,-3c0.05,-0.13 1.68,0.8 2.78,2.73c1.12,1.93 1.1,3.8 0.96,3.78l0.01,-0.01z"
            fill="#263238" id="svg_238" />
       </g>
      </g>
            <g id="svg_239">
       <g id="svg_240">
        <path
            d="m40.13,415.52c-0.16,0.03 -0.49,-1.51 -1.35,-3.22c-0.86,-1.71 -1.9,-2.89 -1.78,-3.01c0.09,-0.1 1.36,0.96 2.27,2.77c0.91,1.79 1.01,3.45 0.87,3.46l-0.01,0z"
            fill="#263238" id="svg_241" />
       </g>
      </g>
            <g id="svg_242">
       <g id="svg_243">
        <path
            d="m43.32,414.67c-0.16,-0.01 -0.03,-1.65 -0.76,-3.45c-0.7,-1.83 -1.9,-2.94 -1.78,-3.05c0.06,-0.13 1.53,0.88 2.29,2.85c0.78,1.96 0.39,3.69 0.25,3.65z"
            fill="#263238" id="svg_244" />
       </g>
      </g>
            <g id="svg_245">
       <g id="svg_246">
        <path
            d="m42.74,410.46c-0.05,0.01 -0.35,-0.9 -0.35,-2.43c0,-0.76 0.08,-1.68 0.33,-2.66c0.13,-0.49 0.28,-1 0.49,-1.51c0.1,-0.26 0.22,-0.56 0.51,-0.8c0.3,-0.27 0.86,-0.22 1.12,0.05c0.3,0.26 0.4,0.63 0.44,0.92c0.03,0.3 0.04,0.58 0.04,0.86c-0.01,0.57 -0.08,1.1 -0.2,1.6c-0.24,1 -0.63,1.83 -1.01,2.5c-0.77,1.32 -1.43,1.99 -1.47,1.96c-0.07,-0.05 0.47,-0.82 1.12,-2.15c0.33,-0.66 0.66,-1.48 0.86,-2.42c0.09,-0.47 0.16,-0.98 0.16,-1.49c-0.02,-0.5 -0.01,-1.13 -0.3,-1.37c-0.16,-0.13 -0.29,-0.14 -0.43,-0.03c-0.15,0.1 -0.26,0.34 -0.36,0.57c-0.2,0.49 -0.37,0.98 -0.49,1.45c-0.26,0.93 -0.39,1.8 -0.43,2.55c-0.1,1.47 0.05,2.39 -0.04,2.41l0.01,-0.01z"
            fill="#263238" id="svg_247" />
       </g>
      </g>
            <g id="svg_248">
       <g id="svg_249">
        <path
            d="m42.78,410.12c-0.01,-0.06 0.78,-0.33 2.11,-0.34c0.66,0 1.46,0.06 2.32,0.28c0.42,0.12 0.87,0.22 1.33,0.49c0.44,0.22 0.91,0.84 0.73,1.49c-0.14,0.61 -0.66,1.03 -1.17,1.16c-0.52,0.15 -1.03,0.09 -1.47,0c-0.89,-0.21 -1.59,-0.65 -2.12,-1.05c-1.05,-0.82 -1.55,-1.45 -1.52,-1.49c0.06,-0.07 0.68,0.46 1.74,1.17c0.53,0.35 1.21,0.71 2,0.87c0.4,0.07 0.83,0.09 1.22,-0.02c0.38,-0.1 0.7,-0.4 0.79,-0.78c0.09,-0.37 -0.13,-0.7 -0.48,-0.91c-0.35,-0.21 -0.78,-0.34 -1.19,-0.46c-0.81,-0.23 -1.56,-0.34 -2.19,-0.38c-1.28,-0.09 -2.09,0.03 -2.1,-0.05l0,0.02z"
            fill="#263238" id="svg_250" />
       </g>
      </g>
            <g id="svg_251">
       <g id="svg_252">
        <path
            d="m31.71,417.42c-0.17,-0.02 0,-1.42 -0.65,-2.95c-0.61,-1.54 -1.7,-2.43 -1.59,-2.56c0.05,-0.13 1.42,0.64 2.11,2.35c0.7,1.7 0.26,3.21 0.14,3.16l-0.01,0z"
            fill="#263238" id="svg_253" />
       </g>
      </g>
            <g id="svg_254">
       <g id="svg_255">
        <path
            d="m54.49,418.92c0.01,0.04 -0.44,0.25 -1.27,0.6c-0.84,0.31 -2.07,0.76 -3.63,1.12c-3.13,0.79 -7.57,1.24 -12.46,1.19c-4.89,-0.05 -9.29,-0.28 -12.49,-0.41c-1.51,-0.07 -2.78,-0.15 -3.79,-0.2c-0.89,-0.06 -1.38,-0.1 -1.38,-0.15c0,-0.04 0.5,-0.06 1.4,-0.06c1,0 2.27,0.01 3.79,0.02c3.3,0.07 7.67,0.16 12.48,0.25c4.87,0.05 9.27,-0.34 12.38,-1.02c3.13,-0.64 4.94,-1.44 4.98,-1.34l-0.01,0z"
            fill="#263238" id="svg_256" />
       </g>
      </g>
            <g id="svg_257">
       <g id="svg_258">
        <path
            d="m55.45,419.67c-0.04,0.07 -0.93,-0.44 -2.44,-1.1c-1.49,-0.64 -3.72,-1.41 -6.18,-1.03c-2.46,0.38 -4.21,2.02 -5.34,3.17c-1.14,1.2 -1.81,1.98 -1.88,1.93c-0.05,-0.04 0.5,-0.91 1.59,-2.19c0.55,-0.63 1.25,-1.35 2.16,-2.01c0.9,-0.67 2.07,-1.24 3.38,-1.44c2.63,-0.4 4.95,0.48 6.42,1.22c1.5,0.77 2.32,1.41 2.29,1.46l0,-0.01z"
            fill="#263238" id="svg_259" />
       </g>
      </g>
     </g>
        <g id="svg_260">
      <g id="svg_261">
       <path
           d="m84.97,395.6c0,0 30.88,20.22 31.99,21.06c1.67,1.25 -0.24,7.24 -3.13,6.2c-1.36,-0.48 -27.28,-7.7 -30.06,-8.78c-2.79,-1.09 -10.29,-7.21 -10.29,-7.21l11.49,-11.28l0,0.01z"
           fill="#55AE7B" id="svg_262" />
      </g>
            <g id="svg_263">
       <g id="svg_264">
        <path
            d="m94.13,411.6c-0.14,-0.03 0.42,-1.81 2.07,-3.3c1.65,-1.51 3.46,-1.9 3.48,-1.76c0.05,0.16 -1.58,0.74 -3.12,2.16c-1.54,1.4 -2.28,2.97 -2.43,2.91l0,-0.01z"
            fill="#263238" id="svg_265" />
       </g>
      </g>
            <g id="svg_266">
       <g id="svg_267">
        <path
            d="m91.37,409.09c-0.14,-0.05 0.46,-1.6 1.88,-3.04c1.41,-1.44 2.95,-2.07 3,-1.94c0.07,0.15 -1.27,0.95 -2.61,2.33c-1.34,1.36 -2.13,2.73 -2.27,2.65z"
            fill="#263238" id="svg_268" />
       </g>
      </g>
            <g id="svg_269">
       <g id="svg_270">
        <path
            d="m88.59,407.31c-0.15,0 0.01,-1.76 1.34,-3.4c1.32,-1.65 3.02,-2.16 3.05,-2.02c0.07,0.15 -1.41,0.85 -2.62,2.37c-1.24,1.5 -1.62,3.09 -1.77,3.05z"
            fill="#263238" id="svg_271" />
       </g>
      </g>
            <g id="svg_272">
       <g id="svg_273">
        <path
            d="m90.41,403.47c-0.07,-0.04 0.35,-0.88 0.7,-2.32c0.18,-0.71 0.33,-1.58 0.36,-2.56c0.02,-0.48 0.02,-1 -0.03,-1.52c-0.01,-0.25 -0.06,-0.5 -0.17,-0.65c-0.09,-0.14 -0.23,-0.17 -0.42,-0.09c-0.36,0.14 -0.53,0.73 -0.7,1.22c-0.16,0.49 -0.25,0.99 -0.3,1.47c-0.09,0.95 -0.02,1.84 0.08,2.57c0.21,1.47 0.5,2.35 0.42,2.38c-0.06,0.02 -0.48,-0.83 -0.81,-2.32c-0.15,-0.74 -0.27,-1.66 -0.2,-2.69c0.04,-0.5 0.14,-1.04 0.29,-1.57c0.08,-0.27 0.18,-0.53 0.3,-0.82c0.13,-0.26 0.34,-0.59 0.69,-0.74c0.34,-0.18 0.88,-0.06 1.09,0.29c0.21,0.31 0.23,0.64 0.25,0.91c0.04,0.56 0.04,1.09 0,1.59c-0.06,1.02 -0.26,1.91 -0.49,2.63c-0.46,1.46 -1.02,2.24 -1.07,2.21l0.01,0.01z"
            fill="#263238" id="svg_274" />
       </g>
      </g>
            <g id="svg_275">
       <g id="svg_276">
        <path
            d="m90.47,403.14c-0.04,0.08 -0.77,-0.28 -2,-0.59c-0.62,-0.15 -1.37,-0.27 -2.21,-0.3c-0.42,0 -0.87,-0.02 -1.27,0.08c-0.41,0.09 -0.71,0.35 -0.73,0.72c-0.03,0.39 0.19,0.76 0.51,0.98c0.34,0.23 0.76,0.34 1.15,0.39c0.81,0.09 1.55,-0.06 2.17,-0.22c1.23,-0.36 1.98,-0.68 2.01,-0.6c0.02,0.06 -0.66,0.5 -1.9,0.96c-0.63,0.22 -1.43,0.43 -2.34,0.36c-0.45,-0.04 -0.94,-0.15 -1.4,-0.44c-0.45,-0.28 -0.82,-0.85 -0.77,-1.47c0.02,-0.67 0.66,-1.12 1.15,-1.2c0.51,-0.13 0.99,-0.08 1.42,-0.06c0.88,0.05 1.67,0.23 2.3,0.43c1.27,0.41 1.93,0.9 1.9,0.95l0.01,0.01z"
            fill="#263238" id="svg_277" />
       </g>
      </g>
            <g id="svg_278">
       <g id="svg_279">
        <path
            d="m109.9,421.74c-0.04,0.04 -0.52,-0.31 -0.76,-1.21c-0.26,-0.86 -0.09,-2.18 0.58,-3.35c0.33,-0.59 0.69,-1.09 1.04,-1.54c0.34,-0.45 0.68,-0.86 1.05,-1.12c0.36,-0.28 0.72,-0.41 0.99,-0.42c0.25,-0.01 0.39,0.05 0.38,0.08c0,0.08 -0.55,0.04 -1.12,0.63c-0.28,0.27 -0.58,0.66 -0.89,1.12c-0.31,0.46 -0.66,0.96 -0.95,1.51c-0.63,1.09 -0.82,2.21 -0.68,3.01c0.1,0.8 0.45,1.22 0.38,1.28l-0.02,0.01z"
            fill="#263238" id="svg_280" />
       </g>
      </g>
            <g id="svg_281">
       <g id="svg_282">
        <path
            d="m98.81,413.46c-0.15,0.01 -0.1,-1.55 1.08,-2.96c1.17,-1.43 2.71,-1.75 2.72,-1.6c0.06,0.16 -1.25,0.66 -2.3,1.95c-1.07,1.26 -1.34,2.64 -1.5,2.61z"
            fill="#263238" id="svg_283" />
       </g>
      </g>
            <g id="svg_284">
       <g id="svg_285">
        <path
            d="m76.65,407.97c0.03,-0.03 0.5,0.31 1.36,0.93c0.87,0.6 2.14,1.45 3.81,2.34c1.66,0.89 3.71,1.81 6.04,2.69c2.34,0.87 4.96,1.7 7.74,2.5c5.56,1.6 10.58,3.06 14.21,4.16c1.74,0.53 3.19,0.98 4.29,1.31c1.02,0.33 1.56,0.52 1.55,0.56c-0.01,0.04 -0.58,-0.09 -1.6,-0.35c-1.12,-0.3 -2.58,-0.69 -4.34,-1.15c-3.66,-1 -8.7,-2.4 -14.26,-4.01c-2.78,-0.8 -5.41,-1.65 -7.76,-2.55c-2.34,-0.91 -4.39,-1.88 -6.05,-2.82c-1.66,-0.94 -2.92,-1.85 -3.74,-2.51c-0.83,-0.67 -1.26,-1.07 -1.24,-1.1l-0.01,0z"
            fill="#263238" id="svg_286" />
       </g>
      </g>
            <g id="svg_287">
       <g id="svg_288">
        <path
            d="m75.51,408.39c-0.01,-0.06 0.95,-0.42 2.62,-0.7c1.63,-0.25 4.1,-0.39 6.49,0.8c1.17,0.59 2.11,1.48 2.77,2.38c0.67,0.91 1.12,1.83 1.45,2.59c0.65,1.54 0.92,2.54 0.86,2.57c-0.07,0.03 -0.47,-0.92 -1.21,-2.4c-0.73,-1.45 -1.89,-3.55 -4.12,-4.65c-2.22,-1.11 -4.58,-1.06 -6.2,-0.9c-1.64,0.17 -2.64,0.4 -2.66,0.31z"
            fill="#263238" id="svg_289" />
       </g>
      </g>
     </g>
        <g id="svg_290">
      <g id="svg_291">
       <g id="svg_292">
        <g id="svg_293">
         <g id="svg_294">
          <g id="svg_295">
           <g id="svg_296">
            <g id="svg_297">
             <g id="svg_298">
              <g id="svg_299">
               <g id="svg_300">
                <g id="svg_301">
                 <g id="svg_302">
                  <path
                      d="m157.34,235.4l2.01,40.79c0.35,6.93 -5.19,12.74 -12.14,12.74l0,0c-6.48,0 -11.82,-5.09 -12.14,-11.56c-0.15,-3.07 -0.27,-5.63 -0.31,-5.95c0,0 -10.43,-0.47 -11.68,-10.71c-0.61,-4.95 -1.03,-15.24 -1.31,-24.57c-0.29,-10.01 7.16,-18.55 17.12,-19.66l0.99,-0.1c10.74,-0.56 17.2,8.25 17.46,19.01l0,0.01z"
                      fill="#FFBE9D" id="svg_303" />
                 </g>
                </g>
               </g>
              </g>
             </g>
            </g>
           </g>
              <g id="svg_304">
            <g id="svg_305">
             <g id="svg_306">
              <g id="svg_307">
               <g id="svg_308">
                <g id="svg_309">
                 <g id="svg_310">
                  <path
                      d="m134.74,271.28c0,0 6.53,-0.19 12.95,-5.28c0,0 -2.35,7.73 -12.68,7.93l-0.27,-2.65z"
                      fill="#EB996E" id="svg_311" />
                 </g>
                </g>
               </g>
              </g>
             </g>
            </g>
           </g>
          </g>
         </g>
        </g>
           <g id="svg_312">
         <g id="svg_313">
          <g id="svg_314">
           <g id="svg_315">
            <g id="svg_316">
             <g id="svg_317">
              <g id="svg_318">
               <g id="svg_319">
                <g id="svg_320">
                 <g id="svg_321">
                  <g id="svg_322">
                   <g id="svg_323">
                    <g id="svg_324">
                     <path
                         d="m125.03,242.56c0.06,0.78 0.77,1.36 1.57,1.32c0.82,-0.05 1.43,-0.71 1.36,-1.49c-0.05,-0.78 -0.76,-1.37 -1.57,-1.32c-0.81,0.04 -1.42,0.71 -1.36,1.49z"
                         fill="#263238" id="svg_325" />
                    </g>
                   </g>
                  </g>
                 </g>
                </g>
               </g>
              </g>
                 <g id="svg_326">
               <g id="svg_327">
                <g id="svg_328">
                 <g id="svg_329">
                  <g id="svg_330">
                   <g id="svg_331">
                    <g id="svg_332">
                     <g id="svg_333">
                      <path
                          d="m124.53,240.94c0.21,0.17 1.23,-0.78 2.8,-0.94c1.57,-0.19 2.82,0.49 2.97,0.28c0.07,-0.09 -0.15,-0.42 -0.69,-0.73c-0.53,-0.3 -1.42,-0.57 -2.4,-0.46c-0.98,0.12 -1.76,0.57 -2.2,1c-0.44,0.42 -0.57,0.79 -0.47,0.86l-0.01,-0.01z"
                          fill="#263238" id="svg_334" />
                     </g>
                    </g>
                   </g>
                  </g>
                 </g>
                </g>
               </g>
              </g>
             </g>
                <g id="svg_335">
              <g id="svg_336">
               <g id="svg_337">
                <g id="svg_338">
                 <g id="svg_339">
                  <g id="svg_340">
                   <g id="svg_341">
                    <g id="svg_342">
                     <path
                         d="m140.52,241.22c0.05,0.78 0.76,1.37 1.57,1.32c0.81,-0.04 1.42,-0.7 1.36,-1.48c-0.06,-0.78 -0.77,-1.37 -1.57,-1.32c-0.82,0.04 -1.43,0.7 -1.36,1.48z"
                         fill="#263238" id="svg_343" />
                    </g>
                   </g>
                  </g>
                 </g>
                </g>
               </g>
              </g>
                    <g id="svg_344">
               <g id="svg_345">
                <g id="svg_346">
                 <g id="svg_347">
                  <g id="svg_348">
                   <g id="svg_349">
                    <g id="svg_350">
                     <g id="svg_351">
                      <path
                          d="m140.05,239.53c0.21,0.17 1.23,-0.77 2.8,-0.94c1.57,-0.19 2.82,0.49 2.97,0.28c0.07,-0.09 -0.15,-0.42 -0.69,-0.73c-0.53,-0.3 -1.42,-0.57 -2.4,-0.46c-0.98,0.12 -1.76,0.57 -2.2,1c-0.44,0.42 -0.57,0.79 -0.47,0.86l-0.01,-0.01z"
                          fill="#263238" id="svg_352" />
                     </g>
                    </g>
                   </g>
                  </g>
                 </g>
                </g>
               </g>
              </g>
             </g>
                <g id="svg_353">
              <g id="svg_354">
               <g id="svg_355">
                <g id="svg_356">
                 <g id="svg_357">
                  <g id="svg_358">
                   <g id="svg_359">
                    <g id="svg_360">
                     <path
                         d="m135.63,251.84c0,-0.08 -1.01,-0.15 -2.61,-0.18c-0.41,0.01 -0.8,-0.03 -0.89,-0.29c-0.13,-0.28 -0.01,-0.73 0.14,-1.23c0.27,-1.02 0.56,-2.08 0.85,-3.2c1.17,-4.54 1.97,-8.27 1.79,-8.31c-0.19,-0.04 -1.29,3.6 -2.45,8.15c-0.28,1.12 -0.55,2.18 -0.81,3.21c-0.09,0.47 -0.3,1.02 -0.03,1.59c0.15,0.29 0.46,0.48 0.72,0.52c0.27,0.04 0.49,0.02 0.7,0.01c1.6,-0.08 2.59,-0.19 2.59,-0.28l0,0.01z"
                         fill="#263238" id="svg_361" />
                    </g>
                   </g>
                  </g>
                 </g>
                </g>
               </g>
              </g>
             </g>
                <g id="svg_362">
              <g id="svg_363">
               <g id="svg_364">
                <g id="svg_365">
                 <g id="svg_366">
                  <g id="svg_367">
                   <g id="svg_368">
                    <g id="svg_369">
                     <path
                         d="m140.39,252.43c-0.26,0.01 -0.07,1.72 -1.41,3.09c-1.33,1.38 -3.17,1.38 -3.16,1.63c-0.01,0.12 0.44,0.29 1.22,0.23c0.76,-0.06 1.83,-0.43 2.64,-1.27c0.81,-0.84 1.08,-1.88 1.07,-2.58c-0.02,-0.72 -0.25,-1.13 -0.37,-1.1l0.01,0z"
                         fill="#263238" id="svg_370" />
                    </g>
                   </g>
                  </g>
                 </g>
                </g>
               </g>
              </g>
             </g>
            </g>
           </g>
          </g>
             <g id="svg_371">
           <g id="svg_372">
            <g id="svg_373">
             <g id="svg_374">
              <g id="svg_375">
               <g id="svg_376">
                <g id="svg_377">
                 <path
                     d="m138.97,233.4c0.2,0.41 1.75,0.03 3.62,0.05c1.88,-0.02 3.43,0.36 3.63,-0.05c0.09,-0.2 -0.21,-0.58 -0.86,-0.92c-0.65,-0.35 -1.65,-0.64 -2.77,-0.64c-1.12,0 -2.12,0.29 -2.76,0.64c-0.65,0.35 -0.95,0.72 -0.86,0.92z"
                     fill="#263238" id="svg_378" />
                </g>
               </g>
              </g>
             </g>
            </g>
           </g>
          </g>
             <g id="svg_379">
           <g id="svg_380">
            <g id="svg_381">
             <g id="svg_382">
              <g id="svg_383">
               <g id="svg_384">
                <g id="svg_385">
                 <path
                     d="m124.62,236.32c0.31,0.33 1.35,-0.17 2.66,-0.33c1.29,-0.21 2.43,-0.02 2.64,-0.43c0.09,-0.19 -0.12,-0.53 -0.64,-0.82c-0.51,-0.28 -1.34,-0.47 -2.23,-0.35c-0.89,0.13 -1.64,0.53 -2.05,0.95c-0.42,0.42 -0.53,0.81 -0.39,0.96l0.01,0.02z"
                     fill="#263238" id="svg_386" />
                </g>
               </g>
              </g>
             </g>
            </g>
           </g>
          </g>
         </g>
        </g>
           <g id="svg_387">
         <g id="svg_388">
          <g id="svg_389">
           <g id="svg_390">
            <g id="svg_391">
             <g id="svg_392">
              <g id="svg_393">
               <g id="svg_394">
                <path
                    d="m157.34,243.08c0.17,-0.1 6.82,-2.86 7.36,4.17c0.56,7.03 -6.63,6.14 -6.65,5.93c-0.03,-0.2 -0.71,-10.1 -0.71,-10.1z"
                    fill="#FFBE9D" id="svg_395" />
               </g>
              </g>
             </g>
            </g>
           </g>
          </g>
         </g>
               <g id="svg_396">
          <g id="svg_397">
           <g id="svg_398">
            <g id="svg_399">
             <g id="svg_400">
              <g id="svg_401">
               <g id="svg_402">
                <g id="svg_403">
                 <path
                     d="m159.99,250.35c0.03,-0.02 0.13,0.08 0.35,0.16c0.2,0.07 0.56,0.12 0.91,-0.05c0.72,-0.33 1.26,-1.56 1.2,-2.83c-0.04,-0.64 -0.22,-1.24 -0.48,-1.73c-0.26,-0.49 -0.62,-0.83 -1,-0.86c-0.38,-0.06 -0.63,0.18 -0.7,0.39c-0.07,0.2 -0.02,0.35 -0.05,0.36c-0.02,0.02 -0.17,-0.1 -0.13,-0.4c0.01,-0.15 0.08,-0.31 0.24,-0.46c0.16,-0.16 0.4,-0.24 0.66,-0.23c0.55,-0.01 1.07,0.45 1.36,0.99c0.33,0.53 0.55,1.21 0.58,1.93c0.07,1.42 -0.56,2.8 -1.55,3.18c-0.48,0.17 -0.9,0.05 -1.13,-0.1c-0.23,-0.16 -0.28,-0.3 -0.25,-0.33l-0.01,-0.02z"
                     fill="#EB996E" id="svg_404" />
                </g>
               </g>
              </g>
             </g>
            </g>
           </g>
          </g>
         </g>
        </g>
       </g>
      </g>
            <g id="svg_405">
       <g id="svg_406">
        <g id="svg_407">
         <path
             d="m161.21,242.41c-1.09,-0.15 -2.83,1.05 -3.18,2.1c-0.35,1.06 -0.33,2.2 -0.67,3.25s-1.27,2.08 -2.37,1.94c-0.76,-0.09 -1.35,-0.73 -1.64,-1.44c-0.27,-0.71 -0.28,-1.5 -0.26,-2.27c0.05,-3.31 0.38,-6.64 0.15,-9.95c-0.23,-3.31 -1.08,-6.68 -3.13,-9.3c-2.03,-2.62 -5.44,-4.33 -8.71,-3.7c-2.16,0.41 -4.04,1.77 -6.17,2.31c-2.53,0.65 -5.34,0.04 -7.37,-1.58c-0.26,-0.21 -1.44,-0.81 -1.44,-0.81c-0.02,-0.18 -0.02,-1.66 0.5,-2.26c3.85,-4.45 11.46,-6.41 17.3,-5.6c5.83,0.8 11.59,4.22 14.62,9.26c3.02,5.05 3.12,12.52 2.36,18.05"
             fill="#263238" id="svg_408" />
        </g>
       </g>
      </g>
     </g>
        <g id="svg_409">
      <g id="svg_410">
       <path
           d="m46.61,404.24c0,0 75.74,-49.68 78.85,-50.71c3.09,-1.04 10.59,-5.95 18.09,-3.88c7.49,2.07 14.21,8.79 17.57,18.61c3.36,9.83 3.62,31.79 3.62,31.79s-5.95,17.32 -17.57,20.94c-0.98,0.3 -1.99,0.56 -3.03,0.76c-14.2,2.82 -28.63,-3.7 -36.57,-15.81l-1.7,-2.57c0,0 -49.54,18.21 -50.32,17.95l-8.94,-17.07l0,-0.01z"
           fill="#263238" id="svg_411" />
      </g>
            <g id="svg_412">
       <path
           d="m20.79,346.28c0,0 -9.27,3.3 -9.3,13.7c-0.07,19.9 40.2,41.84 40.2,41.84l53.61,-35.53l0,-3.73c0,0 -69.01,-24.81 -84.51,-16.28z"
           fill="#263238" id="svg_413" />
      </g>
            <g id="svg_414">
       <g id="svg_415">
        <path
            d="m140.32,390.56c0,0 -0.14,0.07 -0.42,0.19c-0.29,0.12 -0.71,0.28 -1.24,0.49c-1.12,0.43 -2.73,1.05 -4.8,1.85c-4.21,1.58 -10.29,3.88 -17.84,6.72c-7.58,2.82 -16.66,6.19 -26.85,9.89c-10.18,3.7 -21.47,7.77 -33.53,11.85l-0.22,0.07l-0.1,-0.2c-1.9,-3.62 -3.89,-7.43 -5.92,-11.3c-1.04,-1.98 -2.07,-3.93 -3.02,-5.77l-0.12,-0.22l0.21,-0.14c22.74,-14.43 43.09,-27.36 57.77,-36.67c7.33,-4.63 13.25,-8.36 17.36,-10.95c2.02,-1.27 3.61,-2.26 4.71,-2.94c0.52,-0.33 0.93,-0.58 1.23,-0.76c0.28,-0.17 0.43,-0.24 0.43,-0.24s-0.13,0.1 -0.4,0.28c-0.29,0.2 -0.69,0.46 -1.21,0.8c-1.08,0.7 -2.64,1.72 -4.66,3.03c-4.08,2.62 -9.97,6.4 -17.26,11.09c-14.65,9.36 -34.97,22.32 -57.68,36.82l0.09,-0.36c0.95,1.83 1.98,3.79 3.02,5.76c2.02,3.87 4.02,7.69 5.91,11.31l-0.33,-0.14c12.05,-4.07 23.35,-8.12 33.54,-11.79c10.18,-3.7 19.28,-7.02 26.89,-9.79c7.57,-2.78 13.67,-5.01 17.89,-6.57c2.09,-0.76 3.71,-1.34 4.84,-1.75c0.53,-0.19 0.95,-0.35 1.26,-0.45c0.28,-0.09 0.44,-0.14 0.44,-0.14l0.01,0.03z"
            fill="#455A64" id="svg_416" />
       </g>
      </g>
            <g id="svg_417">
       <g id="svg_418">
        <path
            d="m78.14,384.24c-0.02,0.02 -0.51,-0.31 -1.4,-0.95c-0.88,-0.63 -2.13,-1.58 -3.67,-2.77c-3.06,-2.37 -7.24,-5.73 -11.74,-9.59c-4.49,-3.86 -8.44,-7.48 -11.25,-10.15c-1.41,-1.33 -2.53,-2.43 -3.29,-3.21c-0.76,-0.77 -1.16,-1.21 -1.14,-1.23c0.03,-0.03 0.48,0.36 1.29,1.08c0.88,0.79 2.02,1.83 3.41,3.07c2.87,2.6 6.86,6.17 11.35,10.03c4.49,3.85 8.62,7.25 11.62,9.7c1.45,1.17 2.64,2.15 3.56,2.89c0.84,0.69 1.29,1.09 1.27,1.12l-0.01,0.01z"
            fill="#455A64" id="svg_419" />
       </g>
      </g>
            <g id="svg_420">
       <g id="svg_421">
        <path
            d="m35.92,353.72c-0.02,-0.14 2.37,-0.37 5.16,0.47c2.8,0.82 4.68,2.31 4.59,2.41c-0.09,0.14 -2.05,-1.1 -4.75,-1.89c-2.7,-0.81 -5.01,-0.83 -5,-1l0,0.01z"
            fill="#455A64" id="svg_422" />
       </g>
      </g>
            <g id="svg_423">
       <g id="svg_424">
        <path
            d="m40.54,350.59c0.04,-0.13 1.76,0.63 3.18,2.39c1.43,1.75 1.8,3.59 1.67,3.61c-0.16,0.06 -0.74,-1.62 -2.1,-3.26c-1.32,-1.67 -2.83,-2.59 -2.75,-2.74z"
            fill="#455A64" id="svg_425" />
       </g>
      </g>
            <g id="svg_426">
       <g id="svg_427">
        <path
            d="m17.84,413.6c-0.03,-0.06 0.64,-0.2 1.37,0.41c0.73,0.59 1.35,1.75 1.55,3.12c0.2,1.37 -0.1,2.63 -0.49,3.43c-0.38,0.82 -0.8,1.2 -0.84,1.16c-0.07,-0.05 0.22,-0.5 0.48,-1.3c0.27,-0.8 0.49,-1.96 0.31,-3.22c-0.19,-1.25 -0.7,-2.33 -1.27,-2.89c-0.58,-0.6 -1.13,-0.62 -1.12,-0.7l0.01,-0.01z"
            fill="#263238" id="svg_428" />
       </g>
      </g>
     </g>
        <g id="svg_429">
      <path d="m57.67,266.86" fill="#FFBE9D" id="svg_430" />
     </g>
    </g>
   </g>
         <g id="Plant">
    <g id="svg_431">
     <g id="svg_432">
      <g id="svg_433">
       <rect fill="#263238" height="10.05" id="svg_434" width="73.17" x="389.62" y="356.41" />
      </g>
         <g id="svg_435">
       <path
           d="m462.92,366.59l-73.42,0l0,-10.3l73.42,0l0,10.3zm-73.17,-0.25l72.92,0l0,-9.8l-72.92,0l0,9.8z"
           fill="#263238" id="svg_436" />
      </g>
     </g>
        <g id="svg_437">
      <g id="svg_438">
       <polygon fill="#263238" id="svg_439"
           points="396.4068145751953,363.12164306640625 406.93873596191406,415.081787109375 445.9093780517578,415.081787109375 456.0910186767578,366.46868896484375 " />
      </g>
     </g>
        <g id="svg_440">
      <g id="svg_441">
       <polygon fill="#455A64" id="svg_442"
           points="396.4068145751953,410.1666564941406 402.0236358642578,417.8907165527344 449.39170837402344,417.8907165527344 456.0910186767578,410.1666564941406 " />
      </g>
     </g>
        <g id="svg_443">
      <g id="svg_444">
       <g id="svg_445">
        <path
            d="m423.46,364.64c-0.14,0 -0.33,-24.07 -0.41,-53.76c-0.08,-29.7 -0.03,-53.77 0.12,-53.77c0.14,0 0.33,24.06 0.41,53.76c0.08,29.69 0.03,53.77 -0.12,53.77z"
            fill="#263238" id="svg_446" />
       </g>
      </g>
     </g>
        <g id="svg_447">
      <g id="svg_448">
       <g id="svg_449">
        <path
            d="m439.76,304.4c0.02,0.01 -0.05,0.2 -0.19,0.56c-0.18,0.41 -0.39,0.92 -0.66,1.56c-0.15,0.34 -0.3,0.71 -0.47,1.12c-0.16,0.42 -0.31,0.88 -0.49,1.36c-0.17,0.49 -0.36,1.02 -0.56,1.56c-0.2,0.56 -0.36,1.16 -0.55,1.79c-0.8,2.5 -1.44,5.55 -2.05,8.96c-0.53,3.42 -0.93,7.21 -1.13,11.2c-0.36,7.99 0.09,15.24 0.58,20.46c0.24,2.61 0.47,4.72 0.65,6.18c0.07,0.69 0.14,1.25 0.18,1.69c0.04,0.38 0.05,0.59 0.03,0.59c-0.02,0 -0.06,-0.2 -0.14,-0.58c-0.07,-0.44 -0.16,-0.99 -0.28,-1.67c-0.23,-1.45 -0.52,-3.56 -0.81,-6.17c-0.58,-5.22 -1.09,-12.5 -0.73,-20.53c0.21,-4.02 0.62,-7.82 1.19,-11.27c0.64,-3.42 1.32,-6.49 2.17,-8.99c0.2,-0.62 0.37,-1.23 0.58,-1.78c0.21,-0.55 0.41,-1.07 0.61,-1.56c0.19,-0.48 0.36,-0.93 0.52,-1.35c0.18,-0.41 0.37,-0.78 0.52,-1.11c0.3,-0.62 0.55,-1.12 0.74,-1.52c0.17,-0.35 0.27,-0.52 0.28,-0.51l0.01,0.01z"
            fill="#263238" id="svg_450" />
       </g>
      </g>
     </g>
        <g id="svg_451">
      <g id="svg_452">
       <g id="svg_453">
        <path
            d="m437.89,284.94c0.02,0 -0.06,0.27 -0.23,0.79c-0.19,0.56 -0.44,1.31 -0.77,2.24c-0.17,0.48 -0.36,1.03 -0.56,1.62c-0.18,0.6 -0.38,1.25 -0.59,1.94c-0.43,1.4 -0.92,2.98 -1.36,4.75c-0.24,0.89 -0.48,1.83 -0.73,2.79c-0.22,0.98 -0.45,1.99 -0.69,3.04c-0.5,2.1 -0.87,4.37 -1.34,6.74c-0.81,4.78 -1.52,10.07 -2.01,15.64c-0.46,5.58 -0.66,10.92 -0.73,15.76c-0.01,4.85 0.05,9.22 0.25,12.88c0.06,1.84 0.18,3.49 0.27,4.95c0.08,1.46 0.18,2.71 0.27,3.72c0.07,0.99 0.14,1.77 0.18,2.36c0.03,0.55 0.04,0.83 0.02,0.83c-0.01,0 -0.06,-0.28 -0.13,-0.82c-0.07,-0.58 -0.17,-1.36 -0.28,-2.35c-0.12,-1.02 -0.24,-2.27 -0.36,-3.72c-0.12,-1.46 -0.26,-3.12 -0.35,-4.95c-0.25,-3.66 -0.35,-8.05 -0.37,-12.9c0.05,-4.87 0.24,-10.21 0.7,-15.81c0.49,-5.59 1.22,-10.89 2.05,-15.68c0.49,-2.38 0.88,-4.66 1.41,-6.75c0.25,-1.06 0.49,-2.07 0.72,-3.05c0.26,-0.96 0.52,-1.89 0.77,-2.78c0.46,-1.78 0.99,-3.36 1.44,-4.75c0.23,-0.68 0.44,-1.33 0.64,-1.93c0.22,-0.58 0.42,-1.11 0.6,-1.6c0.36,-0.92 0.64,-1.66 0.86,-2.2c0.2,-0.5 0.31,-0.77 0.33,-0.76l-0.01,0z"
            fill="#263238" id="svg_454" />
       </g>
      </g>
     </g>
        <g id="svg_455">
      <g id="svg_456">
       <g id="svg_457">
        <path
            d="m418.83,368.9c-0.01,0 -0.02,-0.09 -0.04,-0.28c-0.01,-0.22 -0.04,-0.49 -0.06,-0.83c-0.05,-0.77 -0.13,-1.84 -0.22,-3.19c-0.17,-2.81 -0.42,-6.81 -0.73,-11.73c-0.63,-9.89 -1.55,-23.57 -3.22,-38.61c-0.85,-7.52 -1.84,-14.66 -2.86,-21.14c-0.55,-3.23 -1.04,-6.3 -1.59,-9.17c-0.51,-2.86 -1.07,-5.53 -1.58,-7.95c-0.48,-2.43 -1.02,-4.6 -1.45,-6.53c-0.42,-1.92 -0.84,-3.57 -1.17,-4.91c-0.33,-1.32 -0.58,-2.36 -0.77,-3.1c-0.07,-0.33 -0.14,-0.6 -0.18,-0.81c-0.04,-0.19 -0.05,-0.28 -0.05,-0.28c0.01,0 0.04,0.09 0.1,0.27c0.05,0.2 0.14,0.46 0.23,0.8c0.21,0.73 0.49,1.76 0.86,3.07c0.37,1.33 0.81,2.98 1.26,4.9c0.46,1.92 1.02,4.09 1.52,6.52c0.53,2.42 1.11,5.08 1.65,7.95c0.59,2.85 1.09,5.94 1.66,9.17c1.05,6.47 2.06,13.63 2.91,21.16c1.67,15.05 2.53,28.74 3.06,38.64c0.27,4.96 0.46,8.97 0.58,11.74c0.04,1.36 0.08,2.42 0.12,3.2c0.01,0.34 0.01,0.61 0.02,0.83c-0.01,0.19 -0.01,0.28 -0.02,0.28l-0.03,0z"
            fill="#263238" id="svg_458" />
       </g>
      </g>
     </g>
        <g id="svg_459">
      <g id="svg_460">
       <path
           d="m422.87,268.69c-0.33,-3.41 -3.77,-5.98 -7.2,-6.02c-3.42,-0.03 -6.62,2.01 -8.71,4.73c-2.1,2.71 -3.25,6.02 -4.2,9.3c-2.31,8.03 -3.57,16.48 -2.58,24.79c0.99,8.3 4.35,16.47 10.3,22.33c0.98,0.95 2.22,1.91 3.56,1.63c0.72,-0.16 1.32,-0.66 1.88,-1.15c11.7,-10.57 18.45,-26.4 17.99,-42.17c-0.09,-3.16 -0.5,-6.44 -2.26,-9.07c-1.74,-2.62 -5.82,-5.42 -8.79,-4.36"
           fill="#55AE7B" id="svg_461" />
      </g>
     </g>
        <g id="svg_462">
      <g id="svg_463">
       <g id="svg_464">
        <path
            d="m397.29,241.37c-1.6,2.91 -3.21,5.82 -4.82,8.74c-0.1,0.2 -0.25,0.43 -0.49,0.45c-0.25,0.02 -0.44,-0.22 -0.58,-0.43c-4.25,-6.52 -8.51,-13.05 -12.75,-19.57l2.94,-1.67l15.71,12.48l-0.01,0z"
            fill="#55AE7B" id="svg_465" />
       </g>
      </g>
            <g id="svg_466" opacity="0.2">
       <g id="svg_467">
        <g id="svg_468">
         <path
             d="m397.29,241.37c-1.6,2.91 -3.21,5.82 -4.82,8.74c-0.1,0.2 -0.25,0.43 -0.49,0.45c-0.25,0.02 -0.44,-0.22 -0.58,-0.43c-4.25,-6.52 -8.51,-13.05 -12.75,-19.57l2.94,-1.67l15.71,12.48l-0.01,0z"
             id="svg_469" />
        </g>
       </g>
      </g>
            <g id="svg_470">
       <g id="svg_471">
        <path
            d="m423.16,257.12c-14.51,-8.56 -29,-17.12 -43.51,-25.68c-0.44,-0.26 -0.92,-0.57 -1.06,-1.07c-0.17,-0.64 0.31,-1.26 0.78,-1.74c5.98,-6.17 14.67,-9.74 23.24,-9.14c8.58,0.62 16.82,5.57 21.02,13.07c4.2,7.51 4.34,17.43 -0.47,24.55"
            fill="#55AE7B" id="svg_472" />
       </g>
      </g>
            <g id="svg_473">
       <g id="svg_474">
        <g id="svg_475">
         <path
             d="m385.93,223.25c0,-0.02 0.19,-0.04 0.57,-0.07c0.38,-0.02 0.93,-0.08 1.65,-0.07c1.43,-0.04 3.5,0.05 6.03,0.47c2.53,0.42 5.5,1.24 8.6,2.61c3.09,1.38 6.3,3.38 9.23,5.99c2.89,2.65 5.19,5.64 6.87,8.59c1.69,2.95 2.79,5.82 3.46,8.3c0.67,2.46 0.96,4.53 1.08,5.96c0.07,0.7 0.06,1.26 0.08,1.64c0.01,0.38 0,0.58 -0.02,0.58c-0.04,0 -0.09,-0.79 -0.27,-2.19c-0.17,-1.42 -0.51,-3.45 -1.23,-5.88c-1.37,-4.85 -4.57,-11.37 -10.33,-16.59c-5.76,-5.21 -12.58,-7.74 -17.54,-8.62c-2.5,-0.46 -4.55,-0.61 -5.97,-0.64c-1.43,-0.03 -2.21,-0.01 -2.21,-0.05l0,-0.03z"
             fill="#263238" id="svg_476" />
        </g>
       </g>
      </g>
            <g id="svg_477">
       <g id="svg_478">
        <g id="svg_479">
         <path
             d="m417.27,239.39c0.03,0.07 -0.81,0.46 -2.19,1.01c-1.4,0.55 -3.32,1.24 -5.5,1.93c-2.16,0.69 -4.15,1.24 -5.6,1.58c-1.45,0.36 -2.35,0.52 -2.37,0.46c-0.02,-0.07 0.86,-0.37 2.28,-0.81c1.6,-0.5 3.47,-1.09 5.54,-1.73c2.06,-0.67 3.92,-1.27 5.53,-1.78c1.42,-0.46 2.3,-0.72 2.32,-0.66l-0.01,0z"
             fill="#263238" id="svg_480" />
        </g>
       </g>
      </g>
            <g id="svg_481">
       <g id="svg_482">
        <g id="svg_483">
         <path
             d="m410.42,220.99c0.14,-0.01 0.45,2.16 0.51,4.86c0.07,2.7 -0.13,4.88 -0.26,4.87c-0.15,0 -0.19,-2.18 -0.25,-4.86c-0.07,-2.67 -0.15,-4.86 0,-4.87z"
             fill="#263238" id="svg_484" />
        </g>
       </g>
      </g>
            <g id="svg_485">
       <g id="svg_486">
        <g id="svg_487">
         <path
             d="m379.28,230.96c-0.02,-0.06 1.19,-0.5 3.16,-1.11c1.98,-0.61 4.73,-1.38 7.8,-2.12c3.06,-0.74 5.86,-1.31 7.91,-1.67c2.03,-0.36 3.3,-0.51 3.31,-0.45c0.01,0.07 -1.23,0.37 -3.24,0.82c-2.02,0.44 -4.8,1.07 -7.87,1.8c-3.05,0.73 -5.82,1.45 -7.81,1.97c-2,0.51 -3.24,0.83 -3.26,0.76z"
             fill="#263238" id="svg_488" />
        </g>
       </g>
      </g>
     </g>
        <g id="svg_489">
      <g id="svg_490">
       <g id="svg_491">
        <path
            d="m403.1,260.61c-3.74,-2.83 -7.7,-3.39 -12.39,-3.21c-4.69,0.19 -9.26,1.62 -13.56,3.5c-7.33,3.21 -14.23,7.95 -18.61,14.65c-4.38,6.7 -5.92,15.58 -2.63,22.88c0.33,0.73 0.76,1.49 1.49,1.8c0.77,0.34 1.66,0.07 2.45,-0.19c8.34,-2.72 16.74,-5.46 24.42,-9.73c7.67,-4.26 14.65,-10.18 18.76,-17.94c0.99,-1.86 1.81,-3.85 1.98,-5.95c0.16,-2.1 -0.42,-4.33 -1.92,-5.82"
            fill="#55AE7B" id="svg_492" />
       </g>
      </g>
            <g id="svg_493">
       <g id="svg_494">
        <g id="svg_495">
         <path
             d="m403.17,259.74c0.01,0.01 -0.2,0.09 -0.6,0.24c-0.45,0.16 -1.03,0.36 -1.75,0.6c-0.38,0.13 -0.81,0.27 -1.26,0.42c-0.46,0.17 -0.95,0.38 -1.48,0.58c-1.06,0.43 -2.29,0.86 -3.58,1.48c-0.65,0.3 -1.33,0.61 -2.05,0.93c-0.7,0.33 -1.42,0.73 -2.16,1.11c-1.52,0.74 -3.04,1.69 -4.68,2.65c-3.2,2.02 -6.59,4.46 -9.88,7.33c-3.26,2.89 -6.1,5.95 -8.53,8.86c-1.15,1.49 -2.3,2.88 -3.22,4.29c-0.47,0.7 -0.96,1.35 -1.38,2.01c-0.41,0.66 -0.81,1.3 -1.19,1.91c-0.79,1.2 -1.36,2.36 -1.92,3.36c-0.27,0.49 -0.53,0.95 -0.76,1.4c-0.21,0.43 -0.41,0.83 -0.59,1.2c-0.34,0.68 -0.61,1.24 -0.82,1.66c-0.19,0.38 -0.3,0.58 -0.31,0.57c-0.02,-0.01 0.06,-0.22 0.22,-0.61c0.19,-0.44 0.43,-1 0.73,-1.7c0.16,-0.37 0.35,-0.78 0.53,-1.23c0.21,-0.44 0.47,-0.9 0.72,-1.42c0.53,-1.01 1.1,-2.19 1.87,-3.41c0.37,-0.62 0.76,-1.27 1.16,-1.94c0.41,-0.67 0.89,-1.33 1.36,-2.03c0.91,-1.43 2.05,-2.84 3.21,-4.35c2.4,-2.95 5.27,-6.03 8.55,-8.96c3.32,-2.88 6.74,-5.33 9.97,-7.34c1.65,-0.95 3.2,-1.9 4.73,-2.63c0.76,-0.37 1.47,-0.77 2.19,-1.09c0.71,-0.31 1.41,-0.61 2.07,-0.9c1.31,-0.61 2.55,-1.01 3.62,-1.42c0.53,-0.19 1.04,-0.39 1.5,-0.53c0.46,-0.14 0.89,-0.26 1.28,-0.38c0.73,-0.21 1.32,-0.38 1.78,-0.51c0.41,-0.1 0.63,-0.16 0.63,-0.14l0.04,-0.01z"
             fill="#263238" id="svg_496" />
        </g>
       </g>
      </g>
            <g id="svg_497">
       <g id="svg_498">
        <g id="svg_499">
         <path
             d="m373.95,275.56c0.03,0.15 -4.04,1.46 -9.1,2.94c-5.07,1.48 -9.21,2.57 -9.25,2.43c-0.04,-0.14 4.04,-1.45 9.1,-2.94c5.07,-1.48 9.21,-2.57 9.25,-2.43z"
             fill="#263238" id="svg_500" />
        </g>
       </g>
      </g>
            <g id="svg_501">
       <g id="svg_502">
        <g id="svg_503">
         <path
             d="m373.57,295.64c-0.07,0 -0.16,-1.08 -0.2,-2.83c-0.05,-1.75 -0.06,-4.17 0.01,-6.85c0.08,-2.67 0.22,-5.1 0.37,-6.85c0.15,-1.74 0.29,-2.82 0.36,-2.82c0.07,0.01 0.06,1.09 0.01,2.84c-0.05,1.92 -0.13,4.26 -0.21,6.84c-0.06,2.58 -0.13,4.92 -0.17,6.84c-0.05,1.75 -0.09,2.83 -0.17,2.83z"
             fill="#263238" id="svg_504" />
        </g>
       </g>
      </g>
            <g id="svg_505">
       <g id="svg_506">
        <g id="svg_507">
         <path
             d="m390.77,286.89c-0.15,0.01 -0.6,-4.92 -1.02,-11c-0.42,-6.08 -0.65,-11.02 -0.5,-11.03c0.15,-0.01 0.6,4.91 1.02,11c0.42,6.08 0.65,11.02 0.5,11.03z"
             fill="#263238" id="svg_508" />
        </g>
       </g>
      </g>
            <g id="svg_509">
       <g id="svg_510">
        <g id="svg_511">
         <path
             d="m369.35,264.37c0.01,-0.07 1.12,-0.09 2.92,-0.08c1.8,0.01 4.29,0.06 7.03,0.16c2.74,0.09 5.22,0.2 7.02,0.3c1.79,0.1 2.91,0.21 2.91,0.28c0,0.07 -1.11,0.1 -2.92,0.08c-1.79,-0.01 -4.28,-0.06 -7.03,-0.16c-2.74,-0.08 -5.22,-0.2 -7.02,-0.3c-1.79,-0.1 -2.91,-0.21 -2.91,-0.28z"
             fill="#263238" id="svg_512" />
        </g>
       </g>
      </g>
     </g>
        <g id="svg_513">
      <g id="svg_514">
       <g id="svg_515">
        <path
            d="m412.36,326.17c-0.01,0 -0.03,-0.21 -0.06,-0.6c-0.01,-0.45 -0.04,-1.02 -0.07,-1.71c-0.06,-1.49 -0.08,-3.64 -0.02,-6.29c0.04,-2.65 0.22,-5.82 0.53,-9.32c0.34,-3.49 0.83,-7.33 1.53,-11.33c0.72,-4 1.58,-7.76 2.48,-11.16c0.91,-3.4 1.85,-6.43 2.72,-8.94c0.86,-2.51 1.62,-4.52 2.19,-5.89c0.27,-0.64 0.49,-1.16 0.66,-1.58c0.16,-0.36 0.25,-0.53 0.26,-0.53c0.02,0.01 -0.04,0.21 -0.16,0.58c-0.16,0.42 -0.35,0.95 -0.58,1.62c-0.51,1.38 -1.22,3.42 -2.03,5.94c-0.83,2.52 -1.71,5.55 -2.6,8.94c-0.86,3.4 -1.71,7.15 -2.42,11.14c-0.7,3.98 -1.21,7.8 -1.56,11.29c-0.35,3.48 -0.56,6.63 -0.65,9.28c-0.1,2.65 -0.15,4.79 -0.14,6.28c-0.01,0.69 -0.02,1.26 -0.02,1.7c-0.02,0.4 -0.03,0.61 -0.05,0.61l-0.01,-0.03z"
            fill="#263238" id="svg_516" />
       </g>
      </g>
     </g>
        <g id="svg_517">
      <g id="svg_518">
       <g id="svg_519">
        <path
            d="m414.66,296.48c0.05,0.05 -0.61,0.78 -1.73,1.9c-1.12,1.12 -2.73,2.63 -4.55,4.23c-1.83,1.6 -3.52,2.99 -4.78,3.95c-1.26,0.98 -2.08,1.53 -2.12,1.48c-0.04,-0.06 0.68,-0.72 1.89,-1.76c1.33,-1.15 2.92,-2.54 4.68,-4.06c1.73,-1.54 3.3,-2.93 4.64,-4.1c1.19,-1.05 1.93,-1.69 1.98,-1.64l-0.01,0z"
            fill="#263238" id="svg_520" />
       </g>
      </g>
     </g>
        <g id="svg_521">
      <g id="svg_522">
       <g id="svg_523">
        <path
            d="m428.43,307.57c-0.06,0.04 -0.76,-0.94 -1.85,-2.56c-1.2,-1.73 -2.66,-3.89 -4.3,-6.27c-1.67,-2.36 -3.18,-4.49 -4.38,-6.21c-1.13,-1.58 -1.83,-2.58 -1.76,-2.62c0.05,-0.04 0.85,0.87 2.06,2.4c1.21,1.53 2.82,3.69 4.52,6.14c1.7,2.44 3.16,4.7 4.17,6.37c1.02,1.67 1.6,2.73 1.54,2.76l0,-0.01z"
            fill="#263238" id="svg_524" />
       </g>
      </g>
     </g>
        <g id="svg_525">
      <g id="svg_526">
       <g id="svg_527">
        <path
            d="m421.21,272.69c0.08,0.12 -4.49,3.2 -10.22,6.87c-5.72,3.68 -10.42,6.57 -10.49,6.44c-0.08,-0.12 4.49,-3.2 10.22,-6.87c5.72,-3.68 10.42,-6.57 10.49,-6.44z"
            fill="#263238" id="svg_528" />
       </g>
      </g>
     </g>
        <g id="svg_529">
      <g id="svg_530">
       <g id="svg_531">
        <path
            d="m434.11,286.61c-0.1,0.09 -3.2,-2.76 -6.92,-6.4c-3.72,-3.63 -6.65,-6.66 -6.56,-6.77c0.1,-0.1 3.2,2.76 6.92,6.4c3.72,3.63 6.66,6.66 6.56,6.77z"
            fill="#263238" id="svg_532" />
       </g>
      </g>
     </g>
        <g id="svg_533">
      <g id="svg_534">
       <g id="svg_535">
        <path
            d="m437.35,286.33l3.93,-0.33c2.78,-0.23 5.49,-1.06 7.93,-2.42c1.2,-0.68 2.41,-1.34 3.69,-1.86c4.86,-1.95 10.27,-1.6 15.49,-1.87c8.53,-0.43 16.97,-2.58 24.65,-6.3c0.45,-0.21 0.84,-0.55 1.08,-0.98c0.81,-1.47 -0.69,-2.78 -1.98,-3.57c-6.62,-4.08 -13.35,-8.2 -20.85,-10.23c-7.5,-2.02 -16.02,-1.69 -22.41,2.72c-7.52,5.17 -10.26,15.8 -11.53,24.83"
            fill="#55AE7B" id="svg_536" />
       </g>
      </g>
            <g id="svg_537">
       <g id="svg_538">
        <g id="svg_539">
         <path
             d="m494.21,272.1c-0.01,0.02 -0.23,-0.08 -0.66,-0.3c-0.47,-0.25 -1.09,-0.58 -1.87,-0.98c-1.62,-0.85 -3.93,-2.11 -6.87,-3.51c-2.94,-1.4 -6.5,-2.96 -10.65,-4.1c-4.12,-1.14 -8.88,-1.74 -13.79,-1.11c-4.88,0.64 -9.38,2.54 -12.57,5.39c-3.21,2.84 -5.16,6.28 -6.55,9.2c-1.38,2.95 -2.23,5.44 -2.85,7.16c-0.28,0.82 -0.52,1.48 -0.69,1.97c-0.17,0.46 -0.26,0.69 -0.28,0.68c-0.01,0 0.05,-0.25 0.18,-0.71c0.16,-0.5 0.36,-1.17 0.61,-2.01c0.56,-1.73 1.35,-4.26 2.71,-7.25c1.35,-2.96 3.29,-6.46 6.57,-9.4c3.24,-2.95 7.85,-4.9 12.82,-5.56c4.99,-0.64 9.83,-0.01 13.99,1.17c4.17,1.17 7.74,2.79 10.67,4.24c2.93,1.45 5.22,2.76 6.81,3.66c0.76,0.44 1.36,0.8 1.81,1.06c0.42,0.25 0.63,0.39 0.62,0.4l-0.01,0z"
             fill="#263238" id="svg_540" />
        </g>
       </g>
      </g>
            <g id="svg_541">
       <g id="svg_542">
        <g id="svg_543">
         <path
             d="m484.78,277.16c-0.08,0.13 -5.21,-3.2 -11.46,-7.42c-6.26,-4.22 -11.27,-7.73 -11.18,-7.86c0.07,-0.12 5.21,3.21 11.46,7.43c6.26,4.22 11.27,7.73 11.18,7.85z"
             fill="#263238" id="svg_544" />
        </g>
       </g>
      </g>
            <g id="svg_545">
       <g id="svg_546">
        <g id="svg_547">
         <path
             d="m479.85,261.4c0.02,0.14 -1.76,0.61 -4.01,0.81c-2.26,0.21 -4.09,0.08 -4.09,-0.05c0,-0.16 1.81,-0.25 4.04,-0.46c2.22,-0.21 4.03,-0.43 4.06,-0.29l0,-0.01z"
             fill="#263238" id="svg_548" />
        </g>
       </g>
      </g>
            <g id="svg_549">
       <g id="svg_550">
        <g id="svg_551">
         <path
             d="m456.83,257.28c0.12,0.07 -0.64,1.58 -1.69,3.37c-1.06,1.79 -2.01,3.18 -2.13,3.1c-0.13,-0.07 0.63,-1.57 1.68,-3.37c1.06,-1.78 2.01,-3.18 2.14,-3.1z"
             fill="#263238" id="svg_552" />
        </g>
       </g>
      </g>
            <g id="svg_553">
       <g id="svg_554">
        <g id="svg_555">
         <path
             d="m461.43,280.19c-0.03,0.05 -0.99,-0.44 -2.46,-1.34c-1.49,-0.9 -3.49,-2.22 -5.63,-3.78c-2.14,-1.55 -4.03,-3.03 -5.39,-4.1c-1.35,-1.08 -2.17,-1.77 -2.13,-1.83c0.04,-0.06 0.94,0.52 2.35,1.53c1.54,1.12 3.41,2.48 5.48,3.98c2.14,1.55 4.1,2.91 5.53,3.89c1.43,0.98 2.31,1.58 2.27,1.65l-0.02,0z"
             fill="#263238" id="svg_556" />
        </g>
       </g>
      </g>
     </g>
        <g id="svg_557">
      <g id="svg_558">
       <g id="svg_559">
        <path
            d="m443.13,303.02c-3.74,-1 -8.2,2.65 -8.98,6.44c-0.78,3.8 0.65,7.68 2.32,11.18c3.69,7.74 8.78,14.92 15.49,20.26c6.7,5.34 15.1,8.76 23.67,8.72c-1.58,-7.35 0.42,-15.04 -0.46,-22.51c-0.77,-6.51 -3.81,-12.74 -8.48,-17.37c-4.67,-4.62 -10.93,-7.59 -17.45,-8.3c-2.39,-0.26 -5.16,-0.64 -6.12,1.57"
            fill="#55AE7B" id="svg_560" />
       </g>
      </g>
            <g id="svg_561">
       <g id="svg_562">
        <g id="svg_563">
         <path
             d="m475.64,349.62c0,0.02 -0.19,-0.06 -0.52,-0.25c-0.35,-0.18 -0.83,-0.48 -1.41,-0.93c-1.17,-0.89 -2.52,-2.61 -3.7,-4.95c-0.59,-1.15 -1.26,-2.41 -1.91,-3.81c-0.64,-1.41 -1.31,-2.89 -2.01,-4.46c-0.71,-1.56 -1.5,-3.18 -2.48,-4.76c-0.98,-1.58 -2.13,-3.13 -3.41,-4.64c-2.57,-3.01 -5.32,-5.61 -7.7,-8.11c-2.4,-2.48 -4.42,-4.87 -5.87,-7.04c-1.48,-2.17 -2.37,-4.11 -2.87,-5.49c-0.24,-0.68 -0.41,-1.23 -0.49,-1.6c-0.09,-0.37 -0.14,-0.57 -0.13,-0.57c0.05,-0.02 0.26,0.76 0.81,2.1c0.57,1.34 1.49,3.23 2.99,5.35c1.48,2.13 3.5,4.47 5.91,6.92c2.4,2.45 5.17,5.06 7.76,8.1c1.29,1.52 2.45,3.09 3.44,4.71c0.99,1.62 1.77,3.25 2.48,4.82c0.69,1.57 1.35,3.07 1.97,4.47c0.63,1.4 1.28,2.66 1.86,3.83c1.12,2.34 2.38,4.04 3.49,4.96c1.1,0.94 1.84,1.29 1.8,1.34l-0.01,0.01z"
             fill="#263238" id="svg_564" />
        </g>
       </g>
      </g>
            <g id="svg_565">
       <g id="svg_566">
        <g id="svg_567">
         <path
             d="m456.28,343.51c-0.06,-0.01 0.05,-0.98 0.35,-2.52c0.29,-1.54 0.78,-3.66 1.43,-5.97c0.65,-2.31 1.34,-4.36 1.9,-5.83c0.56,-1.47 0.95,-2.35 1.02,-2.33c0.07,0.03 -0.21,0.95 -0.67,2.45c-0.46,1.49 -1.1,3.56 -1.75,5.85c-0.64,2.3 -1.17,4.38 -1.56,5.91c-0.39,1.51 -0.63,2.45 -0.7,2.43l-0.02,0.01z"
             fill="#263238" id="svg_568" />
        </g>
       </g>
      </g>
            <g id="svg_569">
       <g id="svg_570">
        <g id="svg_571">
         <path
             d="m474.94,325.45c-0.02,0.07 -1.03,-0.18 -2.64,-0.6c-1.62,-0.43 -3.84,-1.01 -6.31,-1.56c-2.49,-0.56 -4.74,-0.99 -6.39,-1.3c-1.64,-0.31 -2.65,-0.51 -2.64,-0.59c0.01,-0.06 1.05,0 2.71,0.22c1.66,0.22 3.94,0.6 6.44,1.16c2.49,0.56 4.71,1.2 6.3,1.71c1.59,0.51 2.56,0.89 2.54,0.95l-0.01,0.01z"
             fill="#263238" id="svg_572" />
        </g>
       </g>
      </g>
            <g id="svg_573">
       <g id="svg_574">
        <g id="svg_575">
         <path
             d="m442.38,330.7c-0.06,-0.01 0.07,-1.12 0.41,-2.92c0.33,-1.78 0.85,-4.25 1.55,-6.93c0.7,-2.69 1.45,-5.09 2.03,-6.81c0.59,-1.72 1.01,-2.76 1.07,-2.74c0.06,0.02 -0.23,1.1 -0.72,2.85c-0.49,1.74 -1.19,4.15 -1.88,6.83c-0.7,2.67 -1.28,5.11 -1.7,6.88c-0.42,1.76 -0.69,2.85 -0.77,2.83l0.01,0.01z"
             fill="#263238" id="svg_576" />
        </g>
       </g>
      </g>
            <g id="svg_577">
       <g id="svg_578">
        <g id="svg_579">
         <path
             d="m466.34,309.72c-0.02,0.15 -4.7,-0.23 -10.45,-0.84c-5.75,-0.61 -10.41,-1.22 -10.38,-1.36c0.01,-0.15 4.69,0.23 10.44,0.84c5.76,0.62 10.41,1.23 10.39,1.36z"
             fill="#263238" id="svg_580" />
        </g>
       </g>
      </g>
     </g>
        <g id="svg_581">
      <g id="svg_582">
       <g id="svg_583">
        <path
            d="m462.92,366.42c0,0.15 -16.44,0.26 -36.7,0.26c-20.29,0 -36.71,-0.12 -36.71,-0.26c0,-0.14 16.43,-0.26 36.71,-0.26c20.26,0 36.7,0.13 36.7,0.26z"
            fill="#455A64" id="svg_584" />
       </g>
      </g>
     </g>
        <g id="svg_585">
      <g id="svg_586">
       <g id="svg_587">
        <path
            d="m451.48,387.58c0,0.14 -11.08,0.26 -24.73,0.26c-13.66,0 -24.73,-0.12 -24.73,-0.26c0,-0.15 11.08,-0.26 24.73,-0.26c13.66,0 24.73,0.12 24.73,0.26z"
            fill="#455A64" id="svg_588" />
       </g>
      </g>
     </g>
        <g id="svg_589">
      <g id="svg_590">
       <g id="svg_591">
        <path
            d="m451.91,390.6c0,0.15 -11.08,0.26 -24.73,0.26c-13.66,0 -24.73,-0.12 -24.73,-0.26c0,-0.15 11.08,-0.26 24.73,-0.26c13.66,0 24.73,0.12 24.73,0.26z"
            fill="#455A64" id="svg_592" />
       </g>
      </g>
     </g>
        <g id="svg_593">
      <g id="svg_594">
       <g id="svg_595">
        <path
            d="m451.91,385.08c0,0.15 -11.45,0.26 -25.58,0.26c-14.13,0 -25.58,-0.12 -25.58,-0.26c0,-0.15 11.45,-0.26 25.58,-0.26c14.13,0 25.58,0.12 25.58,0.26z"
            fill="#455A64" id="svg_596" />
       </g>
      </g>
     </g>
    </g>
   </g>
  </g>
 </g>
</svg>