<svg fill="none" height="24" viewBox="0 0 20 24" width="20" xmlns="http://www.w3.org/2000/svg">
    <g clip-path="url(#clip0_80_18)">
        <path
            d="M14.4916 2.58599C14.2735 3.2555 13.9205 3.87604 13.495 4.39213C13.0658 4.9112 12.4925 5.37106 11.8546 5.67534C11.2691 5.9546 10.6274 6.10498 9.98884 6.05521L9.79341 6.03997L9.7677 5.84538C9.68465 5.21781 9.78046 4.58251 9.98227 3.9946C10.217 3.31046 10.5974 2.68622 11.0055 2.2132C11.4279 1.71849 11.9941 1.28798 12.6006 0.976114C13.2092 0.663168 13.8628 0.467482 14.4577 0.443246L14.6826 0.434082L14.7072 0.658737C14.7793 1.31577 14.6916 1.97209 14.4916 2.58599Z"
            fill="white" />
        <path
            d="M18.6262 8.4881C18.4107 8.62148 16.3269 9.91077 16.3528 12.5097C16.3801 15.6428 19.0366 16.7289 19.1832 16.7888L19.1906 16.7914L19.3989 16.8777L19.3276 17.091C19.3233 17.1036 19.3282 17.0902 19.322 17.11C19.2542 17.3272 18.7947 18.7993 17.7567 20.3162C17.2856 21.0042 16.8057 21.6912 16.2391 22.2211C15.6524 22.7698 14.9824 23.1402 14.1547 23.1555C13.3746 23.1702 12.8638 22.9492 12.3329 22.7195C11.8266 22.5004 11.3001 22.2726 10.4761 22.2726C9.61066 22.2726 9.05737 22.5083 8.52445 22.7353C8.0228 22.9491 7.53765 23.1557 6.83871 23.1836C6.03164 23.2135 5.33085 22.8202 4.70888 22.2374C4.11382 21.6799 3.59247 20.9499 3.11739 20.2628C2.04497 18.7143 1.1123 16.4611 0.824139 14.1701C0.587125 12.2856 0.785239 10.3713 1.69633 8.79032C2.20494 7.90574 2.91578 7.18383 3.74688 6.68011C4.57418 6.1787 5.52071 5.89336 6.50596 5.87859C7.36854 5.86294 8.18186 6.18568 8.89353 6.4681C9.39718 6.66797 9.8459 6.84606 10.1824 6.84606C10.4795 6.84606 10.9176 6.67333 11.4284 6.47198C12.2909 6.13193 13.3461 5.71594 14.4619 5.82689C14.9305 5.84727 15.9065 5.95951 16.9041 6.5002C17.5397 6.84465 18.1844 7.36178 18.7143 8.13736L18.854 8.34188L18.6453 8.47666C18.6341 8.48387 18.6449 8.47652 18.6262 8.4881Z"
            fill="white" />
    </g>
    <defs>
        <clipPath id="clip0_80_18">
            <rect fill="white" height="23.8095" width="20" />
        </clipPath>
    </defs>
</svg>
