<svg height="24" viewBox="0 0 24 24" width="24" xmlns="http://www.w3.org/2000/svg">
    <g id="back_icon" transform="translate(-2127 -9049)">
        <rect data-name="Rectangle 17555" fill="none" height="24" id="Rectangle_17555"
            transform="translate(2127 9049)" width="24" />
        <path
            d="M286.213,277.932a.884.884,0,0,1-.843-.892c-.015-.75-.01-1.481,0-2.21l0-1.105-.023-7.311v-8.276l-9.385,9.388a1.434,1.434,0,0,1-.279.238.336.336,0,0,1-.195.053,1.13,1.13,0,0,1-.72-.335l-.171-.171a1.1,1.1,0,0,1-.243-.731.23.23,0,0,1,.062-.152l.082-.072c.971-.964,4.726-4.721,5.65-5.64l3.932-3.942,1.259-1.228.483-.492a1.011,1.011,0,0,1,.312-.136.941.941,0,0,1,.235-.028.97.97,0,0,1,.429.094c.056.039.132.1.139.11a1.723,1.723,0,0,1,.14.129L298.06,266.2a1.964,1.964,0,0,1,.254.313c.109.171-.007.664-.434,1.012a1.1,1.1,0,0,1-.673.287.307.307,0,0,1-.212-.062c-.372-.349-.708-.688-1.04-1.022-.257-.262-.512-.519-.77-.765l-7.974-7.975v18.588a2.52,2.52,0,0,1-.032.63.866.866,0,0,1-.845.734A.932.932,0,0,1,286.213,277.932Z"
            data-name="Path 8574" fill="#121418" id="Path_8574"
            transform="translate(1872.585 9347.352) rotate(-90)" />
    </g>
</svg>
