<svg height="24" viewBox="0 0 24 24" width="24" xmlns="http://www.w3.org/2000/svg">
    <g id="cancel_search_icon" transform="translate(0 0)">
        <path
            d="M15.947,8a.994.994,0,0,0-1.4,0l-2.569,2.569L9.4,8A.994.994,0,1,0,8,9.4l2.57,2.569L8,14.542A.994.994,0,1,0,9.4,15.947l2.569-2.57,2.569,2.569a.994.994,0,1,0,1.405-1.405l-2.57-2.569L15.947,9.4A.994.994,0,0,0,15.947,8Z"
            data-name="Path 7108" fill="#121418" id="Path_7108"
            transform="translate(0.028 0.028)" />
        <path
            d="M12,0A12,12,0,1,0,24,12,12,12,0,0,0,12,0Zm0,22A10,10,0,1,1,22,12,10,10,0,0,1,12,22Z"
            data-name="Path 7109" fill="#121418" id="Path_7109" />
    </g>
</svg>
