<svg height="24" viewBox="0 0 24 24" width="24" xmlns="http://www.w3.org/2000/svg">
    <g id="cart_icon" transform="translate(-188.5 -90)">
        <path
            d="M23.284,4.484A2.989,2.989,0,0,0,20.923,3.3H4.349l-.043-.386A3.161,3.161,0,0,0,1.253,0H1.025A1.064,1.064,0,0,0,0,1.1,1.064,1.064,0,0,0,1.025,2.2h.228a1.054,1.054,0,0,1,1.018.971L3.681,16.038A5.269,5.269,0,0,0,8.772,20.9H19.478a1.1,1.1,0,0,0,0-2.2H8.772a3.1,3.1,0,0,1-2.891-2.2H18.1a5.24,5.24,0,0,0,5.045-4.524l.8-4.788a3.468,3.468,0,0,0-.666-2.7ZM21.938,6.794l-.806,4.788A3.143,3.143,0,0,1,18.1,14.3H5.555L4.591,5.5H20.923a1,1,0,0,1,.791.392A1.158,1.158,0,0,1,21.938,6.794Z"
            data-name="Path 7091" fill="#121418" id="Path_7091" transform="translate(188.5 90)" />
        <circle cx="1.242" cy="1.242" data-name="Ellipse 27" fill="#121418" id="Ellipse_27"
            r="1.242" transform="translate(194.042 111.517)" />
        <circle cx="1.242" cy="1.242" data-name="Ellipse 28" fill="#121418" id="Ellipse_28"
            r="1.242" transform="translate(205.127 111.517)" />
    </g>
</svg>
