<svg height="77.759" width="77.754" xmlns="http://www.w3.org/2000/svg">
    <g class="layer">
        <title>Layer 1</title>
        <g class="layer" id="svg_1">
            <path
                d="m77.09,72.81l-67.52,-67.57l-2.61,-2.61l-2.47,-2.47l-4.3,4.3l14.85,14.86l7.48,15.78l-4.57,8.29c-0.54,0.95 -0.85,2.06 -0.85,3.25c0,3.72 3.04,6.77 6.77,6.77l25.24,0l4.67,4.67c-1.69,1.22 -2.81,3.22 -2.81,5.48c0,3.72 3.01,6.77 6.73,6.77c2.27,0 4.26,-1.12 5.48,-2.84l9.61,9.61l4.3,-4.3l0,0l0,0.01zm-51.79,-26.17c-0.47,0 -0.85,-0.37 -0.85,-0.85l0.1,-0.41l3.04,-5.52l7.98,0l6.77,6.77l-17.05,0l0.01,0.01zm27.5,-6.77c2.54,0 4.77,-1.39 5.92,-3.49l12.11,-21.97c0.27,-0.47 0.41,-1.05 0.41,-1.63c0,-1.86 -1.52,-3.39 -3.38,-3.39l-45.53,0l30.48,30.47l0,0l-0.01,0.01zm-28.92,16.93c-3.72,0 -6.73,3.05 -6.73,6.77s3.01,6.77 6.73,6.77s6.77,-3.05 6.77,-6.77s-3.04,-6.77 -6.77,-6.77z"
                fill="#55AE7B" id="svg_2" />
        </g>
    </g>
</svg>