<svg height="23.998" viewBox="0 0 23.998 23.998" width="23.998" xmlns="http://www.w3.org/2000/svg">
    <g id="category_dark_icon" transform="translate(-261.501 -134.222)">
        <path
            d="M285.431,150.49a3.957,3.957,0,0,0-3.88-3.49h-6.33a.831.831,0,0,0-.95.94q-.015,3.15,0,6.28a4.006,4.006,0,0,0,3.97,4h3.23a4.022,4.022,0,0,0,3.8-2.76,3.792,3.792,0,0,0,.21-1.29C285.461,152.94,285.561,151.71,285.431,150.49Zm-1.61,3.74a2.343,2.343,0,0,1-2.32,2.33c-1.08.01-2.16.01-3.23,0a2.345,2.345,0,0,1-2.35-2.34c-.01-.86,0-1.71,0-2.57,0-.89.01-1.79,0-2.68-.01-.24.06-.32.31-.32,1.75.01,3.5,0,5.25.01a2.33,2.33,0,0,1,2.34,2.34C283.831,152.07,283.831,153.15,283.821,154.23Z"
            data-name="Path 7137" fill="#fff" id="Path_7137" />
        <path
            d="M282.751,134.46a3.845,3.845,0,0,0-1.34-.22c-1.22.02-2.44-.08-3.65.05a3.977,3.977,0,0,0-3.5,3.9v6.33a.839.839,0,0,0,.95.94h6.27a4.018,4.018,0,0,0,4-4c.01-1.08.01-2.16,0-3.23A4.015,4.015,0,0,0,282.751,134.46Zm1.07,6.99a2.328,2.328,0,0,1-2.35,2.35c-.85.01-1.7,0-2.55,0-.9,0-1.8,0-2.7.01-.24,0-.31-.08-.3-.31,0-1.76-.01-3.52,0-5.28a2.337,2.337,0,0,1,2.33-2.32c1.08-.01,2.16-.01,3.23,0a2.343,2.343,0,0,1,2.34,2.34Q283.836,139.845,283.821,141.45Z"
            data-name="Path 7138" fill="#fff" id="Path_7138" />
        <path
            d="M268.741,134.24c-1.08-.01-2.17-.01-3.25,0a4.028,4.028,0,0,0-3.98,3.97c-.01,1.09-.01,2.19,0,3.28a4.012,4.012,0,0,0,3.97,3.97h6.28a.854.854,0,0,0,.96-.95c0-2.09.01-4.18,0-6.28A4.019,4.019,0,0,0,268.741,134.24Zm2.33,9.25c0,.25-.08.32-.32.32-1.75-.01-3.5,0-5.25-.01a2.343,2.343,0,0,1-2.34-2.34q-.015-1.605,0-3.21a2.349,2.349,0,0,1,2.36-2.35q1.59-.015,3.18,0a2.341,2.341,0,0,1,2.36,2.37c.01.85.01,1.69.01,2.54C271.071,141.71,271.061,142.6,271.071,143.49Z"
            data-name="Path 7139" fill="#fff" id="Path_7139" />
        <path
            d="M271.751,147h-6.22a4.024,4.024,0,0,0-4.03,4.03v3.17a4.046,4.046,0,0,0,4.02,4.02h3.2a4.018,4.018,0,0,0,4-4v-6.25A.855.855,0,0,0,271.751,147Zm-.69,7.23a2.339,2.339,0,0,1-2.33,2.33c-1.07.01-2.15.01-3.23,0a2.356,2.356,0,0,1-2.34-2.34q-.015-1.605,0-3.21a2.343,2.343,0,0,1,2.36-2.35c.85-.01,1.7,0,2.54,0,.91,0,1.81,0,2.71-.01.23,0,.3.08.3.3C271.061,150.71,271.071,152.47,271.061,154.23Z"
            data-name="Path 7140" fill="#fff" id="Path_7140" />
    </g>
</svg>
