<svg height="23.998" viewBox="0 0 23.998 23.998" width="23.998" xmlns="http://www.w3.org/2000/svg">
    <g id="category_dark_active_icon" transform="translate(-295.501 -133.222)">
        <path
            d="M319.431,149.49a3.957,3.957,0,0,0-3.88-3.49h-6.33a.831.831,0,0,0-.95.94q-.015,3.15,0,6.28a4.006,4.006,0,0,0,3.97,4h3.23a4.022,4.022,0,0,0,3.8-2.76,3.792,3.792,0,0,0,.21-1.29C319.461,151.94,319.561,150.71,319.431,149.49Zm-1.61,3.74a2.343,2.343,0,0,1-2.32,2.33c-1.08.01-2.16.01-3.23,0a2.345,2.345,0,0,1-2.35-2.34c-.01-.86,0-1.71,0-2.57,0-.89.01-1.79,0-2.68-.01-.24.06-.32.31-.32,1.75.01,3.5,0,5.25.01a2.33,2.33,0,0,1,2.34,2.34C317.831,151.07,317.831,152.15,317.821,153.23Z"
            data-name="Path 7141" fill="#fff" id="Path_7141" />
        <path
            d="M317.821,150c.01,1.07.01,2.15,0,3.23a2.343,2.343,0,0,1-2.32,2.33c-1.08.01-2.16.01-3.23,0a2.345,2.345,0,0,1-2.35-2.34c-.01-.86,0-1.71,0-2.57,0-.89.01-1.79,0-2.68-.01-.24.06-.32.31-.32,1.75.01,3.5,0,5.25.01A2.33,2.33,0,0,1,317.821,150Z"
            data-name="Path 7142" fill="#55AE7B" id="Path_7142" />
        <path
            d="M316.751,133.46a3.845,3.845,0,0,0-1.34-.22c-1.22.02-2.44-.08-3.65.05a3.977,3.977,0,0,0-3.5,3.9v6.33a.839.839,0,0,0,.95.94h6.27a4.018,4.018,0,0,0,4-4c.01-1.08.01-2.16,0-3.23A4.015,4.015,0,0,0,316.751,133.46Zm1.07,6.99a2.328,2.328,0,0,1-2.35,2.35c-.85.01-1.7,0-2.55,0-.9,0-1.8,0-2.7.01-.24,0-.31-.08-.3-.31,0-1.76-.01-3.52,0-5.28a2.337,2.337,0,0,1,2.33-2.32c1.08-.01,2.16-.01,3.23,0a2.343,2.343,0,0,1,2.34,2.34Q317.836,138.845,317.821,140.45Z"
            data-name="Path 7143" fill="#fff" id="Path_7143" />
        <path
            d="M317.821,137.24q.015,1.6,0,3.21a2.328,2.328,0,0,1-2.35,2.35c-.85.01-1.7,0-2.55,0-.9,0-1.8,0-2.7.01-.24,0-.31-.08-.3-.31,0-1.76-.01-3.52,0-5.28a2.337,2.337,0,0,1,2.33-2.32c1.08-.01,2.16-.01,3.23,0A2.343,2.343,0,0,1,317.821,137.24Z"
            data-name="Path 7144" fill="#55AE7B" id="Path_7144" />
        <path
            d="M302.741,133.24c-1.08-.01-2.17-.01-3.25,0a4.028,4.028,0,0,0-3.98,3.97c-.01,1.09-.01,2.19,0,3.28a4.012,4.012,0,0,0,3.97,3.97h6.28a.854.854,0,0,0,.96-.95c0-2.09.01-4.18,0-6.28A4.019,4.019,0,0,0,302.741,133.24Zm2.33,9.25c0,.25-.08.32-.32.32-1.75-.01-3.5,0-5.25-.01a2.343,2.343,0,0,1-2.34-2.34q-.015-1.605,0-3.21a2.349,2.349,0,0,1,2.36-2.35q1.59-.015,3.18,0a2.341,2.341,0,0,1,2.36,2.37c.01.85.01,1.69.01,2.54C305.071,140.71,305.061,141.6,305.071,142.49Z"
            data-name="Path 7145" fill="#fff" id="Path_7145" />
        <path
            d="M305.071,139.81c0,.9-.01,1.79,0,2.68,0,.25-.08.32-.32.32-1.75-.01-3.5,0-5.25-.01a2.343,2.343,0,0,1-2.34-2.34q-.015-1.605,0-3.21a2.349,2.349,0,0,1,2.36-2.35q1.59-.015,3.18,0a2.341,2.341,0,0,1,2.36,2.37C305.071,138.12,305.071,138.96,305.071,139.81Z"
            data-name="Path 7146" fill="#55AE7B" id="Path_7146" />
        <path
            d="M305.751,146h-6.22a4.024,4.024,0,0,0-4.03,4.03v3.17a4.046,4.046,0,0,0,4.02,4.02h3.2a4.018,4.018,0,0,0,4-4v-6.25A.855.855,0,0,0,305.751,146Zm-.69,7.23a2.339,2.339,0,0,1-2.33,2.33c-1.07.01-2.15.01-3.23,0a2.356,2.356,0,0,1-2.34-2.34q-.015-1.605,0-3.21a2.343,2.343,0,0,1,2.36-2.35c.85-.01,1.7,0,2.54,0,.91,0,1.81,0,2.71-.01.23,0,.3.08.3.3C305.061,149.71,305.071,151.47,305.061,153.23Z"
            data-name="Path 7147" fill="#fff" id="Path_7147" />
        <path
            d="M305.071,147.95c-.01,1.76,0,3.52-.01,5.28a2.339,2.339,0,0,1-2.33,2.33c-1.07.01-2.15.01-3.23,0a2.356,2.356,0,0,1-2.34-2.34q-.015-1.605,0-3.21a2.343,2.343,0,0,1,2.36-2.35c.85-.01,1.7,0,2.54,0,.91,0,1.81,0,2.71-.01C305,147.65,305.071,147.73,305.071,147.95Z"
            data-name="Path 7148" fill="#55AE7B" id="Path_7148" />
    </g>
</svg>
