<svg width="392" height="504" viewBox="0 0 392 504" fill="#55AE7B" xmlns="http://www.w3.org/2000/svg">
    <path d="M196 0C87.925 0 0 87.925 0 196C0 248.5 31.807 315.92 94.537 396.378C123.277 433.145 154.4 467.985 187.706 500.672C189.939 502.808 192.91 504 196 504C199.09 504 202.061 502.808 204.294 500.672C237.6 467.985 268.723 433.145 297.463 396.378C360.193 315.92 392 248.5 392 196C392 87.925 304.075 0 196 0ZM196 336C118.8 336 56 273.2 56 196C56 118.8 118.8 56 196 56C273.2 56 336 118.8 336 196C336 273.2 273.2 336 196 336Z" fill="#55AE7B"/>
    <path d="M292.072 179.121L204.072 99.121C201.863 97.113 198.985 96.0004 196 96.0004C193.015 96.0004 190.137 97.113 187.928 99.121L99.928 179.121C97.8778 180.985 96.5357 183.501 96.1292 186.243C95.7228 188.984 96.277 191.781 97.698 194.16C98.8191 195.971 100.39 197.461 102.258 198.485C104.127 199.508 106.228 200.03 108.358 200H120V276C120 279.183 121.264 282.235 123.515 284.485C125.765 286.736 128.817 288 132 288H160C163.183 288 166.235 286.736 168.485 284.485C170.736 282.235 172 279.183 172 276V232C172 228.817 173.264 225.765 175.515 223.515C177.765 221.264 180.817 220 184 220H208C211.183 220 214.235 221.264 216.485 223.515C218.736 225.765 220 228.817 220 232V276C220 279.183 221.264 282.235 223.515 284.485C225.765 286.736 228.817 288 232 288H260C263.183 288 266.235 286.736 268.485 284.485C270.736 282.235 272 279.183 272 276V200H283.642C285.772 200.03 287.873 199.508 289.742 198.485C291.61 197.461 293.181 195.971 294.302 194.16C295.723 191.781 296.277 188.984 295.871 186.243C295.464 183.501 294.122 180.985 292.072 179.121Z" fill="#55AE7B"/>
</svg>
