<svg height="54.931" viewBox="0 0 55 54.931" width="55" xmlns="http://www.w3.org/2000/svg">
    <defs>
        <linearGradient gradientUnits="objectBoundingBox" id="linear-gradient" x1="0.5" x2="0.5"
            y1="1.07" y2="-0.137">
            <stop offset="0" stop-color="#fff" />
            <stop offset="0.243" stop-color="#fbfbfb" />
            <stop offset="0.48" stop-color="#efefef" />
            <stop offset="0.714" stop-color="#dcdcdb" />
            <stop offset="0.946" stop-color="#c1c1c0" />
            <stop offset="1" stop-color="#babab9" />
        </linearGradient>
    </defs>
    <g data-name="Group 9440" id="Group_9440" transform="translate(-1384.164 -3094.284)">
        <rect data-name="Rectangle 17597" fill="#dbdbdb" height="54.931" id="Rectangle_17597"
            transform="translate(1384.164 3094.284)" width="55" />
        <path
            d="M1483.712,3951.216s.078,6.947,1,7.627,4.5,2.524,4.5,2.524l.512-.194s-.307-.194.512.583,3.274,1.165,3.274,1.165l4.6,2.33s2.865,1.456,2.865,2.039v.583h-50.547l4.707-3.787,3.581-.777s1.228-1.359,1.842-1.165l.614.194,4.4-2.794a4.648,4.648,0,0,0,1.125-3.226c-.1-1.942-.1-5.1-.1-5.1Z"
            data-name="Path 8581" fill="url(#linear-gradient)" id="Path_8581"
            transform="translate(-63.342 -819.33)" />
        <path
            d="M1715.817,3249.852a16,16,0,0,1-.976-4.131c.367-5.99-.7-5.971-.857-6.479a8.519,8.519,0,0,1,2.57-9.29c2.611-1.959,3.17-.976,3.17-.976,2.886-2.5,13.532-2.165,14.4,1.165.427,1.644,1.406-1.168,2.982,0,.176.13,0,.874,0,.874s3.179.76,2.1,7.371c-1.1,6.723-.244,8.065-.979,8.435s-1.219,1.865-1.219,1.865-.206-11.745-3.5-11.651-5.7,1.755-13.677,0C1718.08,3236.651,1714.892,3247.521,1715.817,3249.852Z"
            data-name="Path 8582" fill="#a8a8a8" id="Path_8582"
            transform="translate(-314.968 -127.177)" />
        <path
            d="M1701.765,3443.025a11.293,11.293,0,0,0,5.244,9.127c5.347,3.4,9.563.583,9.563.583s5.656-4.175,5.759-6.408a6.162,6.162,0,0,1,.925-3.3,1.463,1.463,0,0,0,1.028-.485c.411-.486.514-3.593.823-4.467s.514-2.33-.514-2.233-1.542,1.748-1.542,1.748a13.537,13.537,0,0,0-.411-4.466c-.617-1.748.514-5.632-1.954-7.088s-5.61-.971-7.124-.486a13.3,13.3,0,0,1-6.655-.486c-1.954-.68-3.6,2.525-3.907,3.981a67.937,67.937,0,0,0-1.234,8.544l.1,1.165s-.72-3.107-1.337-3.3-1.748-.194-1.542,2.136.455.526,1.337,4.855C1700.84,3444.967,1701.765,3443.025,1701.765,3443.025Z"
            data-name="Path 8583" fill="#f4f4f4" id="Path_8583"
            transform="translate(-301.015 -316.217)" />
        <path
            d="M1482.934,4142.895c.2-2.039-5.967-4.51-8.187-5.633s-3.889-2.136-4.81-2.524-2.895-1.039-2.895-1.039l-.365.611s-1.857,4.117-10.517,4.117a11.89,11.89,0,0,1-9.351-4.542,31.923,31.923,0,0,0-7.163,3.279,3.558,3.558,0,0,1-2.677,1.133c-1.133-.088-5.251,3.87-6.168,4.6Z"
            data-name="Path 8584" fill="#babab9" id="Path_8584"
            transform="translate(-44.576 -993.752)" />
        <path
            d="M1748.161,3650.816a60.17,60.17,0,0,1,.612,6.112,20.481,20.481,0,0,0-.122,5.746c.367,2.323,1.224,5.012,2.326,6.112s2.815,2.445,2.815,2.445a.953.953,0,0,1,0-.611c.122-.245.122.978.49,1.467s2.326.611,2.326.611,3.549,1.222,4.9.122a.947.947,0,0,0,1.224,0c.734-.489,4.651-1.467,5.385-4.156a26.324,26.324,0,0,0,1.958-7.334,30.079,30.079,0,0,0,0-4.034s-.122-5.378.367-6.234-.245-.856-.245-.856a29.467,29.467,0,0,0-.612,3.912c0,1.1-.857,5.256-1.836,5.745s-3.234,1.706-5.385,2.934c-.857.489-4.651.245-5.63,0-1.7-.424-1.591-1.833-3.672-2.445,0,0-3.3-.856-3.427-1.833s-.979-6.112-.979-8.313S1748.161,3650.816,1748.161,3650.816Z"
            data-name="Path 8585" fill="#a8a8a8" id="Path_8585"
            transform="translate(-348.041 -530.811)" />
        <path
            d="M1801.8,3841.786a1.413,1.413,0,0,1-.824-.017,4.417,4.417,0,0,0-3.29.148c-1.693.789-1.469,2.2-3.549,1.833s-1.836-.367-1.836-.367a3.609,3.609,0,0,0,1.591,1.956c1.1.489,5.4-.828,6.12-1.1a7.753,7.753,0,0,1,3.55,0s3.06,1.369,4.9,1.124a4.228,4.228,0,0,0,2.815-1.956s-2.325,1.345-3.549.733-1.958-2.363-3.3-2.485A8.506,8.506,0,0,0,1801.8,3841.786Z"
            data-name="Path 8586" fill="#a8a8a8" id="Path_8586"
            transform="translate(-390.226 -714.39)" />
    </g>
</svg>
