<svg width="392" height="493" viewBox="0 0 392 493" fill="none" xmlns="http://www.w3.org/2000/svg">
    <path d="M218.428 476.13L195.615 436.575L210.794 436.583L233.607 476.141L218.428 476.13Z" fill="#55AE7B"/>
    <path d="M172.859 397.293L150.048 357.735L165.227 357.746L188.041 397.301L172.859 397.293Z" fill="#55AE7B"/>
    <path d="M191.466 397.453C186.778 406.679 184.337 416.883 184.343 427.235C184.349 437.588 186.8 447.797 191.499 457.031C193.045 460.647 195.617 463.737 198.894 465.918C202.171 468.101 206.012 469.28 209.947 469.314C212.704 468.918 215.346 467.942 217.695 466.451C220.045 464.957 222.048 462.98 223.572 460.654C222.841 459.64 222.165 458.594 221.541 457.514C216.844 448.279 214.391 438.071 214.387 427.717C214.381 417.366 216.822 407.162 221.507 397.936C222.19 396.725 222.956 395.566 223.802 394.463C222.15 391.402 219.631 388.895 216.561 387.253C213.492 385.613 210.009 384.914 206.547 385.243C203.084 385.572 199.797 386.914 197.096 389.101C194.397 391.288 192.404 394.223 191.368 397.54L191.466 397.453Z" fill="#121418"/>
    <path d="M208.692 362.236L209.327 362.219C214.914 362.916 220.23 365.039 224.764 368.383C229.296 371.726 232.893 376.179 235.207 381.31C242.452 395.559 246.235 411.311 246.248 427.285C246.258 443.258 242.5 459.003 235.278 473.244C233.393 478.783 229.82 483.594 225.059 486.998C220.299 490.402 214.587 492.231 208.73 492.227C202.87 492.221 197.156 490.385 192.392 486.973C187.625 483.56 184.046 478.746 182.154 473.203C174.913 458.949 171.137 443.198 171.13 427.222C171.122 411.248 174.886 395.501 182.113 381.262C184.441 376.011 188.132 371.477 192.806 368.133C197.479 364.787 202.964 362.752 208.692 362.236ZM191.491 457.031C193.041 460.654 195.615 463.746 198.896 465.926C202.179 468.107 206.029 469.28 209.97 469.305C213.445 468.71 216.722 467.274 219.512 465.123C222.304 462.971 224.527 460.171 225.983 456.964C230.659 447.73 233.087 437.522 233.074 427.166C233.064 416.812 230.611 406.602 225.915 397.365C224.46 394.255 222.296 391.529 219.599 389.4C216.903 387.272 213.746 385.805 210.382 385.112C206.366 385.024 202.417 386.146 199.05 388.329C195.681 390.511 193.049 393.655 191.493 397.353C186.807 406.583 184.372 416.793 184.383 427.149C184.395 437.505 186.855 447.717 191.561 456.95L191.491 457.031Z" fill="#121418"/>
    <path d="M208.74 385.124L209.15 385.12C212.791 385.565 216.256 386.943 219.208 389.117C222.163 391.294 224.504 394.194 226.006 397.54C230.704 406.775 233.155 416.985 233.166 427.337C233.174 437.69 230.74 447.896 226.058 457.127C224.843 460.724 222.527 463.85 219.441 466.061C216.353 468.273 212.648 469.463 208.846 469.459C205.044 469.457 201.337 468.263 198.247 466.047C195.157 463.831 192.837 460.703 191.617 457.104C186.925 447.865 184.476 437.653 184.472 427.299C184.468 416.943 186.909 406.737 191.595 397.509C193.089 394.105 195.467 391.165 198.48 388.986C201.495 386.81 205.036 385.476 208.74 385.124ZM194.903 451.205C196.147 454.12 198.218 456.609 200.858 458.363C203.501 460.119 206.597 461.063 209.766 461.082C212.55 460.614 215.178 459.476 217.421 457.768C219.662 456.057 221.453 453.827 222.639 451.267C226.416 443.841 228.384 435.624 228.382 427.289C228.382 418.953 226.414 410.732 222.635 403.293C221.466 400.79 219.726 398.597 217.556 396.885C215.386 395.174 212.845 393.995 210.138 393.439C206.903 393.35 203.719 394.234 200.997 395.978C198.278 397.723 196.145 400.245 194.88 403.219C191.095 410.645 189.125 418.862 189.125 427.199C189.125 435.537 191.099 443.758 194.884 451.194L194.903 451.205Z" fill="#55AE7B"/>
    <path d="M127.254 318.451L104.44 278.896L119.619 278.904L142.433 318.461L127.254 318.451Z" fill="#55AE7B"/>
    <path d="M81.7662 239.636L58.9539 200.081L74.134 200.089L96.9453 239.644L81.7662 239.636Z" fill="#55AE7B"/>
    <path d="M36.0769 160.799L13.2646 121.243L28.4439 121.252L51.257 160.809L36.0769 160.799Z" fill="#55AE7B"/>
    <path d="M311.91 75.725C310.77 72.4998 308.058 71.99 305.826 74.6118C304.696 76.0828 303.93 77.8016 303.589 79.6264C303.25 81.4533 303.345 83.3322 303.87 85.1154C304.993 88.3301 307.721 88.8503 309.954 86.2286C311.084 84.7554 311.847 83.0367 312.189 81.2119C312.528 79.3871 312.432 77.5082 311.91 75.725Z" fill="#55AE7B"/>
    <path d="M278.397 73.0033L308.866 73.0366L306.916 87.9827L276.373 87.9535L278.397 73.0033Z" fill="#55AE7B"/>
    <path d="M281.439 75.8581C280.299 72.633 277.59 72.1253 275.355 74.7449C274.225 76.2181 273.459 77.9368 273.12 79.7616C272.779 81.5864 272.875 83.4653 273.399 85.2485C274.523 88.4633 277.251 88.9835 279.485 86.3638C280.613 84.8907 281.379 83.172 281.718 81.3471C282.057 79.5223 281.961 77.6413 281.439 75.8581Z" fill="#55AE7B"/>
    <path d="M42.1011 84.7846L41.1664 86.4034C40.5225 87.5187 39.8579 88.6714 39.3013 89.8845C42.6663 90.5753 45.8236 92.0443 48.5209 94.1729C51.2181 96.2994 53.3803 99.0294 54.8345 102.14C59.5314 111.377 61.9856 121.587 61.9977 131.941C62.0095 142.294 59.579 152.503 54.9033 161.737C53.4402 164.923 51.2221 167.702 48.4407 169.837C45.6594 171.972 42.3987 173.397 38.9405 173.988C39.6213 175.489 40.3805 176.951 41.2149 178.373C41.5202 178.884 41.8202 179.321 42.1461 179.798L37.5131 196.935L67.7518 197.411C73.4786 196.891 78.9614 194.854 83.6348 191.51C88.3061 188.165 91.9994 183.635 94.3298 178.385C101.554 164.144 105.314 148.399 105.306 132.425C105.3 116.452 101.525 100.698 94.2903 86.445C91.962 81.2556 88.3123 76.7653 83.7076 73.4236C79.1008 70.0822 73.6992 68.0064 68.0414 67.404L38.2284 66.9821L37.6042 66.9814L42.1011 84.7846Z" fill="#121418"/>
    <path d="M37.5721 66.8674L38.1963 66.8682C43.7852 67.5636 49.103 69.6858 53.6361 73.0304C58.1695 76.3741 61.7657 80.8269 64.0782 85.9602C71.323 100.207 75.1058 115.954 75.1203 131.924C75.1349 147.894 71.3791 163.637 64.1581 177.875C62.2785 183.42 58.7076 188.235 53.9462 191.644C49.1848 195.052 43.4723 196.885 37.6108 196.881C31.7491 196.879 26.0329 195.044 21.2644 191.629C16.4962 188.217 12.9152 183.4 11.0242 177.852C3.78406 163.599 0.00729259 147.846 9.95728e-06 131.872C-0.0070646 115.898 3.75576 100.151 10.9832 85.9123C13.3097 80.6563 17.0016 76.1182 21.6769 72.7682C26.3519 69.4199 31.8399 67.3824 37.5721 66.8674ZM20.372 161.662C21.9205 165.285 24.4946 168.377 27.7778 170.557C31.0608 172.738 34.9094 173.914 38.8493 173.936C42.326 173.343 45.6034 171.908 48.3952 169.758C51.1867 167.607 53.4077 164.804 54.8642 161.595C59.5399 152.361 61.9704 142.153 61.9585 131.799C61.9465 121.443 59.4922 111.235 54.7953 101.997C53.3411 98.8858 51.179 96.1579 48.4817 94.0293C45.7844 91.9028 42.6271 90.4338 39.2621 89.743C35.2458 89.6556 31.2974 90.7771 27.9295 92.9598C24.5616 95.1425 21.9292 98.2865 20.3733 101.984C15.688 111.216 13.2523 121.424 13.2644 131.78C13.2764 142.138 15.7355 152.349 20.4421 161.583L20.372 161.662Z" fill="#121418"/>
    <path d="M20.3421 102.067C15.6546 111.293 13.2145 121.497 13.2203 131.849C13.2259 142.203 15.677 152.411 20.3745 161.643C21.9222 165.262 24.4923 168.352 27.7693 170.532C31.0465 172.715 34.8886 173.895 38.8237 173.926C41.5818 173.535 44.2233 172.559 46.5726 171.065C48.922 169.573 50.925 167.594 52.4487 165.266C51.7196 164.255 51.0415 163.206 50.4172 162.126C45.7195 152.892 43.2686 142.684 43.2628 132.332C43.2572 121.98 45.6973 111.776 50.3846 102.55C51.0664 101.339 51.8328 100.178 52.678 99.0772C51.0263 96.0144 48.5082 93.5071 45.4388 91.8674C42.3695 90.2278 38.8853 89.5287 35.4227 89.8574C31.9602 90.1862 28.6732 91.5262 25.973 93.7151C23.273 95.902 21.2801 98.8379 20.2434 102.155L20.3421 102.067Z" fill="#121418"/>
    <path d="M37.5233 89.7034L37.9334 89.6993C41.5745 90.1425 45.0404 91.5199 47.994 93.6943C50.9479 95.8708 53.2892 98.7735 54.79 102.119C59.4856 111.354 61.9374 121.564 61.9461 131.916C61.9551 142.269 59.5206 152.476 54.8408 161.706C53.6256 165.303 51.3118 168.429 48.2244 170.64C45.1372 172.854 41.432 174.043 37.6303 174.038C33.8285 174.036 30.1214 172.844 27.0309 170.626C23.9402 168.41 21.6212 165.283 20.4004 161.683C15.7079 152.444 13.2605 142.232 13.2565 131.878C13.2526 121.522 15.6927 111.316 20.3781 102.088C21.8733 98.6861 24.2502 95.7439 27.2639 93.5674C30.2777 91.3889 33.8191 90.0551 37.5233 89.7034ZM23.704 155.794C24.9489 158.709 27.0197 161.198 29.661 162.952C32.3021 164.706 35.398 165.653 38.5678 165.672C41.3515 165.203 43.9784 164.067 46.2215 162.357C48.4645 160.647 50.2562 158.416 51.4421 155.859C55.2197 148.431 57.1876 140.214 57.1868 131.878C57.1862 123.543 55.2165 115.32 51.4379 107.883C50.2675 105.38 48.5274 103.187 46.3571 101.474C44.1867 99.7639 41.6467 98.5841 38.9397 98.0285C35.7018 97.9391 32.5133 98.8255 29.7898 100.573C27.0665 102.321 24.9348 104.849 23.6719 107.827C19.8906 115.263 17.9262 123.491 17.9395 131.837C17.9526 140.182 19.9428 148.408 23.7477 155.844L23.704 155.794Z" fill="#55AE7B"/>
    <path d="M64.1354 138.501L21.1117 64.0815C16.1081 55.436 55.1952 44.206 74.1194 52.8771C84.75 57.4595 94.2715 64.2735 102.035 72.8556C102.035 72.8556 78.1187 82.5311 74.7145 93.8774C71.3104 105.226 64.1354 138.501 64.1354 138.501Z" fill="#55AE7B"/>
    <path d="M215.877 86.0788C215.877 86.0788 95.237 79.1749 89.5711 79.6701C83.9032 80.1632 68.8479 115.27 64.1329 138.501C59.4179 161.733 51.8402 197.247 50.943 208.123C50.4613 218.111 53.5808 227.946 59.7346 235.841L104.65 313.561L189.341 377.111L236.932 378.204L261.635 313.694C261.635 313.694 194.526 206.371 185.66 191.059C180.506 182.22 177.196 172.432 175.933 162.286C174.668 152.141 175.475 141.845 178.303 132.026C181.132 122.205 185.924 113.062 192.391 105.149C198.858 97.2379 206.865 90.7189 215.929 85.9872L215.877 86.0788Z" fill="#55AE7B"/>
    <path opacity="0.2" d="M215.877 86.0788C215.877 86.0788 95.237 79.1749 89.5711 79.6701C83.9032 80.1632 68.8479 115.27 64.1329 138.501C59.4179 161.733 51.8402 197.247 50.943 208.123C50.4613 218.111 53.5808 227.946 59.7346 235.841L104.65 313.561L189.341 377.111L236.932 378.204L261.635 313.694C261.635 313.694 194.526 206.371 185.66 191.059C180.506 182.22 177.196 172.432 175.933 162.286C174.668 152.141 175.475 141.845 178.303 132.026C181.132 122.205 185.924 113.062 192.391 105.149C198.858 97.2379 206.865 90.7189 215.929 85.9872L215.877 86.0788Z" fill="#121418"/>
    <path d="M62.4063 122.561C64.3683 101.035 70.3138 80.0675 79.9435 60.725C89.8646 46.4962 102.522 37.4701 130.835 45.6123C152.718 52.8954 173.815 62.3667 193.8 73.8814L200.841 86.0309C200.841 86.0309 105.982 86.1204 95.312 85.9581C88.7867 85.8582 76.3771 95.1987 64.2661 138.48L62.0582 138.478C60.7064 138.489 60.9055 131.36 62.4063 122.561Z" fill="#55AE7B"/>
    <path opacity="0.3" d="M62.4063 122.561C64.3683 101.035 70.3138 80.0675 79.9435 60.725C89.8646 46.4962 102.522 37.4701 130.835 45.6123C152.718 52.8954 173.815 62.3667 193.8 73.8814L200.841 86.0309C200.841 86.0309 105.982 86.1204 95.312 85.9581C88.7867 85.8582 76.3771 95.1987 64.2661 138.48L62.0582 138.478C60.7064 138.489 60.9055 131.36 62.4063 122.561Z" fill="#F2F5F7"/>
    <path d="M155.267 86.1058L147.562 72.9014C147.562 72.9014 171.193 33.5107 193.519 33.5436C215.844 33.5764 269.007 73.0013 269.007 73.0013L276.604 86.1412L155.267 86.1058Z" fill="#55AE7B"/>
    <path d="M219.618 60.7022C220.588 61.7929 221.191 63.1608 221.339 64.6117C221.489 66.0626 221.177 67.5229 220.448 68.7853C219.718 70.0479 218.611 71.0483 217.279 71.6446C215.948 72.2418 214.462 72.4041 213.033 72.1086C209.062 71.8943 205.196 70.7464 201.753 68.7576C198.307 66.7688 195.381 63.9956 193.211 60.6637C192.24 59.5732 191.638 58.2055 191.488 56.7544C191.339 55.3034 191.651 53.843 192.381 52.5806C193.109 51.3182 194.218 50.3178 195.548 49.7214C196.88 49.1251 198.365 48.9628 199.795 49.258C203.765 49.473 207.631 50.6215 211.075 52.6101C214.518 54.5989 217.446 57.3715 219.618 60.7022Z" fill="#121418"/>
    <path d="M191.147 69.6159C191.834 70.3866 192.26 71.3535 192.364 72.3791C192.47 73.4049 192.25 74.4349 191.736 75.3275C191.22 76.2202 190.438 76.9276 189.495 77.348C188.555 77.7703 187.506 77.8848 186.495 77.6746C183.694 77.5207 180.968 76.7092 178.54 75.3067C176.11 73.9043 174.045 71.9505 172.512 69.6022C171.84 68.8277 171.424 67.8637 171.326 66.8437C171.228 65.8239 171.451 64.7989 171.963 63.9121C172.474 63.0253 173.251 62.3206 174.183 61.8959C175.115 61.4712 176.157 61.3476 177.164 61.5426C179.965 61.697 182.689 62.5082 185.119 63.9109C187.55 65.3135 189.614 67.2682 191.147 69.6159Z" fill="#121418"/>
    <path d="M249.109 70.9646C249.781 71.7383 250.195 72.7037 250.292 73.7233C250.39 74.7429 250.17 75.7687 249.658 76.6551C249.144 77.5415 248.368 78.2468 247.436 78.6713C246.503 79.0958 245.461 79.2186 244.454 79.025C241.655 78.8711 238.929 78.0596 236.499 76.6551C234.071 75.2526 232.005 73.2988 230.471 70.9511C229.799 70.1767 229.385 69.212 229.285 68.1922C229.187 67.1723 229.41 66.1475 229.922 65.2607C230.434 64.3737 231.21 63.6689 232.142 63.2442C233.074 62.8195 234.117 62.6964 235.124 62.8913C237.924 63.0455 240.65 63.857 243.079 65.2596C245.509 66.6623 247.575 68.6169 249.109 70.9646Z" fill="#121418"/>
    <path d="M160.294 73.5797C159.151 70.3552 156.442 69.846 154.21 72.4665C153.08 73.9397 152.316 75.6584 151.975 77.4832C151.636 79.308 151.731 81.189 152.254 82.9701C152.354 83.6443 152.662 84.2706 153.136 84.7617C153.61 85.2527 154.228 85.5815 154.898 85.7043C155.57 85.827 156.263 85.7376 156.879 85.4463C157.497 85.157 158.007 84.6805 158.338 84.0854C159.466 82.6123 160.231 80.8936 160.571 79.0687C160.912 77.2439 160.816 75.3629 160.294 73.5797Z" fill="#55AE7B"/>
    <path d="M126.86 70.7599L157.331 70.7938L155.381 85.7396L124.836 85.7105L126.86 70.7599Z" fill="#55AE7B"/>
    <path d="M129.925 73.5631C128.785 70.3369 126.076 69.8281 123.841 72.4478C122.711 73.9209 121.946 75.6397 121.604 77.4645C121.265 79.2893 121.361 81.1703 121.885 82.9514C123.009 86.1662 125.737 86.6864 127.969 84.0667C129.099 82.5935 129.865 80.8748 130.204 79.05C130.543 77.2252 130.447 75.3442 129.925 73.5631Z" fill="#55AE7B"/>
    <path d="M129.925 73.5631C128.785 70.3369 126.076 69.8281 123.841 72.4478C122.711 73.9209 121.946 75.6397 121.604 77.4645C121.265 79.2893 121.361 81.1703 121.885 82.9514C123.009 86.1662 125.737 86.6864 127.969 84.0667C129.099 82.5935 129.865 80.8748 130.204 79.05C130.543 77.2252 130.447 75.3442 129.925 73.5631Z" fill="#121418"/>
    <path d="M213.224 380.153L212.29 381.772C211.647 382.888 210.981 384.04 210.425 385.253C213.79 385.944 216.946 387.413 219.645 389.542C222.342 391.668 224.504 394.398 225.958 397.509C230.654 406.745 233.11 416.954 233.12 427.31C233.133 437.663 230.702 447.871 226.027 457.106C224.564 460.291 222.346 463.071 219.564 465.206C216.784 467.341 213.521 468.766 210.063 469.357C210.746 470.858 211.505 472.32 212.34 473.741C212.643 474.253 212.943 474.69 213.27 475.167L208.638 492.304L238.875 492.78C244.604 492.26 250.087 490.223 254.758 486.879C259.429 483.533 263.122 479.004 265.455 473.752C272.679 459.513 276.439 443.768 276.433 427.794C276.425 411.82 272.65 396.067 265.413 381.814C263.085 376.624 259.437 372.134 254.831 368.793C250.224 365.451 244.822 363.374 239.165 362.773L209.352 362.351L208.717 362.367L213.224 380.153Z" fill="#121418"/>
    <path d="M307.153 375.091L290.11 444.022L244.448 444.045L260.634 375.099L307.153 375.091Z" fill="#55AE7B"/>
    <path opacity="0.2" d="M307.153 375.091L290.11 444.022L244.448 444.045L260.634 375.099L307.153 375.091Z" fill="#121418"/>
    <path d="M307.172 375.074C291.843 377.871 276.129 377.86 260.794 375.043C237.577 366.562 215.043 356.316 193.386 344.4C180.205 338.957 167.982 331.439 157.181 322.13C148.267 309.545 140.046 296.486 132.553 283.011C124.956 269.872 135.031 241.267 170.444 252.383C194.22 260.248 217.127 270.539 238.801 283.093L307.172 375.074Z" fill="#55AE7B"/>
    <path d="M118.462 256.024C118.013 259.018 117.195 261.946 116.026 264.738C115.379 267.949 113.933 270.941 111.819 273.44C107.653 275.754 102.773 276.434 98.1272 275.346C94.9145 274.343 91.9432 272.685 89.4005 270.477C86.8578 268.271 84.7999 265.562 83.3538 262.524C80.2348 255.042 75.9755 248.086 70.732 241.9C65.5919 237.239 61.5134 231.53 58.7723 225.16C56.2725 218.92 56.0523 205.191 66.1914 207.855C80.5781 217.901 94.334 228.822 107.378 240.558L118.462 256.024Z" fill="#121418"/>
    <path d="M124.667 245.221L117.199 258.155C115.162 259.792 112.561 260.564 109.956 260.306C107.351 260.05 104.95 258.783 103.267 256.779C101.629 254.765 100.614 252.318 100.345 249.74C100.077 247.16 100.566 244.559 101.752 242.256L105.693 234.266L124.667 245.221Z" fill="#FFA8A7"/>
    <path d="M146.103 150.923C136.665 167.064 101.165 239.203 101.165 239.203C101.165 239.203 102.952 251.34 122.087 251.282L171.811 176.392L146.103 150.923Z" fill="#121418"/>
    <path d="M181.615 262.911L151.704 211.221C150.429 209.195 149.732 206.86 149.686 204.469C149.64 202.079 150.248 199.721 151.442 197.651C152.639 195.58 154.376 193.874 156.469 192.719C158.563 191.565 160.935 191.001 163.325 191.09L207.858 191.111C210.29 191.244 212.658 191.947 214.77 193.167C216.88 194.384 218.673 196.084 220.003 198.123L249.903 249.832C251.173 251.856 251.866 254.189 251.909 256.576C251.953 258.962 251.345 261.318 250.153 263.384C248.959 265.45 247.225 267.154 245.136 268.309C243.045 269.464 240.682 270.03 238.293 269.944L193.759 269.924C191.326 269.79 188.958 269.087 186.848 267.868C184.738 266.651 182.945 264.951 181.615 262.911Z" fill="#55AE7B"/>
    <path d="M181.615 262.911L151.704 211.221C150.429 209.195 149.732 206.86 149.686 204.469C149.64 202.079 150.248 199.721 151.442 197.651C152.639 195.58 154.376 193.874 156.469 192.719C158.563 191.565 160.935 191.001 163.325 191.09L207.858 191.111C210.29 191.244 212.658 191.947 214.77 193.167C216.88 194.384 218.673 196.084 220.003 198.123L249.903 249.832C251.173 251.856 251.866 254.189 251.909 256.576C251.953 258.962 251.345 261.318 250.153 263.384C248.959 265.45 247.225 267.154 245.136 268.309C243.045 269.464 240.682 270.03 238.293 269.944L193.759 269.924C191.326 269.79 188.958 269.087 186.848 267.868C184.738 266.651 182.945 264.951 181.615 262.911Z" fill="#121418"/>
    <path d="M245.863 256.829L201.322 256.779C198.89 256.646 196.522 255.943 194.412 254.724C192.302 253.504 190.508 251.806 189.177 249.767L159.285 198.09C158.69 197.42 158.321 196.579 158.23 195.691C158.138 194.8 158.33 193.905 158.777 193.131C159.224 192.357 159.903 191.743 160.72 191.377C161.536 191.011 162.447 190.911 163.323 191.09L207.858 191.113C210.29 191.244 212.658 191.947 214.768 193.167C216.878 194.384 218.671 196.084 220.003 198.125L249.903 249.832C250.582 250.475 251.025 251.328 251.16 252.252C251.293 253.176 251.114 254.118 250.646 254.928C250.18 255.735 249.454 256.363 248.586 256.709C247.719 257.054 246.759 257.096 245.863 256.829Z" fill="#55AE7B"/>
    <path d="M317.443 69.758L309.615 96.4222L333.198 112.005L346.615 76.5739L317.443 69.758Z" fill="#FFA8A7"/>
    <path d="M303.94 38.4292C303.94 38.4292 295.549 46.8466 296.227 47.9594C297.852 49.2797 299.677 50.333 301.633 51.0806L303.94 38.4292Z" fill="#F28F8F"/>
    <path d="M326.758 9.43517C320.141 11.78 312.201 17.294 304.25 37.4331C295.54 59.5095 297.956 64.0226 299.87 67.7418C306.66 74.5972 315.661 78.8253 325.272 79.6743C337.771 76.8632 349.003 70.0489 357.26 60.2667C367.876 47.2064 372.183 28.6334 363.2 19.8489C358.408 15.3114 352.595 11.9953 346.25 10.1822C339.904 8.3692 333.219 8.11285 326.758 9.43517Z" fill="#FFA8A7"/>
    <path d="M345.331 84.5411C338.518 85.1986 331.654 83.9439 325.51 80.9165C320.118 78.9793 304.65 71.2722 306.271 58.1035C307.89 44.9351 315.466 38.971 311.492 33.246C308.167 29.2185 305.158 24.9397 302.494 20.4479C304.787 14.5417 308.795 9.45638 314.001 5.84316C319.207 2.22993 325.376 0.252802 331.721 0.165827C342.855 -0.800682 353.949 2.48295 362.77 9.35609C371.59 16.229 377.485 26.1813 379.264 37.2103C379.657 47.7478 376.538 58.1129 370.398 66.6789C364.255 75.2443 355.439 81.5282 345.331 84.5411Z" fill="#121418"/>
    <path d="M327.205 82.1087C320.002 78.3488 314.442 72.0628 311.591 64.4593C311.637 56.9886 313.416 49.633 316.789 42.9706C317.786 41.1198 318.123 38.9851 317.746 36.916C317.37 34.8469 316.3 32.9653 314.717 31.5793C311.766 28.3654 306.032 19.8243 306.032 19.8243L307.288 17.6479C304.806 16.0018 302.224 14.5109 299.556 13.1844C297.686 12.5124 297.172 15.5253 300.187 20.1676C303.2 24.8102 312.488 35.6896 313.46 38.1693C313.208 43.7727 311.868 49.2724 309.517 54.3623C307.107 61.4874 305.788 73.511 327.205 82.1087Z" fill="#121418"/>
    <path d="M278.285 89.0563L268.982 72.9617C269.995 68.1263 273.312 67.3314 277.005 69.7994C280.699 72.2667 281.62 67.8824 284.558 68.1631C288.42 68.5466 289.704 70.319 291.419 70.4696C293.689 70.7004 294.702 69.3185 296.608 70.1789C305.075 74.0354 303.957 88.6214 303.957 88.6214L278.285 89.0563Z" fill="#F28F8F"/>
    <path d="M314.005 246.908C314.005 246.908 269.729 180.568 261.845 169.251C253.817 156.602 243.778 145.345 232.121 135.923C228.438 134.182 224.254 133.826 220.334 134.92C216.414 136.015 213.022 138.487 210.781 141.88C207.546 147.23 204.735 152.825 202.371 158.614C216.11 174.034 230.908 188.477 246.66 201.837C268.177 218.209 290.665 233.261 314.005 246.908Z" fill="#121418"/>
    <path d="M317.507 225.279C312.099 238.015 303.722 249.272 293.073 258.113C280.594 262.853 267.151 264.514 253.886 262.955C240.619 261.397 227.918 256.663 216.865 249.158C197.065 228.017 178.86 205.439 162.399 181.612C162.399 181.612 142.362 157.642 146.068 150.932C151.555 141.052 160.156 127.692 182.008 141.075C207.131 159.488 231.281 179.194 254.358 200.116L317.507 225.279Z" fill="#121418"/>
    <path d="M358.317 114.61C354.505 99.0731 348.494 94.5453 343.223 93.0618C330.911 89.9885 318.321 88.1762 305.645 87.6539C305.645 87.6539 288.68 125.567 265.23 125.773L233.033 181.544C231.227 187.076 231.655 193.098 234.227 198.327C241.774 212.784 254.088 224.199 269.08 230.635C277.047 233.381 285.52 234.332 293.891 233.417C302.263 232.501 310.324 229.744 317.497 225.343C330.173 204.307 341.615 182.555 351.771 160.195C357.921 145.844 360.179 130.122 358.317 114.61Z" fill="#121418"/>
    <path d="M263.68 128.455C272.869 126.986 281.487 123.072 288.628 117.122C285.274 121.855 281.009 125.871 276.079 128.936C271.15 132.001 265.657 134.051 259.92 134.966L263.68 128.455Z" fill="#121418"/>
    <path d="M150.389 98.1347C145.246 95.4401 141.182 91.0622 138.881 85.7334C138.881 85.7334 139.472 73.4341 133.075 70.8209C133.075 70.8209 134.328 66.1954 137.597 66.2353C140.866 66.2755 141.752 67.3624 143.46 66.5258C145.169 65.6891 146.921 63.1516 151.301 65.6797C153.103 66.7201 153.644 65.2819 158.413 67.3868C163.18 69.4915 161.761 82.3938 164.95 84.2353L150.389 98.1347Z" fill="#FFA8A7"/>
    <path d="M305.643 87.6539C295.176 82.6518 283.281 81.5095 272.063 84.4329C263.091 86.4492 209.281 100.956 209.281 100.956L164.397 82.9826C161.193 83.4841 158.215 84.9427 155.856 87.1649C154.054 88.6277 152.639 90.5108 151.734 92.6498C150.831 94.7867 150.466 97.1151 150.674 99.4289C166.415 110.055 182.693 119.862 199.445 128.811C220.923 130.328 242.483 130.228 263.94 128.507C269.44 127.837 274.745 126.071 279.544 123.314C284.344 120.555 288.539 116.859 291.88 112.448C298.35 105.378 303.062 96.8841 305.643 87.6539Z" fill="#121418"/>
    <path d="M257.215 256.84L276.173 371.237C276.826 371.735 277.509 372.195 278.216 372.609C280.73 374.063 283.564 374.875 286.464 374.972L358.14 375.001L362.961 374.979C365.067 374.325 367.016 373.241 368.679 371.793C370.341 370.347 371.683 368.568 372.62 366.57L380.171 353.493C387.926 340.068 392.006 324.832 392 309.323C391.992 293.811 387.899 278.569 380.131 265.127L337.291 191.055L246.225 190.982L257.215 256.84Z" fill="#55AE7B"/>
    <g opacity="0.1">
        <path d="M257.215 256.84L276.173 371.237C276.826 371.735 277.509 372.195 278.216 372.609C280.73 374.063 283.564 374.875 286.464 374.972L358.14 375.001L362.961 374.979C365.067 374.325 367.016 373.241 368.679 371.793C370.341 370.347 371.683 368.568 372.62 366.57L380.171 353.493C387.926 340.068 392.006 324.832 392 309.323C391.992 293.811 387.899 278.569 380.131 265.127L337.291 191.055L246.225 190.982L257.215 256.84Z" fill="#121418"/>
    </g>
    <path d="M263.734 296.245L246.32 191.157L337.335 191.317L380.167 265.363C385.716 274.953 389.407 285.498 391.051 296.449L263.734 296.245Z" fill="#55AE7B"/>
    <path d="M213.328 248.431C212.067 250.24 211.197 252.291 210.775 254.455C210.352 256.619 210.388 258.848 210.877 260.999L213.265 265.186L271.916 366.641C273.016 368.424 274.452 369.979 276.144 371.217C276.797 371.716 277.48 372.174 278.187 372.588L289.217 353.484C296.974 340.051 301.048 324.808 301.032 309.289C301.015 293.773 296.91 278.527 289.126 265.088L284.327 256.752L246.374 191.065L213.328 248.431Z" fill="#55AE7B"/>
    <g opacity="0.2">
        <path d="M213.328 248.431C212.067 250.24 211.197 252.291 210.775 254.455C210.352 256.619 210.388 258.848 210.877 260.999L213.265 265.186L271.916 366.641C273.016 368.424 274.452 369.979 276.144 371.217C276.797 371.716 277.48 372.174 278.187 372.588L289.217 353.484C296.974 340.051 301.048 324.808 301.032 309.289C301.015 293.773 296.91 278.527 289.126 265.088L284.327 256.752L246.374 191.065L213.328 248.431Z" fill="#121418"/>
    </g>
    <path d="M138.972 333.52L104.627 313.522L71.7974 256.692L99.9291 319.373L135.947 340.84L138.972 333.52Z" fill="#AEAEAE"/>
    <path d="M194.3 430.582C194.3 430.582 145.795 371.398 142.127 365.682C138.119 358.333 134.715 350.673 131.95 342.775C131.681 340.644 132.218 338.493 133.456 336.739C134.696 334.987 136.546 333.761 138.644 333.303C149.593 338.763 160.046 345.166 169.882 352.442C172.851 355.619 220.425 408.008 220.425 408.008L194.3 430.582Z" fill="#AEAEAE"/>
    <path d="M212.127 406.1C219.797 404.675 223.902 409.467 221.341 416.816C219.718 420.736 217.194 424.218 213.971 426.979C210.75 429.74 206.921 431.704 202.795 432.709C195.126 434.134 191.02 429.34 193.582 421.993C195.203 418.071 197.729 414.59 200.95 411.829C204.173 409.068 208.001 407.105 212.127 406.1Z" fill="#121418"/>
</svg>
