<svg height="24" id="discount_coupon_icon" viewBox="0 0 24 24" width="24"
    xmlns="http://www.w3.org/2000/svg">
    <path d="M22,0H13V2h7.586L0,22.586,1.414,24,22,3.414V11h2V2A2,2,0,0,0,22,0Z"
        data-name="Path 7186" fill="#121418" id="Path_7186" />
    <path
        d="M6.052,10.1A4.052,4.052,0,1,0,2,6.052,4.052,4.052,0,0,0,6.052,10.1Zm0-6.078A2.026,2.026,0,1,1,4.026,6.052,2.026,2.026,0,0,1,6.052,4.026Z"
        data-name="Path 7187" fill="#121418" id="Path_7187" transform="translate(0.026 0.026)" />
    <path
        d="M18.052,14A4.052,4.052,0,1,0,22.1,18.052,4.052,4.052,0,0,0,18.052,14Zm0,6.078a2.026,2.026,0,1,1,2.026-2.026A2.026,2.026,0,0,1,18.052,20.078Z"
        data-name="Path 7188" fill="#121418" id="Path_7188" transform="translate(-0.13 -0.13)" />
</svg>
