<svg height="24" id="edit_icon" viewBox="0 0 24 24" width="24" xmlns="http://www.w3.org/2000/svg">
    <path
        d="M17.744.871,6.366,12.249A4.634,4.634,0,0,0,5,15.548V16.8a.933.933,0,0,0,.933.933H7.187a4.634,4.634,0,0,0,3.3-1.366L21.864,4.99a2.916,2.916,0,0,0,0-4.119A2.981,2.981,0,0,0,17.744.871Zm2.8,2.8L9.166,15.049a2.818,2.818,0,0,1-1.979.819h-.32v-.32a2.818,2.818,0,0,1,.819-1.979L19.064,2.19a1.071,1.071,0,0,1,1.48,0,1.048,1.048,0,0,1,0,1.48Z"
        data-name="Path 7172" fill="#121418" id="Path_7172" transform="translate(1.269 -0.003)" />
    <path
        d="M23,8.979a1,1,0,0,0-1,1V15H18a3,3,0,0,0-3,3v4H5a3,3,0,0,1-3-3V5A3,3,0,0,1,5,2h9.042a1,1,0,0,0,0-2H5A5.006,5.006,0,0,0,0,5V19a5.006,5.006,0,0,0,5,5H16.343a4.968,4.968,0,0,0,3.536-1.464l2.656-2.658A4.968,4.968,0,0,0,24,16.343V9.979A1,1,0,0,0,23,8.979ZM18.465,21.122a2.975,2.975,0,0,1-1.465.8V18a1,1,0,0,1,1-1h3.925a3.016,3.016,0,0,1-.8,1.464Z"
        data-name="Path 7173" fill="#121418" id="Path_7173" />
</svg>
