<svg height="24" viewBox="0 0 24 24" width="24" xmlns="http://www.w3.org/2000/svg">
    <g id="faq_icon" transform="translate(-62 -283.294)">
        <path
            d="M74,283.294a12,12,0,1,0,12,12A12,12,0,0,0,74,283.294Zm0,22a10,10,0,1,1,10-10A10,10,0,0,1,74,305.294Z"
            data-name="Path 7166" fill="#121418" id="Path_7166" transform="translate(0)" />
        <path
            d="M74.85,288.359A4.114,4.114,0,0,0,70,292.406a1.028,1.028,0,1,0,2.056,0,2.056,2.056,0,0,1,2.054-2.057,2.059,2.059,0,0,1,2.028,1.675,2.056,2.056,0,0,1-1.028,2.185,4.067,4.067,0,0,0-2.026,3.6v.764a1.028,1.028,0,1,0,2.056,0v-.764a2.037,2.037,0,0,1,.956-1.8,4.113,4.113,0,0,0-1.247-7.651Z"
            data-name="Path 7167" fill="#121418" id="Path_7167"
            transform="translate(-0.113 -0.119)" />
        <path
            d="M74.028,300.294h0a1.028,1.028,0,0,1,1.028,1.028h0a1.028,1.028,0,0,1-1.028,1.028h0A1.028,1.028,0,0,1,73,301.322h0A1.028,1.028,0,0,1,74.028,300.294Z"
            data-name="Path 7168" fill="#121418" id="Path_7168"
            transform="translate(-0.028 -0.043)" />
    </g>
</svg>
