<svg height="24" viewBox="0 0 24 24" width="24" xmlns="http://www.w3.org/2000/svg">
    <g id="filter_icon" transform="translate(-2166 -9049)">
        <rect data-name="Rectangle 17556" fill="none" height="24" id="Rectangle_17556"
            transform="translate(2166 9049)" width="24" />
        <path
            d="M14,24a1,1,0,0,1-.6-.2l-4-3A1,1,0,0,1,9,20V14.38L1.984,6.487A3.9,3.9,0,0,1,4.9,0H19.1a3.9,3.9,0,0,1,2.913,6.488L15,14.38V23A1,1,0,0,1,14,24Zm-3-4.5L13,21V14a1,1,0,0,1,.253-.664l7.268-8.177A1.9,1.9,0,0,0,19.1,2H4.9A1.9,1.9,0,0,0,3.479,5.158l7.269,8.178A1,1,0,0,1,11,14Z"
            data-name="filter_icon" fill="#121418" id="filter_icon-2"
            transform="translate(2166.001 9049)" />
    </g>
</svg>
