<svg fill="none" height="20" viewBox="0 0 20 20" width="20" xmlns="http://www.w3.org/2000/svg">
    <g clip-path="url(#clip0_80_17)">
        <path
            d="M19.6 10.2271C19.6 9.51804 19.5364 8.83624 19.4182 8.18164H10V12.0498H15.3818C15.15 13.2998 14.4455 14.3589 13.3864 15.068V17.5771H16.6182C18.5091 15.8362 19.6 13.2725 19.6 10.2271Z"
            fill="#4285F4" />
        <path
            d="M10.0001 19.9999C12.7001 19.9999 14.9637 19.1044 16.6182 17.5772L13.3864 15.0681C12.491 15.6681 11.3455 16.0226 10.0001 16.0226C7.39552 16.0226 5.19102 14.2635 4.40462 11.8999H1.06372V14.4908C2.70922 17.759 6.09102 19.9999 10.0001 19.9999Z"
            fill="#34A853" />
        <path
            d="M4.4045 11.9002C4.2045 11.3002 4.0909 10.6593 4.0909 10.0002C4.0909 9.34108 4.2045 8.70018 4.4045 8.10018V5.50928H1.0636C0.3864 6.85928 0 8.38658 0 10.0002C0 11.6138 0.3864 13.1411 1.0636 14.4911L4.4045 11.9002Z"
            fill="#FBBC04" />
        <path
            d="M10.0001 3.9773C11.4682 3.9773 12.7864 4.4818 13.8228 5.4727L16.691 2.6045C14.9592 0.9909 12.6955 0 10.0001 0C6.09102 0 2.70922 2.2409 1.06372 5.5091L4.40462 8.1C5.19102 5.7364 7.39552 3.9773 10.0001 3.9773Z"
            fill="#E94235" />
    </g>
    <defs>
        <clipPath id="clip0_80_17">
            <rect fill="white" height="20" width="20" />
        </clipPath>
    </defs>
</svg>
