<svg height="24" id="grid_view_icon" viewBox="0 0 24 24" width="24"
    xmlns="http://www.w3.org/2000/svg">
    <path
        d="M4.687,17.5h-2.6A2.083,2.083,0,0,0,0,19.583v2.6a2.083,2.083,0,0,0,2.083,2.083h2.6a2.083,2.083,0,0,0,2.083-2.083v-2.6A2.083,2.083,0,0,0,4.687,17.5Zm0,4.687h-2.6v-2.6h2.6Z"
        data-name="Path 7113" fill="#121418" id="Path_7113" transform="translate(0 -0.271)" />
    <path
        d="M22.187,17.5h-2.6A2.083,2.083,0,0,0,17.5,19.583v2.6a2.083,2.083,0,0,0,2.083,2.083h2.6a2.083,2.083,0,0,0,2.083-2.083v-2.6A2.083,2.083,0,0,0,22.187,17.5Zm0,4.687h-2.6v-2.6h2.6Z"
        data-name="Path 7114" fill="#121418" id="Path_7114" transform="translate(-0.271 -0.271)" />
    <path
        d="M4.687,8.75h-2.6A2.083,2.083,0,0,0,0,10.833v2.6a2.083,2.083,0,0,0,2.083,2.083h2.6a2.083,2.083,0,0,0,2.083-2.083v-2.6A2.083,2.083,0,0,0,4.687,8.75Zm0,4.687h-2.6v-2.6h2.6Z"
        data-name="Path 7115" fill="#121418" id="Path_7115" transform="translate(0 -0.135)" />
    <path
        d="M22.187,8.75h-2.6A2.083,2.083,0,0,0,17.5,10.833v2.6a2.083,2.083,0,0,0,2.083,2.083h2.6a2.083,2.083,0,0,0,2.083-2.083v-2.6A2.083,2.083,0,0,0,22.187,8.75Zm0,4.687h-2.6v-2.6h2.6Z"
        data-name="Path 7116" fill="#121418" id="Path_7116" transform="translate(-0.271 -0.135)" />
    <path
        d="M4.687,0h-2.6A2.083,2.083,0,0,0,0,2.083v2.6A2.083,2.083,0,0,0,2.083,6.771h2.6A2.083,2.083,0,0,0,6.771,4.687v-2.6A2.083,2.083,0,0,0,4.687,0Zm0,4.687h-2.6v-2.6h2.6Z"
        data-name="Path 7117" fill="#121418" id="Path_7117" />
    <path
        d="M13.437,17.5h-2.6A2.083,2.083,0,0,0,8.75,19.583v2.6a2.083,2.083,0,0,0,2.083,2.083h2.6a2.083,2.083,0,0,0,2.083-2.083v-2.6A2.083,2.083,0,0,0,13.437,17.5Zm0,4.687h-2.6v-2.6h2.6Z"
        data-name="Path 7118" fill="#121418" id="Path_7118" transform="translate(-0.135 -0.271)" />
    <path
        d="M13.437,8.75h-2.6A2.083,2.083,0,0,0,8.75,10.833v2.6a2.083,2.083,0,0,0,2.083,2.083h2.6a2.083,2.083,0,0,0,2.083-2.083v-2.6A2.083,2.083,0,0,0,13.437,8.75Zm0,4.687h-2.6v-2.6h2.6Z"
        data-name="Path 7119" fill="#121418" id="Path_7119" transform="translate(-0.135 -0.135)" />
    <path
        d="M13.437,0h-2.6A2.083,2.083,0,0,0,8.75,2.083v2.6a2.083,2.083,0,0,0,2.083,2.083h2.6a2.083,2.083,0,0,0,2.083-2.083v-2.6A2.083,2.083,0,0,0,13.437,0Zm0,4.687h-2.6v-2.6h2.6Z"
        data-name="Path 7120" fill="#121418" id="Path_7120" transform="translate(-0.135)" />
    <path
        d="M22.187,0h-2.6A2.083,2.083,0,0,0,17.5,2.083v2.6a2.083,2.083,0,0,0,2.083,2.083h2.6a2.083,2.083,0,0,0,2.083-2.083v-2.6A2.083,2.083,0,0,0,22.187,0Zm0,4.687h-2.6v-2.6h2.6Z"
        data-name="Path 7121" fill="#121418" id="Path_7121" transform="translate(-0.271)" />
</svg>
