<svg fill="none" height="23" viewBox="0 0 24 23" width="24" xmlns="http://www.w3.org/2000/svg">
    <g clip-path="url(#clip0_120_16)">
        <mask style="mask-type:luminance" height="17" id="mask0_120_16" maskUnits="userSpaceOnUse" width="24"
            x="0" y="3">
            <path d="M24 3H0V19.3637H24V3Z" fill="white" />
        </mask>
        <g mask="url(#mask0_120_16)">
            <path
                d="M12 15.8182C13.291 15.8182 14.3863 15.3682 15.2863 14.4682C16.1863 13.5682 16.6363 12.4727 16.6363 11.1818C16.6363 9.89089 16.1863 8.79546 15.2863 7.89546C14.3863 6.99546 13.291 6.54546 12 6.54546C10.7091 6.54546 9.61363 6.99546 8.71363 7.89546C7.81363 8.79546 7.36363 9.89089 7.36363 11.1818C7.36363 12.4727 7.81363 13.5682 8.71363 14.4682C9.61363 15.3682 10.7091 15.8182 12 15.8182ZM12 14.2364C11.1454 14.2364 10.4227 13.9409 9.83182 13.35C9.24092 12.7591 8.94546 12.0364 8.94546 11.1818C8.94546 10.3273 9.24092 9.60452 9.83182 9.01363C10.4227 8.42273 11.1454 8.12728 12 8.12728C12.8545 8.12728 13.5773 8.42273 14.1682 9.01363C14.759 9.60452 15.0546 10.3273 15.0546 11.1818C15.0546 12.0364 14.759 12.7591 14.1682 13.35C13.5773 13.9409 12.8545 14.2364 12 14.2364ZM12 19.3637C9.34543 19.3637 6.94543 18.6091 4.8 17.1C2.65454 15.5909 1.05454 13.6182 0 11.1818C1.05454 8.74543 2.65454 6.77273 4.8 5.26363C6.94543 3.75454 9.34543 3 12 3C14.6545 3 17.0545 3.75454 19.2 5.26363C21.3455 6.77273 22.9454 8.74543 24 11.1818C22.9454 13.6182 21.3455 15.5909 19.2 17.1C17.0545 18.6091 14.6545 19.3637 12 19.3637ZM12 17.7272C14.2 17.7272 16.2228 17.1318 18.0682 15.9409C19.9136 14.75 21.3181 13.1636 22.2818 11.1818C21.3181 9.20002 19.9136 7.61364 18.0682 6.42272C16.2228 5.23182 14.2 4.63637 12 4.63637C9.80002 4.63637 7.77726 5.23182 5.93182 6.42272C4.08636 7.61364 2.67272 9.20002 1.69091 11.1818C2.67272 13.1636 4.08636 14.75 5.93182 15.9409C7.77726 17.1318 9.80002 17.7272 12 17.7272Z"
                fill="black" />
        </g>
    </g>
    <defs>
        <clipPath id="clip0_120_16">
            <rect fill="white" height="23" width="24" />
        </clipPath>
    </defs>
</svg>
