<svg height="24" viewBox="0 0 24 24" width="24" xmlns="http://www.w3.org/2000/svg">
    <g id="home_light_active_icon" transform="translate(-2322 -9049)">
        <rect data-name="Rectangle 17560" fill="none" height="24" id="Rectangle_17560"
            transform="translate(2322 9049)" width="24" />
        <g data-name="home_light_active_icon" id="home_light_active_icon-2"
            transform="translate(2091.374 8914.8)">
            <g data-name="Group 8473" id="Group_8473">
                <path
                    d="M252.23,141.32q-3.9-3.225-7.81-6.42a2.653,2.653,0,0,0-3.61.02q-3.825,3.15-7.64,6.31a2.857,2.857,0,0,0-1.11,2.34c0,3.89,0,7.79.01,11.68a3.469,3.469,0,0,0,.07.79,2.707,2.707,0,0,0,2.71,2.16h15.57a2.564,2.564,0,0,0,.73-.09,2.783,2.783,0,0,0,2.04-2.83V143.45A2.676,2.676,0,0,0,252.23,141.32Zm-.7,14.08a1.113,1.113,0,0,1-1.21,1.17H234.96a1.119,1.119,0,0,1-1.22-.92,2.829,2.829,0,0,1-.02-.3V143.52a1.246,1.246,0,0,1,.48-1.01q3.825-3.15,7.64-6.32a1.177,1.177,0,0,1,1.57,0q3.84,3.18,7.68,6.35a1.156,1.156,0,0,1,.44.93Z"
                    data-name="Path 7134" fill="#121418" id="Path_7134" />
            </g>
            <path
                d="M251.09,142.54q-3.84-3.18-7.68-6.35a1.177,1.177,0,0,0-1.57,0l-7.64,6.32a1.246,1.246,0,0,0-.48,1.01v11.83a2.833,2.833,0,0,0,.02.3,1.119,1.119,0,0,0,1.22.92h15.36a1.113,1.113,0,0,0,1.21-1.17V143.47a1.156,1.156,0,0,0-.44-.93Zm-3.68,12.16c-.5.02-1,.01-1.49.01h-7.99a.83.83,0,0,1-.9-.88.8.8,0,0,1,.69-.76,1.772,1.772,0,0,1,.32-.02q4.59-.015,9.16,0a2.056,2.056,0,0,1,.35.02.822.822,0,0,1-.14,1.63Z"
                data-name="Path 7135" fill="#55AE7B" id="Path_7135" />
            <path
                d="M248.22,153.97a.815.815,0,0,1-.81.73c-.5.02-1,.01-1.49.01h-7.99a.83.83,0,0,1-.9-.88.8.8,0,0,1,.69-.76,1.772,1.772,0,0,1,.32-.02q4.59-.015,9.16,0a2.056,2.056,0,0,1,.35.02A.81.81,0,0,1,248.22,153.97Z"
                data-name="Path 7136" fill="#121418" id="Path_7136" />
        </g>
    </g>
</svg>
