<svg height="24" viewBox="0 0 24 24" width="24" xmlns="http://www.w3.org/2000/svg">
    <g id="home_map_white_icon" transform="translate(-108 -94.98)">
        <path
            d="M128.66,104.13v.01l-.72-.24a8,8,0,0,0-7.03-8.87c-.3-.03-.61-.05-.91-.05a7.964,7.964,0,0,0-7.91,9.09,5.028,5.028,0,0,0-2.55,1.3,4.937,4.937,0,0,0-1.54,3.61v4.07a5,5,0,0,0,3.6,4.8l2.87.9a4.986,4.986,0,0,0,1.49.23,4.735,4.735,0,0,0,1.35-.19l5.78-1.71a3.024,3.024,0,0,1,1.58,0l2.38.8a4.008,4.008,0,0,0,4.84-2.94A4.237,4.237,0,0,0,132,114v-5.15A5.013,5.013,0,0,0,128.66,104.13Zm-12.9-5.39a5.984,5.984,0,0,1,8.46-.02c.01.01.02.01.02.02a6.033,6.033,0,0,1,.01,8.5l-3.55,3.46a1.009,1.009,0,0,1-1.39,0l-3.55-3.44A6.048,6.048,0,0,1,115.76,98.74ZM130,114a2.01,2.01,0,0,1-2.39,1.97l-2.35-.79a4.989,4.989,0,0,0-2.71-.02l-5.79,1.71a3.036,3.036,0,0,1-1.69-.03l-2.89-.9a3.009,3.009,0,0,1-2.18-2.89v-4.07a2.971,2.971,0,0,1,.92-2.16,3.024,3.024,0,0,1,1.67-.81,7.96,7.96,0,0,0,1.76,2.67l3.57,3.45a2.97,2.97,0,0,0,4.17,0l3.57-3.46a7.935,7.935,0,0,0,1.81-2.82l.54.18a2.99,2.99,0,0,1,1.99,2.82Z"
            data-name="Path 8587" fill="#fff" id="Path_8587" />
        <path
            d="M120,98.98a4,4,0,1,0,4,4A4,4,0,0,0,120,98.98Zm0,6a2,2,0,1,1,2-2A2.006,2.006,0,0,1,120,104.98Z"
            data-name="Path 8588" fill="#55AE7B" id="Path_8588" />
    </g>
</svg>
