<svg height="24.001" viewBox="0 0 24 24.001" width="24" xmlns="http://www.w3.org/2000/svg">
    <g id="home_light_icon" transform="translate(-2361 -9049)">
        <rect data-name="Rectangle 17561" fill="none" height="24" id="Rectangle_17561"
            transform="translate(2361 9049)" width="24" />
        <g data-name="home_light_icon" id="home_light_icon-2"
            transform="translate(2158.374 8914.799)">
            <path
                d="M214.621,158.2h-7.77a2.712,2.712,0,0,1-2.712-2.159,3.559,3.559,0,0,1-.074-.791V143.571a2.873,2.873,0,0,1,1.1-2.342q3.829-3.15,7.639-6.311a2.662,2.662,0,0,1,3.613-.019q3.914,3.2,7.809,6.419a2.651,2.651,0,0,1,.957,2.134q.007,5.915,0,11.828a2.738,2.738,0,0,1-2.769,2.922Zm.006-1.629h7.7a1.109,1.109,0,0,0,1.205-1.168v-11.93a1.153,1.153,0,0,0-.441-.933q-3.84-3.173-7.677-6.347a1.176,1.176,0,0,0-1.571,0q-3.819,3.159-7.64,6.315a1.238,1.238,0,0,0-.479,1.015q.006,5.916,0,11.831a1.552,1.552,0,0,0,.02.3,1.113,1.113,0,0,0,1.212.918Q210.792,156.573,214.627,156.571Z"
                data-name="Path 7149" fill="#121418" id="Path_7149" />
            <path
                d="M214.63,154.707h-4.7a.824.824,0,0,1-.9-.873.8.8,0,0,1,.692-.766,1.721,1.721,0,0,1,.321-.022H219.2a1.662,1.662,0,0,1,.346.027.806.806,0,0,1,.673.9.819.819,0,0,1-.812.729c-.5.012-1,0-1.493,0Z"
                data-name="Path 7150" fill="#121418" id="Path_7150" />
        </g>
    </g>
</svg>
