<svg fill="none" height="20" viewBox="0 0 20 20" width="20" xmlns="http://www.w3.org/2000/svg">
    <path
        d="M13.4999 17.6132L19.2239 11.8802C19.7209 11.3808 20 10.7048 20 10.0002C20 9.29555 19.7209 8.6196 19.2239 8.12018L13.4999 2.38818C13.3756 2.26468 13.2282 2.16686 13.0661 2.10032C12.904 2.03378 12.7304 1.99982 12.5551 2.00037C12.3799 2.00093 12.2065 2.03599 12.0448 2.10356C11.8832 2.17113 11.7364 2.26989 11.6129 2.39418C11.4894 2.51848 11.3915 2.66589 11.325 2.82798C11.2585 2.99008 11.2245 3.1637 11.2251 3.33893C11.2256 3.51415 11.2607 3.68755 11.3282 3.84922C11.3958 4.01089 11.4946 4.15768 11.6189 4.28118L16.0079 8.66718L1.33387 8.66718C0.980337 8.66718 0.641283 8.80762 0.391296 9.05761C0.14131 9.3076 0.000869751 9.64665 0.000869751 10.0002C0.000869751 10.3537 0.14131 10.6928 0.391296 10.9428C0.641283 11.1927 0.980337 11.3332 1.33387 11.3332L16.0079 11.3332L11.6189 15.7192C11.4946 15.8427 11.3958 15.9895 11.3282 16.1511C11.2607 16.3128 11.2256 16.4862 11.2251 16.6614C11.2245 16.8367 11.2585 17.0103 11.325 17.1724C11.3915 17.3345 11.4894 17.4819 11.6129 17.6062C11.7364 17.7305 11.8832 17.8292 12.0448 17.8968C12.2065 17.9644 12.3799 17.9994 12.5551 18C12.7304 18.0006 12.904 17.9666 13.0661 17.9001C13.2282 17.8335 13.3756 17.7367 13.4999 17.6132Z"
        fill="#F7F7F7" />
</svg>
