<svg fill="none" height="512" viewBox="0 0 1024 512" width="1024"
    xmlns="http://www.w3.org/2000/svg">
    <g clip-path="url(#clip0_105_43)">
        <path
            d="M454.091 0C407.188 0 369.469 38.0474 369.469 84.6227H684.016C730.919 84.6227 768.639 46.5753 768.639 0H454.091Z"
            fill="#04AB61" />
        <path
            d="M369.469 84.6227C369.469 37.7194 407.516 0 454.091 0V314.547C454.091 361.451 416.044 399.17 369.469 399.17V84.6227Z"
            fill="#04AB61" />
        <path clip-rule="evenodd"
            d="M480.988 112.83V197.453H579.715C626.618 197.453 664.338 159.405 664.338 112.83H480.988Z"
            fill="#FBB016" fill-rule="evenodd" />
        <path
            d="M255 197.453C255 150.55 293.047 112.83 339.623 112.83V427.377C339.623 474.281 301.575 512 255 512V197.453Z"
            fill="#FBB016" />
    </g>
    <defs>
        <clipPath id="clip0_105_43">
            <rect fill="white" height="512" width="1024" />
        </clipPath>
    </defs>
</svg>
