<svg height="24" width="24" xmlns="http://www.w3.org/2000/svg">
    <g class="layer">
        <title>Layer 1</title>
        <path
            d="m10.24,14.71l-2.92,-2.92q-0.27,-0.27 -0.66,-0.27t-0.68,0.3q-0.27,0.27 -0.27,0.66t0.27,0.66l3.63,3.66q0.27,0.27 0.63,0.27t0.63,-0.27l7.12,-7.12q0.3,-0.3 0.3,-0.68t-0.3,-0.68q-0.3,-0.27 -0.7,-0.25t-0.67,0.28l-6.37,6.37l0,0zm1.76,9.2q-2.44,0 -4.62,-0.94t-3.8,-2.56q-1.62,-1.62 -2.56,-3.8t-0.94,-4.62q0,-2.47 0.94,-4.65t2.56,-3.78q1.62,-1.61 3.8,-2.55t4.62,-0.94q2.47,0 4.65,0.94t3.78,2.55q1.61,1.61 2.55,3.78t0.94,4.65q0,2.44 -0.94,4.62t-2.55,3.8q-1.61,1.62 -3.78,2.56t-4.65,0.94zm0,-1.79q4.23,0 7.18,-2.96t2.95,-7.16q0,-4.23 -2.95,-7.18t-7.18,-2.95q-4.2,0 -7.16,2.95t-2.96,7.18q0,4.2 2.96,7.16t7.16,2.96zm0,-10.12z"
            fill="#fff" id="svg_1" />
    </g>
</svg>