<svg height="50.001" viewBox="0 0 48.33 50.001" width="48.33" xmlns="http://www.w3.org/2000/svg">
    <g id="Drop" transform="translate(-3625.249 -575.749)">
        <rect data-name="Rectangle 17645" fill="none" height="50.001" id="Rectangle_17645"
            transform="translate(3625.249 575.749)" width="48.33" />
        <path
            d="M373.958,534.993l-17.179-17.179a6.368,6.368,0,0,1-1.486-7.548A6.479,6.479,0,0,1,361.761,506h34.123a6.479,6.479,0,0,1,6.468,4.265,6.367,6.367,0,0,1-1.486,7.548l-17.18,17.179a7.16,7.16,0,0,1-2.277,1.582,6.909,6.909,0,0,1-5.175,0A7.164,7.164,0,0,1,373.958,534.993Z"
            data-name="drop" fill="rgba(32,41,52,0.7)" id="drop-2"
            transform="translate(3270.592 79.21)" />
    </g>
</svg>
