<svg height="24" width="24" xmlns="http://www.w3.org/2000/svg">
    <g class="layer">
        <title>Layer 1</title>
        <path
            d="m12,17.92q0.41,0 0.7,-0.28q0.28,-0.28 0.28,-0.7q0,-0.41 -0.28,-0.7q-0.28,-0.28 -0.7,-0.28q-0.41,0 -0.7,0.28q-0.28,0.28 -0.28,0.7q0,0.41 0.28,0.7q0.28,0.28 0.7,0.28zm0.09,-4.53q0.38,0 0.63,-0.26t0.25,-0.63l0,-5.71q0,-0.38 -0.26,-0.63q-0.26,-0.26 -0.64,-0.26q-0.38,0 -0.63,0.26t-0.25,0.63l0,5.71q0,0.38 0.26,0.63q0.26,0.26 0.64,0.26zm-0.09,10.44q-2.45,0 -4.6,-0.93t-3.77,-2.54q-1.61,-1.61 -2.54,-3.77q-0.93,-2.16 -0.93,-4.61q0,-2.45 0.93,-4.61q0.93,-2.16 2.54,-3.75t3.77,-2.53q2.16,-0.93 4.61,-0.93q2.45,0 4.61,0.93q2.16,0.93 3.75,2.53t2.53,3.76q0.93,2.16 0.93,4.61q0,2.45 -0.93,4.6t-2.53,3.76q-1.6,1.61 -3.76,2.54q-2.16,0.94 -4.61,0.94zm0.01,-1.78q4.19,0 7.12,-2.94t2.93,-7.13q0,-4.19 -2.92,-7.12q-2.92,-2.93 -7.14,-2.93q-4.17,0 -7.12,2.92q-2.94,2.92 -2.94,7.14q0,4.17 2.94,7.12t7.13,2.94zm-0.01,-10.06z"
            fill="#fff" id="svg_1" />
    </g>
</svg>