<svg fill="none" height="512" viewBox="0 0 1024 512" width="1024"
    xmlns="http://www.w3.org/2000/svg">
    <path
        d="M308.862 413.191C290.178 413.191 275 398.046 275 379.329V132.969C275 114.285 290.178 99.1064 308.862 99.1064C327.546 99.1064 342.724 114.285 342.724 132.969V379.329C342.724 398.046 327.546 413.191 308.862 413.191Z"
        fill="#89C8E9" />
    <path
        d="M715.208 413.191C696.491 413.191 681.346 398.046 681.346 379.329V133.167C681.346 114.483 696.491 99.3048 715.208 99.3048C733.925 99.3048 749.07 114.483 749.07 133.167V379.329C749.07 398.046 733.925 413.191 715.208 413.191Z"
        fill="#0EAEDD" />
    <mask style="mask-type:luminance" height="512" id="mask0_116_17" maskUnits="userSpaceOnUse"
        width="68" x="478" y="0">
        <path d="M478.173 0H545.897V512H478.173V0Z" fill="white" />
    </mask>
    <g mask="url(#mask0_116_17)">
        <path
            d="M512.035 512C493.318 512 478.173 496.822 478.173 478.138V34.3913C478.173 15.6746 493.318 0.529175 512.035 0.529175C530.752 0.529175 545.897 15.6746 545.897 34.3913V478.138C545.897 496.822 530.752 512 512.035 512Z"
            fill="#2E80C3" />
    </g>
</svg>
