<svg fill="none" height="512" viewBox="0 0 1024 512" width="1024"
    xmlns="http://www.w3.org/2000/svg">
    <path
        d="M190.268 374C186.706 373.651 183.126 373.413 179.583 372.944C156.395 369.869 135.741 360.947 117.914 345.773C99.2785 330.088 85.984 308.995 79.8732 285.416C76.471 272.694 75.297 259.479 76.4032 246.357C78.2392 223.454 85.8859 202.652 99.8114 184.385C119.309 158.801 145.095 143.168 176.921 138.441C211.657 133.272 243.014 142.039 270.104 164.263C293.448 183.384 307.529 208.27 311.807 238.123C316.856 273.327 307.805 304.941 284.837 332.159C265.495 355.108 240.554 368.355 210.913 372.825C207.195 373.394 203.422 373.614 199.677 374H190.268ZM168.439 217.028C158.864 217.028 149.299 217.028 139.725 217.028C137.173 217.028 136.264 217.799 136.053 220.314C135.819 222.759 135.865 225.223 136.19 227.658C136.445 229.709 137.443 231.596 138.997 232.96C140.55 234.324 142.55 235.07 144.617 235.057C146.821 235.103 149.024 235.057 151.227 235.057C153.981 235.057 153.981 235.057 153.981 237.765C153.981 248.015 153.981 258.266 153.981 268.516C153.975 272.608 154.509 276.682 155.569 280.634C158.515 291.649 164.941 299.535 176.095 302.821C185.412 305.575 194.766 304.905 203.964 301.903C206.121 301.196 206.158 301.196 206.167 303.482C206.167 309.834 206.121 316.186 206.167 322.539C206.149 323.899 206.403 325.249 206.916 326.509C207.429 327.768 208.189 328.912 209.152 329.873C210.115 330.833 211.261 331.591 212.523 332.1C213.784 332.61 215.134 332.861 216.494 332.838C219.514 332.838 222.544 332.893 225.564 332.838C226.085 332.85 226.603 332.755 227.086 332.561C227.57 332.366 228.009 332.076 228.377 331.707C228.745 331.338 229.035 330.898 229.228 330.414C229.421 329.93 229.514 329.412 229.502 328.891C229.502 328.138 229.502 327.386 229.502 326.633C229.502 297.001 229.502 267.378 229.502 237.765C229.502 234.386 229.502 234.386 232.788 234.386C236.625 234.386 240.472 234.386 244.309 234.386C247.154 234.386 247.981 233.514 247.981 230.623C247.981 228.744 247.981 226.856 247.981 224.959C247.916 219.818 244.465 216.394 239.278 216.348C234.743 216.312 230.212 216.312 225.683 216.348C225.088 216.389 224.492 216.284 223.947 216.043C223.401 215.801 222.923 215.43 222.553 214.962C220.855 212.943 219.092 210.969 217.357 208.986C207.48 197.573 197.581 186.178 187.661 174.801C186.498 173.343 185.016 172.172 183.329 171.376C181.642 170.58 179.795 170.182 177.93 170.211C171.808 170.285 166.373 172.965 160.728 174.866C159.011 175.435 158.828 177.619 160.03 178.996C160.454 179.463 160.901 179.907 161.37 180.327C173.561 191.9 185.755 203.466 197.951 215.027C198.392 215.44 199.2 215.834 198.998 216.468C198.741 217.294 197.814 216.954 197.162 216.954C187.588 216.954 178.022 216.954 168.448 216.954M948.317 293.972C947.05 296.046 945.232 296.79 942.763 296.771C930.233 296.68 917.702 296.771 905.172 296.689C903.336 296.689 902.51 297.111 902.583 299.066C902.648 300.498 902.271 301.94 902.253 303.381C902.152 310.311 906.613 314.956 913.571 315.461C920.53 315.966 927.139 314.048 933.455 311.11C937.962 309.026 938.852 309.274 941.615 313.497C943.58 316.489 945.287 319.537 943.929 323.347C943.193 325.585 941.626 327.455 939.55 328.57C929.957 333.646 919.685 335.124 908.982 334.188C903.943 333.819 899.026 332.468 894.505 330.213C883.884 324.705 878.569 315.746 878.064 304.097C877.642 294.366 877.844 284.599 878.009 274.85C878.276 258.208 889.594 246.072 906.466 244.089C912.467 243.26 918.565 243.468 924.495 244.704C937.953 247.78 946.022 256.574 947.968 270.242C948.041 270.729 948.179 271.215 948.289 271.702L948.317 293.972ZM914.425 282.571C917.95 282.571 921.475 282.571 925 282.571C926.276 282.571 926.836 282.112 926.836 280.808C926.836 278.798 926.836 276.787 926.836 274.777C926.607 268.351 922.971 264.064 916.564 263.247C908.449 262.21 902.482 266.387 902.317 274.988C902.317 276.824 902.381 278.66 902.317 280.496C902.253 282.332 902.932 282.662 904.539 282.616C907.871 282.534 911.203 282.616 914.544 282.616M390.669 315.158C390.669 319.565 390.669 323.962 390.669 328.368C390.669 331.37 389.1 333.123 386.08 333.196C381.361 333.307 376.643 333.307 371.925 333.196C369.171 333.132 367.665 331.599 367.335 328.9C367.244 328.151 367.205 327.397 367.215 326.642C367.215 293.191 367.215 259.741 367.215 226.29C367.215 225.372 367.298 224.528 367.381 223.655C367.464 222.449 367.922 221.299 368.69 220.366C369.459 219.433 370.5 218.763 371.668 218.451C382.013 215.008 392.606 212.943 403.539 213.227C412.122 213.475 420.237 215.522 427.407 220.461C435.668 226.125 440.616 234.01 441.809 243.832C443.144 253.628 443.091 263.564 441.653 273.345C440.417 280.673 436.825 287.397 431.421 292.498C426.017 297.599 419.096 300.798 411.709 301.609C405.146 302.408 398.637 302.399 392.322 300.095C390.917 299.58 390.697 300.214 390.697 301.398C390.697 305.988 390.697 310.578 390.697 315.168M391.422 256.996C391.422 263.532 391.477 270.059 391.422 276.595C391.352 277.27 391.519 277.949 391.894 278.515C392.269 279.081 392.829 279.499 393.478 279.697C396.939 281.267 400.556 281.304 404.219 281.102C412.802 280.634 418.906 274.346 418.906 265.753C418.86 259.383 419.393 253.012 418.218 246.641C417.3 241.528 415.069 237.526 410.259 235.286C404.586 232.642 398.793 232.982 392.964 234.745C391.643 235.148 391.486 236.03 391.486 237.205C391.486 243.796 391.486 250.396 391.486 256.996M794.52 276.237V226.226C794.52 221.003 795.695 219.442 800.625 217.891C810.3 214.852 820.168 212.979 830.33 213.209C840.125 213.429 849.259 215.88 857.043 222.187C860.413 224.853 863.22 228.162 865.302 231.922C867.384 235.682 868.698 239.818 869.169 244.089C870.441 253.456 870.441 262.951 869.169 272.317C866.884 287.573 856.639 297.965 841.355 301.169C834.321 302.813 826.97 302.495 820.104 300.251C818.433 299.663 818.048 300.113 818.057 301.765C818.112 310.385 818.057 319.005 818.057 327.615C818.057 331.663 816.506 333.261 812.549 333.279C808.593 333.297 804.489 333.279 800.459 333.279C796.43 333.279 794.63 331.572 794.584 327.422V276.237H794.52ZM818.773 256.959C818.773 263.559 818.819 270.169 818.773 276.769C818.714 277.383 818.863 277.999 819.196 278.518C819.529 279.038 820.026 279.43 820.609 279.633C824.051 281.258 827.668 281.322 831.34 281.139C840.051 280.725 846.137 274.428 846.22 265.735C846.22 261.522 846.22 257.299 846.22 253.085C846.123 249.774 845.577 246.491 844.595 243.327C844.135 241.648 843.315 240.089 842.193 238.758C841.071 237.426 839.673 236.355 838.096 235.617C832.506 232.771 826.704 233 820.811 234.543C820.492 234.584 820.185 234.689 819.907 234.85C819.629 235.012 819.386 235.227 819.192 235.483C818.998 235.74 818.857 236.032 818.778 236.343C818.698 236.654 818.68 236.978 818.727 237.296C818.819 243.842 818.727 250.377 818.727 256.923M454.679 272.858C454.679 254.615 454.679 236.372 454.679 218.129C454.679 213.989 456.185 212.447 460.38 212.475C463.4 212.475 466.429 212.218 469.431 212.722C471.632 213.045 473.663 214.09 475.203 215.694C476.744 217.298 477.707 219.369 477.941 221.581C478.556 227.667 478.069 233.781 478.189 239.876C478.189 241.51 478.244 243.144 478.189 244.778C478.133 246.164 478.491 246.751 480.024 246.32C484.164 245.24 488.402 244.578 492.674 244.346C508.748 243.135 521.627 252.544 525.078 268.214C525.901 271.828 526.32 275.522 526.327 279.229C526.327 295.404 526.327 311.569 526.327 327.734C526.327 331.526 524.729 333.169 520.975 333.242C518.576 333.279 516.183 333.279 513.796 333.242C512.341 333.252 510.898 332.972 509.552 332.417C508.207 331.862 506.985 331.045 505.959 330.012C504.933 328.979 504.124 327.752 503.578 326.403C503.032 325.053 502.761 323.609 502.781 322.153C502.744 308.439 502.744 294.727 502.781 281.019C502.881 278.311 502.572 275.603 501.863 272.987C500.495 268.544 497.457 266.093 492.913 265.405C488.72 264.894 484.469 265.181 480.382 266.249C478.638 266.644 478.097 267.507 478.106 269.269C478.161 288.143 478.161 307.013 478.106 325.88C478.106 326.633 478.106 327.395 478.106 328.148C477.858 331.581 476.27 333.187 472.818 333.233C468.473 333.288 464.128 333.288 459.783 333.233C456.231 333.233 454.624 331.526 454.624 327.973C454.624 309.614 454.624 291.255 454.624 272.895M538.618 288.372C538.829 283.975 538.233 278.274 538.921 272.666C540.583 259.025 548.101 250.203 561.2 246.32C571.754 243.007 583.12 243.372 593.439 247.357C605.492 252.039 611.799 261.182 612.818 273.978C613.561 283.388 613.167 292.833 613.066 302.261C612.965 311.688 610.073 320.326 602.527 326.752C596.863 331.581 590.107 333.811 582.874 334.739C575.11 335.835 567.197 335.1 559.768 332.591C546.862 328.138 538.811 317.049 538.655 303.418C538.591 298.828 538.655 294.238 538.655 288.39M563.385 288.62C563.385 293.705 563.321 297.8 563.385 301.875C563.523 309.081 566.901 313.231 573.878 314.112C582.139 315.168 589.309 312.276 589.566 302.233C589.777 293.88 589.712 285.517 589.566 277.155C589.446 270.334 585.894 265.983 579.872 264.79C578.065 264.511 576.231 264.452 574.41 264.615C568.471 264.9 564.45 268.673 563.67 274.548C563.018 279.56 563.569 284.599 563.358 288.62M756.379 296.726C749.889 296.726 743.408 296.781 736.918 296.726C735.284 296.726 734.604 297.331 734.549 298.864C734.485 300.994 733.907 303.096 734.201 305.29C734.99 311.128 739.277 315.039 745.29 315.516C752.285 316.067 758.765 314.341 764.998 311.367C769.919 309.017 770.901 309.293 773.829 313.956C775.785 317.059 777.409 320.244 775.665 324.053C775.043 325.791 773.836 327.258 772.25 328.203C757.085 335.868 741.508 337.382 725.939 329.928C716.245 325.339 711.04 316.82 710.223 306.19C709.42 294.837 709.42 283.441 710.223 272.087C711.04 259.309 719.495 249.184 732.254 245.54C741.008 242.949 750.321 242.926 759.087 245.476C771.02 248.955 777.841 257.216 779.814 269.343C781.026 276.888 780.595 284.526 780.457 292.127C780.393 295.349 778.621 296.762 775.289 296.771H756.379M746.465 282.616C750.045 282.616 753.634 282.616 757.214 282.616C758.389 282.616 758.958 282.231 758.921 280.982C758.866 279.036 758.976 277.081 758.876 275.144C758.536 268.461 754.855 264.129 748.438 263.302C741.81 262.43 735.467 265.001 734.311 273.345C733.962 275.851 734.219 278.366 734.109 280.872C734.044 282.194 734.623 282.635 735.899 282.616C739.424 282.571 742.94 282.616 746.465 282.616ZM626.642 291.42C626.642 279.658 626.642 267.895 626.642 256.133C626.642 252.149 627.946 250.515 631.719 249.258C641.138 246.003 651.027 244.313 660.993 244.255C670.659 244.255 679.949 245.944 687.614 252.516C693.764 257.795 696.61 264.762 697.84 272.565C698.179 275.12 698.317 277.698 698.253 280.276C698.253 296.065 698.253 311.854 698.253 327.643C698.253 331.691 696.747 333.233 692.653 333.206C689.578 333.206 686.485 333.481 683.419 332.985C678.305 332.15 674.992 328.395 674.973 323.218C674.918 309.816 674.973 296.423 674.973 283.02C675.047 280.003 674.817 276.986 674.285 274.015C673.073 268.131 669.199 264.835 663.214 264.569C659.628 264.436 656.038 264.648 652.492 265.203C650.656 265.487 650.151 266.295 650.161 268.057C650.203 287.298 650.203 306.545 650.161 325.798C650.161 326.55 650.161 327.312 650.161 328.056C650.115 329.243 649.612 330.366 648.756 331.189C647.9 332.012 646.758 332.472 645.571 332.471C640.724 332.563 635.868 332.572 631.021 332.471C628.267 332.416 626.642 330.553 626.633 327.634C626.633 315.553 626.633 303.476 626.633 291.401"
        fill="#5F259F" />
    <path
        d="M206.213 258.483C206.213 265.469 206.167 272.445 206.213 279.422C206.298 280.1 206.128 280.785 205.736 281.345C205.344 281.905 204.758 282.299 204.092 282.451C199.609 283.992 194.851 284.568 190.13 284.14C182.098 283.378 177.609 278.632 176.929 270.49C176.305 263.018 176.764 255.536 176.636 248.055C176.581 244.383 176.636 240.766 176.636 237.122C176.636 235.607 177.131 234.992 178.719 235.001C187.156 235.056 195.592 235.075 204.019 235.001C205.855 235.001 206.24 235.745 206.231 237.37C206.176 244.411 206.231 251.451 206.231 258.483"
        fill="#5F259F" />
</svg>
