<svg fill="none" height="512" viewBox="0 0 1024 512" width="1024"
    xmlns="http://www.w3.org/2000/svg">
    <path
        d="M529.925 88.3851H487.61V153.905H529.925C571.671 153.905 572.108 88.3851 529.925 88.3851Z"
        fill="#3273C2" />
    <path
        d="M618.804 24H406.488C402.676 24.0976 399.645 27.002 399.711 30.5288V223.148L446.963 246.127V88.5805H424.423V52.1533H536.053C624.853 52.1533 623.926 190.052 536.053 190.052H486.419V265.42L512.944 278.283L625.501 223.148V30.5288C625.58 27.0143 622.576 24.1098 618.777 24"
        fill="#3273C2" />
    <path
        d="M181.04 336.824C181.04 322.705 193.442 311.246 208.742 311.221H227.749C239.542 310.526 251.375 312.185 262.4 316.115C276.655 323.425 285.126 337.593 284.239 352.615C285.153 366.515 277.899 379.804 265.233 387.395C253.81 393.155 240.892 395.889 227.894 395.303H208.504V442.896H181L181.04 336.824ZM208.557 372.739H229.377C242.838 372.739 256.113 367.845 256.113 353.189C256.113 336.067 245.922 333.615 228.411 333.615H212.091C208.597 333.615 208.597 336.641 208.597 339.85L208.557 372.739Z"
        fill="#3273C2" />
    <path
        d="M347.679 433.829C340.147 441.041 329.757 445.117 318.904 445.141C299.302 446.142 282.532 432.303 281.447 414.23C281.42 413.766 281.407 413.29 281.394 412.814C281.023 396.364 294.444 382.428 312.193 380.817L347.268 376.119C346.474 366.502 330.115 363.11 323.007 363.11C313.226 363.207 303.564 365.197 294.669 368.955H291.784V347.136C302.041 344.146 312.696 342.498 323.457 342.242C347.93 342.242 371.754 350.711 372.615 375.545V442.871H347.692V433.829H347.679ZM323.629 424.066C331.835 423.749 339.79 421.418 346.686 417.317V395.132C337.977 396.596 328.95 397.377 319.963 399.073C312.882 399.464 307.389 404.943 307.521 411.484C307.521 420.686 315.066 424.066 323.629 424.066Z"
        fill="#3273C2" />
    <path
        d="M459.481 344.329H483.557L436.438 464.13C428.523 483.107 414.202 488 389.729 488H385.056V467.34C404.606 467.523 411.184 467.34 416.253 454.355L421.15 441.908L374.627 344.329H402.991L433.38 410.521L459.481 344.329Z"
        fill="#3273C2" />
    <path d="M459.574 334.188V311.221H565.659V334.188H526.071V442.896H498.54V334.188H459.574Z"
        fill="#575756" />
    <path
        d="M623.01 433.829C615.479 441.029 605.115 445.105 594.262 445.141C574.673 446.166 557.89 432.352 556.778 414.303C556.751 413.815 556.725 413.315 556.725 412.826C556.341 396.376 569.762 382.44 587.525 380.829L622.6 376.131C621.805 366.515 605.446 363.122 598.325 363.122C588.531 363.207 578.882 365.209 569.974 368.967H567.089V347.148C577.346 344.158 588.001 342.51 598.762 342.254C623.248 342.254 647.112 350.723 647.946 375.557V442.884H623.036L623.01 433.829ZM598.947 424.066C607.14 423.749 615.095 421.418 621.977 417.317V395.132C613.268 396.596 604.241 397.377 595.254 399.073C588.173 399.464 582.68 404.943 582.813 411.484C582.813 420.686 590.37 424.066 598.947 424.066Z"
        fill="#575756" />
    <path
        d="M691.929 444.971C677.7 444.922 666.211 434.244 666.264 421.113C666.264 421.101 666.264 421.076 666.264 421.064V305.01H692.14V347.124C698.321 343.646 705.482 341.949 712.722 342.242C727.003 342.011 740.676 347.575 750.1 357.472C757.83 367.564 761.748 379.731 761.271 392.081C761.628 403.125 758.902 414.072 753.356 423.859C743.879 437.71 727.043 445.764 709.32 444.959L691.929 444.971ZM698.255 423.7H706.832C714.204 424.201 721.497 422.053 727.189 417.696C733.741 411.472 734.548 400.172 734.548 392.093C734.945 385.296 733.304 378.523 729.796 372.531C725.415 366.613 718.016 363.196 710.247 363.513C704.092 363.659 697.977 364.477 692.035 365.954V418.257C692.14 421.308 694.867 423.737 698.189 423.712"
        fill="#575756" />
    <path
        d="M766.406 440.053V418.99H769.649C779.258 422.321 789.41 424.103 799.668 424.274C806.987 424.078 819.231 422.931 819.231 413.742C819.231 408.629 811.316 406.2 806.392 404.504C797.577 401.795 788.921 398.671 780.463 395.12C770.867 390.116 765.056 380.634 765.361 370.481C765.361 351.663 784.354 342.071 802.104 342.255C813.261 342.474 824.326 344.244 834.915 347.502V367.65H831.474C823.096 364.806 814.267 363.269 805.346 363.11C801.256 363.11 789.834 363.842 789.834 369.517C789.834 372.519 795.75 375.558 800.25 376.876C809.555 379.56 818.688 382.758 827.582 386.455C838.092 391.459 844.418 401.71 843.704 412.595C843.704 435.171 821.07 444.946 798.583 444.946C787.637 444.849 776.77 443.189 766.38 440.028"
        fill="#575756" />
</svg>
