<svg height="24" width="24" xmlns="http://www.w3.org/2000/svg">
    <g class="layer">
        <title>Layer 1</title>
        <path
            d="m0.93,22.65q-0.26,0 -0.45,-0.12q-0.19,-0.12 -0.3,-0.32q-0.12,-0.19 -0.13,-0.42q-0.01,-0.22 0.13,-0.46l11.07,-19.54q0.14,-0.23 0.33,-0.34t0.41,-0.1q0.23,0 0.41,0.1t0.33,0.34l11.07,19.54q0.14,0.23 0.13,0.46q-0.01,0.22 -0.13,0.42q-0.11,0.2 -0.3,0.32q-0.19,0.12 -0.45,0.12l-22.15,0l0,0zm1.48,-1.75l19.18,0l-9.59,-16.92l-9.59,16.92l0,0zm9.71,-1.66q0.37,0 0.61,-0.25q0.24,-0.25 0.24,-0.63q0,-0.37 -0.25,-0.62q-0.25,-0.25 -0.61,-0.25q-0.37,0 -0.61,0.25q-0.24,0.25 -0.24,0.63q0,0.37 0.25,0.62q0.25,0.25 0.61,0.25zm0,-3.24q0.37,0 0.61,-0.25t0.24,-0.62l0,-4.78q0,-0.37 -0.25,-0.62q-0.25,-0.25 -0.61,-0.25q-0.37,0 -0.61,0.25t-0.24,0.62l0,4.78q0,0.37 0.25,0.62q0.25,0.25 0.61,0.25zm-0.12,-3.56z"
            fill="#fff" id="svg_1" />
    </g>
</svg>