<svg fill="none" height="358" viewBox="0 0 358 358" width="358" xmlns="http://www.w3.org/2000/svg">
    <path
        d="M42.7164 301.965C42.8703 302.021 43.0241 302.07 43.1779 302.119L43.066 302.595C42.9122 302.546 42.7584 302.497 42.6046 302.441C29.2565 298.052 15.0763 291.948 0.127013 284.171C0.00814627 284.108 -0.0338069 283.961 0.0291228 283.849C0.0920525 283.73 0.238888 283.681 0.357756 283.744C15.2721 291.507 29.4383 297.59 42.7164 301.965Z"
        fill="#FEFEFE" />
    <path
        d="M131.224 298.71C131.084 298.822 130.937 298.92 130.79 299.018C119.798 306.893 105.891 310.862 89.2914 310.862C86.977 310.862 84.6067 310.778 82.1874 310.624C79.6702 310.463 77.1111 310.225 74.51 309.889C74.3491 309.868 74.1813 309.847 74.0205 309.826L74.1254 309.392C74.2862 309.42 74.447 309.441 74.6078 309.462C97.4653 312.367 116.491 308.741 130.678 298.5C130.818 298.395 130.965 298.297 131.105 298.185L131.224 298.71Z"
        fill="#FEFEFE" />
    <path
        d="M135.657 295.112C135.587 295.175 135.524 295.238 135.454 295.301C135.342 295.406 135.23 295.504 135.112 295.595H134.356C134.545 295.441 134.734 295.28 134.916 295.112H135.657Z"
        fill="#FEFEFE" />
    <path
        d="M145.69 283.023C145.558 283.226 145.418 283.415 145.285 283.611L145.18 282.897C145.32 282.708 145.453 282.512 145.585 282.316L145.69 283.023Z"
        fill="#FEFEFE" />
    <path
        d="M357.987 234.667C357.952 234.793 354.253 247.246 338.64 254.428C310.384 267.441 268.186 252.993 239.805 240.26C194.363 219.869 172.792 243.235 156.668 266.664C156.535 266.874 156.395 267.07 156.255 267.273L156.165 266.552C156.297 266.349 156.437 266.153 156.577 265.95C172.764 242.514 194.482 219.379 240.008 239.819C294.078 264.088 323.369 260.924 338.416 254.001C353.827 246.91 357.484 234.66 357.519 234.534C357.554 234.408 357.693 234.331 357.819 234.366C357.952 234.401 358.029 234.541 357.987 234.66V234.667Z"
        fill="#FEFEFE" />
    <path
        d="M295.687 247.442C292.673 245.153 290.988 241.597 289.506 238.454C289.45 238.335 289.506 238.188 289.625 238.132C289.743 238.076 289.89 238.132 289.953 238.251C291.415 241.338 293.072 244.845 295.994 247.057C298.693 249.108 303.175 249.766 305.721 247.253C308.357 244.649 307.636 240.232 306.217 237.243C304.644 233.939 302.183 230.985 301.26 227.394C298.085 215.074 311.951 206.653 312.594 194.788C312.776 191.477 311.895 187.907 309.895 183.861C307.657 179.325 304.888 176.07 301.665 174.187C297.694 171.863 292.813 171.765 289.506 173.942C286.506 175.916 284.646 179.857 284.646 184.211C284.646 188.222 286.031 192.128 287.45 195.775C288.737 199.072 290.107 202.411 290.345 205.911C290.555 209.04 289.667 213.198 286.527 215.487C285.338 216.355 283.877 216.922 282.989 218.021C281.017 220.478 282.758 224.118 283.597 225.574C284.954 227.919 286.66 230.04 288.667 231.874C288.765 231.965 288.771 232.119 288.681 232.217C288.59 232.315 288.436 232.322 288.331 232.231C286.289 230.362 284.548 228.206 283.171 225.812C282.283 224.272 280.444 220.408 282.604 217.72C283.562 216.523 285.045 215.963 286.233 215.095C289.212 212.918 290.051 208.942 289.848 205.939C289.366 198.862 284.157 192.457 284.15 184.211C284.15 179.696 286.094 175.601 289.226 173.536C292.68 171.254 297.777 171.352 301.903 173.767C305.21 175.706 308.042 179.031 310.321 183.651C312.356 187.767 313.251 191.421 313.069 194.816C312.426 206.611 298.665 215.424 301.721 227.275C302.623 230.761 305.077 233.729 306.644 237.033C308.133 240.162 308.867 244.81 306.049 247.589C303.336 250.27 298.679 249.71 295.68 247.428L295.687 247.442Z"
        fill="#FEFEFE" />
    <path
        d="M288.107 256.29C288.058 256.066 283.122 233.547 295.617 211.882C299.462 205.218 301.833 198.078 302.658 190.672C302.672 190.539 302.791 190.441 302.931 190.455C303.063 190.469 303.161 190.588 303.147 190.721C302.308 198.197 299.917 205.393 296.043 212.12C283.639 233.624 288.534 255.954 288.583 256.178C288.611 256.311 288.527 256.437 288.401 256.465C288.268 256.493 288.135 256.409 288.107 256.283V256.29Z"
        fill="#FEFEFE" />
    <path
        d="M259.118 268.441H254.181C254.048 268.441 253.937 268.329 253.937 268.197C253.937 268.064 254.048 267.952 254.181 267.952H259.118C259.251 267.952 259.362 268.064 259.362 268.197C259.362 268.329 259.251 268.441 259.118 268.441Z"
        fill="#FEFEFE" />
    <path
        d="M296.903 279.536H291.967C291.834 279.536 291.722 279.425 291.722 279.292C291.722 279.159 291.834 279.047 291.967 279.047H296.903C297.036 279.047 297.148 279.159 297.148 279.292C297.148 279.425 297.036 279.536 296.903 279.536Z"
        fill="#FEFEFE" />
    <path
        d="M235.316 290.631H230.38C230.247 290.631 230.135 290.52 230.135 290.387C230.135 290.254 230.247 290.142 230.38 290.142H235.316C235.449 290.142 235.561 290.254 235.561 290.387C235.561 290.52 235.449 290.631 235.316 290.631Z"
        fill="#FEFEFE" />
    <path
        d="M75.7545 325.995H70.818C70.6851 325.995 70.5732 325.884 70.5732 325.751C70.5732 325.618 70.6851 325.506 70.818 325.506H75.7545C75.8873 325.506 75.9992 325.618 75.9992 325.751C75.9992 325.884 75.8873 325.995 75.7545 325.995Z"
        fill="#FEFEFE" />
    <path
        d="M339.912 272.144H334.976C334.843 272.144 334.731 272.033 334.731 271.9C334.731 271.767 334.843 271.655 334.976 271.655H339.912C340.045 271.655 340.157 271.767 340.157 271.9C340.157 272.033 340.045 272.144 339.912 272.144Z"
        fill="#FEFEFE" />
    <path
        d="M211.424 248.624H206.487C206.355 248.624 206.243 248.513 206.243 248.38C206.243 248.247 206.355 248.135 206.487 248.135H211.424C211.557 248.135 211.669 248.247 211.669 248.38C211.669 248.513 211.557 248.624 211.424 248.624Z"
        fill="#FEFEFE" />
    <path
        d="M188.119 292.472H183.182C183.05 292.472 182.938 292.36 182.938 292.228C182.938 292.095 183.05 291.983 183.182 291.983H188.119C188.252 291.983 188.364 292.095 188.364 292.228C188.364 292.36 188.252 292.472 188.119 292.472Z"
        fill="#FEFEFE" />
    <path
        d="M214.955 63.363H197.328C196.251 63.363 195.258 64.224 195.118 65.295L190.727 98.44C190.58 99.532 191.37 100.435 192.482 100.435H195.16C195.237 100.274 195.314 100.12 195.391 99.952H192.482C191.671 99.952 191.105 99.315 191.21 98.51L195.608 65.365C195.719 64.532 196.489 63.86 197.328 63.86H214.955C215.703 63.86 216.235 64.399 216.235 65.106C216.235 65.169 216.228 65.239 216.221 65.309L213.962 82.368L213.703 84.293C213.745 84.328 213.766 84.342 213.773 84.349C213.913 84.475 214.151 84.391 214.172 84.195L214.382 82.641C214.382 82.641 214.41 82.613 214.431 82.599L214.514 81.92L216.71 65.372C216.857 64.273 216.06 63.377 214.955 63.377V63.363Z"
        fill="#FEFEFE" />
    <path
        d="M213.592 65.9601H211.081C210.767 65.9601 210.473 66.2191 210.431 66.5341L209.263 75.3821C209.221 75.6901 209.445 75.9491 209.76 75.9491H212.263C212.585 75.9491 212.878 75.6901 212.92 75.3821L214.095 66.5341C214.137 66.2191 213.913 65.9601 213.592 65.9601ZM212.326 73.6881C212.256 74.2341 211.746 74.6891 211.179 74.6891C210.613 74.6891 210.235 74.2341 210.305 73.6881C210.382 73.1351 210.893 72.6871 211.445 72.6871C211.997 72.6871 212.396 73.1351 212.326 73.6881ZM212.69 70.9581C212.613 71.5111 212.102 71.9591 211.543 71.9591C210.983 71.9591 210.599 71.5111 210.669 70.9581C210.746 70.4121 211.249 69.9571 211.809 69.9571C212.368 69.9571 212.759 70.4121 212.69 70.9581ZM213.046 68.2281C212.976 68.7741 212.466 69.2291 211.899 69.2291C211.333 69.2291 210.955 68.7741 211.032 68.2281C211.102 67.6751 211.613 67.2271 212.165 67.2271C212.717 67.2271 213.123 67.6751 213.046 68.2281Z"
        fill="#55AE7B" />
    <path
        d="M201.663 88.1011L199.537 86.3931C199.474 86.3441 199.467 86.2601 199.516 86.1971C199.565 86.1341 199.649 86.1271 199.712 86.1761L201.838 87.8841C201.901 87.9331 201.908 88.0171 201.859 88.0801C201.81 88.1361 201.719 88.1501 201.663 88.1011Z"
        fill="#FEFEFE" />
    <path
        d="M202.915 85.322L200.789 83.614C200.726 83.565 200.719 83.481 200.768 83.418C200.817 83.355 200.908 83.348 200.964 83.397L203.089 85.105C203.152 85.154 203.159 85.238 203.11 85.301C203.061 85.357 202.971 85.371 202.915 85.322Z"
        fill="#FEFEFE" />
    <path
        d="M204.187 82.004L202.061 80.296C201.998 80.247 201.991 80.163 202.04 80.1C202.089 80.037 202.18 80.03 202.236 80.079L204.362 81.787C204.425 81.836 204.432 81.92 204.383 81.983C204.334 82.039 204.243 82.053 204.187 82.004Z"
        fill="#FEFEFE" />
    <path
        d="M217.192 84.846C216.955 82.97 216.458 81.941 215.675 81.696C215.242 81.563 214.829 81.71 214.514 81.899C214.193 82.095 213.976 82.326 213.962 82.347C213.934 82.389 213.913 82.431 213.906 82.48L213.745 83.67C212.011 82.214 204.397 75.984 201.439 76.222C201.033 76.257 200.719 76.411 200.495 76.67C199.726 77.573 200.173 78.525 200.852 79.295C200.082 79.064 199.397 79.113 198.81 79.456C198.369 79.722 198.132 80.065 198.111 80.485C198.069 81.059 198.439 81.738 199.229 82.536C198.439 82.319 197.845 82.459 197.467 82.942C197.251 83.222 197.174 83.53 197.223 83.873C197.3 84.363 197.649 84.86 198.048 85.287C197.237 85.091 196.565 85.245 196.146 85.749C195.51 86.498 195.461 87.52 195.999 88.787C197.223 92.231 196.475 96.445 194.852 99.938C194.775 100.106 194.698 100.26 194.615 100.421C194.013 101.632 193.314 102.745 192.552 103.69C192.454 103.823 192.503 104.005 192.65 104.068L208.082 110.48C208.193 110.529 208.326 110.48 208.389 110.375C211.235 105.531 212.459 100.806 212.941 98.391C214.584 95.346 217.605 88.059 217.192 84.839V84.846ZM212.487 98.209C212.487 98.209 212.473 98.251 212.466 98.279C212.004 100.617 210.822 105.223 208.075 109.962L193.132 103.76C193.88 102.787 194.573 101.66 195.16 100.435C195.237 100.274 195.314 100.12 195.391 99.952C196.992 96.389 197.705 92.14 196.454 88.633C195.992 87.534 196.013 86.673 196.516 86.078C197.23 85.231 198.74 86.029 199.362 86.407C199.474 86.477 199.621 86.449 199.698 86.337C199.768 86.225 199.74 86.078 199.628 86.008C198.775 85.413 197.817 84.531 197.712 83.817C197.677 83.607 197.726 83.425 197.852 83.257C198.411 82.536 199.761 83.208 200.516 83.677C200.628 83.747 200.775 83.719 200.852 83.614C200.922 83.502 200.901 83.355 200.803 83.285C198.929 81.815 198.565 80.975 198.593 80.534C198.614 80.275 198.768 80.065 199.062 79.883C200.027 79.323 201.229 79.883 202.061 80.45C202.173 80.52 202.313 80.499 202.397 80.394C202.474 80.289 202.46 80.142 202.362 80.065C200.929 78.854 200.131 77.874 200.873 76.992C201.005 76.824 201.208 76.733 201.481 76.712C204.404 76.488 212.843 83.551 213.703 84.279C213.745 84.314 213.766 84.328 213.773 84.335C213.913 84.461 214.151 84.377 214.172 84.181L214.382 82.627C214.382 82.627 214.409 82.599 214.43 82.585C214.626 82.403 215.095 82.039 215.528 82.172C216.088 82.347 216.5 83.32 216.703 84.916C217.088 87.898 214.207 95.045 212.487 98.216V98.209Z"
        fill="#FEFEFE" />
    <path
        d="M219.227 65.274C219.206 65.183 219.262 65.085 219.36 65.064L223.919 64.021C224.017 64 224.108 64.056 224.129 64.154C224.15 64.245 224.094 64.343 223.996 64.364L219.437 65.407C219.339 65.428 219.248 65.372 219.227 65.274Z"
        fill="#55AE7B" />
    <path
        d="M217.899 62.341C217.857 62.341 217.815 62.327 217.78 62.292C217.71 62.229 217.71 62.117 217.78 62.047L221.136 58.533C221.199 58.463 221.311 58.463 221.381 58.533C221.451 58.596 221.451 58.708 221.381 58.778C217.815 62.481 218.046 62.348 217.899 62.348V62.341Z"
        fill="#55AE7B" />
    <path
        d="M214.752 60.962C214.654 60.948 214.591 60.857 214.612 60.759L215.459 56.139C215.479 56.048 215.563 55.985 215.661 55.999C215.759 56.013 215.822 56.104 215.801 56.202L214.955 60.822C214.941 60.913 214.85 60.976 214.752 60.962Z"
        fill="#55AE7B" />
    <path
        d="M167.373 140.09C168.408 140.09 169.443 140.055 170.499 139.978C187.525 138.767 202.019 127.931 213.585 107.771L191.356 98.16C184.092 110.83 177.099 115.17 168.744 115.765C154.731 116.759 139.02 101.191 134.706 95.689L115.624 110.669C118.057 113.77 139.516 140.083 167.38 140.083L167.373 140.09Z"
        fill="#55AE7B" />
    <path
        d="M117.162 189.174L110.477 206.135L110.156 206.947L110.345 207.794L110.666 206.982L117.686 189.174H117.162Z"
        fill="#FEFEFE" />
    <path
        d="M132.216 303.127L132.321 303.617H131.825L131.713 303.127L130.79 299.018L130.678 298.5L110.345 207.794L110.666 206.982L130.419 295.112L130.524 295.595L131.105 298.185L131.223 298.71L132.216 303.127Z"
        fill="#FEFEFE" />
    <path
        d="M161.57 303.617H161.066L161.003 303.127L160.003 295.595L159.94 295.112L156.255 267.273L156.165 266.552L145.928 189.174L145.865 188.684L145.054 182.573H104.695L104.653 182.384C104.618 182.23 104.737 182.083 104.891 182.083H145.271C145.39 182.083 145.494 182.174 145.508 182.3C150.55 220.478 154.095 247.225 156.577 265.95C156.605 266.195 156.64 266.426 156.668 266.664C159.325 286.712 160.751 297.415 161.507 303.127C161.528 303.295 161.549 303.463 161.57 303.617Z"
        fill="#FEFEFE" />
    <path
        d="M110.478 206.135L110.156 206.947L71.9228 303.953L71.734 304.436H72.2584L72.4472 303.953L110.345 207.794L110.666 206.982L110.478 206.135ZM120.12 182.083H71.5242C71.4123 182.083 71.3144 182.16 71.2865 182.272L42.7164 301.965L42.6045 302.441L42.2409 303.953L42.1221 304.436H42.6255L42.7444 303.953L43.066 302.595L43.1779 302.119L71.72 182.573H119.763L117.351 188.684L117.162 189.174H117.687L117.882 188.684L120.288 182.573L120.351 182.419C120.414 182.258 120.295 182.083 120.12 182.083Z"
        fill="#FEFEFE" />
    <path
        d="M67.9093 314.348H43.2129L43.2688 314.103H67.8604V314.117C67.8743 314.194 67.8883 314.271 67.9093 314.348Z"
        fill="#55AE7B" />
    <path
        d="M72.7617 322.076C72.9645 322.237 73.1673 322.377 73.377 322.51C73.4749 322.58 73.5728 322.643 73.6707 322.706C74.0343 322.944 74.4119 323.147 74.8034 323.343C74.1532 323.329 73.6287 323.14 73.433 322.671C73.1183 322.587 72.9016 322.377 72.7617 322.076Z"
        fill="#55AE7B" />
    <path
        d="M86.5084 329.566H39.9404L43.5484 314.446H67.5666C68.6294 319.472 72.1325 323.189 77.2298 324.666C82.0404 326.052 85.2218 327.739 86.5084 329.559V329.566Z"
        fill="#55AE7B" />
    <path
        d="M87.1658 334.907C87.0819 335.642 86.3267 336.314 85.5925 336.314H52.6034C52.2118 336.314 51.9251 336.111 51.8272 335.768L51.1979 333.367C51.0511 332.821 50.6456 332.45 50.0722 332.338C49.9673 332.317 49.8554 332.31 49.7436 332.31C49.0863 332.31 48.4011 332.66 47.9676 333.248L46.1845 335.649C45.8839 336.048 45.4084 336.314 44.9679 336.314H40.1153C39.6958 336.314 39.3811 336.09 39.2902 335.747C39.0176 334.606 39.0315 333.381 39.3322 332.114L39.7727 330.259H86.907C87.3196 331.232 87.4105 332.835 87.1658 334.907Z"
        fill="#55AE7B" />
    <path
        d="M74.6354 322.867C74.4816 322.797 74.3278 322.706 74.181 322.615C74.0691 322.552 73.9642 322.489 73.8593 322.412C73.6915 322.314 73.5307 322.209 73.3699 322.097C73.1042 321.915 72.8454 321.726 72.6007 321.523C70.3982 319.745 68.8879 317.281 68.2656 314.348C68.2446 314.271 68.2306 314.194 68.2166 314.117V314.103L68.2586 313.858L68.2796 313.753H42.9958L42.9678 313.858L42.9119 314.103L42.856 314.348H67.909C68.5732 317.561 70.2933 320.228 72.7615 322.076C72.9014 322.37 73.1181 322.587 73.4328 322.671C73.6286 323.14 74.153 323.329 74.8033 323.343C75.034 323.357 75.2787 323.343 75.5304 323.308C75.2228 323.175 74.9291 323.028 74.6354 322.867Z"
        fill="#FEFEFE" />
    <path
        d="M87.4454 329.769C86.3127 327.536 82.9424 325.597 77.4256 324.008C76.7613 323.812 76.132 323.588 75.5307 323.308C75.279 323.343 75.0343 323.357 74.8035 323.343C74.1533 323.329 73.6288 323.14 73.4331 322.671C73.1184 322.587 72.9016 322.377 72.7618 322.076C70.2936 320.221 68.5735 317.561 67.9092 314.348H42.8562L38.6539 331.953C38.3253 333.332 38.3113 334.655 38.612 335.901C38.7728 336.573 39.3671 337 40.1153 337H44.9679C45.6321 337 46.3174 336.643 46.7509 336.055L48.5269 333.654C48.9394 333.108 49.5338 332.933 49.9393 333.01C50.1561 333.052 50.4288 333.178 50.5197 333.542L51.1559 335.943C51.3238 336.587 51.8971 337 52.6033 337H85.5925C86.6902 337 87.7321 336.083 87.8649 334.991C88.1376 332.618 87.9978 330.861 87.4454 329.769ZM87.1657 334.907C87.0818 335.642 86.3266 336.314 85.5925 336.314H52.6033C52.2118 336.314 51.9251 336.111 51.8272 335.768L51.1979 333.367C51.0511 332.821 50.6455 332.45 50.0722 332.338C49.9673 332.317 49.8554 332.31 49.7435 332.31C49.0863 332.31 48.401 332.66 47.9675 333.248L46.1845 335.649C45.8838 336.048 45.4084 336.314 44.9679 336.314H40.1153C39.6957 336.314 39.3811 336.09 39.2902 335.747C39.0175 334.606 39.0315 333.381 39.3322 332.114L39.7727 330.259H86.907C87.3195 331.232 87.4104 332.835 87.1657 334.907ZM43.5484 314.446H67.5666C68.6294 319.472 72.1325 323.189 77.2298 324.666C82.0404 326.052 85.2219 327.739 86.5084 329.559H39.9405L43.5484 314.439V314.446Z"
        fill="#FEFEFE" />
    <path
        d="M76.4813 314.404C75.2577 314.25 73.8033 316.238 73.0691 318.247C72.7405 319.15 72.4468 320.536 72.6006 321.516C72.6356 321.726 72.6915 321.908 72.7615 322.069C72.9013 322.363 73.1181 322.58 73.4327 322.664C73.4817 322.678 73.5306 322.685 73.5796 322.692C73.6145 322.692 73.6425 322.692 73.6704 322.692C73.7893 322.692 73.9082 322.692 74.0201 322.65C74.076 322.65 74.1249 322.622 74.1809 322.601C75.1528 322.244 76.0758 320.844 76.6281 319.682C76.747 319.444 76.8449 319.22 76.9288 319.01C76.9498 318.954 76.9708 318.898 76.9917 318.842C77.5371 317.344 77.9846 314.579 76.4813 314.39V314.404ZM76.5303 318.695C76.4463 318.926 76.3554 319.136 76.2645 319.346C76.1457 319.626 76.0128 319.878 75.88 320.123H75.873C75.2017 321.327 74.3976 322.097 73.8453 322.209C73.7753 322.223 73.7054 322.223 73.6425 322.209C73.5306 322.195 73.4467 322.153 73.3698 322.083C72.7615 321.537 73.167 319.416 73.5306 318.408C73.9431 317.267 75.3066 314.733 76.4184 314.88C77.4043 315.006 76.9498 317.533 76.5303 318.681V318.695Z"
        fill="#FEFEFE" />
    <path
        d="M81.8024 319.038C81.4667 317.617 78.572 318.317 77.1106 318.94C77.0477 318.968 76.9917 318.989 76.9288 319.024C76.7051 319.122 76.4813 319.227 76.2645 319.339C74.8032 320.095 73.5306 321.159 73.3698 322.083C73.3418 322.223 73.3418 322.37 73.3768 322.496C73.3908 322.552 73.4047 322.608 73.4327 322.657C73.6285 323.126 74.1529 323.315 74.8032 323.329C75.0339 323.343 75.2786 323.329 75.5304 323.294C76.4184 323.189 77.3973 322.888 78.0685 322.608C80.0823 321.747 82.082 320.207 81.8024 319.024V319.038ZM77.8728 322.174C77.1456 322.482 75.5863 322.951 74.6354 322.867C74.3767 322.846 74.1599 322.783 74.0201 322.664C73.9362 322.601 73.8872 322.517 73.8592 322.412C73.8592 322.412 73.8569 322.407 73.8522 322.398C73.8383 322.335 73.8383 322.272 73.8453 322.202C73.9152 321.67 74.6633 320.844 75.873 320.116H75.88C76.1107 319.969 76.3624 319.829 76.6281 319.696C76.8449 319.591 77.0686 319.479 77.3064 319.388C78.4042 318.926 81.0961 318.177 81.3269 319.15C81.4807 319.829 80.1033 321.229 77.8728 322.174Z"
        fill="#FEFEFE" />
    <path
        d="M71.5381 314.369H39.5908C39.0594 314.369 38.5979 314.159 38.3042 313.781C37.9965 313.396 37.8987 312.885 38.0315 312.339L39.5838 305.836C39.8355 304.786 40.8983 303.932 41.9541 303.932H73.9014C74.4328 303.932 74.8873 304.142 75.188 304.52C75.4957 304.905 75.5935 305.423 75.4607 305.962L73.9084 312.465C73.6567 313.515 72.5939 314.369 71.5381 314.369ZM40.0942 305.962L38.5419 312.465C38.451 312.85 38.514 313.2 38.7167 313.459C38.9125 313.711 39.2272 313.844 39.5908 313.844H71.5381C72.3701 313.844 73.2022 313.172 73.405 312.346L74.9573 305.843C75.0481 305.458 74.9852 305.108 74.7824 304.849C74.5867 304.597 74.279 304.464 73.9084 304.464H41.9611C41.129 304.464 40.297 305.136 40.0942 305.969V305.962Z"
        fill="#FEFEFE" />
    <path
        d="M73.9015 303.953H41.9612C40.9054 303.953 39.8496 304.8 39.6048 305.843L38.0456 312.346C37.7869 313.452 38.5001 314.348 39.5908 314.348H71.5382C72.587 314.348 73.6428 313.501 73.8945 312.458L74.5098 309.889L74.6077 309.462L75.4468 305.955C75.7055 304.856 75.0063 303.953 73.9015 303.953ZM74.9713 305.843L74.1253 309.392L74.0204 309.826L73.4191 312.346C73.2163 313.186 72.3772 313.858 71.5382 313.858H39.5908C38.8077 313.858 38.3392 313.242 38.528 312.458L40.0803 305.955C40.2761 305.122 41.1221 304.436 41.9612 304.436H73.9015C74.6916 304.436 75.1601 305.052 74.9713 305.843Z"
        fill="#FEFEFE" />
    <path
        d="M136.111 313.214L137.503 331.015C137.607 332.366 138.02 333.64 138.663 334.781C138.95 335.292 139.516 335.607 140.09 335.607H144.942C145.495 335.607 145.977 335.299 146.187 334.809L147.208 332.429C147.662 331.365 149.2 331.365 149.823 332.429L151.214 334.809C151.501 335.299 152.032 335.607 152.585 335.607H185.574C186.49 335.607 187.133 334.816 186.951 333.913C186.567 332.016 185.958 330.105 184.979 328.922C182.854 326.353 177.861 324.547 173.407 323.371C167.967 321.936 163.269 318.233 160.703 313.221V313.207H136.111V313.214Z"
        fill="#55AE7B" />
    <path
        d="M187.294 333.85C186.818 331.505 186.133 329.776 185.245 328.705C183.434 326.528 179.477 324.617 173.491 323.049C168.093 321.621 163.562 318.016 161.045 313.13L161.024 312.871H135.733L137.153 331.043C137.258 332.408 137.663 333.717 138.355 334.949C138.698 335.558 139.383 335.95 140.09 335.95H144.942C145.641 335.95 146.243 335.565 146.508 334.942L147.529 332.562C147.676 332.212 147.984 332.002 148.382 331.974C148.739 331.953 149.228 332.107 149.515 332.597L150.906 334.984C151.263 335.586 151.899 335.95 152.578 335.95H185.567C186.105 335.95 186.595 335.719 186.93 335.327C187.266 334.928 187.399 334.382 187.294 333.843V333.85ZM136.489 313.564H160.479C163.101 318.555 167.765 322.251 173.309 323.707C178.463 325.065 182.162 326.71 184.098 328.509H137.656L136.489 313.564ZM186.385 334.9C186.189 335.138 185.895 335.264 185.567 335.264H152.578C152.158 335.264 151.739 335.019 151.515 334.641L150.123 332.254C149.767 331.645 149.137 331.288 148.452 331.288H148.333C147.676 331.33 147.138 331.701 146.886 332.296L145.865 334.676C145.711 335.04 145.355 335.264 144.942 335.264H140.09C139.635 335.264 139.188 335.005 138.971 334.613C138.328 333.472 137.95 332.254 137.852 330.987L137.712 329.195H184.749C185.539 330.175 186.161 331.785 186.609 333.983C186.671 334.312 186.595 334.648 186.385 334.893V334.9Z"
        fill="#FEFEFE" />
    <path
        d="M168.988 321.705C167.855 321.565 167.051 319.654 167.163 317.358C167.24 315.762 167.953 313.291 169.422 313.473C170.561 313.613 171.366 315.524 171.254 317.82C171.184 319.346 170.491 321.887 168.988 321.705ZM167.646 317.379C167.541 319.563 168.282 321.131 169.044 321.222C170.135 321.362 170.701 319.01 170.757 317.792C170.862 315.608 170.114 314.04 169.352 313.949C168.261 313.816 167.702 316.161 167.646 317.379Z"
        fill="#FEFEFE" />
    <path
        d="M168.807 321.579C168.093 320.291 170.009 318.681 171.464 317.974C173.512 316.98 175.554 317.001 176.12 318.009C176.834 319.297 174.925 320.914 173.463 321.621C172.1 322.279 169.534 322.895 168.807 321.579ZM171.68 318.408C170.534 318.961 168.709 320.396 169.233 321.348C169.611 322.027 171.317 322.125 173.247 321.187C174.435 320.613 176.211 319.192 175.687 318.247C175.309 317.568 173.61 317.477 171.673 318.415L171.68 318.408Z"
        fill="#FEFEFE" />
    <path
        d="M165.695 305.045C165.611 303.988 164.674 303.127 163.604 303.127H131.657C130.615 303.127 129.825 303.932 129.825 304.933C129.825 304.982 129.825 305.031 129.832 305.08L130.342 311.541C130.426 312.598 131.356 313.459 132.426 313.459H164.373C165.464 313.459 166.282 312.577 166.198 311.506L165.695 305.045ZM164.373 312.969H132.426C131.608 312.969 130.895 312.311 130.832 311.506L130.321 305.045C130.258 304.254 130.853 303.617 131.657 303.617H163.604C164.422 303.617 165.142 304.275 165.205 305.08L165.709 311.541C165.772 312.332 165.177 312.969 164.373 312.969Z"
        fill="#FEFEFE" />
    <path
        d="M147.802 183.525L115.938 183.854L67.4756 184.393C67.4756 184.393 66.0702 173.62 65.0843 159.704C63.6719 139.894 63.1265 113.714 68.7412 103.312C74.272 93.036 85.6903 87.541 98.0874 86.274C98.2482 86.26 98.409 86.246 98.5769 86.225L98.9125 89.256C98.9335 90.166 99.4719 90.901 100.514 91.461C103.024 92.819 107.695 92.693 110.128 91.209C111.128 90.6 111.624 89.844 111.603 88.962L111.254 86.477C111.422 86.498 111.589 86.519 111.757 86.54C126.371 88.577 139.88 96.151 144.383 108.366C148.928 120.693 147.802 183.518 147.802 183.518V183.525Z"
        fill="#55AE7B" />
    <path
        d="M119.896 52.534C118.015 48.803 109.716 47.459 102.863 48.082C99.2973 48.404 96.9339 49.489 95.8361 51.288C94.8782 52.87 95.1719 54.543 95.3886 55.313C93.1861 54.998 91.5989 55.446 90.6549 56.664C87.8021 60.346 91.9135 69.852 92.9064 72.008C92.9134 72.022 92.9204 72.036 92.9274 72.057C92.9693 72.169 93.0253 72.274 93.0812 72.372C93.0882 72.4 93.1022 72.421 93.1162 72.449L93.2001 72.624H93.2141L93.7245 72.491C93.5008 72.176 93.3399 71.826 93.2421 71.462C93.0812 71.112 92.8785 70.643 92.6547 70.097C91.2353 66.618 88.8929 59.779 91.0675 56.972C91.7108 56.146 92.7246 55.733 94.1021 55.733C94.5985 55.733 95.1369 55.782 95.7313 55.894L96.2067 55.985L96.018 55.544C96.018 55.544 95.1509 53.423 96.2906 51.554C97.2975 49.902 99.521 48.908 102.912 48.6C109.681 47.977 117.715 49.37 119.428 52.765C120.141 54.179 119.686 55.831 118.078 57.686C118.008 57.77 117.931 57.854 117.855 57.938C117.834 57.952 117.785 57.994 117.715 58.043C116.666 58.827 110.331 63.09 100.815 60.367L100.08 60.15L100.528 60.766C100.528 60.766 103.031 64.231 102.024 67.255C101.738 68.116 101.192 68.872 100.402 69.502C100.262 69.614 100.122 69.719 99.9755 69.81C99.3952 70.209 98.7169 70.552 97.9268 70.846C97.759 70.909 97.5912 70.972 97.4094 71.028C97.3744 71.238 97.3255 71.427 97.2695 71.609L97.3814 71.581C97.5283 71.532 97.6751 71.483 97.8219 71.434C98.675 71.14 99.4231 70.783 100.059 70.391C100.22 70.279 100.374 70.174 100.521 70.069C101.507 69.334 102.178 68.452 102.521 67.416C103.367 64.882 102.038 62.201 101.332 61.046C110.506 63.405 116.701 59.422 117.966 58.505C118.113 58.393 118.197 58.33 118.204 58.323L118.225 58.302C118.267 58.26 118.309 58.211 118.344 58.169C120.211 56.083 120.728 54.186 119.896 52.534Z"
        fill="#FEFEFE" />
    <path
        d="M97.2205 73.933C97.0597 73.968 96.8988 73.989 96.738 73.989L96.787 74.472C96.9478 74.472 97.1156 74.451 97.2764 74.416L97.2205 73.933ZM100.402 69.495C100.262 69.607 100.122 69.712 99.9754 69.803C100.024 69.992 100.052 70.181 100.059 70.384C100.22 70.272 100.374 70.167 100.521 70.062C100.5 69.866 100.458 69.684 100.402 69.495ZM93.2419 71.462C93.0811 71.112 92.8783 70.643 92.6546 70.097C92.5707 70.762 92.6686 71.413 92.9063 72.008C92.9133 72.022 92.9203 72.036 92.9273 72.057C92.9692 72.169 93.0252 72.274 93.0811 72.372C93.0881 72.4 93.1021 72.421 93.1161 72.449C93.151 72.505 93.179 72.561 93.214 72.617L93.7244 72.491C93.5006 72.176 93.3398 71.826 93.2419 71.462Z"
        fill="#FEFEFE" />
    <path
        d="M96.7869 74.472C96.7239 74.472 96.661 74.472 96.5981 74.472C96.1995 74.472 95.787 74.4161 95.3884 74.2831C94.4445 73.9891 93.6963 73.3731 93.2139 72.6031L93.7243 72.4771C94.1368 73.0861 94.7661 73.569 95.5353 73.821C95.9338 73.947 96.3394 74.0031 96.7379 73.9821L96.7869 74.465V74.472Z"
        fill="#FEFEFE" />
    <path
        d="M118.344 58.169C118.26 58.001 118.169 57.847 118.078 57.686C118.008 57.77 117.931 57.854 117.854 57.938C117.833 57.952 117.785 57.994 117.715 58.043C117.805 58.197 117.889 58.344 117.966 58.505C119.777 61.935 120.602 66.842 120.428 73.17C120.288 78.343 116.701 81.465 110.841 81.521C110.827 81.521 110.813 81.521 110.806 81.521C110.806 81.521 110.785 81.521 110.743 81.535C110.212 81.591 106.38 81.941 103.318 80.079C103.15 79.967 102.926 80.107 102.947 80.31C102.954 80.366 103.562 85.623 111.212 86.162L111.254 86.484L111.603 88.969C111.624 89.851 111.128 90.607 110.128 91.216C107.695 92.693 103.024 92.819 100.514 91.468C99.472 90.908 98.9336 90.173 98.9126 89.263L98.577 86.232L97.2764 74.423L97.2205 73.94L97.1366 73.163C97.2694 72.953 97.619 72.33 97.8218 71.434C97.8638 71.245 97.8987 71.056 97.9267 70.846C97.7589 70.909 97.5911 70.972 97.4093 71.028C97.3743 71.238 97.3254 71.427 97.2694 71.609C97.0317 72.449 96.6891 72.967 96.6821 72.974C96.6541 73.023 96.6401 73.079 96.6401 73.135L96.738 73.996L96.787 74.479L98.0875 86.281L98.4231 89.298C98.4511 90.362 99.0944 91.265 100.276 91.895C102.912 93.316 107.828 93.19 110.387 91.629C111.533 90.929 112.128 89.998 112.093 88.941V88.913L111.757 86.547L111.121 82.004C117.113 81.836 120.77 78.56 120.917 73.177C121.099 66.702 120.232 61.683 118.344 58.162V58.169ZM103.534 80.765C106.436 82.305 109.709 82.123 110.632 82.032L110.659 82.235L111.107 85.672C105.31 85.21 103.877 82.018 103.534 80.772V80.765Z"
        fill="#FEFEFE" />
    <path
        d="M114.002 73.254C113.869 73.233 113.778 73.107 113.799 72.974C113.82 72.841 113.946 72.75 114.079 72.771C114.596 72.848 115.114 72.876 115.61 72.848C116.099 72.82 116.323 72.673 116.037 72.204C115.981 72.113 115.946 72.05 115.596 71.672C114.456 70.426 113.75 68.767 113.701 67.227C113.701 67.094 113.806 66.982 113.939 66.975C114.051 66.975 114.184 67.073 114.191 67.213C114.24 68.641 114.897 70.188 115.96 71.343C116.058 71.448 116.316 71.707 116.456 71.945C116.848 72.596 116.666 73.268 115.638 73.324C115.135 73.352 114.575 73.324 114.002 73.247V73.254Z"
        fill="#FEFEFE" />
    <path
        d="M118.603 68.459C118.358 68.816 117.861 68.907 117.498 68.662C117.134 68.417 117.05 67.92 117.295 67.57C117.547 67.213 118.036 67.115 118.4 67.367C118.763 67.612 118.847 68.109 118.596 68.466L118.603 68.459Z"
        fill="#FEFEFE" />
    <path
        d="M115.932 66.2539C115.722 66.2539 115.61 66.0159 115.743 65.8549C116.225 65.2879 116.911 64.9379 117.659 64.8819C118.407 64.8189 119.134 65.0569 119.708 65.5329C119.812 65.6169 119.826 65.7709 119.736 65.8759C119.652 65.9809 119.498 65.9879 119.393 65.9039C118.917 65.5049 118.316 65.3159 117.701 65.3649C117.079 65.4139 116.519 65.7009 116.121 66.1699C116.072 66.2259 116.002 66.2539 115.932 66.2539Z"
        fill="#FEFEFE" />
    <path
        d="M110.793 68.676C110.548 69.033 110.051 69.124 109.688 68.879C109.324 68.634 109.24 68.137 109.485 67.787C109.737 67.43 110.226 67.332 110.59 67.584C110.953 67.829 111.037 68.326 110.786 68.683L110.793 68.676Z"
        fill="#FEFEFE" />
    <path
        d="M107.842 67.087C107.73 67.017 107.695 66.863 107.765 66.751C108.163 66.121 108.792 65.68 109.52 65.519C110.254 65.358 111.009 65.484 111.645 65.883C111.757 65.953 111.792 66.107 111.722 66.219C111.652 66.331 111.498 66.366 111.387 66.296C110.862 65.967 110.24 65.862 109.632 65.995C109.023 66.128 108.513 66.492 108.177 67.01C108.107 67.122 107.953 67.157 107.842 67.087Z"
        fill="#FEFEFE" />
    <path
        d="M112.736 76.691C112.652 76.586 112.673 76.432 112.785 76.355C112.89 76.278 113.044 76.292 113.128 76.404C113.177 76.46 114.268 77.832 116.009 76.593C116.121 76.516 116.274 76.537 116.351 76.649C116.428 76.761 116.407 76.908 116.295 76.985C114.904 77.979 113.471 77.678 112.743 76.698L112.736 76.691Z"
        fill="#FEFEFE" />
    <path d="M160.22 295.112H130.217V295.595H160.22V295.112Z" fill="#FEFEFE" />
    <path d="M74.3978 295.882H44.3594V296.364H74.3978V295.882Z" fill="#FEFEFE" />
    <path
        d="M187.818 202.95C187.133 202.95 186.441 202.81 185.79 202.523C185.665 202.467 185.609 202.327 185.665 202.201C185.72 202.075 185.86 202.019 185.986 202.075C187.105 202.558 188.343 202.586 189.475 202.145C190.594 201.711 191.475 200.864 191.95 199.772C192.936 197.504 191.867 194.844 189.566 193.843C189.44 193.787 189.384 193.647 189.44 193.521C189.496 193.395 189.636 193.339 189.762 193.395C192.307 194.501 193.489 197.448 192.398 199.961C191.874 201.179 190.895 202.11 189.657 202.6C189.063 202.831 188.44 202.95 187.818 202.95Z"
        fill="#FEFEFE" />
    <path
        d="M22.6207 222.837C20.1245 221.633 19.0756 218.651 20.2713 216.18C21.474 213.716 24.4666 212.673 26.9768 213.877C27.0957 213.933 27.1516 214.08 27.0887 214.199C27.0327 214.318 26.8859 214.367 26.76 214.311C24.5086 213.226 21.7956 214.15 20.7048 216.383C19.621 218.609 20.572 221.304 22.8234 222.389C22.9423 222.445 22.9982 222.592 22.9353 222.711C22.8794 222.83 22.7325 222.879 22.6067 222.823L22.6207 222.837Z"
        fill="#FEFEFE" />
    <path
        d="M164.108 126.041V121.029C162.094 121.603 160.5 120.238 159.982 119.629C158.206 117.543 171.617 106.735 171.946 103.802C172.275 100.869 165.961 102.696 165.108 100.61C164.254 98.524 165.464 99.049 167.911 90.187C170.366 81.325 159.185 79.701 156.095 89.081C153.004 98.461 149.837 105.328 149.508 105.846C149.179 106.364 146.173 97.677 139.859 97.74C133.545 97.803 139.593 108.814 138.216 108.814C136.838 108.814 133.118 104.789 132.412 109.059C131.706 113.329 144.523 118.754 142.32 121.344C140.124 123.934 131.084 118.054 130.091 120.441C129.741 121.274 131.335 123.493 133.559 126.041H164.101H164.108Z"
        fill="#55AE7B" />
    <path
        d="M164.108 126.279H133.559C133.489 126.279 133.419 126.251 133.377 126.195C129.769 122.058 129.65 120.875 129.867 120.343C130.426 119.006 132.748 119.748 135.44 120.609C138.09 121.456 141.089 122.415 142.138 121.183C142.292 121.001 142.355 120.805 142.327 120.581C142.208 119.475 140.173 117.886 138.02 116.206C134.957 113.819 131.783 111.355 132.167 109.01C132.349 107.932 132.72 107.267 133.321 106.987C134.3 106.525 135.558 107.239 136.67 107.876C137.293 108.226 137.88 108.562 138.216 108.562C138.285 108.38 137.95 107.19 137.677 106.231C136.978 103.732 136.013 100.309 137.341 98.559C137.873 97.859 138.719 97.502 139.859 97.488C139.887 97.488 139.908 97.488 139.929 97.488C144.83 97.488 147.76 102.577 149.018 104.754C149.172 105.013 149.326 105.286 149.438 105.461C150.137 104.075 153.025 97.621 155.871 88.997C157.626 83.684 161.891 81.801 165.017 82.732C167.24 83.39 169.394 85.756 168.156 90.243C167.037 94.282 166.17 96.396 165.653 97.656C165.024 99.182 164.912 99.462 165.338 100.505C165.667 101.31 167.114 101.45 168.513 101.583C169.862 101.716 171.261 101.849 171.883 102.605C172.142 102.927 172.247 103.333 172.198 103.809C172.044 105.202 169.282 108.086 166.359 111.138C163.227 114.407 159.332 118.474 160.178 119.454C160.346 119.657 161.905 121.393 164.052 120.784C164.205 120.735 164.366 120.854 164.366 121.015V126.027C164.366 126.16 164.254 126.272 164.122 126.272L164.108 126.279ZM133.678 125.796H163.87V121.337C161.59 121.792 159.982 119.993 159.8 119.783C158.752 118.551 161.444 115.576 166.002 110.816C168.736 107.96 171.568 104.999 171.708 103.774C171.75 103.424 171.68 103.144 171.498 102.927C171.009 102.325 169.715 102.199 168.464 102.08C166.918 101.933 165.324 101.779 164.884 100.701C164.38 99.469 164.555 99.049 165.198 97.488C165.716 96.235 166.576 94.135 167.688 90.124C168.834 85.973 166.897 83.803 164.884 83.201C161.975 82.34 157.996 84.132 156.346 89.151C153.235 98.587 150.053 105.468 149.732 105.972C149.69 106.042 149.557 106.126 149.48 106.105C149.235 106.105 149.102 105.867 148.606 104.999C147.396 102.892 144.557 97.978 139.943 97.978C139.922 97.978 139.901 97.978 139.873 97.978C138.88 97.985 138.181 98.272 137.74 98.853C136.558 100.407 137.523 103.837 138.16 106.105C138.621 107.743 138.831 108.541 138.565 108.891C138.481 108.996 138.362 109.052 138.223 109.052C137.754 109.052 137.146 108.702 136.433 108.303C135.426 107.729 134.279 107.078 133.538 107.435C133.104 107.638 132.811 108.198 132.657 109.101C132.321 111.159 135.51 113.644 138.327 115.835C140.663 117.655 142.684 119.223 142.816 120.539C142.851 120.896 142.753 121.218 142.516 121.505C141.257 122.989 138.223 122.016 135.293 121.078C133.041 120.357 130.713 119.608 130.321 120.539C130.202 120.826 130.293 121.911 133.671 125.803L133.678 125.796Z"
        fill="#FEFEFE" />
    <path d="M145.977 105.86H124.819V126.216H145.977V105.86Z" fill="#FEFEFE" />
    <path
        d="M145.97 126.461H124.812C124.679 126.461 124.567 126.349 124.567 126.216V105.86C124.567 105.727 124.679 105.615 124.812 105.615H145.97C146.103 105.615 146.215 105.727 146.215 105.86V126.216C146.215 126.349 146.103 126.461 145.97 126.461ZM125.063 125.978H145.732V106.105H125.063V125.978Z"
        fill="#121418" />
    <path d="M131.958 118.852L106.87 119.216L119.595 106.609L131.958 118.852Z" fill="#FEFEFE" />
    <path
        d="M106.87 119.461C106.653 119.461 106.541 119.202 106.695 119.048L119.428 106.441C119.526 106.343 119.679 106.343 119.77 106.441L132.132 118.684C132.286 118.838 132.181 119.097 131.965 119.097L106.877 119.461H106.87ZM119.595 106.952L107.464 118.964L131.37 118.621L119.595 106.952Z"
        fill="#121418" />
    <path
        d="M171.911 180.2L165.527 123.101C165.079 119.118 161.681 116.101 157.633 116.101H109.345C105.296 116.101 101.898 119.118 101.451 123.101L95.0667 180.2C94.5493 184.855 98.2272 188.929 102.961 188.929H164.017C168.75 188.929 172.428 184.855 171.911 180.2Z"
        fill="#FEFEFE" />
    <path
        d="M172.149 180.172L165.772 123.073C165.31 118.957 161.814 115.856 157.633 115.856H109.345C105.171 115.856 101.674 118.964 101.213 123.073L94.8291 180.172C94.7592 180.823 94.7662 181.467 94.8431 182.09C94.8641 182.258 94.892 182.412 94.927 182.573C95.6262 186.297 98.9335 189.174 102.961 189.174H164.017C166.345 189.174 168.562 188.187 170.114 186.472C171.666 184.757 172.407 182.461 172.149 180.172ZM169.75 186.143C168.296 187.76 166.205 188.684 164.017 188.684H102.961C99.1992 188.684 96.1227 186.017 95.4235 182.573C95.3885 182.412 95.3605 182.258 95.3465 182.09C95.2556 181.488 95.2487 180.865 95.3186 180.228L101.695 123.129C102.129 119.258 105.415 116.346 109.345 116.346H157.633C161.563 116.346 164.849 119.258 165.282 123.129L171.666 180.228C171.904 182.377 171.205 184.533 169.75 186.15V186.143Z"
        fill="#121418" />
    <path
        d="M133.042 150.254H133.014C125.714 150.24 119.896 144.36 119.91 137.213L119.952 126.216C119.952 126.083 120.064 125.971 120.197 125.971C120.33 125.971 120.442 126.083 120.442 126.216L120.4 137.213C120.386 144.066 125.965 149.75 133.014 149.764C133.021 149.764 133.035 149.764 133.042 149.764C139.999 149.764 145.669 144.164 145.683 137.269L145.725 126.272C145.725 126.139 145.837 126.027 145.97 126.027C146.103 126.027 146.215 126.139 146.215 126.272L146.173 137.269C146.159 144.43 140.271 150.247 133.042 150.247V150.254Z"
        fill="#121418" />
    <path
        d="M148.088 126.041C148.088 127.203 147.138 128.134 145.963 128.134C144.788 128.134 143.844 127.196 143.844 126.041C143.844 124.886 144.788 123.941 145.963 123.941C147.138 123.941 148.088 124.886 148.088 126.041Z"
        fill="#FEFEFE" />
    <path
        d="M145.97 128.379C144.669 128.379 143.607 127.329 143.607 126.041C143.607 124.753 144.663 123.696 145.97 123.696C147.278 123.696 148.333 124.746 148.333 126.041C148.333 127.336 147.271 128.379 145.97 128.379ZM145.97 124.179C144.935 124.179 144.096 125.012 144.096 126.041C144.096 127.07 144.935 127.896 145.97 127.896C147.005 127.896 147.851 127.063 147.851 126.041C147.851 125.019 147.005 124.179 145.97 124.179Z"
        fill="#121418" />
    <path
        d="M122.273 126.223C122.273 127.385 121.322 128.316 120.147 128.316C118.973 128.316 118.029 127.378 118.029 126.223C118.029 125.068 118.973 124.123 120.147 124.123C121.322 124.123 122.273 125.068 122.273 126.223Z"
        fill="#FEFEFE" />
    <path
        d="M120.148 128.561C118.847 128.561 117.784 127.511 117.784 126.223C117.784 124.935 118.84 123.878 120.148 123.878C121.455 123.878 122.518 124.928 122.518 126.223C122.518 127.518 121.455 128.561 120.148 128.561ZM120.148 124.361C119.12 124.361 118.274 125.194 118.274 126.223C118.274 127.252 119.113 128.078 120.148 128.078C121.182 128.078 122.028 127.245 122.028 126.223C122.028 125.201 121.182 124.361 120.148 124.361Z"
        fill="#121418" />
    <path
        d="M129.364 174.425C141.957 176.756 151.047 173.781 150.005 172.584C149.522 172.031 147.76 171.73 146.012 171.576C150.739 171.345 153.459 169.742 152.578 168.734C151.928 167.992 148.788 167.733 146.488 167.649C151.389 167.495 155.319 165.689 154.424 164.66C153.382 163.463 144.684 163.848 144.684 163.848C144.684 163.848 154.074 162.483 153.382 160.257C152.445 157.24 138.517 163.232 140.635 159.956C142.873 156.505 143.935 152.844 141.873 152.844C139.244 152.844 129.371 162.434 129.371 162.434V174.432L129.364 174.425Z"
        fill="#FEFEFE" />
    <path
        d="M138.544 175.524C135.782 175.524 132.657 175.279 129.321 174.663C129.203 174.642 129.119 174.544 129.119 174.425V162.427C129.119 162.364 129.147 162.301 129.189 162.252C129.594 161.86 139.166 152.592 141.858 152.592C142.523 152.592 142.844 152.928 142.998 153.208C143.725 154.517 142.432 157.604 140.824 160.082C140.642 160.362 140.621 160.523 140.656 160.579C140.949 160.999 143.453 160.46 145.459 160.033C149.186 159.235 153.046 158.409 153.591 160.18C153.689 160.488 153.64 160.796 153.451 161.09C152.738 162.21 149.885 163.043 147.627 163.54H147.69C150.361 163.54 153.892 163.701 154.591 164.499C154.794 164.73 154.836 165.01 154.71 165.297C154.332 166.151 152.228 167.124 149.389 167.607C151.235 167.81 152.368 168.132 152.752 168.58C152.99 168.846 153.039 169.175 152.899 169.504C152.549 170.323 150.85 171.212 148.13 171.625C149.207 171.828 149.885 172.101 150.179 172.444C150.347 172.633 150.368 172.878 150.228 173.116C149.62 174.173 145.082 175.545 138.53 175.545L138.544 175.524ZM129.608 174.222C140.942 176.273 149.151 173.991 149.816 172.857C149.857 172.787 149.843 172.773 149.816 172.745C149.613 172.507 148.837 172.073 145.984 171.814C145.858 171.8 145.76 171.695 145.76 171.569C145.76 171.443 145.865 171.338 145.991 171.331C149.92 171.142 152.137 170.029 152.452 169.301C152.521 169.147 152.501 169.021 152.382 168.888C152.172 168.643 151.172 168.062 146.466 167.887C146.333 167.887 146.229 167.775 146.229 167.642C146.229 167.509 146.333 167.404 146.466 167.397C150.662 167.264 153.885 165.941 154.263 165.087C154.311 164.975 154.298 164.891 154.228 164.807C153.528 164.002 147.998 163.932 144.683 164.079C144.683 164.079 144.676 164.079 144.669 164.079C144.543 164.079 144.439 163.981 144.425 163.862C144.411 163.736 144.501 163.617 144.634 163.596C146.669 163.302 152.151 162.224 153.046 160.817C153.158 160.642 153.186 160.481 153.13 160.313C152.717 158.969 148.585 159.851 145.571 160.495C142.481 161.153 140.719 161.496 140.257 160.845C139.991 160.46 140.306 159.97 140.411 159.809C142.187 157.072 143.096 154.384 142.565 153.432C142.432 153.187 142.201 153.068 141.851 153.068C139.796 153.068 132.384 159.823 129.594 162.518V174.208L129.608 174.222Z"
        fill="#121418" />
    <path
        d="M69.4056 102.465C69.4056 102.465 63.9377 110.809 59.8543 121.806C55.0856 134.665 52.2258 151.157 62.2386 162.161C78.5933 180.13 132.286 177.869 132.286 177.869L132.594 155.154C132.594 155.154 94.4376 152.858 88.0188 143.289C82.6138 135.239 95.3606 104.691 95.3606 104.691L69.3916 102.465H69.4056Z"
        fill="#55AE7B" />
    <path
        d="M132.51 155.98C132.51 155.98 132.496 155.98 132.489 155.98C107.282 153.894 90.2984 147.489 87.7322 143.66C82.3203 135.596 94.5287 106.091 95.0531 104.838C95.102 104.712 95.2488 104.656 95.3747 104.705C95.5006 104.754 95.5565 104.901 95.5076 105.02C95.3817 105.321 82.8727 135.54 88.1378 143.387C90.1655 146.404 105.723 153.271 132.531 155.49C132.664 155.504 132.769 155.616 132.755 155.749C132.748 155.875 132.636 155.973 132.51 155.973V155.98Z"
        fill="#FEFEFE" />
    <path
        d="M118.945 177.386C118.813 177.358 118.722 177.232 118.75 177.106L122.658 156.204C122.686 156.071 122.805 155.987 122.945 156.008C123.078 156.036 123.169 156.162 123.141 156.288L119.232 177.19C119.211 177.323 119.078 177.407 118.945 177.386Z"
        fill="#FEFEFE" />
    <path
        d="M126.14 174.257C124.959 174.257 123.994 173.305 123.994 172.129C123.994 170.953 124.959 169.994 126.14 169.994C127.322 169.994 128.294 170.953 128.294 172.129C128.294 173.305 127.329 174.257 126.14 174.257ZM126.14 170.484C125.224 170.484 124.483 171.226 124.483 172.129C124.483 173.032 125.224 173.767 126.14 173.767C127.056 173.767 127.804 173.032 127.804 172.129C127.804 171.226 127.056 170.484 126.14 170.484Z"
        fill="#FEFEFE" />
    <path
        d="M97.3326 165.017C96.1998 160.124 90.8578 157.653 87.7812 156.617C83.502 155.175 78.8033 154.489 74.9925 151.983C69.189 148.175 66.6019 140.146 69.1121 133.713C70.3287 130.591 72.5523 127.924 74.6989 125.348C77.4678 122.03 80.0758 118.894 80.7681 114.869L81.2505 114.953C80.5443 119.111 77.7684 122.443 75.0764 125.663C72.9508 128.211 70.7553 130.85 69.5666 133.895C67.1403 140.125 69.6435 147.895 75.2582 151.584C78.9921 154.034 83.6768 154.727 87.9351 156.162C91.1095 157.233 96.6194 159.788 97.808 164.919L97.3326 165.031V165.017Z"
        fill="#FEFEFE" />
    <path
        d="M236.001 67.227V52.324H231.226C226.981 52.324 223.527 48.901 223.527 44.694V29.63C223.527 25.423 226.981 22 231.226 22H335.619C339.87 22 343.331 25.423 343.331 29.63V44.694C343.331 48.901 339.87 52.324 335.619 52.324H251.643L236.428 67.402C236.274 67.556 236.008 67.451 236.008 67.227H236.001ZM231.226 22.483C227.247 22.483 224.017 25.689 224.017 29.623V44.687C224.017 48.628 227.254 51.827 231.226 51.827H236.246C236.379 51.827 236.491 51.939 236.491 52.072V66.632L251.363 51.897C251.412 51.848 251.468 51.827 251.538 51.827H335.619C339.605 51.827 342.842 48.621 342.842 44.687V29.63C342.842 25.689 339.598 22.49 335.619 22.49H231.226V22.483Z"
        fill="#FEFEFE" />
    <path
        d="M332.291 31.331V42.993C332.291 43.896 331.557 44.624 330.641 44.624H257.915C257.006 44.624 256.265 43.896 256.265 42.993V31.331C256.265 30.428 256.999 29.7 257.915 29.7H330.641C331.55 29.7 332.291 30.428 332.291 31.331Z"
        fill="#55AE7B" />
    <path
        d="M247.147 37.1481C247.147 41.2851 243.784 44.6171 239.602 44.6171C235.421 44.6171 232.079 41.2851 232.079 37.1481C232.079 33.0111 235.442 29.6931 239.602 29.6931C243.763 29.6931 247.147 33.0251 247.147 37.1481Z"
        fill="#55AE7B" />
    <path
        d="M317.964 37.3995H270.697C270.564 37.3995 270.452 37.2876 270.452 37.1548C270.452 37.0219 270.564 36.91 270.697 36.91H317.964C318.097 36.91 318.209 37.0219 318.209 37.1548C318.209 37.2876 318.097 37.3995 317.964 37.3995Z"
        fill="#FEFEFE" />
    <path
        d="M238.435 38.324C237.281 37.183 237.281 35.321 238.435 34.18C239.588 33.039 241.462 33.039 242.616 34.18C243.791 35.342 243.791 37.162 242.616 38.324C241.462 39.465 239.588 39.465 238.435 38.324ZM238.784 34.523C237.819 35.475 237.819 37.029 238.784 37.981C239.749 38.933 241.315 38.933 242.273 37.981C243.252 37.008 243.252 35.489 242.273 34.523C241.308 33.571 239.742 33.571 238.784 34.523Z"
        fill="#FEFEFE" />
    <path
        d="M235.771 40.963C235.673 40.865 235.673 40.718 235.771 40.62L238.435 37.981C238.533 37.883 238.686 37.883 238.777 37.981C238.875 38.079 238.875 38.226 238.777 38.324L236.113 40.963C236.015 41.061 235.862 41.061 235.771 40.963Z"
        fill="#FEFEFE" />
    <path
        d="M326.033 154.622C325.907 154.58 325.837 154.44 325.879 154.314C325.921 154.188 326.061 154.118 326.187 154.16C328.571 154.93 331.151 153.642 331.927 151.29C332.704 148.952 331.424 146.411 329.019 145.634C328.893 145.592 328.823 145.452 328.865 145.326C328.907 145.2 329.047 145.13 329.172 145.172C331.816 146.026 333.263 148.833 332.396 151.444C331.529 154.062 328.669 155.469 326.04 154.622H326.033Z"
        fill="#FEFEFE" />
    <path
        d="M201.306 168.636C199.705 168.601 198.055 168.468 196.398 168.251C196.265 168.237 196.167 168.111 196.188 167.978C196.202 167.845 196.321 167.747 196.461 167.768C198.104 167.985 199.733 168.111 201.313 168.146C201.446 168.146 201.558 168.258 201.551 168.391C201.551 168.524 201.439 168.629 201.306 168.629V168.636ZM206.194 168.461C206.068 168.461 205.963 168.37 205.949 168.244C205.935 168.111 206.033 167.992 206.166 167.978C207.802 167.817 209.417 167.544 210.956 167.173C211.088 167.138 211.221 167.222 211.249 167.355C211.284 167.488 211.2 167.614 211.067 167.649C209.501 168.027 207.872 168.3 206.208 168.461C206.201 168.461 206.194 168.461 206.187 168.461H206.194ZM191.601 167.397C191.601 167.397 191.566 167.397 191.545 167.397C190.51 167.159 189.448 166.893 188.406 166.592C188.273 166.557 188.203 166.417 188.238 166.291C188.273 166.165 188.406 166.088 188.539 166.123C189.573 166.424 190.622 166.69 191.657 166.921C191.79 166.949 191.874 167.082 191.839 167.215C191.811 167.327 191.713 167.404 191.601 167.404V167.397ZM215.675 166.151C215.577 166.151 215.487 166.095 215.452 166.004C215.396 165.878 215.452 165.738 215.584 165.689C217.081 165.066 218.528 164.317 219.892 163.47C220.003 163.4 220.157 163.428 220.227 163.547C220.297 163.659 220.262 163.813 220.15 163.883C218.766 164.751 217.29 165.507 215.773 166.144C215.745 166.158 215.71 166.165 215.675 166.165V166.151ZM223.912 160.978C223.849 160.978 223.779 160.95 223.73 160.901C223.639 160.803 223.646 160.649 223.744 160.558C224.961 159.466 226.059 158.269 227.01 157.009C227.094 156.904 227.247 156.883 227.352 156.96C227.457 157.037 227.485 157.191 227.401 157.303C226.429 158.584 225.311 159.802 224.073 160.915C224.024 160.957 223.968 160.978 223.905 160.978H223.912ZM229.716 153.236C229.716 153.236 229.646 153.229 229.611 153.215C229.485 153.159 229.436 153.012 229.492 152.893C229.827 152.165 230.128 151.409 230.373 150.66C230.611 149.946 230.813 149.19 231.009 148.343C231.037 148.21 231.17 148.133 231.303 148.161C231.436 148.189 231.52 148.322 231.485 148.448C231.289 149.309 231.072 150.079 230.834 150.807C230.583 151.577 230.275 152.347 229.932 153.096C229.89 153.187 229.8 153.236 229.709 153.236H229.716ZM264.376 150.723C263.054 150.723 261.656 150.45 260.334 149.932C260.209 149.883 260.146 149.743 260.195 149.617C260.243 149.491 260.383 149.428 260.509 149.477C262.054 150.079 263.677 150.338 265.194 150.198C265.327 150.184 265.446 150.282 265.46 150.415C265.474 150.548 265.376 150.667 265.236 150.681C264.949 150.709 264.663 150.723 264.369 150.723H264.376ZM269.641 148.805C269.578 148.805 269.508 148.777 269.459 148.728C269.368 148.63 269.375 148.476 269.473 148.385C270.592 147.37 271.424 145.984 271.865 144.381C271.899 144.255 272.039 144.171 272.165 144.213C272.298 144.248 272.375 144.381 272.34 144.514C271.872 146.208 270.997 147.678 269.809 148.749C269.76 148.791 269.704 148.812 269.641 148.812V148.805ZM256.272 147.412C256.216 147.412 256.16 147.391 256.118 147.356C255.097 146.509 254.062 145.494 252.853 144.157L252.629 143.905C252.538 143.807 252.545 143.653 252.65 143.562C252.748 143.471 252.909 143.485 252.993 143.583L253.216 143.835C254.405 145.151 255.433 146.152 256.433 146.985C256.538 147.069 256.552 147.223 256.461 147.328C256.412 147.384 256.342 147.412 256.272 147.412ZM232.121 143.863C232.121 143.863 232.093 143.863 232.079 143.863C231.946 143.842 231.855 143.716 231.876 143.583C232.037 142.617 232.226 141.49 232.471 140.384C232.589 139.831 232.722 139.299 232.862 138.802C232.897 138.676 233.03 138.599 233.163 138.634C233.296 138.669 233.373 138.802 233.338 138.935C233.198 139.425 233.072 139.95 232.953 140.489C232.715 141.581 232.526 142.701 232.366 143.66C232.345 143.779 232.24 143.863 232.121 143.863ZM249.72 140.223C249.643 140.223 249.573 140.188 249.524 140.125C248.532 138.795 247.616 137.43 246.791 136.072C246.721 135.96 246.756 135.806 246.874 135.736C246.986 135.666 247.14 135.701 247.21 135.82C248.028 137.171 248.937 138.515 249.916 139.831C250 139.936 249.972 140.09 249.867 140.167C249.825 140.202 249.769 140.216 249.72 140.216V140.223ZM272.214 139.88C272.102 139.88 272.004 139.803 271.976 139.691C271.927 139.481 271.872 139.264 271.802 139.061C271.403 137.794 270.753 136.59 269.865 135.47C269.781 135.365 269.802 135.211 269.907 135.127C270.012 135.043 270.165 135.064 270.249 135.169C271.172 136.331 271.851 137.591 272.263 138.914C272.333 139.131 272.396 139.355 272.445 139.586C272.473 139.719 272.396 139.845 272.263 139.88C272.242 139.88 272.228 139.88 272.207 139.88H272.214ZM234.932 134.623C234.89 134.623 234.848 134.609 234.806 134.588C234.687 134.518 234.652 134.371 234.715 134.259C235.456 132.999 236.344 131.935 237.358 131.095C237.575 130.92 237.792 130.752 238.022 130.591C238.134 130.514 238.288 130.542 238.365 130.647C238.442 130.759 238.421 130.906 238.309 130.983C238.092 131.137 237.882 131.298 237.68 131.466C236.708 132.271 235.855 133.286 235.142 134.497C235.093 134.574 235.016 134.616 234.932 134.616V134.623ZM266.439 132.32C266.39 132.32 266.348 132.306 266.306 132.278C265.376 131.669 264.369 131.151 263.313 130.724C262.873 130.549 262.418 130.381 261.957 130.227C261.831 130.185 261.761 130.045 261.803 129.919C261.845 129.793 261.978 129.723 262.11 129.765C262.579 129.919 263.047 130.094 263.502 130.276C264.586 130.717 265.62 131.256 266.578 131.879C266.69 131.949 266.725 132.103 266.648 132.215C266.599 132.285 266.522 132.327 266.446 132.327L266.439 132.32ZM244.707 131.9C244.616 131.9 244.525 131.851 244.483 131.76C244.057 130.836 243.665 129.905 243.308 128.967C243.099 129.009 242.889 129.051 242.686 129.1C242.56 129.135 242.42 129.051 242.392 128.918C242.364 128.785 242.441 128.659 242.574 128.624C242.756 128.582 242.945 128.54 243.141 128.505C242.987 128.071 242.84 127.644 242.7 127.21C242.658 127.084 242.728 126.944 242.861 126.902C242.987 126.86 243.127 126.93 243.169 127.056C243.315 127.504 243.469 127.959 243.63 128.407C244.784 128.204 246.056 128.092 247.49 128.064C247.623 128.064 247.734 128.169 247.741 128.302C247.741 128.435 247.637 128.547 247.504 128.547C246.133 128.575 244.917 128.687 243.805 128.869C244.147 129.765 244.525 130.661 244.931 131.55C244.987 131.669 244.931 131.816 244.812 131.872C244.777 131.886 244.742 131.893 244.707 131.893V131.9ZM257.265 129.149C257.265 129.149 257.244 129.149 257.23 129.149C255.824 128.939 254.286 128.792 252.377 128.687C252.244 128.68 252.14 128.568 252.147 128.428C252.154 128.295 252.272 128.19 252.405 128.197C254.328 128.309 255.88 128.456 257.3 128.666C257.433 128.687 257.524 128.806 257.503 128.939C257.482 129.058 257.384 129.149 257.258 129.149H257.265ZM241.763 122.674C241.644 122.674 241.539 122.59 241.518 122.471C241.455 122.1 241.393 121.729 241.344 121.358C241.169 120.126 241.071 118.866 241.05 117.613C241.05 117.48 241.155 117.368 241.288 117.368C241.448 117.347 241.532 117.473 241.539 117.606C241.56 118.845 241.658 120.084 241.833 121.295C241.882 121.666 241.945 122.03 242.008 122.394C242.029 122.527 241.945 122.653 241.805 122.674C241.791 122.674 241.777 122.674 241.763 122.674ZM241.588 113.007C241.588 113.007 241.567 113.007 241.553 113.007C241.421 112.986 241.33 112.867 241.344 112.734C241.574 111.103 241.938 109.5 242.427 107.967C242.469 107.841 242.602 107.764 242.735 107.806C242.861 107.848 242.938 107.981 242.896 108.107C242.413 109.619 242.057 111.194 241.833 112.797C241.819 112.916 241.714 113.007 241.588 113.007ZM244.539 103.802C244.497 103.802 244.462 103.795 244.427 103.774C244.308 103.711 244.259 103.564 244.322 103.445C245.105 101.975 246.021 100.603 247.042 99.357C247.126 99.252 247.28 99.238 247.385 99.322C247.49 99.406 247.504 99.56 247.42 99.665C246.42 100.883 245.518 102.234 244.756 103.669C244.714 103.753 244.63 103.795 244.539 103.795V103.802ZM250.699 96.34C250.629 96.34 250.559 96.312 250.51 96.249C250.426 96.144 250.44 95.99 250.545 95.906C251.909 94.793 253.384 93.778 254.51 93.022C254.622 92.945 254.776 92.973 254.853 93.085C254.929 93.197 254.901 93.344 254.79 93.421C253.671 94.17 252.209 95.178 250.86 96.277C250.811 96.312 250.762 96.333 250.706 96.333L250.699 96.34ZM258.719 90.761C258.642 90.761 258.565 90.726 258.516 90.656C258.44 90.544 258.467 90.397 258.579 90.32C260.202 89.214 261.39 88.304 262.439 87.38C262.537 87.289 262.698 87.303 262.782 87.401C262.873 87.499 262.866 87.653 262.761 87.744C261.698 88.682 260.488 89.599 258.852 90.719C258.81 90.747 258.761 90.761 258.712 90.761H258.719ZM265.858 84.202C265.809 84.202 265.76 84.188 265.718 84.16C265.607 84.083 265.579 83.936 265.655 83.824C265.984 83.348 266.285 82.851 266.55 82.347C267.054 81.402 267.41 80.443 267.606 79.505C267.634 79.372 267.76 79.288 267.9 79.316C268.033 79.344 268.117 79.47 268.089 79.603C267.879 80.583 267.508 81.577 266.984 82.564C266.711 83.082 266.397 83.593 266.061 84.09C266.012 84.16 265.935 84.195 265.858 84.195V84.202ZM267.355 75.074C267.264 75.074 267.18 75.025 267.138 74.941C266.369 73.443 265.04 72.421 263.593 72.197C263.46 72.176 263.369 72.05 263.39 71.917C263.411 71.784 263.537 71.693 263.67 71.714C265.271 71.966 266.732 73.086 267.571 74.717C267.634 74.836 267.585 74.983 267.466 75.046C267.431 75.067 267.39 75.074 267.355 75.074Z"
        fill="#FEFEFE" />
    <path
        d="M185.609 165.668C185.532 165.794 185.511 165.948 185.546 166.095L186.343 168.811C186.483 169.28 185.951 169.665 185.546 169.399L179.638 165.535C179.26 165.29 179.344 164.723 179.77 164.59L186.525 162.49C186.993 162.343 187.399 162.854 187.133 163.274L185.609 165.668Z"
        fill="#FEFEFE" />
    <path
        d="M62.7911 295.994C62.7911 295.994 62.7561 295.98 62.7421 295.966C62.6372 295.882 62.6163 295.735 62.6932 295.623C65.8397 291.528 67.5737 285.956 67.9863 278.578C68.3149 272.628 68.6575 266.475 68.5037 260.371C67.8115 233.323 77.1251 218.301 84.6137 206.233C87.4875 201.599 89.9697 197.595 91.494 193.535C91.543 193.409 91.6828 193.346 91.8087 193.395C91.9415 193.437 91.9974 193.584 91.9485 193.703C90.4102 197.805 87.914 201.83 85.0262 206.485C77.5726 218.504 68.2939 233.456 68.9862 260.357C69.14 266.482 68.7974 272.642 68.4687 278.606C68.0492 286.082 66.2872 291.745 63.0777 295.924C63.0078 296.015 62.882 296.043 62.7841 295.994H62.7911Z"
        fill="#FEFEFE" />
    <path
        d="M147.501 295.287L147.019 295.357L146.984 295.112L145.285 283.611L145.18 282.897L131.615 190.966L132.104 190.896L145.585 282.316L145.69 283.023L147.473 295.112L147.501 295.287Z"
        fill="#FEFEFE" />
    <path
        d="M124.588 178.198C119.994 178.198 115.415 178.03 110.891 177.694C105.234 177.274 99.4164 176.574 94.5219 175.72C88.6625 174.698 84.4322 173.956 79.1671 172.08C73.5803 170.092 68.7557 168.37 64.5324 164.576C57.792 158.514 55.7013 150.093 55.1279 144.087C55.7223 135.785 57.4843 127.686 60.3581 119.979C62.1621 115.156 64.4136 110.459 67.0636 106.007L67.3643 106.182C64.7282 110.613 62.4837 115.296 60.6867 120.098C57.8199 127.777 56.0649 135.848 55.4775 144.08C56.0369 149.995 58.1066 158.332 64.7632 164.317C68.9305 168.062 73.7271 169.77 79.2789 171.751C84.5161 173.62 88.7394 174.355 94.5779 175.377C99.4654 176.231 105.262 176.931 110.912 177.351C117.953 177.869 125.141 177.988 132.28 177.694L132.294 178.037C129.728 178.142 127.154 178.191 124.588 178.191V178.198Z"
        fill="#FEFEFE" />
</svg>
