<svg fill="none" height="358" viewBox="0 0 358 358" width="358" xmlns="http://www.w3.org/2000/svg">
    <path
        d="M178.753 62.3898C177.376 60.5192 170.44 51.2434 168.65 52.0351C168.454 52.1262 168.321 52.2873 168.258 52.5045C168.153 52.8898 168.3 53.4363 168.552 53.9967C167.699 53.1911 166.65 52.3714 165.902 52.3714H165.874C165.615 52.3714 165.391 52.4835 165.238 52.6866C164.776 53.2961 165.237 54.305 166.091 55.538C164.972 54.6132 163.734 53.8496 163.168 54.34C162.972 54.5082 162.867 54.7323 162.853 54.9916C162.818 55.6221 163.357 56.4768 164.175 57.4716C163.084 56.75 162 56.3297 161.343 56.8831C161.203 57.0022 161.119 57.1634 161.105 57.3525C161.07 57.7309 161.294 58.2353 161.727 58.8868C161.895 59.146 162.098 59.4263 162.329 59.7345C162.783 59.9657 163.196 60.2179 163.552 60.4912C163.21 60.0638 162.881 59.6575 162.601 59.2792C161.972 58.4455 161.56 57.7589 161.588 57.3946C161.595 57.3175 161.623 57.2825 161.651 57.2615C162.287 56.729 164.112 57.7519 166.314 59.8747C166.405 59.9657 166.559 59.9587 166.65 59.8676C166.748 59.7766 166.748 59.6224 166.65 59.5314L166.37 59.2231C164.86 57.5627 163.294 55.8533 163.336 55.0196C163.343 54.8865 163.392 54.7954 163.482 54.7113C163.839 54.4031 165.734 55.6291 167.888 57.892C167.971 57.9901 168.125 57.9971 168.223 57.906C168.321 57.8219 168.335 57.6748 168.251 57.5697L168.167 57.4646C166.818 55.7552 165.133 53.6254 165.615 52.9879C165.685 52.9038 165.762 52.8618 165.881 52.8618H165.895C166.692 52.8618 168.356 54.354 169.608 55.8463C169.692 55.9444 169.838 55.9584 169.943 55.8813C170.048 55.8042 170.069 55.6571 169.999 55.545C169.083 54.2069 168.594 53.093 168.72 52.6376C168.748 52.5605 168.783 52.5115 168.845 52.4835C169.775 52.0561 174.313 57.2124 178.215 62.4949L170.041 69.2275C169.027 69.0734 167.314 68.4358 165.713 67.6302C165.559 67.5461 165.405 67.469 165.251 67.3849C165.175 67.5251 165.077 67.6652 164.979 67.7913C165.133 67.8754 165.286 67.9594 165.44 68.0365C167.16 68.9122 169.013 69.5918 170.083 69.7249C170.09 69.7249 170.104 69.7319 170.111 69.7319C170.167 69.7319 170.223 69.7109 170.272 69.6759L178.704 62.726C178.809 62.642 178.823 62.4949 178.746 62.3898H178.753ZM166.153 64.2533C166.251 64.2533 166.335 64.1973 166.377 64.1132C166.391 64.0782 166.398 64.0431 166.398 64.0081C166.398 63.9801 166.398 63.9521 166.384 63.924C166.377 63.896 166.363 63.875 166.342 63.854C166.063 63.4967 165.769 63.1394 165.482 62.7961C165.706 63.2865 165.846 63.7769 165.909 64.2463C165.993 64.2533 166.07 64.2533 166.153 64.2533Z"
        fill="#121418" />
    <path
        d="M169.95 64.9329C169.887 64.9329 169.817 64.9049 169.775 64.8558C168.013 62.9852 166.37 64.1482 166.3 64.1973C166.188 64.2743 166.035 64.2533 165.958 64.1412C165.881 64.0291 165.902 63.875 166.014 63.7979C166.035 63.7839 168.083 62.3337 170.132 64.5125C170.223 64.6106 170.223 64.7647 170.125 64.8558C170.076 64.8979 170.02 64.9259 169.957 64.9259L169.95 64.9329Z"
        fill="#121418" />
    <path
        d="M200.261 94.9811C200.268 99.3878 198.877 103.472 195.542 106.849C193.78 108.643 191.451 110.24 188.494 111.578C182.823 114.149 176.034 114.289 169.419 113.386C168.874 113.308 168.321 113.231 167.776 113.14C166.846 112.993 165.923 112.825 165.007 112.636C164.524 112.545 164.042 112.44 163.566 112.335C162.371 112.075 161.196 111.788 160.049 111.494C153.819 109.89 148.393 107.893 145.079 106.94C146.939 101.882 148.372 96.8236 149.904 91.7794C149.96 91.5762 150.023 91.3801 150.079 91.1769L150.379 91.6183L151.085 87.9542C151.365 87.0715 151.652 86.1887 151.952 85.306C152.001 85.32 152.043 85.334 152.092 85.348C152.106 85.348 152.113 85.348 152.127 85.362C177.453 93.4608 193.032 105.252 165.832 70.6147L179.292 59.2652C189.277 67.9244 200.233 82.6858 200.261 94.9811Z"
        fill="#55AE7B" />
    <path
        d="M163.566 112.335C162.371 112.075 161.196 111.788 160.049 111.494L165.007 101.483H165.014C165.517 104.992 164.909 108.607 163.566 112.335Z"
        fill="#217C4C" />
    <path
        d="M25.6596 101.377C25.6596 101.377 25.6456 101.377 25.6386 101.377C25.5057 101.37 25.4008 101.251 25.4148 101.111C25.4218 100.992 25.6665 98.1407 27.7013 96.8166C28.8899 96.046 30.4282 95.9619 32.2812 96.5854C35.4276 89.1592 40.5459 86.3428 43.9931 86.8753C46.9438 87.3307 48.9435 90.0279 49.398 94.1123C50.2021 93.748 50.9083 93.671 51.5306 93.8882C52.1809 94.1123 52.7263 94.6448 53.2158 95.5485C54.9079 90.9597 58.7466 87.716 62.7181 87.6039C62.7951 87.6039 62.872 87.6039 62.9419 87.6039C66.3681 87.6039 69.2838 89.9509 70.9969 94.0983C72.4792 92.9284 74.0805 92.5921 75.6607 93.1105C78.1569 93.9372 80.2685 96.9147 81.2055 100.894H89.5052C89.6381 100.894 89.7499 101.006 89.7499 101.139C89.7499 101.272 89.6381 101.384 89.5052 101.384H81.0097C80.8978 101.384 80.7929 101.307 80.772 101.195C79.898 97.286 77.8772 94.3646 75.5069 93.5799C74.0105 93.0825 72.4722 93.4678 71.0598 94.6868C70.9969 94.7359 70.913 94.7569 70.8431 94.7359C70.7662 94.7148 70.7032 94.6588 70.6753 94.5887C69.0391 90.3922 66.3051 88.0943 62.9629 88.0943C62.893 88.0943 62.816 88.0943 62.7461 88.0943C58.8235 88.2134 55.0197 91.5692 53.5024 96.2561C53.4745 96.3542 53.3836 96.4173 53.2857 96.4243C53.1878 96.4243 53.0899 96.3752 53.048 96.2842C52.5445 95.1842 52.0201 94.5747 51.3838 94.3575C50.8105 94.1614 50.1392 94.2805 49.3141 94.7148C49.2442 94.7569 49.1533 94.7499 49.0834 94.7148C49.0135 94.6728 48.9645 94.6028 48.9575 94.5187C48.6009 90.4132 46.769 87.8071 43.9301 87.3657C40.6298 86.8473 35.6864 89.6496 32.6517 96.9918C32.6028 97.1109 32.4699 97.1739 32.3441 97.1319C30.5471 96.4873 29.0787 96.5224 27.981 97.237C26.149 98.428 25.9183 101.132 25.9113 101.16C25.9043 101.286 25.7924 101.384 25.6665 101.384L25.6596 101.377Z"
        fill="#121418" />
    <path
        d="M209.239 147.938C205.072 147.938 202.338 147.056 201.597 145.199C199.415 139.784 215.169 128.434 237.46 119.369C248.032 115.067 258.373 112.005 266.582 110.751C274.889 109.476 280.049 110.226 281.112 112.867C283.294 118.283 267.54 129.632 245.249 138.698C230.58 144.66 217.259 147.938 209.246 147.938H209.239ZM273.526 110.646C271.575 110.646 269.267 110.842 266.652 111.242C258.485 112.496 248.186 115.543 237.642 119.831C215.973 128.644 200.003 139.945 202.044 145.017C204.086 150.089 223.385 147.056 245.053 138.242C266.722 129.429 282.692 118.128 280.651 113.056C280.014 111.466 277.504 110.646 273.526 110.646Z"
        fill="#121418" />
    <path
        d="M211.687 151.897C207.519 151.897 204.792 151.014 204.044 149.157C202.981 146.523 206.17 142.376 213.022 137.486C219.784 132.659 229.335 127.628 239.914 123.327C259.031 115.55 276.77 112.159 282.091 115.249C282.168 115.291 282.21 115.375 282.21 115.459V121.498C282.21 121.554 282.196 121.603 282.161 121.645C277.595 127.748 264.065 135.993 247.689 142.649C233.02 148.611 219.7 151.89 211.687 151.89V151.897ZM275.959 114.584C267.96 114.584 254.437 117.953 240.096 123.789C229.559 128.077 220.042 133.086 213.309 137.892C206.757 142.572 203.548 146.607 204.499 148.975C206.54 154.048 225.839 151.014 247.508 142.201C263.743 135.594 277.154 127.453 281.72 121.421V115.613C280.441 114.92 278.469 114.584 275.959 114.584Z"
        fill="#121418" />
    <path
        d="M195.318 155.645C195.276 155.645 195.227 155.631 195.185 155.61C195.115 155.568 195.073 155.491 195.073 155.414C195.045 154.678 194.877 153.949 194.577 153.263C194.269 152.562 193.843 151.946 193.304 151.42C193.248 151.364 193.22 151.28 193.234 151.203C193.248 151.126 193.304 151.056 193.374 151.021L202.443 147.035C202.59 146.965 202.744 146.909 202.939 146.867C203.037 146.846 203.149 146.888 203.205 146.979L204.827 149.746C204.967 150.082 205.149 150.348 205.387 150.587C205.478 150.671 205.485 150.818 205.408 150.916C205.163 151.231 204.834 151.483 204.464 151.652L195.416 155.638C195.416 155.638 195.353 155.659 195.318 155.659V155.645ZM193.899 151.315C194.367 151.827 194.745 152.408 195.031 153.053C195.311 153.69 195.479 154.349 195.542 155.028L204.275 151.182C204.513 151.077 204.722 150.937 204.89 150.755C204.68 150.517 204.513 150.243 204.394 149.949L202.884 147.371C202.8 147.399 202.73 147.427 202.653 147.462L193.906 151.308L193.899 151.315Z"
        fill="#121418" />
    <path
        d="M195.024 153.053C194.339 151.497 193.094 150.299 191.514 149.683C189.934 149.066 188.214 149.108 186.662 149.795L180.858 152.366L180.236 152.646L176.103 154.482C176.026 154.517 175.978 154.58 175.964 154.664C175.95 154.741 175.971 154.825 176.026 154.881C176.068 154.923 176.11 154.958 176.145 155L176.628 154.783L180.963 152.863C180.963 152.863 180.977 152.856 180.984 152.849L186.857 150.243C188.291 149.613 189.878 149.571 191.339 150.138C192.794 150.706 193.947 151.812 194.577 153.249C195.877 156.219 194.535 159.694 191.584 161.004L177.956 167.05L177.516 167.246C177.6 167.443 177.628 167.618 177.593 167.751L178.089 167.527L191.787 161.453C194.982 160.03 196.437 156.268 195.024 153.053ZM175.257 168.248L174.446 168.613L173.992 168.816C173.992 168.858 173.992 168.893 173.992 168.928C173.985 168.991 173.957 169.068 173.838 169.145C173.684 169.243 173.46 169.25 173.167 169.18L172.572 169.446L162.888 173.741C161.455 174.371 159.868 174.406 158.406 173.839C156.952 173.271 155.805 172.172 155.169 170.735C153.868 167.765 155.211 164.29 158.161 162.98L162.294 161.144L162.776 160.934C162.65 160.808 162.525 160.682 162.399 160.563L161.923 160.773L157.966 162.531C155.595 163.582 154.183 165.922 154.183 168.367C154.183 169.229 154.358 170.098 154.721 170.932C155.406 172.487 156.651 173.685 158.231 174.301C158.98 174.589 159.756 174.736 160.525 174.736C161.399 174.736 162.266 174.554 163.084 174.189L173.286 169.663L174.439 169.152L175.894 168.507L176.635 168.178C176.404 168.15 176.145 168.087 175.873 167.975L175.257 168.248Z"
        fill="#121418" />
    <path
        d="M247.941 143.223C226.111 152.107 206.715 155.077 204.61 149.865L202.191 145.746C205.589 150.061 224.252 146.972 245.144 138.474C266.974 129.59 282.972 118.178 280.874 112.958L283.301 117.085C283.454 117.281 283.573 117.484 283.664 117.708C285.762 122.92 269.771 134.34 247.934 143.223H247.941Z"
        fill="#55AE7B" />
    <path
        d="M211.98 152.674C207.743 152.674 205.114 151.75 204.387 149.949L201.988 145.865C201.925 145.753 201.953 145.612 202.058 145.535C202.163 145.465 202.31 145.486 202.387 145.584C205.736 149.83 224.482 146.607 245.06 138.242C266.729 129.429 282.699 118.121 280.657 113.049C280.609 112.93 280.657 112.797 280.776 112.734C280.888 112.678 281.028 112.72 281.098 112.832L283.524 116.958C283.685 117.162 283.811 117.386 283.902 117.617C286.083 123.033 270.33 134.382 248.039 143.448C237.467 147.749 227.125 150.811 218.923 152.065C216.28 152.471 213.959 152.667 211.987 152.667L211.98 152.674ZM203.107 146.81L204.827 149.739C205.799 152.142 210.903 152.808 218.847 151.589C227.013 150.334 237.313 147.287 247.857 142.999C269.526 134.186 285.496 122.885 283.454 117.806C283.377 117.617 283.273 117.435 283.126 117.239L281.315 114.156C280.944 119.943 265.904 130.298 245.256 138.698C225.797 146.614 208.477 149.858 203.121 146.81H203.107Z"
        fill="#121418" />
    <path d="M195.017 220.197L214.756 239.029L228.237 227.791L222.042 215.818L195.017 220.197Z"
        fill="#55AE7B" />
    <path d="M139.968 220.197L161.203 248.185L128.71 242.763L139.968 220.197Z" fill="#55AE7B" />
    <path
        d="M60.3548 283.663L41.5738 304.464L8.64757 312.618C8.52171 312.653 8.39585 312.653 8.26999 312.653C7.69664 312.653 7.15124 312.366 6.86456 311.848C6.51496 311.21 6.64081 310.44 7.15124 309.928L46.3634 271.046L60.3618 283.67L60.3548 283.663Z"
        fill="#55AE7B" />
    <path
        d="M320.366 297.17V303.847L258.527 288.539L258.297 288.616L246.039 263.486L276.511 266.303L279.847 281.547L320.366 297.17Z"
        fill="#55AE7B" />
    <path
        d="M118.46 219.398L118.397 218.915L118.879 218.845L142.114 215.573C142.296 215.538 142.485 215.538 142.681 215.58L182.207 222.04L221.748 215.573C221.93 215.538 222.119 215.538 222.322 215.58L233.111 217.1L233.796 217.198C233.915 217.381 234.034 217.563 234.159 217.745L233.474 217.647L222.238 216.064C222.091 216.036 221.965 216.036 221.839 216.057L182.249 222.53C182.249 222.53 182.193 222.53 182.165 222.53L142.59 216.064C142.45 216.029 142.324 216.029 142.198 216.057L118.942 219.328L118.46 219.398Z"
        fill="#121418" />
    <path
        d="M357.774 311.96H357.767C357.439 312.541 356.788 312.899 356.131 312.899C355.991 312.899 355.852 312.885 355.719 312.85L258.541 288.798L258.373 288.848L182.76 312.815C182.389 312.92 182.026 312.927 181.655 312.815L105.881 288.798L8.7034 312.85C8.54957 312.892 8.39574 312.892 8.26289 312.892C7.58465 312.892 6.96234 312.534 6.6477 311.96C6.24914 311.231 6.38199 310.342 6.97633 309.746L83.7226 233.655L84.1211 233.263C84.1701 233.438 84.219 233.62 84.268 233.795L83.8764 234.188L7.31895 310.089C6.87145 310.538 6.77355 311.175 7.07422 311.722C7.31195 312.149 7.75246 312.401 8.26289 312.401C8.37477 312.401 8.48664 312.401 8.57754 312.373L105.825 288.301C105.874 288.294 105.916 288.294 105.958 288.301L181.802 312.338C182.075 312.422 182.34 312.415 182.62 312.338L258.457 288.301C258.457 288.301 258.506 288.287 258.527 288.287C258.548 288.287 258.569 288.294 258.59 288.294L355.831 312.366C356.404 312.506 357.054 312.219 357.348 311.715C357.642 311.168 357.544 310.531 357.096 310.082L269.197 222.936C268.967 222.705 268.736 222.586 268.456 222.565L263.373 221.85L262.793 221.766C262.904 221.619 263.009 221.472 263.121 221.318L263.702 221.395L268.512 222.075C268.897 222.11 269.232 222.278 269.547 222.593L357.439 309.732C358.033 310.335 358.166 311.224 357.774 311.953V311.96Z"
        fill="#121418" />
    <path d="M258.311 288.651L222.049 215.93L222.483 215.706L258.751 288.427L258.311 288.651Z"
        fill="#121418" />
    <path d="M182.441 222.305L181.951 222.308L182.423 312.591L182.912 312.588L182.441 222.305Z"
        fill="#121418" />
    <path
        d="M114.586 271.648L114.341 272.138L106.105 288.651L105.671 288.434L113.796 272.138L114.041 271.648H114.586Z"
        fill="#121418" />
    <path
        d="M142.366 215.93L123.368 254.028L122.977 254.813L122.872 253.944L123.256 253.159L141.933 215.706L142.366 215.93Z"
        fill="#121418" />
    <path
        d="M30.1275 152.66L15.9054 179.29L12.4303 178.379L11.794 179.171C10.4655 180.831 8.63354 181.896 6.66874 182.295C5.53601 182.526 4.2005 182.449 2.91394 182.141C1.963 181.924 1.04003 181.581 0.24292 181.146L17.9821 147.938L20.4154 148.884L30.1275 152.66Z"
        fill="#55AE7B" />
    <path
        d="M3.00487 182.386C3.00487 182.386 2.9699 182.386 2.94893 182.386C1.98401 182.162 1.04006 181.812 0.221975 181.37C0.166038 181.342 0.124084 181.286 0.103108 181.223C0.0821313 181.16 0.0891235 181.09 0.124084 181.034L17.8633 147.826C17.9192 147.721 18.0521 147.665 18.1639 147.714L20.5972 148.66C20.6601 148.688 20.7161 148.737 20.7371 148.8C20.765 148.863 20.758 148.94 20.7231 149.003L3.22162 182.26C3.17967 182.344 3.09576 182.393 3.00487 182.393V182.386ZM0.669475 181.041C1.34772 181.384 2.10287 181.658 2.87901 181.854L20.1637 149.01L18.1849 148.24L0.669475 181.041Z"
        fill="#121418" />
    <path
        d="M134.437 284.889H96.931L95.2458 271.901H125.403L126.249 275.41L127.235 275.6C129.319 275.992 131.123 277.113 132.402 278.661C133.682 280.209 134.437 282.76 134.437 284.896V284.889Z"
        fill="#55AE7B" />
    <path
        d="M86.9671 125.302C84.2401 126.206 81.1496 127.446 78.115 129.107C74.0735 127.79 71.4235 127.691 71.0249 127.684L86.9671 125.302Z"
        fill="#217C4C" />
    <path
        d="M116.775 120.84C116.775 120.84 114.139 132.266 105.545 139.013L104.028 138.396L103.839 138.319L103.322 138.109L98.9099 136.33C98.8469 136.309 98.784 136.309 98.7211 136.337C98.6581 136.365 98.6162 136.414 98.5882 136.477L97.001 140.919C90.0018 134.284 83.4991 130.97 78.7444 129.324C82.8698 127.117 87.0791 125.688 90.2815 124.805C90.2885 124.805 90.2955 124.805 90.3025 124.805L95.7634 123.992L96.2808 123.915L116.775 120.847V120.84Z"
        fill="#121418" />
    <path
        d="M78.5833 213.78C78.3875 213.703 78.1987 213.618 78.003 213.527C75.6396 212.512 73.1224 211.349 70.4654 210.067C64.9695 207.411 58.8024 204.168 52.1319 200.433C49.8454 199.151 47.6219 197.883 45.5173 196.657C32.2041 188.944 18.0589 180.32 16.234 179.206L30.0925 152.913L66.2071 168.725L66.7665 168.97C66.7176 168.767 66.6686 168.571 66.6267 168.375L66.0603 168.129L30.0785 152.366C29.9596 152.317 29.8268 152.366 29.7639 152.478L15.6886 179.178C15.6327 179.297 15.6676 179.437 15.7795 179.507C15.9333 179.598 31.0784 188.853 45.2725 197.078C47.3772 198.311 49.6077 199.579 51.8941 200.861C58.5787 204.602 64.7528 207.846 70.2486 210.508C73.0455 211.86 75.7025 213.079 78.1708 214.137C78.3666 214.221 78.5623 214.305 78.7511 214.389C78.6952 214.186 78.6393 213.983 78.5833 213.78ZM136.395 151.469L105.545 139.013C105.398 139.132 105.245 139.244 105.091 139.363L106.161 139.791L135.996 151.841C135.772 152.485 135.066 154.475 133.996 157.389C133.682 158.251 133.332 159.19 132.955 160.199C132.192 162.223 131.318 164.535 130.346 167.043C126.655 176.529 121.585 188.79 116.348 199.039C116.215 199.298 116.082 199.558 115.957 199.81L116.068 200.714C116.201 200.468 116.334 200.216 116.467 199.964C121.914 189.448 127.165 176.719 130.927 166.966C131.864 164.549 132.703 162.321 133.437 160.353C133.794 159.393 134.129 158.489 134.43 157.663C135.633 154.377 136.381 152.219 136.535 151.778C136.577 151.659 136.514 151.518 136.395 151.469Z"
        fill="#121418" />
    <path
        d="M26.883 180.726C26.848 180.726 26.8061 180.719 26.7711 180.698C26.6523 180.635 26.6033 180.488 26.6662 180.369L38.9235 156.745C38.9865 156.626 39.1333 156.577 39.2522 156.64C39.371 156.703 39.42 156.85 39.3571 156.969L27.0998 180.593C27.0578 180.677 26.9739 180.726 26.883 180.726Z"
        fill="#121418" />
    <path
        d="M66.7666 168.97L66.2073 168.725C69.2209 181.483 73.577 197.722 78.0031 213.527C78.1989 213.618 78.3877 213.703 78.5834 213.78C74.1644 198.009 69.8013 181.77 66.7666 168.97ZM112.034 165.264L110.16 150.601C109.985 150.503 109.804 150.405 109.629 150.306L111.517 165.082L115.957 199.81C116.083 199.558 116.215 199.298 116.348 199.039L112.034 165.264ZM112.034 165.264L110.16 150.601L110.041 149.683C110.041 149.683 110.027 149.627 110.013 149.599L104.692 139.651L104.385 139.076L104.056 138.459L104.028 138.396L96.2807 123.908L95.9171 123.229C95.8681 123.138 95.7702 123.089 95.6654 123.103C95.5815 123.117 91.8616 123.67 86.9671 125.302L90.2814 124.805C90.2814 124.805 90.2954 124.805 90.3023 124.805C93.0153 124.062 94.9941 123.712 95.5675 123.621L95.7633 123.992L103.224 137.941L103.322 138.116L103.685 138.796L104.294 139.938L109.566 149.795L109.629 150.313L111.517 165.089L115.957 199.817C116.083 199.565 116.215 199.305 116.348 199.046L112.034 165.271V165.264ZM66.2073 168.725C69.2209 181.483 73.577 197.722 78.0031 213.527C78.1989 213.618 78.3877 213.703 78.5834 213.78C74.1644 198.009 69.8013 181.77 66.7666 168.97L66.2073 168.725ZM66.7666 168.97L66.2073 168.725C69.2209 181.483 73.577 197.722 78.0031 213.527C78.1989 213.618 78.3877 213.703 78.5834 213.78C74.1644 198.009 69.8013 181.77 66.7666 168.97Z"
        fill="#121418" />
    <path
        d="M134.661 284.28C134.647 284.07 134.633 283.859 134.605 283.656C134.591 283.544 134.577 283.439 134.556 283.327C134.549 283.264 134.542 283.194 134.528 283.138C134.514 283.026 134.493 282.914 134.472 282.808C134.444 282.654 134.409 282.507 134.381 282.367C134.025 280.875 133.395 279.467 132.591 278.5C131.242 276.86 129.361 275.747 127.284 275.354L126.452 275.2L125.648 271.865V271.837L124.48 262.744L123.368 254.028L123.257 253.16L118.942 219.328L118.88 218.845L116.467 199.964L116.348 199.039C116.215 199.298 116.083 199.558 115.957 199.81L116.069 200.714L118.397 218.915L118.46 219.398L122.872 253.944L122.977 254.813L123.963 262.498L124.026 262.989L125.131 271.648H95.4277C94.8683 269.792 90.0437 253.825 84.2682 233.795C84.2192 233.62 84.1703 233.438 84.1213 233.263C82.3803 227.238 80.5623 220.856 78.7513 214.389C78.6954 214.186 78.6395 213.983 78.5835 213.78C78.3877 213.703 78.199 213.618 78.0032 213.527C78.0591 213.731 78.1151 213.934 78.171 214.137C80.0449 220.828 81.9328 227.434 83.7228 233.655C83.7717 233.83 83.8277 234.013 83.8766 234.188C89.827 254.827 94.7495 271.081 95.0082 271.942C95.0082 271.956 95.0152 271.963 95.0152 271.97L96.3717 282.437L96.6933 284.924C96.7073 285.043 96.8122 285.134 96.938 285.134H134.444C134.577 285.134 134.682 285.022 134.682 284.889C134.682 284.693 134.675 284.49 134.661 284.28ZM95.5256 272.146H125.214L126.012 275.466C126.04 275.557 126.109 275.634 126.207 275.648L127.193 275.838C129.158 276.209 130.941 277.267 132.214 278.815C132.927 279.67 133.493 280.882 133.836 282.185H96.8261L95.5256 272.146ZM97.1478 284.644L96.8961 282.675H133.948C134.011 282.956 134.06 283.236 134.095 283.516C134.115 283.621 134.129 283.733 134.136 283.838C134.15 283.971 134.164 284.105 134.171 284.238C134.185 284.378 134.192 284.511 134.192 284.644H97.1478Z"
        fill="#121418" />
    <path
        d="M90.2814 124.805C87.0789 125.688 82.8696 127.117 78.7443 129.324C76.5907 130.473 74.458 131.839 72.5072 133.443C70.6823 134.957 69.0041 136.68 67.6197 138.642C63.9348 143.868 62.7671 150.089 64.1516 157.123C64.8018 160.402 65.6339 164.199 66.6268 168.375C66.6687 168.571 66.7177 168.767 66.7666 168.97L66.2073 168.725C66.1583 168.522 66.1094 168.326 66.0604 168.129C65.1165 164.087 64.3054 160.409 63.6761 157.221C62.2637 150.047 63.4523 143.7 67.2281 138.354C68.6685 136.316 70.4096 134.529 72.3114 132.981C74.1364 131.482 76.1152 130.2 78.115 129.107C81.1496 127.446 84.2401 126.206 86.9671 125.302L90.2814 124.805Z"
        fill="#121418" />
    <path
        d="M165.014 101.49H165.007C164.196 95.7938 160.448 90.3992 152.127 85.362C152.113 85.355 152.106 85.348 152.092 85.341C151.945 85.2499 151.799 85.1588 151.645 85.0678L151.085 87.9542L150.379 91.6183L150.078 91.1769L143.765 81.8451C143.569 81.796 143.373 81.754 143.177 81.712C111.412 75.1685 70.9758 127.684 70.9758 127.684H71.0248C71.4233 127.691 74.0734 127.79 78.1149 129.107C78.3246 129.177 78.5344 129.247 78.7442 129.324C83.4988 130.97 90.0016 134.284 97.0007 140.919C97.1266 141.045 97.2595 141.171 97.3923 141.297C97.5461 141.444 97.707 141.605 97.8678 141.759C98.1754 142.061 98.4901 142.362 98.8187 142.663C101.909 145.5 105.65 148.051 109.629 150.306C109.803 150.405 109.985 150.503 110.16 150.601C117.921 154.923 126.515 158.125 132.955 160.199C133.115 160.248 133.276 160.304 133.437 160.353C139.08 162.153 142.953 163.057 142.953 163.057C142.953 163.057 137.87 151.995 141.128 147.791C143.66 144.527 146.806 140.295 149.974 135.559C155.42 127.439 160.916 119.677 163.566 112.335C164.909 108.607 165.517 104.992 165.014 101.49ZM130.465 138.53C127.564 134.858 125.284 131.096 123.585 127.397C124.669 126.606 126.004 126.129 127.452 126.129C131.06 126.129 133.989 129.072 133.989 132.701C133.989 135.237 132.556 137.43 130.465 138.53Z"
        fill="#55AE7B" />
    <path
        d="M162.93 74.5382C162.622 74.4261 162.448 74.1039 162.525 73.7956C162.895 72.4084 163.042 71.1264 162.979 69.9564C162.972 69.7742 162.958 69.5921 162.93 69.4169C162.832 69.459 162.727 69.501 162.622 69.543H162.601C162.601 69.543 162.546 69.5781 162.448 69.6131C162.469 69.7882 162.483 69.9704 162.483 70.1595C162.532 71.2314 162.385 72.4084 162.049 73.6695C161.909 74.223 162.224 74.8044 162.762 75.0006C163.203 75.1617 163.496 75.5821 163.496 76.0515C163.496 76.2126 163.462 76.3808 163.385 76.5349C163.147 77.0393 162.504 77.2775 161.93 77.0743C161.336 76.8642 160.735 77.1094 160.434 77.6138C158.518 80.8715 155.756 82.2307 152.652 81.467C152.638 81.453 152.624 81.446 152.603 81.453C152.582 81.439 152.554 81.439 152.526 81.439C151.141 81.5581 149.876 80.8715 148.435 79.2181C148.365 79.1411 148.247 79.113 148.149 79.1621C148.051 79.2041 147.995 79.3092 148.009 79.4143C148.4 82.3007 149.673 83.9541 151.785 84.3394L151.645 85.068L151.085 87.9545L150.379 91.6185L150.078 91.1772L143.765 81.8453L143.681 81.7192L145.771 73.2071C145.771 73.2071 145.778 73.1581 145.778 73.137C145.75 72.5906 145.764 72.0371 145.841 71.4907C145.841 71.4136 145.855 71.3435 145.862 71.2665C145.876 71.1614 145.897 71.0563 145.918 70.9512L145.415 71.0143C145.401 71.0703 145.387 71.1334 145.38 71.1964C145.359 71.3155 145.345 71.4276 145.331 71.5467C145.275 72.0721 145.261 72.6046 145.282 73.123L143.177 81.7052C143.163 81.7823 143.17 81.8453 143.212 81.9014L149.904 91.7797L150.309 92.3822C150.351 92.4522 150.428 92.4873 150.512 92.4873H150.561C150.659 92.4662 150.729 92.3892 150.75 92.2911L152.092 85.3483L152.295 84.2974L152.736 81.9925C155.98 82.7141 158.861 81.2568 160.853 77.866C161.035 77.5577 161.392 77.4036 161.769 77.5367C162.574 77.824 163.476 77.4807 163.825 76.7451C163.93 76.5279 163.986 76.2827 163.986 76.0515C163.986 75.3719 163.559 74.7694 162.93 74.5382ZM151.903 83.87C151.903 83.87 151.882 83.87 151.875 83.863C150.162 83.5478 149.1 82.3287 148.631 80.1499C149.526 81.0467 150.729 81.9434 152.246 81.9434H152.253L151.903 83.87Z"
        fill="#121418" />
    <path
        d="M166.384 63.9241C166.384 63.9241 166.363 63.875 166.342 63.854C166.063 63.4967 165.769 63.1394 165.482 62.7961C165.706 63.2865 165.846 63.7769 165.909 64.2463C165.993 64.2533 166.07 64.2533 166.154 64.2533C166.251 64.2533 166.335 64.1973 166.377 64.1132C166.391 64.0782 166.398 64.0432 166.398 64.0081C166.398 63.9801 166.398 63.9521 166.384 63.9241ZM166.454 64.4005C166.44 64.2743 166.426 64.1412 166.398 64.0081C166.398 63.9801 166.398 63.9521 166.384 63.9241C166.084 62.2637 164.937 60.4632 162.602 59.2792C162.329 59.139 162.035 59.0129 161.728 58.8868C161 58.6066 160.182 58.3754 159.259 58.2143C154.449 57.3806 151.855 60.1969 151.218 61.0096C149.456 59.8957 147.988 59.6785 146.841 60.3581C143.576 62.3127 144.317 71.021 144.352 71.3923L144.373 71.6585L145.331 71.5464L145.841 71.4904L148.372 71.1961C150.128 71.6725 151.47 71.5324 152.358 70.7968C153.169 70.1172 153.386 69.1154 153.442 68.4849C157.427 71.6095 161.322 70.5796 162.483 70.1593C162.665 70.0962 162.783 70.0402 162.818 70.0262C162.874 70.0052 162.93 69.9841 162.979 69.9561C164.007 69.5358 164.853 68.8632 165.447 68.0365C165.545 67.9034 165.636 67.7703 165.72 67.6302C166.293 66.6844 166.559 65.5634 166.454 64.4005ZM165.259 67.385C165.182 67.5251 165.084 67.6652 164.986 67.7913C164.475 68.4779 163.769 69.0383 162.93 69.4167C162.832 69.4587 162.727 69.5007 162.623 69.5428H162.602C162.602 69.5428 162.546 69.5778 162.448 69.6128C161.609 69.9421 157.49 71.2872 153.358 67.7423L152.875 67.3289L152.924 67.9594C152.924 67.9594 153.043 69.5498 152.022 70.3975C151.26 71.021 150.065 71.1191 148.456 70.6777L148.407 70.6637L145.918 70.9509L145.415 71.014L144.855 71.077C144.751 69.5918 144.422 62.4178 147.114 60.8134C147.463 60.6033 147.855 60.4982 148.289 60.4982C149.093 60.4982 150.051 60.8625 151.134 61.5841L151.358 61.7312L151.498 61.507C151.596 61.3529 153.945 57.8219 159.168 58.7327C160.413 58.9499 161.462 59.3002 162.329 59.7345C162.783 59.9657 163.196 60.2179 163.553 60.4912C164.468 61.1707 165.091 61.9694 165.475 62.7821C165.475 62.7891 165.475 62.7961 165.482 62.7961C165.706 63.2865 165.846 63.7769 165.909 64.2463C165.923 64.3164 165.93 64.3794 165.937 64.4495C166.035 65.5074 165.79 66.5232 165.259 67.385Z"
        fill="black" />
    <path
        d="M160.063 72.8565C160.063 73.2489 159.749 73.5641 159.357 73.5641C158.966 73.5641 158.651 73.2489 158.651 72.8565C158.651 72.4642 158.966 72.1489 159.357 72.1489C159.749 72.1489 160.063 72.4642 160.063 72.8565Z"
        fill="#121418" />
    <path
        d="M157.595 72.0789C157.56 72.0789 157.525 72.0719 157.49 72.0579C157.371 72.0018 157.316 71.8547 157.378 71.7286C157.658 71.1401 158.05 70.7618 158.553 70.6006C159.385 70.3274 160.189 70.7548 160.224 70.7758C160.343 70.8388 160.385 70.986 160.322 71.1051C160.259 71.2242 160.112 71.2662 159.994 71.2031C159.994 71.2031 159.336 70.8529 158.707 71.063C158.336 71.1821 158.043 71.4764 157.826 71.9388C157.784 72.0298 157.7 72.0789 157.602 72.0789H157.595Z"
        fill="#121418" />
    <path
        d="M158.854 79.9745C157.189 79.9745 156.28 78.4682 156.239 78.3982C156.169 78.2791 156.211 78.132 156.322 78.0619C156.434 77.9918 156.588 78.0269 156.658 78.146C156.693 78.209 157.567 79.6382 159.133 79.4631C159.266 79.4421 159.385 79.5471 159.406 79.6803C159.42 79.8134 159.329 79.9395 159.189 79.9535C159.077 79.9675 158.965 79.9745 158.854 79.9745Z"
        fill="#121418" />
    <path
        d="M124.48 262.744C124.48 262.877 124.375 262.989 124.235 262.989H98.3434C98.2035 262.989 98.0986 262.877 98.0986 262.744C98.0986 262.604 98.2035 262.498 98.3434 262.498H124.235C124.375 262.498 124.48 262.604 124.48 262.744Z"
        fill="#121418" />
    <path
        d="M30.3583 152.576C30.3373 152.513 30.2814 152.457 30.2184 152.436H30.1905L26.2958 150.909L26.114 150.839L18.073 147.707C17.9542 147.665 17.8283 147.714 17.7654 147.819L0.0261811 181.034C-0.00178767 181.09 -0.00877986 181.16 0.0121967 181.216C0.0261811 181.279 0.0681342 181.335 0.124072 181.363C0.94915 181.805 1.8931 182.155 2.85802 182.379C3.6761 182.575 4.49419 182.674 5.25634 182.674C5.77376 182.674 6.2702 182.625 6.7177 182.533C8.79438 182.113 10.6683 180.971 11.9898 179.325L12.5212 178.659L15.8425 179.535C15.9544 179.563 16.0663 179.507 16.1222 179.409L30.3443 152.78C30.3793 152.716 30.3863 152.646 30.3583 152.576ZM15.7866 179.01L12.4933 178.141C12.3954 178.12 12.2975 178.155 12.2415 178.225L11.6052 179.017C10.3536 180.572 8.58462 181.651 6.61981 182.05C5.57798 182.267 4.28442 182.211 2.96989 181.903C2.13083 181.707 1.30575 181.413 0.578564 181.048L18.094 148.247L25.7295 151.217L26.1909 151.392L29.701 152.744V152.759L29.7849 152.794L20.2406 170.673L15.7866 179.01Z"
        fill="#121418" />
    <path
        d="M176.628 154.783L180.963 152.863C180.963 152.863 180.977 152.856 180.984 152.849C181.061 152.807 181.11 152.723 181.11 152.632C181.103 152.534 181.047 152.443 180.956 152.408L180.858 152.366L169.083 147.574C168.978 147.532 168.86 147.574 168.797 147.651L160.406 158.951C160.336 159.05 160.343 159.183 160.427 159.267C160.644 159.491 161.182 160.044 161.923 160.773C162.042 160.892 162.161 161.018 162.294 161.144C165.014 163.807 169.873 168.346 172.572 169.446C172.831 169.551 173.069 169.621 173.286 169.663C173.391 169.684 173.495 169.691 173.593 169.691C173.789 169.691 173.964 169.649 174.104 169.558C174.265 169.453 174.383 169.313 174.439 169.152C174.453 169.103 174.467 169.054 174.474 169.005C174.495 168.879 174.488 168.753 174.446 168.613C174.369 168.248 174.118 167.828 173.789 167.373C174.258 167.702 174.761 168.017 175.257 168.248C175.474 168.353 175.684 168.444 175.894 168.508C176.649 168.76 177.348 168.767 177.845 168.283C178.054 168.087 178.131 167.835 178.089 167.527C178.075 167.38 178.033 167.225 177.956 167.05C177.761 166.553 177.341 165.936 176.747 165.215C177.719 165.803 178.74 166.203 179.474 166.14C179.9 166.119 180.229 165.957 180.467 165.677C181.124 164.871 180.62 163.933 179.348 162.553C180.271 163.134 181.124 163.505 181.711 163.379C182.026 163.316 182.257 163.12 182.39 162.819C183.019 161.369 178.159 156.317 176.628 154.783ZM181.942 162.623C181.872 162.777 181.767 162.868 181.613 162.903C180.572 163.113 177.97 161.074 175.88 159.099C175.782 159.008 175.628 159.008 175.537 159.106C175.446 159.204 175.446 159.358 175.537 159.456C176.013 159.925 176.46 160.36 176.88 160.766C179.299 163.127 180.76 164.549 180.089 165.362C179.942 165.537 179.732 165.635 179.446 165.649C178.271 165.712 176.278 164.493 175.013 163.288C174.915 163.197 174.768 163.204 174.67 163.288C174.579 163.386 174.579 163.533 174.67 163.631C175.474 164.479 177.11 166.21 177.516 167.239C177.6 167.436 177.628 167.611 177.593 167.744C177.586 167.814 177.558 167.877 177.509 167.926C177.292 168.129 176.992 168.199 176.635 168.171C176.404 168.143 176.145 168.08 175.873 167.968C174.754 167.555 173.349 166.518 172.16 165.39C172.062 165.306 171.915 165.299 171.824 165.39C171.733 165.481 171.719 165.628 171.803 165.726L172.251 166.252C173.048 167.19 173.95 168.248 173.992 168.809C173.992 168.851 173.992 168.886 173.992 168.921C173.985 168.984 173.957 169.061 173.838 169.138C173.684 169.236 173.46 169.243 173.167 169.173C171.223 168.69 166.503 164.57 162.776 160.927C162.651 160.801 162.525 160.675 162.399 160.556C161.881 160.044 161.385 159.547 160.923 159.071L169.076 148.092L180.236 152.639L176.104 154.475C176.027 154.51 175.978 154.573 175.964 154.657C175.95 154.734 175.971 154.818 176.027 154.874C176.069 154.916 176.111 154.951 176.145 154.993C180.131 158.959 182.222 161.978 181.942 162.616V162.623Z"
        fill="#121418" />
    <path
        d="M272.54 192.671C269.456 183.066 260.464 176.13 249.864 176.13C236.712 176.13 226.062 186.807 226.062 199.985C226.062 208.574 236.166 222.061 243.207 230.412C244.305 231.701 245.312 232.871 246.207 233.886C248.151 236.072 251.577 236.072 253.514 233.886C260.184 226.348 273.672 209.905 273.672 199.992C273.672 197.442 273.267 194.983 272.533 192.678L272.54 192.671ZM239.397 198.486C239.397 192.699 244.088 188.012 249.864 188.012C255.639 188.012 260.324 192.699 260.324 198.486C260.324 204.273 255.639 208.967 249.864 208.967C244.088 208.967 239.397 204.28 239.397 198.486Z"
        fill="white" />
    <path
        d="M249.892 187.907C244.046 187.907 239.292 192.678 239.292 198.542C239.292 204.406 244.046 209.184 249.892 209.184C255.737 209.184 260.478 204.413 260.478 198.542C260.478 192.671 255.73 187.907 249.892 187.907ZM249.892 208.693C244.319 208.693 239.781 204.14 239.781 198.542C239.781 192.944 244.319 188.397 249.892 188.397C255.465 188.397 259.989 192.951 259.989 198.542C259.989 204.133 255.458 208.693 249.892 208.693ZM249.892 187.907C244.046 187.907 239.292 192.678 239.292 198.542C239.292 204.406 244.046 209.184 249.892 209.184C255.737 209.184 260.478 204.413 260.478 198.542C260.478 192.671 255.73 187.907 249.892 187.907ZM249.892 208.693C244.319 208.693 239.781 204.14 239.781 198.542C239.781 192.944 244.319 188.397 249.892 188.397C255.465 188.397 259.989 192.951 259.989 198.542C259.989 204.133 255.458 208.693 249.892 208.693ZM249.892 176.123C236.775 176.123 226.097 186.849 226.097 200.027C226.097 204.805 229.132 211.019 233.111 217.1C233.229 217.283 233.348 217.465 233.474 217.647C237.502 223.735 242.41 229.641 246.095 233.816C247.053 234.902 248.437 235.526 249.892 235.526C251.346 235.526 252.724 234.902 253.689 233.816C256.513 230.622 260.058 226.397 263.373 221.857C263.485 221.703 263.59 221.556 263.701 221.402C269.029 214.053 273.679 205.933 273.679 200.027C273.679 186.849 263.009 176.123 249.892 176.123ZM263.121 221.325C263.009 221.479 262.904 221.626 262.792 221.773C259.296 226.551 255.688 230.804 253.325 233.487C252.451 234.475 251.199 235.035 249.892 235.035C248.584 235.035 247.326 234.475 246.459 233.487C243.445 230.075 238.404 224.099 234.159 217.745C234.034 217.563 233.915 217.381 233.796 217.198C229.796 211.131 226.587 204.784 226.587 200.027C226.587 187.115 237.04 176.613 249.892 176.613C262.743 176.613 273.19 187.115 273.19 200.027C273.19 205.87 268.33 214.144 263.121 221.325ZM249.892 187.907C244.046 187.907 239.292 192.678 239.292 198.542C239.292 204.406 244.046 209.184 249.892 209.184C255.737 209.184 260.478 204.413 260.478 198.542C260.478 192.671 255.73 187.907 249.892 187.907ZM249.892 208.693C244.319 208.693 239.781 204.14 239.781 198.542C239.781 192.944 244.319 188.397 249.892 188.397C255.465 188.397 259.989 192.951 259.989 198.542C259.989 204.133 255.458 208.693 249.892 208.693Z"
        fill="#121418" />
    <path
        d="M273.442 200.027C273.442 209.863 260.101 226.173 253.507 233.648C251.584 235.82 248.2 235.82 246.277 233.648C245.389 232.639 244.389 231.483 243.305 230.201C247.808 226.439 252.605 223.013 257.625 219.973C260.164 218.439 262.793 216.967 264.911 214.88C268.561 211.286 270.218 205.877 269.582 200.819C269.351 198.976 267.743 196.16 268.925 194.436C269.589 193.456 270.911 192.965 272.316 192.762C273.043 195.053 273.442 197.491 273.442 200.02V200.027Z"
        fill="#55AE7B" />
    <path
        d="M182.683 248.185L200.213 253.489L190.619 276.959L209.974 287.888L182.683 303.847V248.185Z"
        fill="#55AE7B" />
    <path
        d="M171.579 145.676L159.951 159.989C146.596 154.496 136.961 146.747 130.465 138.53C127.564 134.858 125.284 131.096 123.585 127.397C122.998 126.122 122.473 124.854 122.019 123.6C119.893 117.75 118.886 112.068 118.474 107.115C117.67 97.4752 119.145 90.6164 119.145 90.6164L140.709 90.147C141.038 111.627 144.359 128.532 171.579 145.676Z"
        fill="#55AE7B" />
    <path
        d="M142.968 150.776C142.919 150.776 142.87 150.762 142.821 150.727C130.144 141.381 124.389 130.865 121.788 123.684C121.739 123.558 121.809 123.418 121.935 123.369C122.061 123.32 122.201 123.39 122.25 123.516C124.823 130.627 130.528 141.052 143.107 150.327C143.219 150.405 143.24 150.559 143.163 150.671C143.114 150.734 143.044 150.769 142.968 150.769V150.776Z"
        fill="#121418" />
    <path
        d="M303.816 71.9318C303.704 71.9318 303.606 71.8547 303.578 71.7426C302.215 65.6825 299.075 61.1497 295.383 59.9237C293.034 59.139 290.622 59.7415 288.405 61.6541C288.342 61.7032 288.258 61.7242 288.188 61.7032C288.111 61.6822 288.048 61.6261 288.02 61.5561C285.461 54.9986 280.986 51.3065 275.679 51.4816C269.589 51.6638 263.688 56.8691 261.331 64.1412C261.303 64.2393 261.212 64.3024 261.115 64.3094C261.017 64.3094 260.919 64.2603 260.877 64.1693C260.087 62.4458 259.255 61.479 258.241 61.1357C257.325 60.8204 256.255 61.0026 254.954 61.6892C254.884 61.7312 254.794 61.7242 254.724 61.6892C254.654 61.6471 254.605 61.5771 254.598 61.493C254.038 55.1107 251.179 51.0543 246.746 50.3677C241.613 49.576 233.943 53.8916 229.244 65.2622C229.195 65.3813 229.062 65.4443 228.936 65.4023C226.133 64.3934 223.832 64.4565 222.098 65.5844C219.224 67.455 218.861 71.6795 218.854 71.7216C218.847 71.8477 218.735 71.9458 218.609 71.9458H209.967C209.834 71.9458 209.722 71.8337 209.722 71.7006C209.722 71.5675 209.834 71.4554 209.967 71.4554H218.392C218.504 70.5096 219.119 66.9366 221.832 65.1711C223.65 63.9871 226.021 63.882 228.881 64.8628C233.684 53.4082 241.536 49.0716 246.815 49.8843C251.332 50.5849 254.395 54.7674 255.045 61.0937C256.325 60.4772 257.423 60.337 258.395 60.6733C259.422 61.0236 260.282 61.9064 261.059 63.4266C263.597 56.2596 269.533 51.1804 275.665 50.9982C281.063 50.8441 285.685 54.5011 288.349 61.0727C290.629 59.2161 293.104 58.6626 295.537 59.4683C299.397 60.7504 302.662 65.4163 304.061 71.6445C304.088 71.7776 304.005 71.9107 303.879 71.9388C303.858 71.9388 303.844 71.9388 303.823 71.9388L303.816 71.9318Z"
        fill="#121418" />
    <path d="M174.6 79.1968L174.181 78.9376L183.194 64.4635L183.606 64.7227L174.6 79.1968Z"
        fill="#121418" />
    <path
        d="M172.293 73.1788C171.3 73.1788 170.496 72.3661 170.496 71.3713C170.496 70.3764 171.3 69.5568 172.293 69.5568C173.285 69.5568 174.097 70.3694 174.097 71.3713C174.097 72.3731 173.285 73.1788 172.293 73.1788ZM172.293 70.0472C171.572 70.0472 170.985 70.6427 170.985 71.3713C170.985 72.0999 171.572 72.6884 172.293 72.6884C173.013 72.6884 173.607 72.0999 173.607 71.3713C173.607 70.6427 173.02 70.0472 172.293 70.0472Z"
        fill="#121418" />
    <path
        d="M163.378 147.602C162.385 147.602 161.581 146.79 161.581 145.795C161.581 144.8 162.385 143.98 163.378 143.98C164.37 143.98 165.182 144.793 165.182 145.795C165.182 146.797 164.37 147.602 163.378 147.602ZM163.378 144.471C162.657 144.471 162.07 145.066 162.07 145.795C162.07 146.523 162.657 147.112 163.378 147.112C164.098 147.112 164.692 146.523 164.692 145.795C164.692 145.066 164.105 144.471 163.378 144.471Z"
        fill="#121418" />
    <path d="M153.491 154.265L153.036 154.076L159.427 138.803L159.874 138.992L153.491 154.265Z"
        fill="#121418" />
    <path
        d="M241.564 236.444C241.564 236.444 241.55 236.444 241.543 236.444C237.558 236.114 232.81 235.442 232.81 234.09C232.81 232.605 238.711 231.946 242.229 231.687C242.382 231.673 242.48 231.778 242.487 231.911C242.494 232.044 242.396 232.163 242.264 232.17C235.691 232.654 233.3 233.578 233.3 234.083C233.3 234.559 235.502 235.449 241.578 235.946C241.711 235.96 241.816 236.072 241.802 236.213C241.795 236.339 241.683 236.437 241.557 236.437L241.564 236.444Z"
        fill="#121418" />
    <path
        d="M254.612 236.661C254.479 236.661 254.374 236.556 254.367 236.423C254.367 236.29 254.465 236.171 254.598 236.171C262.793 235.827 266.477 234.748 266.477 234.09C266.477 233.627 264.352 232.759 258.499 232.254C258.366 232.24 258.269 232.121 258.276 231.988C258.29 231.855 258.387 231.743 258.541 231.764C262.38 232.093 266.96 232.766 266.96 234.083C266.96 236.037 256.674 236.57 254.612 236.654H254.605L254.612 236.661Z"
        fill="#121418" />
    <path
        d="M42.0493 227.455C39.5461 227.455 37.3715 225.578 37.0569 223.014C36.7212 220.246 38.686 217.717 41.441 217.374C41.5878 217.353 41.6997 217.451 41.7137 217.591C41.7276 217.724 41.6367 217.85 41.5039 217.864C39.0147 218.173 37.2387 220.456 37.5463 222.958C37.854 225.459 40.1264 227.238 42.6157 226.93C42.7555 226.909 42.8744 227.007 42.8883 227.147C42.9023 227.28 42.8114 227.406 42.6786 227.42C42.4688 227.448 42.266 227.455 42.0563 227.455H42.0493Z"
        fill="#121418" />
    <path
        d="M301.746 162.23C301.69 162.23 301.641 162.216 301.592 162.181C301.487 162.097 301.466 161.943 301.55 161.838C303.096 159.855 302.739 156.976 300.76 155.428C299.802 154.678 298.614 154.349 297.411 154.496C296.208 154.643 295.132 155.26 294.383 156.219C294.299 156.324 294.146 156.345 294.041 156.261C293.936 156.177 293.915 156.023 293.999 155.918C294.824 154.853 296.02 154.174 297.355 154.006C298.691 153.837 300.005 154.209 301.068 155.035C303.256 156.752 303.648 159.939 301.942 162.139C301.893 162.202 301.823 162.23 301.746 162.23Z"
        fill="#121418" />
    <path
        d="M121.634 51.7619C121.536 51.7619 121.446 51.6988 121.404 51.6007C120.418 48.9945 121.725 46.0661 124.319 45.0782C126.913 44.0904 129.829 45.4075 130.815 48.0137C130.864 48.1398 130.801 48.2799 130.675 48.329C130.549 48.378 130.41 48.315 130.361 48.1889C129.927 47.0469 129.081 46.1431 127.976 45.6457C126.871 45.1483 125.634 45.1063 124.501 45.5406C122.159 46.4374 120.977 49.0786 121.865 51.4326C121.914 51.5587 121.851 51.6988 121.725 51.7478C121.697 51.7618 121.669 51.7619 121.641 51.7619H121.634Z"
        fill="#121418" />
    <path
        d="M112.51 262.576C112.51 262.576 112.475 262.576 112.461 262.576C112.342 262.547 112.265 262.428 112.293 262.309C113.328 257.664 112.6 252.312 110.083 245.951C108.049 240.822 105.951 235.519 103.448 230.447C92.3791 207.979 94.3019 191.781 95.8472 178.764C96.4415 173.769 96.952 169.446 96.6443 165.453C96.6373 165.327 96.7282 165.222 96.8471 165.215C96.9729 165.194 97.0778 165.299 97.0848 165.418C97.3925 169.453 96.882 173.79 96.2807 178.813C94.7424 191.767 92.8266 207.895 103.839 230.243C106.349 235.33 108.454 240.64 110.489 245.782C113.041 252.228 113.775 257.664 112.719 262.4C112.698 262.505 112.6 262.576 112.503 262.576H112.51Z"
        fill="black" />
</svg>
