<svg fill="none" height="358" viewBox="0 0 358 358" width="358" xmlns="http://www.w3.org/2000/svg">
    <g clip-path="url(#clip0_1343_20280)">
        <path
            d="M165.799 309.575L147.313 319.439C143.438 321.002 140.894 324.784 140.894 328.983V330.122H165.696L177.276 323.742L184.5 330.122H194.875L189.928 309.575H165.799Z"
            fill="#55AE7B" />
        <path
            d="M190.224 309.195H165.711L147.187 319.089C144.296 320.25 142.137 322.573 141.138 325.402C141.124 325.439 141.109 325.476 141.101 325.513C140.732 326.608 140.532 327.777 140.532 328.983V330.494H165.792L173.689 326.146L175.043 325.402L177.231 324.196L178.599 325.402L179.442 326.146L184.36 330.494H195.348L190.224 309.195ZM165.6 329.749H141.271V328.983C141.271 328 141.412 327.047 141.678 326.146H172.137L165.6 329.749ZM180.566 326.146H192.775V325.402H179.723L177.328 323.288L173.49 325.402H141.93C142.891 322.886 144.865 320.823 147.498 319.766L165.895 309.94H189.64L194.409 329.749H184.641L180.566 326.146Z"
            fill="#FEFEFE" />
        <path
            d="M151.173 310.9C149.864 307.93 149.901 305.123 151.254 304.52C152.608 303.917 154.693 305.771 156.002 308.749C159.1 315.784 154.257 317.913 151.173 310.9ZM151.461 304.997C150.522 305.414 150.374 307.803 151.646 310.692C152.319 312.225 154.294 315.277 155.706 314.645C157.111 314.019 156.209 310.506 155.528 308.957C154.767 307.223 152.785 304.409 151.461 304.997Z"
            fill="#FEFEFE" />
        <path
            d="M150.012 314.756C148.829 313.863 146.98 311.86 147.845 310.692C148.496 309.813 150.471 310.223 152.334 311.622C154.197 313.022 155.144 314.808 154.493 315.687C153.628 316.848 151.24 315.687 150.012 314.756ZM148.26 311.004C147.646 311.838 149.406 313.654 150.315 314.339C152.031 315.627 153.672 315.918 154.079 315.374C154.478 314.831 153.739 313.327 152.023 312.039C151.069 311.324 148.836 310.215 148.26 311.004Z"
            fill="#FEFEFE" />
        <path
            d="M112.662 97.6028L111.05 94.3273C110.983 94.2008 111.035 94.0444 111.168 93.9774C111.294 93.9179 111.449 93.9625 111.516 94.0965L113.128 97.3721C113.194 97.4986 113.143 97.655 113.01 97.722C112.884 97.789 112.729 97.7368 112.662 97.6028Z"
            fill="#FEFEFE" />
        <path
            d="M114.688 94.1189L111.249 87.888C111.183 87.7614 111.227 87.6051 111.353 87.5306C111.479 87.4636 111.634 87.5083 111.708 87.6349L115.146 93.8658C115.213 93.9924 115.168 94.1487 115.043 94.2232C114.917 94.2902 114.762 94.2455 114.688 94.1189Z"
            fill="#FEFEFE" />
        <path
            d="M117.727 92.3397L115.154 87.4562C115.087 87.3297 115.131 87.1733 115.265 87.1063C115.39 87.0393 115.546 87.084 115.612 87.2105L118.185 92.0941C118.252 92.2206 118.208 92.377 118.074 92.444C117.949 92.511 117.794 92.4589 117.727 92.3397Z"
            fill="#FEFEFE" />
        <path
            d="M119.442 110.578C116.292 108.859 115.117 106.946 114.163 105.405C112.965 103.372 108.55 96.5086 109.689 94.4614C109.837 94.1934 110.155 93.8732 110.806 93.8584C108.942 90.2255 108.284 87.9103 108.853 86.9648C109.194 86.3991 109.97 86.2278 110.806 86.8159C109.06 82.2451 111.301 81.1508 114.229 85.1335C112.809 80.7562 115.708 78.1953 122.859 92.7789C123.177 91.1114 124.131 90.0915 124.937 89.6895C126.216 89.0567 127.429 89.749 127.222 91.6176C126.83 95.1462 130.098 102.695 130.135 102.769C130.187 102.881 130.15 103.015 130.046 103.082L119.716 110.556C119.635 110.616 119.531 110.623 119.442 110.571V110.578ZM110.14 94.7219C109.127 96.5458 114.015 104.072 114.577 105.099C115.546 106.67 116.618 108.412 119.539 110.043L129.566 102.792C129.041 101.548 126.319 94.9452 126.697 91.5655C126.859 90.1362 126.09 89.7044 125.151 90.1659C124.338 90.5679 123.347 91.7367 123.258 93.7095C123.258 93.8286 123.169 93.9254 123.051 93.9551C122.933 93.9775 122.814 93.9179 122.77 93.8137C116.034 79.6098 112.24 79.8629 115.612 87.2254C115.671 87.3519 115.619 87.5008 115.501 87.5604C115.383 87.6274 115.235 87.5827 115.161 87.4711C111.456 81.5006 109.245 82.0217 111.715 87.6646C111.767 87.7837 111.722 87.9177 111.619 87.9847C111.515 88.0517 111.375 88.0368 111.286 87.9475C110.732 87.3519 109.719 86.5405 109.297 87.2403C109.075 87.6125 108.846 89.0195 111.515 94.0891C111.626 94.305 111.419 94.5432 111.19 94.4539C110.835 94.3125 110.34 94.3795 110.155 94.7219H110.14Z"
            fill="#FEFEFE" />
        <path
            d="M122.127 98.7567C121.328 97.2306 121.121 95.9353 121.513 94.908C121.927 93.8211 122.859 93.4712 122.903 93.4563C123.036 93.4042 123.184 93.4786 123.236 93.6126C123.288 93.7466 123.221 93.8955 123.088 93.9476C123.058 93.9625 122.326 94.2454 122.001 95.109C121.668 95.9874 121.868 97.1338 122.593 98.5185C122.659 98.6451 122.607 98.8014 122.482 98.8684C122.356 98.9354 122.201 98.8907 122.134 98.7567H122.127Z"
            fill="#FEFEFE" />
        <path
            d="M218.679 92.8385C218.856 92.6896 219.026 92.5333 219.189 92.3695V91.5506C219.026 91.7367 218.856 91.9079 218.679 92.0717V92.8385ZM218.679 79.7289V80.6967C218.864 80.9795 219.034 81.2699 219.189 81.5677V80.4659C219.034 80.2128 218.864 79.9671 218.679 79.7289Z"
            fill="#FEFEFE" />
        <path
            d="M219.189 92.3694V183.37H218.679V92.8384C218.856 92.6895 219.026 92.5332 219.189 92.3694Z"
            fill="#FEFEFE" />
        <path
            d="M218.679 193.375C218.856 193.174 219.026 192.973 219.189 192.757V193.896C219.034 194.082 218.856 194.269 218.679 194.447V193.375Z"
            fill="#FEFEFE" />
        <path
            d="M357.993 48.1273V314.436C357.993 314.578 357.882 314.697 357.742 314.697H218.93C218.79 314.697 218.679 314.578 218.679 314.436V309.031H219.189V314.176H357.483V48.3879H219.189V69.8948C219.1 69.6714 218.997 69.463 218.871 69.2545C218.812 69.1578 218.753 69.0535 218.679 68.9642V48.1273C218.679 47.9859 218.79 47.8668 218.93 47.8668H357.742C357.882 47.8668 357.993 47.9859 357.993 48.1273Z"
            fill="#FEFEFE" />
        <path
            d="M357.741 314.704C357.741 314.704 357.704 314.704 357.682 314.704L266.159 293.078C266.041 293.048 265.96 292.944 265.96 292.825V68.9717C265.96 68.8526 266.041 68.7484 266.159 68.7186L357.682 47.0926C357.756 47.0777 357.838 47.0926 357.904 47.1447C357.963 47.1968 358 47.2712 358 47.3457V314.444C358 314.525 357.963 314.6 357.904 314.645C357.86 314.682 357.801 314.704 357.741 314.704ZM266.477 292.609L357.483 314.116V47.6732L266.477 69.1801V292.609Z"
            fill="#FEFEFE" />
        <path
            d="M210.271 180.08L207.586 179.923L206.987 179.886L176.403 178.084C176.27 178.084 176.144 178.174 176.13 178.315L162.161 298.691C162.154 298.766 162.176 298.84 162.228 298.892C162.28 298.944 162.346 298.982 162.42 298.982H191.488C191.614 298.982 191.718 298.892 191.74 298.766L207.084 216.401L207.453 214.443L207.298 212.47L206.928 214.421L191.274 298.461H162.708L176.61 178.613L204.288 180.251L204.887 180.288L207.564 180.444L208.141 180.482L210.847 180.117L210.271 180.08ZM209.79 199.085C209.967 199.055 210.152 199.018 210.33 198.981L210.478 198.199C210.293 198.236 210.115 198.274 209.93 198.303L209.79 199.085Z"
            fill="#FEFEFE" />
        <path
            d="M241.653 175.628C241.653 175.464 241.505 175.345 241.357 175.367L222.361 177.928L207.586 179.923L204.887 180.288L204.495 180.34C204.362 180.355 204.266 180.474 204.273 180.616L205.73 199.167L206.928 214.421L207.083 216.401L213.561 298.743C213.568 298.877 213.687 298.982 213.82 298.982H242.348C242.422 298.982 242.481 298.952 242.533 298.9C242.585 298.855 242.607 298.788 242.607 298.714L241.653 175.628ZM214.056 298.461L207.453 214.443L207.298 212.47L206.255 199.212L204.806 180.817L207.564 180.444L210.27 180.08L222.523 178.434L241.135 175.926L242.089 298.461H214.056Z"
            fill="#FEFEFE" />
        <path
            d="M222.523 178.434C222.501 178.323 222.464 178.218 222.427 178.107L222.361 177.928L222.324 177.816L219.188 178.241L218.678 178.308L206.987 179.886L204.288 180.251L204.133 180.273L204.362 183.184L205.619 199.152L205.73 199.167L205.93 199.189C206.041 199.204 206.144 199.212 206.255 199.212C207.453 199.316 208.636 199.264 209.79 199.085C209.967 199.055 210.152 199.018 210.33 198.981C213.517 198.363 216.43 196.755 218.678 194.447C218.856 194.269 219.033 194.082 219.188 193.896C221.651 191.134 223.204 187.494 223.248 183.422C223.256 183.355 223.256 183.288 223.256 183.221C223.256 181.583 223.011 179.983 222.523 178.434ZM219.188 192.757C219.026 192.973 218.856 193.174 218.678 193.375C216.541 195.795 213.672 197.522 210.478 198.199C210.293 198.236 210.115 198.274 209.93 198.303C208.755 198.504 207.542 198.571 206.307 198.475L205.109 183.191L204.932 180.913L208.141 180.482L210.847 180.117L218.678 179.06L219.188 178.993L221.821 178.635C222.279 180.117 222.516 181.658 222.516 183.221C222.516 183.288 222.516 183.348 222.509 183.415C222.472 186.966 221.222 190.204 219.188 192.757Z"
            fill="#FEFEFE" />
        <path
            d="M242.289 291.381H223.418C223.285 291.381 223.181 291.284 223.159 291.158C221.68 279.701 230.236 268.921 242.097 268.199C242.178 268.199 242.237 268.221 242.289 268.266C242.341 268.318 242.37 268.385 242.37 268.452L242.54 291.12C242.54 291.262 242.422 291.381 242.282 291.381H242.289ZM223.647 290.86H242.023L241.853 268.735C230.65 269.569 222.346 279.708 223.64 290.86H223.647Z"
            fill="#FEFEFE" />
        <path
            d="M231.315 204.356C226.938 200.425 226.531 195.341 226.967 191.767C227.159 190.316 227.418 188.976 228.002 187.278C228.039 187.181 228.128 187.107 228.232 187.107C231.604 186.906 235.656 185.425 235.7 185.41C235.796 185.372 235.907 185.402 235.981 185.477L244.796 195.236C244.87 195.318 244.884 195.445 244.825 195.542C242.4 199.696 236.151 202.949 231.567 204.408C231.485 204.438 231.389 204.415 231.315 204.356ZM227.477 191.842C227.063 195.259 227.44 200.105 231.544 203.872C235.922 202.428 241.867 199.375 244.271 195.445L235.7 185.961C234.909 186.236 231.441 187.405 228.424 187.621C227.633 189.958 227.5 191.685 227.47 191.842H227.477Z"
            fill="#FEFEFE" />
        <path
            d="M239.797 208.725C227.071 205.1 224.098 194.931 228.69 185.544C228.749 185.417 228.912 185.365 229.038 185.424C229.163 185.491 229.215 185.648 229.156 185.774C224.66 195.058 227.662 204.728 239.937 208.227C240.078 208.264 240.152 208.413 240.115 208.547C240.078 208.681 239.937 208.763 239.797 208.725Z"
            fill="#FEFEFE" />
        <path
            d="M239.797 208.718C236.262 207.706 233.408 206.239 231.315 204.356C226.938 200.425 226.531 195.341 226.967 191.767C227.145 190.226 227.507 188.708 228.002 187.278C228.365 186.199 228.683 185.559 228.69 185.536C228.757 185.41 228.912 185.358 229.038 185.417C229.163 185.484 229.215 185.64 229.156 185.767C229.156 185.767 228.838 186.407 228.491 187.449C227.958 188.983 227.625 190.509 227.477 191.834C226.427 200.455 231.426 205.793 239.937 208.219C240.078 208.257 240.152 208.405 240.115 208.539C240.078 208.673 239.937 208.755 239.797 208.718Z"
            fill="#FEFEFE" />
        <path
            d="M243.007 170.327C242.585 171.868 242.156 173.402 241.735 174.935C241.032 177.504 240.308 180.094 238.895 182.328C238.614 182.767 238.296 183.206 237.956 183.608L230.421 183.511L223.248 183.422H222.509L219.189 183.37H218.679L205.109 183.191H204.363L174.651 182.812C174.651 182.812 176.736 128.78 183.044 122.028C189.1 115.537 204.681 115.298 218.679 120.256C218.849 120.316 219.019 120.375 219.189 120.442C226.813 123.212 233.919 127.529 238.711 133.217L237.742 144.532L241.136 161.201L243.007 170.327Z"
            fill="#55AE7B" />
        <path
            d="M245.735 183.705L237.956 183.608C238.296 183.206 238.614 182.767 238.895 182.328C240.308 180.094 241.032 177.504 241.735 174.935C242.156 173.402 242.585 171.868 243.007 170.327L245.735 183.705Z"
            fill="#55AE7B" />
        <path
            d="M246.4 198.884C242.008 194.224 236.196 187.702 231.818 183.02C254.816 156.071 247.14 139.924 214.715 129.666L201.219 134.356C198.232 137.698 195.03 140.371 191.695 142.493C187.007 146.267 181.971 149.483 176.692 151.739C176.677 151.739 176.669 151.753 176.655 151.753C176.093 151.999 175.516 152.23 174.946 152.446C174.621 152.572 174.288 152.691 173.956 152.811C173.63 152.93 173.297 153.041 172.965 153.153C172.676 153.25 172.388 153.339 172.099 153.428C172.018 153.458 171.937 153.481 171.855 153.503C171.611 153.577 171.36 153.652 171.109 153.719C170.887 153.786 170.672 153.845 170.45 153.897C170.125 153.987 169.792 154.069 169.46 154.151C163.64 155.55 157.606 155.654 151.498 153.972C150.626 153.726 149.76 153.458 148.903 153.146C142.994 151.031 137.545 147.331 132.649 142.344C125.21 134.78 119.073 124.239 114.606 111.717C119.169 108.189 126.098 101.816 132.132 99.6947C148.792 139.924 175.124 118.187 175.886 117.39C176.987 116.244 178.097 115.179 179.198 114.189C183.79 110.102 188.464 107.318 193.152 105.553C196.516 104.28 199.888 103.536 203.223 103.216C203.416 103.194 203.601 103.171 203.785 103.164L207.52 109.305L212.984 103.529V103.38C213.162 103.402 213.332 103.424 213.502 103.447C215.713 103.744 217.887 104.184 220.024 104.742C220.845 104.958 221.666 105.189 222.472 105.434C222.738 105.509 223.004 105.591 223.27 105.68C223.632 105.792 223.987 105.911 224.35 106.03C224.779 106.171 225.215 106.32 225.644 106.469C226.169 106.655 226.694 106.849 227.211 107.05C227.677 107.221 228.143 107.4 228.609 107.586C228.86 107.69 229.112 107.787 229.356 107.891C230.066 108.181 230.761 108.472 231.456 108.777C231.478 108.792 231.508 108.799 231.537 108.814C232.225 109.112 232.898 109.425 233.571 109.73C233.637 109.767 233.697 109.789 233.756 109.819C234.451 110.147 235.131 110.474 235.804 110.802C236.499 111.144 237.187 111.487 237.86 111.837C238.244 112.038 238.629 112.231 239.006 112.425C239.383 112.626 239.753 112.819 240.13 113.02C240.869 113.407 241.594 113.809 242.311 114.204C248.205 117.457 253.152 120.792 256.99 124.611C257.219 124.842 257.448 125.065 257.67 125.296C258.114 125.75 258.542 126.212 258.957 126.681C259.785 127.611 260.554 128.557 261.278 129.517C261.633 129.993 261.981 130.477 262.314 130.961C262.314 130.961 262.316 130.964 262.321 130.969C262.816 131.698 263.282 132.435 263.719 133.172C264.007 133.678 264.281 134.17 264.547 134.669C264.813 135.167 265.072 135.681 265.308 136.187C265.737 137.095 266.122 138.004 266.462 138.927C266.632 139.388 266.795 139.85 266.943 140.311C267.024 140.542 267.098 140.773 267.165 141.011C267.305 141.473 267.438 141.942 267.556 142.411C267.623 142.649 267.682 142.88 267.734 143.118C267.845 143.587 267.941 144.063 268.037 144.532C268.126 145.009 268.207 145.485 268.281 145.962C270.795 162.533 263.157 182.752 246.393 198.884H246.4Z"
            fill="#55AE7B" />
        <path
            d="M237.86 111.837C238.244 112.038 238.629 112.231 239.006 112.425C237.956 111.866 236.884 111.323 235.804 110.802C236.499 111.144 237.187 111.487 237.86 111.837Z"
            fill="#55AE7B" />
        <path
            d="M176.655 151.753C176.263 151.932 175.856 152.096 175.464 152.252C175.294 152.319 175.117 152.386 174.947 152.446C175.516 152.23 176.093 151.999 176.655 151.753Z"
            fill="#FEFEFE" />
        <path
            d="M241.291 169.963C241.165 169.896 241.113 169.739 241.172 169.613C245.173 161.491 245.816 154.381 243.102 148.493C239.368 140.393 229.119 134.229 212.651 130.15C212.511 130.113 212.43 129.971 212.459 129.837C212.496 129.696 212.629 129.614 212.77 129.644C229.4 133.753 239.76 140.021 243.561 148.27C246.349 154.314 245.698 161.573 241.631 169.843C241.564 169.97 241.409 170.022 241.283 169.963H241.291Z"
            fill="#FEFEFE" />
        <path
            d="M214.182 94.2753V94.3647L213.502 103.447L213.487 103.663C213.487 103.722 213.458 103.782 213.413 103.827L207.653 109.909C207.535 110.028 207.342 110.005 207.261 109.864L203.224 103.216L203.172 103.127C203.142 103.082 203.128 103.023 203.135 102.963L203.386 100.73L203.453 100.194C203.608 100.261 203.771 100.32 203.941 100.357L203.882 100.886L203.645 102.933L203.786 103.164L207.52 109.306L212.985 103.529V103.38L213.532 96.2183L213.68 94.2381C213.687 94.0892 213.813 93.985 213.953 93.9924C214.094 94.0073 214.197 94.1339 214.182 94.2753Z"
            fill="#FEFEFE" />
        <path
            d="M211.927 85.543C210.322 83.8233 208.207 82.8853 205.952 82.9151C203.704 82.9374 201.604 83.9201 200.029 85.6695C198.469 87.4115 197.618 89.7119 197.648 92.1536C197.655 92.9576 197.759 93.7244 197.944 94.4614C198.003 94.7219 198.084 94.9825 198.166 95.2356C199.06 97.856 201.012 99.8586 203.386 100.73C203.549 100.789 203.712 100.841 203.882 100.886C204.606 101.109 205.368 101.213 206.144 101.206C209.339 101.176 212.156 99.1737 213.532 96.2183C213.694 95.8684 213.842 95.5036 213.96 95.1314C214.034 94.9304 214.094 94.7219 214.145 94.5061C214.16 94.4614 214.168 94.4093 214.175 94.3646C214.352 93.6425 214.441 92.8832 214.441 92.0941V91.975C214.419 89.5406 213.524 87.2552 211.927 85.543ZM213.406 95.0867C212.341 98.191 209.694 100.648 206.137 100.685C205.383 100.692 204.643 100.588 203.941 100.357C203.771 100.32 203.608 100.261 203.453 100.194C201.33 99.3821 199.563 97.5955 198.713 95.2505C198.365 94.2976 198.173 93.2554 198.158 92.1462C198.136 89.8384 198.935 87.6646 200.414 86.0194C201.885 84.3742 203.859 83.4586 205.959 83.4362H206.033C208.111 83.4362 210.063 84.3072 211.55 85.9003C213.864 88.3793 214.382 91.6995 213.576 94.5582C213.524 94.7368 213.472 94.9155 213.406 95.0867Z"
            fill="#FEFEFE" />
        <path
            d="M219.698 81.3369C219.543 81.0391 219.373 80.7488 219.188 80.4659C219.033 80.2128 218.863 79.9671 218.678 79.7289C218.034 78.8728 217.28 78.0986 216.43 77.4137C216.26 77.2722 216.082 77.1382 215.905 77.0191C214.101 75.6866 211.934 74.7486 209.634 74.3242C209.42 74.2796 209.191 74.2498 208.969 74.22C207.926 74.0637 206.854 74.0265 205.782 74.1009C200.568 74.4806 196.612 77.4286 194.934 82.2079C191.687 91.4464 197.389 94.8187 198.165 95.2356C198.217 95.2654 198.247 95.2803 198.254 95.2803L198.779 95.5185L198.712 95.2505C198.365 94.2976 198.173 93.2554 198.158 92.1462C198.136 89.8384 198.934 87.6646 200.413 86.0194C201.885 84.3742 203.859 83.4585 205.959 83.4362H206.003L206.321 83.0416L205.774 83.0119H205.56C203.608 83.0119 201.463 84.1732 199.918 86.0864C198.062 88.3867 197.367 91.4166 197.966 94.4763C197.958 94.4763 197.951 94.4763 197.943 94.4614C196.464 93.501 192.723 90.1808 195.459 82.394C197.063 77.838 200.835 75.0166 205.819 74.6592C206.98 74.5774 208.148 74.6369 209.272 74.8305C209.523 74.8602 209.775 74.9124 210.019 74.9719C211.897 75.3739 213.664 76.1407 215.195 77.1829C215.402 77.3243 215.602 77.4732 215.801 77.6221C216.94 78.4931 217.924 79.5279 218.678 80.6967C218.863 80.9795 219.033 81.2699 219.188 81.5677C219.195 81.5751 219.195 81.59 219.203 81.5974C220.941 84.9251 221.273 87.7688 220.194 90.0394C219.927 90.6052 219.58 91.1039 219.188 91.5506C219.025 91.7367 218.855 91.9079 218.678 92.0717C217.081 93.568 215.025 94.2604 214.145 94.506C213.967 94.5581 213.834 94.5879 213.768 94.6028C213.701 94.5879 213.635 94.5805 213.576 94.5581C213.524 94.7368 213.472 94.9155 213.405 95.0867C213.509 95.1239 213.612 95.1388 213.716 95.1611H213.768H213.827C213.842 95.1611 213.886 95.1463 213.96 95.1314C214.529 94.9974 216.8 94.4018 218.678 92.8385C218.855 92.6896 219.025 92.5333 219.188 92.3695C219.78 91.7963 220.305 91.1039 220.697 90.2851C221.857 87.8433 221.517 84.8357 219.698 81.3369Z"
            fill="#FEFEFE" />
        <path
            d="M202.159 96.4714C202.07 96.3597 202.092 96.196 202.203 96.1066C202.314 96.0173 202.476 96.0396 202.565 96.1513C202.639 96.1662 203.253 97.1042 204.229 96.1587C204.333 96.062 204.495 96.062 204.591 96.1587C204.687 96.263 204.687 96.4267 204.591 96.5235C203.711 97.3722 202.721 97.1861 202.159 96.4565V96.4714Z"
            fill="#FEFEFE" />
        <path
            d="M202.225 92.6896C202.322 92.295 202.869 91.9749 202.699 91.1411C202.669 90.9997 202.758 90.8657 202.898 90.8359C203.032 90.8061 203.172 90.8955 203.202 91.0369C203.409 92.0568 202.765 92.6598 202.728 92.8161C202.684 93.0022 202.891 93.2479 203.298 93.1958C203.475 93.1735 203.653 93.1139 203.852 93.032C203.985 92.9799 204.133 93.0469 204.185 93.1809C204.237 93.3149 204.17 93.4638 204.037 93.5159C203.815 93.6052 203.593 93.6871 203.349 93.7095C202.566 93.7914 202.085 93.2107 202.225 92.6821V92.6896Z"
            fill="#FEFEFE" />
        <path
            d="M219.351 68.9716C219.299 68.8897 219.255 68.8079 219.188 68.726C219.04 68.4877 218.87 68.257 218.678 68.0485C217.924 67.185 216.926 66.5745 215.794 66.2768C214.286 65.8822 212.718 66.113 211.38 66.9021C210.041 67.6986 209.087 68.9716 208.703 70.4903C208.695 70.5275 208.681 70.5647 208.681 70.602C208.636 70.7732 208.599 70.9444 208.577 71.1156C208.422 72.1727 208.555 73.2447 208.969 74.2199C209.058 74.4284 209.161 74.6368 209.272 74.8304C209.524 74.8602 209.775 74.9123 210.019 74.9718C209.938 74.8676 209.871 74.7559 209.805 74.6443C209.745 74.54 209.686 74.4284 209.634 74.3242C209.154 73.3713 208.976 72.3142 209.124 71.2645C209.139 71.0933 209.169 70.9146 209.22 70.7434C209.22 70.7062 209.235 70.6615 209.243 70.6243C209.59 69.2545 210.448 68.1081 211.661 67.386C212.481 66.8946 213.398 66.649 214.33 66.649C214.774 66.649 215.217 66.7011 215.654 66.8202C216.903 67.1403 217.968 67.8996 218.678 68.9642C218.752 69.0535 218.811 69.1577 218.87 69.2545C218.996 69.463 219.1 69.6714 219.188 69.8947C219.469 70.5498 219.61 71.2422 219.61 71.9494C219.61 72.3886 219.551 72.8353 219.44 73.2745C219.373 73.5351 219.292 73.7807 219.188 74.0189C219.048 74.3539 218.878 74.6666 218.678 74.9569C218.345 75.4408 217.939 75.8577 217.48 76.2076C217.31 76.3341 217.14 76.4458 216.955 76.55C216.622 76.7436 216.275 76.8999 215.905 77.019C215.676 77.086 215.439 77.1456 215.195 77.1828C215.402 77.3243 215.602 77.4731 215.802 77.622C216.016 77.5699 216.23 77.5029 216.43 77.4136C216.726 77.3019 217.014 77.1605 217.295 76.9967C217.406 76.9297 217.517 76.8627 217.621 76.7883C217.798 76.6692 217.961 76.5351 218.123 76.3937C218.323 76.2299 218.508 76.0438 218.678 75.8503C218.87 75.6344 219.048 75.411 219.188 75.1728C219.551 74.6443 219.809 74.0487 219.972 73.4159C220.364 71.8973 220.142 70.3191 219.351 68.9716Z"
            fill="#FEFEFE" />
        <path
            d="M200.665 91.2677C200.546 91.7293 200.081 92.0121 199.622 91.893C199.164 91.7739 198.883 91.3049 199.001 90.8359C199.119 90.3744 199.585 90.0915 200.051 90.2106C200.502 90.3297 200.783 90.7987 200.665 91.2603V91.2677Z"
            fill="#FEFEFE" />
        <path
            d="M206.876 91.3867C206.758 91.8483 206.292 92.1312 205.834 92.012C205.375 91.8929 205.094 91.4239 205.213 90.9549C205.331 90.4934 205.797 90.2105 206.263 90.3296C206.714 90.4487 206.995 90.9177 206.876 91.3793V91.3867Z"
            fill="#FEFEFE" />
        <path
            d="M201.479 89.1536C200.539 88.4315 199.704 88.6697 199.696 88.6772C199.563 88.7218 199.415 88.6399 199.371 88.5059C199.327 88.3719 199.408 88.2231 199.541 88.1784C199.586 88.1635 200.643 87.8583 201.789 88.7442C201.9 88.8335 201.922 88.9973 201.833 89.1089C201.745 89.2206 201.582 89.2429 201.471 89.1536H201.479Z"
            fill="#FEFEFE" />
        <path
            d="M229.238 82.5354C229.112 82.6024 228.957 82.5503 228.89 82.4237C228.217 81.1805 227.53 79.8852 226.576 78.8281C225.533 77.6667 224.276 76.9595 223.048 76.8255C221.902 76.699 220.653 77.0638 219.455 77.0712C218.841 77.0712 218.22 76.9744 217.621 76.7883C217.392 76.7288 217.17 76.6469 216.955 76.5501C217.14 76.4459 217.31 76.3342 217.48 76.2076C217.687 76.2821 217.902 76.3491 218.124 76.3938C218.553 76.498 218.996 76.5501 219.447 76.5501C220.653 76.5426 221.843 76.1704 223.1 76.3044C224.461 76.4533 225.829 77.2275 226.96 78.4782C227.958 79.5874 228.661 80.9051 229.341 82.1781C229.408 82.3046 229.363 82.4609 229.238 82.5354Z"
            fill="#FEFEFE" />
        <path
            d="M209.22 70.7435C209.169 70.9147 209.139 71.0934 209.124 71.2646C208.947 71.1902 208.762 71.1455 208.577 71.1157C207.49 70.9519 206.277 71.406 205.153 71.5028C203.039 71.674 200.842 70.5872 199.681 68.793C199.608 68.6739 199.644 68.5102 199.763 68.4357C199.881 68.3538 200.044 68.3911 200.118 68.5102C201.175 70.1479 203.179 71.138 205.117 70.9817C206.226 70.8924 207.483 70.4085 208.681 70.602C208.866 70.6318 209.043 70.6765 209.22 70.7435Z"
            fill="#FEFEFE" />
        <path
            d="M256.997 124.611C257.226 124.842 257.448 125.065 257.67 125.296C257.448 125.065 257.219 124.842 256.99 124.611H256.997Z"
            fill="#FEFEFE" />
        <path
            d="M258.957 126.681C259.785 127.611 260.561 128.557 261.278 129.517C260.554 128.557 259.785 127.611 258.957 126.681Z"
            fill="#FEFEFE" />
        <path
            d="M262.321 130.969C262.816 131.698 263.29 132.428 263.719 133.172C263.282 132.435 262.816 131.698 262.321 130.969Z"
            fill="#FEFEFE" />
        <path
            d="M268.295 145.962H268.288C268.214 145.485 268.133 145.009 268.044 144.532C268.14 145.009 268.221 145.485 268.295 145.962Z"
            fill="#FEFEFE" />
        <path d="M238.179 175.419L237.749 175.709L248.516 191.888L248.946 191.598L238.179 175.419Z"
            fill="#FEFEFE" />
        <path
            d="M237.527 183.965C236.61 183.965 235.856 183.214 235.856 182.29C235.856 181.367 236.603 180.608 237.527 180.608C238.451 180.608 239.191 181.36 239.191 182.29C239.191 183.221 238.444 183.965 237.527 183.965ZM237.527 181.129C236.891 181.129 236.373 181.65 236.373 182.29C236.373 182.931 236.891 183.444 237.527 183.444C238.163 183.444 238.673 182.923 238.673 182.29C238.673 181.658 238.155 181.129 237.527 181.129Z"
            fill="#FEFEFE" />
        <path
            d="M193.78 309.783H159.728C158.515 309.783 157.532 308.793 157.532 307.573V300.56C157.532 299.339 158.515 298.349 159.728 298.349H193.78C194.993 298.349 195.977 299.339 195.977 300.56V307.573C195.977 308.793 194.993 309.783 193.78 309.783ZM159.728 299.093C158.93 299.093 158.271 299.748 158.271 300.56V307.573C158.271 308.377 158.922 309.039 159.728 309.039H193.78C194.579 309.039 195.237 308.384 195.237 307.573V300.56C195.237 299.756 194.586 299.093 193.78 299.093H159.728Z"
            fill="#FEFEFE" />
        <path
            d="M244.367 298.349H210.315C209.102 298.349 208.119 299.339 208.119 300.56V307.565C208.119 308.786 209.102 309.776 210.315 309.776H244.367C245.58 309.776 246.563 308.786 246.563 307.565V300.56C246.563 299.339 245.58 298.349 244.367 298.349ZM245.824 307.565C245.824 308.376 245.166 309.032 244.367 309.032H210.315C209.509 309.032 208.858 308.376 208.858 307.565V300.56C208.858 299.748 209.509 299.093 210.315 299.093H244.367C245.166 299.093 245.824 299.748 245.824 300.56V307.565Z"
            fill="#FEFEFE" />
        <path
            d="M84.1702 302.778L78.0771 187.859C78.0697 187.718 77.9588 187.613 77.8183 187.613H40.0984C39.9357 187.613 39.8174 187.755 39.8396 187.904L56.2852 302.778L56.3591 303.299H56.8842L56.8102 302.778L40.3942 188.127H77.5743L83.6452 302.778L83.6748 303.299H84.1924L84.1702 302.778Z"
            fill="#FEFEFE" />
        <path
            d="M46.9829 187.613H8.92287C8.77498 187.613 8.66406 187.725 8.66406 187.866V303.299H9.17429V188.127H46.6945L36.0389 302.778L35.9871 303.299H36.5121L36.5639 302.778L47.2417 187.896C47.2565 187.74 47.1308 187.613 46.9829 187.613Z"
            fill="#FEFEFE" />
        <path
            d="M11.9101 312.411V329.355C11.9101 330.635 12.2059 331.848 12.7161 332.935C12.9528 333.427 13.4482 333.724 13.988 333.724H18.5209C19.0385 333.724 19.5118 333.427 19.741 332.965L20.865 330.695C21.3678 329.682 22.8024 329.682 23.3052 330.695L24.4292 332.965C24.6658 333.427 25.1317 333.724 25.6493 333.724H56.47C57.3204 333.724 57.9859 332.973 57.8824 332.109C57.6605 330.307 57.2317 328.484 56.4035 327.359C54.5992 324.918 50.0737 323.191 45.9919 322.081C41.0153 320.719 36.8965 317.19 34.863 312.419L11.8879 312.411H11.9101Z"
            fill="#55AE7B" />
        <path
            d="M58.1784 332.072C57.9048 329.846 57.3945 328.201 56.6477 327.188C55.117 325.111 51.5602 323.302 46.0882 321.806C41.1412 320.451 37.1629 317.012 35.1663 312.359V312.128H11.6367V329.347C11.6367 330.643 11.9177 331.886 12.4723 333.047C12.7459 333.628 13.3449 334 13.9956 334H18.5285C19.157 334 19.719 333.65 20 333.084L21.124 330.814C21.3163 330.442 21.6786 330.211 22.1001 330.211C22.5216 330.211 22.8839 330.442 23.0688 330.821L24.2002 333.084C24.4811 333.65 25.0431 334 25.6643 334H56.485C56.973 334 57.4315 333.792 57.7569 333.427C58.0822 333.055 58.2375 332.563 58.1784 332.072ZM12.1913 312.687H34.7005C36.7784 317.444 40.8676 320.957 45.9403 322.349C51.22 323.786 54.7694 325.58 56.204 327.523C56.3223 327.68 56.4332 327.858 56.5294 328.052H12.1913V312.687ZM57.3428 333.055C57.1209 333.3 56.8177 333.442 56.485 333.442H25.6643C25.2502 333.442 24.8805 333.211 24.6956 332.839L23.5642 330.568C23.2906 330.002 22.7286 329.652 22.1001 329.652C21.4715 329.652 20.9096 330.002 20.6286 330.568L19.5046 332.831C19.3197 333.211 18.9426 333.442 18.5285 333.442H13.9956C13.5593 333.442 13.1526 333.196 12.9751 332.809C12.4501 331.722 12.1913 330.553 12.1913 329.347V328.61H56.7956C57.1801 329.511 57.4537 330.695 57.6238 332.139C57.6681 332.474 57.5646 332.801 57.3428 333.055Z"
            fill="#FEFEFE" />
        <path
            d="M42.0729 320.563C40.9933 320.429 40.3648 318.59 40.6384 316.372C40.912 314.161 41.962 312.523 43.049 312.664C44.1286 312.798 44.7572 314.637 44.4836 316.856C44.3061 318.3 43.4853 320.742 42.0729 320.563ZM41.156 316.439C40.9046 318.464 41.474 319.96 42.1395 320.049C43.1599 320.168 43.8402 317.883 43.9733 316.796C44.2247 314.771 43.6554 313.275 42.9898 313.185C41.9842 313.059 41.2891 315.352 41.156 316.439Z"
            fill="#FEFEFE" />
        <path
            d="M43.5591 321.181C42.7383 321.181 42.1172 320.928 41.8732 320.421C41.4073 319.431 42.62 317.913 44.624 316.96C45.9328 316.334 48.4174 315.724 49.0237 317.019C49.6375 318.322 47.5892 319.863 46.2803 320.481C45.3043 320.942 44.343 321.173 43.5591 321.173V321.181ZM44.8458 317.429C43.0193 318.3 42.058 319.588 42.3464 320.198C42.6348 320.808 44.232 320.883 46.0585 320.019C47.0494 319.55 48.9868 318.173 48.5579 317.25C48.1216 316.319 45.7849 316.989 44.8458 317.436V317.429Z"
            fill="#FEFEFE" />
        <path
            d="M38.3238 302.778H8.47916C7.45131 302.778 6.61572 303.619 6.61572 304.654V310.796C6.61572 311.831 7.45131 312.672 8.47916 312.672H38.3238C39.3516 312.672 40.1798 311.831 40.1798 310.796V304.654C40.1798 303.619 39.3516 302.778 38.3238 302.778ZM39.6622 310.796C39.6622 311.54 39.0632 312.151 38.3238 312.151H8.47916C7.7397 312.151 7.13334 311.54 7.13334 310.796V304.654C7.13334 303.91 7.7397 303.299 8.47916 303.299H38.3238C39.0632 303.299 39.6622 303.91 39.6622 304.654V310.796Z"
            fill="#FEFEFE" />
        <path
            d="M59.687 312.411V329.355C59.687 330.635 59.9828 331.849 60.493 332.935C60.7296 333.427 61.2251 333.725 61.7649 333.725H66.2978C66.8154 333.725 67.2886 333.427 67.5179 332.965L68.6418 330.695C69.1447 329.682 70.5792 329.682 71.0821 330.695L72.206 332.965C72.4427 333.427 72.9085 333.725 73.4262 333.725H104.247C105.097 333.725 105.763 332.973 105.659 332.109C105.437 330.308 105.009 328.484 104.18 327.36C102.376 324.918 97.8505 323.191 93.7687 322.082C88.7921 320.719 84.6733 317.191 82.6398 312.419L59.6648 312.411H59.687Z"
            fill="#55AE7B" />
        <path
            d="M105.948 332.072C105.748 330.397 105.4 329.042 104.927 328.052C104.772 327.724 104.602 327.434 104.417 327.188C102.886 325.111 99.3369 323.302 93.8649 321.806C88.9105 320.451 84.9322 317.012 82.9356 312.359V312.128H59.406V329.347C59.406 330.643 59.687 331.886 60.2416 333.047C60.5152 333.628 61.1142 334 61.7723 334H66.3052C66.9263 334 67.4883 333.65 67.7693 333.084L68.9007 330.814C69.0855 330.442 69.4479 330.211 69.8694 330.211C70.2909 330.211 70.6532 330.442 70.8455 330.821L71.9694 333.084C72.2504 333.65 72.8124 334 73.441 334H104.262C104.742 334 105.208 333.792 105.526 333.427C105.852 333.055 106.007 332.563 105.948 332.072ZM59.9606 312.687H82.4772C84.5551 317.444 88.6443 320.957 93.717 322.349C98.9893 323.786 102.539 325.58 103.973 327.523C104.092 327.68 104.203 327.858 104.299 328.052H59.9606V312.687ZM105.112 333.055C104.89 333.3 104.594 333.442 104.262 333.442H73.441C73.0269 333.442 72.6497 333.211 72.4649 332.839L71.3409 330.568C71.0599 330.002 70.4979 329.652 69.8694 329.652C69.2408 329.652 68.6788 330.002 68.4052 330.568L67.2739 332.831C67.089 333.211 66.7193 333.442 66.3052 333.442H61.7723C61.3286 333.442 60.9293 333.196 60.7444 332.809C60.2268 331.722 59.9606 330.553 59.9606 329.347V328.61H104.565C104.949 329.511 105.223 330.695 105.4 332.139C105.437 332.474 105.334 332.809 105.112 333.055Z"
            fill="#FEFEFE" />
        <path
            d="M89.8644 320.325C89.82 320.325 89.7831 320.325 89.7387 320.317C88.6591 320.183 88.0305 318.345 88.3041 316.126C88.5777 313.915 89.6352 312.277 90.7148 312.419C91.7944 312.553 92.4229 314.392 92.1493 316.61C91.8831 318.739 90.8922 320.325 89.8644 320.325ZM90.5965 312.932C89.9383 312.932 89.0658 314.228 88.8218 316.193C88.5703 318.218 89.1397 319.714 89.8052 319.804C90.4634 319.886 91.3951 318.575 91.6391 316.55C91.7722 315.456 91.6391 312.94 90.5891 312.94L90.5965 312.932Z"
            fill="#FEFEFE" />
        <path
            d="M89.5391 320.168C88.9327 318.873 90.9737 317.332 92.2825 316.707C92.3318 316.707 92.3318 316.707 92.2825 316.707C93.6061 316.074 96.0759 315.478 96.6823 316.766C97.296 318.069 95.2477 319.61 93.9389 320.228C92.6374 320.846 90.1455 321.464 89.5391 320.161V320.168ZM92.5117 317.183C91.5282 317.652 89.5835 319.029 90.0124 319.952C90.4486 320.883 92.741 320.235 93.7244 319.774C94.7153 319.305 96.6527 317.928 96.2238 317.005C95.7875 316.074 93.4508 316.744 92.5117 317.191V317.183Z"
            fill="#FEFEFE" />
        <path
            d="M86.093 302.778H56.2484C55.2205 302.778 54.3923 303.619 54.3923 304.654V310.796C54.3923 311.831 55.2205 312.672 56.2484 312.672H86.093C87.1208 312.672 87.9564 311.831 87.9564 310.796V304.654C87.9564 303.619 87.1208 302.778 86.093 302.778ZM87.4388 310.796C87.4388 311.54 86.8325 312.151 86.093 312.151H56.2484C55.5089 312.151 54.91 311.54 54.91 310.796V304.654C54.91 303.91 55.5089 303.299 56.2484 303.299H86.093C86.8325 303.299 87.4388 303.91 87.4388 304.654V310.796Z"
            fill="#FEFEFE" />
        <path
            d="M76.2729 168.094C76.2729 168.355 76.2581 168.608 76.2507 168.861C76.2285 169.628 76.2063 170.387 76.1841 171.124C76.1693 171.444 76.1619 171.764 76.1471 172.077C76.1176 173.037 76.088 173.968 76.051 174.868C76.051 174.988 76.0436 175.107 76.0362 175.218C76.0288 175.226 76.0362 175.226 76.0362 175.226C75.9993 176.231 75.9623 177.199 75.9253 178.114C75.9179 178.367 75.9105 178.606 75.8957 178.844C75.8735 179.506 75.844 180.146 75.8144 180.757C75.807 181.01 75.7996 181.263 75.7848 181.501C75.6665 184.226 75.563 186.348 75.4964 187.606C75.489 187.799 75.4816 187.971 75.4742 188.119C75.4668 188.216 75.4594 188.313 75.4594 188.395C75.4521 188.492 75.4447 188.581 75.4447 188.655C75.4373 188.819 75.4299 188.909 75.4299 188.909H74.7644L50.1625 189.191L47.1159 189.229H46.5909L40.5643 189.303H40.0393L9.17421 189.653H8.66398H8.58264C8.58264 189.653 7.69529 182.759 6.91146 173.164C6.78575 171.556 6.65265 169.873 6.53434 168.139C5.47691 153.071 4.98886 133.79 8.06502 123.093C8.06502 123.093 8.06748 123.088 8.07241 123.078C8.52349 121.514 9.0559 120.13 9.66965 118.976C15.1269 108.68 27.254 103.893 39.6622 103.879H39.8544C39.9062 103.879 39.9506 103.879 40.0023 103.886C40.0615 103.879 40.128 103.886 40.1872 103.886C40.2907 104.325 40.5421 104.75 40.9562 105.174C42.3316 106.573 45.0898 107.541 47.3452 107.541C47.8924 107.541 48.41 107.482 48.8684 107.363C49.8223 107.109 50.4065 106.618 50.6136 105.896L50.7319 105.137C50.791 105.152 50.8576 105.166 50.9168 105.181C50.9611 105.189 51.0055 105.204 51.0499 105.211C51.109 105.226 51.1756 105.241 51.2347 105.256C53.5714 105.829 55.8416 106.573 58.0008 107.489C58.0821 107.519 58.1561 107.549 58.2374 107.593C58.3188 107.623 58.4001 107.653 58.474 107.69C65.9426 110.951 71.9766 116.259 74.5573 123.383C74.8383 124.15 75.0823 125.147 75.2968 126.331C75.5112 127.544 75.6961 128.951 75.844 130.522C75.9697 131.773 76.0732 133.128 76.1619 134.564C76.1693 134.617 76.1693 134.669 76.1693 134.728C76.1767 134.758 76.1767 134.788 76.1767 134.825C76.1841 134.877 76.1841 134.929 76.1915 134.989V135.085C76.1989 135.138 76.1989 135.19 76.1989 135.242C76.3912 138.584 76.4947 142.344 76.5317 146.282C76.6056 153.443 76.4725 161.186 76.2729 168.079V168.094Z"
            fill="#55AE7B" />
        <path
            d="M110.65 142.485V150.548C110.584 150.726 110.502 150.875 110.391 151.009V161.833C110.48 161.811 110.569 161.781 110.65 161.751V181.018C110.65 185.238 107.249 188.663 103.056 188.663H57.1577C56.1669 188.663 55.2277 188.477 54.3626 188.127C54.0002 187.985 53.6601 187.814 53.3273 187.613C51.9445 186.802 50.8427 185.566 50.1994 184.077C49.7927 183.139 49.5635 182.104 49.5635 181.018V142.485C49.5635 138.264 52.965 134.84 57.1577 134.84H103.056C107.249 134.84 110.65 138.264 110.65 142.485Z"
            fill="#FEFEFE" />
        <path
            d="M103.056 134.579H57.1578C52.8245 134.579 49.3047 138.13 49.3047 142.485V181.017C49.3047 182.097 49.5191 183.124 49.911 184.062C50.5174 185.521 51.5379 186.75 52.8319 187.613C53.1203 187.807 53.4161 187.978 53.7267 188.127C54.7619 188.641 55.9303 188.923 57.1578 188.923H103.056C107.389 188.923 110.909 185.38 110.909 181.017V161.662C110.82 161.692 110.739 161.722 110.65 161.751C110.569 161.781 110.48 161.811 110.392 161.833V181.017C110.392 185.09 107.101 188.402 103.056 188.402H57.1578C56.4701 188.402 55.8045 188.306 55.176 188.127C54.7175 188 54.2739 187.829 53.8598 187.613C52.3808 186.861 51.1829 185.611 50.4878 184.092C50.0589 183.154 49.8223 182.119 49.8223 181.017V142.485C49.8223 138.413 53.1129 135.1 57.1578 135.1H103.056C107.101 135.1 110.392 138.413 110.392 142.485V151.009C110.502 150.875 110.584 150.726 110.65 150.547C110.65 150.525 110.672 150.495 110.68 150.466C110.695 150.436 110.702 150.399 110.702 150.361L110.746 147.384C110.798 147.399 110.85 147.421 110.909 147.443V142.485C110.909 138.13 107.389 134.579 103.056 134.579Z"
            fill="#FEFEFE" />
        <path
            d="M86.4775 134.84V145.508C86.4775 145.947 86.1225 146.297 85.6936 146.297H74.5204C74.0841 146.297 73.7366 145.939 73.7366 145.508V134.84H86.4775Z"
            fill="#55AE7B" />
        <path
            d="M95.6245 104.735H62.2675C59.907 104.735 57.9934 106.661 57.9934 109.037V130.701C57.9934 133.077 59.907 135.004 62.2675 135.004H95.6245C97.9851 135.004 99.8986 133.077 99.8986 130.701V109.037C99.8986 106.661 97.9851 104.735 95.6245 104.735Z"
            fill="#FEFEFE" />
        <path
            d="M95.6244 135.264H62.2599C59.7606 135.264 57.7271 133.217 57.7271 130.701V109.03C57.7271 106.514 59.7606 104.467 62.2599 104.467H95.6244C98.1238 104.467 100.157 106.514 100.157 109.03V130.701C100.157 133.217 98.1238 135.264 95.6244 135.264ZM62.2673 104.995C60.0564 104.995 58.2521 106.804 58.2521 109.037V130.708C58.2521 132.934 60.049 134.75 62.2673 134.75H95.6318C97.8428 134.75 99.6471 132.941 99.6471 130.708V109.037C99.6471 106.812 97.8502 104.995 95.6318 104.995H62.2673Z"
            fill="#FEFEFE" />
        <path
            d="M77.3893 126.346H63.8794C63.5813 126.346 63.3396 126.589 63.3396 126.889V129.993C63.3396 130.294 63.5813 130.537 63.8794 130.537H77.3893C77.6875 130.537 77.9291 130.294 77.9291 129.993V126.889C77.9291 126.589 77.6875 126.346 77.3893 126.346Z"
            fill="#55AE7B" />
        <path
            d="M82.5282 104.735V110.735C82.5282 110.98 82.3286 111.181 82.0846 111.181H75.7991C75.5551 111.181 75.3555 110.98 75.3555 110.735V104.735H82.5208H82.5282Z"
            fill="#55AE7B" />
        <path
            d="M69.6325 182.104C67.2145 182.104 64.4933 181.888 61.602 181.345C61.4245 181.315 61.2988 181.159 61.2988 180.98V170.521C61.2988 170.424 61.3358 170.327 61.4097 170.253C62.2897 169.389 70.054 161.789 72.3907 161.781C73.0341 161.781 73.352 162.116 73.5073 162.399C74.2024 163.679 72.9379 166.516 71.6365 168.556C71.5034 168.764 71.5034 168.846 71.5034 168.846C71.8066 169.062 73.9954 168.585 75.4447 168.265C78.7131 167.558 82.0925 166.821 82.6101 168.503C83.0685 170.015 80.192 170.908 78.6466 171.325C80.7392 171.377 82.8985 171.585 83.4309 172.211C84.5179 173.484 81.4417 174.615 79.8001 174.995C81.4121 175.263 81.7153 175.62 81.8484 175.769C82.965 177.064 80.2956 178.181 78.543 178.546C79.2233 178.747 79.4896 178.963 79.6374 179.134C81.3086 181.077 73.1376 182.104 69.6178 182.104H69.6325ZM62.0457 180.668C71.533 182.38 78.4691 180.437 79.0607 179.573C78.8758 179.417 78.2251 179.074 75.9254 178.866C75.7331 178.851 75.5852 178.68 75.5926 178.486C75.5926 178.293 75.7479 178.129 75.9475 178.122C79.6153 177.943 81.7079 176.707 81.316 176.26C81.0424 175.948 79.6005 175.568 76.3542 175.442C76.1546 175.442 75.9993 175.27 75.9993 175.069C75.9993 174.868 76.1546 174.705 76.3542 174.697C80.5026 174.563 83.1869 173.045 82.8985 172.702C82.4104 172.136 78.4173 171.965 74.8383 172.121C74.6165 172.129 74.476 171.98 74.4538 171.786C74.4316 171.593 74.5721 171.414 74.7718 171.384C76.1694 171.176 82.3143 169.97 81.9298 168.727C81.6192 167.692 78.0106 168.474 75.6296 168.995C72.8418 169.598 71.3629 169.888 70.9118 169.233C70.7196 168.95 70.7639 168.593 71.0375 168.154C72.7087 165.526 73.2337 163.411 72.8788 162.756C72.8196 162.652 72.7161 162.526 72.4055 162.526C70.8822 162.526 65.425 167.357 62.0531 170.67V180.66L62.0457 180.668Z"
            fill="#121418" />
        <path
            d="M116.086 151.493C115.22 148.329 112.078 147.026 110.909 146.647C110.806 146.617 110.717 146.587 110.65 146.572C110.554 146.542 110.488 146.527 110.473 146.52C110.443 146.513 110.414 146.513 110.392 146.513C110.303 146.513 110.222 146.535 110.155 146.587C110.066 146.661 110.015 146.766 110.015 146.877L109.963 150.287C109.497 151.508 106.643 151.195 104.121 150.912C101.311 150.6 98.6638 150.309 98.2423 151.895C97.8874 153.242 100.668 153.801 102.095 154.046C100.379 154.277 98.6343 154.642 98.1536 155.237C97.1775 156.429 99.4772 157.307 101.03 157.575C99.6399 157.962 99.3515 158.312 99.2332 158.461C98.2497 159.659 100.187 160.59 101.829 160.828C101.141 161.111 100.956 161.349 100.867 161.453C99.8322 162.726 102.561 163.545 104.824 163.545C106.325 163.545 108.203 163.292 110.392 162.615C110.48 162.592 110.562 162.563 110.65 162.533C110.732 162.511 110.821 162.481 110.909 162.451C111.464 162.265 112.041 162.049 112.64 161.811C115.775 160.538 116.699 153.756 116.086 151.493ZM112.366 161.118C111.863 161.319 111.383 161.506 110.909 161.662C110.821 161.692 110.739 161.721 110.65 161.751C110.569 161.781 110.48 161.811 110.392 161.833C104.55 163.702 101.259 162.391 101.437 161.922C101.57 161.766 102.102 161.357 104.276 160.932C104.469 160.895 104.594 160.716 104.572 160.523C104.55 160.329 104.395 160.195 104.21 160.195H104.188C101.215 160.322 99.3811 159.444 99.8026 158.93C99.9357 158.774 100.631 158.223 104.195 157.724C104.387 157.702 104.528 157.523 104.513 157.322C104.491 157.121 104.328 156.972 104.121 156.987C100.72 157.203 98.3976 156.101 98.723 155.706C99.248 155.066 103.167 154.59 105.785 154.463C105.977 154.456 106.132 154.292 106.132 154.098C106.14 153.897 105.984 153.734 105.792 153.719C104.461 153.637 98.7156 153.019 98.9596 152.081C99.211 151.113 101.777 151.404 104.04 151.649C106.68 151.947 109.408 152.252 110.392 151.009C110.503 150.875 110.584 150.726 110.65 150.547C110.65 150.525 110.673 150.495 110.68 150.466C110.695 150.436 110.702 150.399 110.702 150.361L110.747 147.384C110.798 147.398 110.85 147.421 110.909 147.443C112.092 147.867 114.666 149.081 115.368 151.686C115.93 153.756 114.999 160.047 112.366 161.118Z"
            fill="#121418" />
        <path
            d="M58.9031 183.995C46.1104 183.995 15.1714 182.663 4.22736 170.312C-7.59662 156.965 8.99687 121.529 10.3279 118.752L32.0385 120.643C30.7074 123.956 21.479 147.495 25.9083 154.195C31.2251 162.25 60.7517 164.424 64.0941 164.647L63.8353 183.921C63.1993 183.943 61.432 183.995 58.9031 183.995Z"
            fill="#55AE7B" />
        <path
            d="M49.7413 163.009C37.7398 160.888 27.9494 157.262 25.9159 154.195C21.2573 147.145 31.7428 121.395 32.1939 120.308C32.2456 120.174 32.4009 120.115 32.534 120.167C32.6671 120.219 32.7263 120.375 32.6745 120.509C32.5636 120.777 21.8488 147.093 26.3521 153.912C28.3117 156.875 37.9617 160.411 49.83 162.503C49.9705 162.525 50.0666 162.659 50.037 162.801C50.0149 162.935 49.8818 163.039 49.7413 163.009Z"
            fill="#FEFEFE" />
        <path
            d="M52.7283 183.608C52.5878 183.578 52.4917 183.444 52.5212 183.303L55.871 165.086C55.9006 164.945 56.0263 164.856 56.1742 164.878C56.3147 164.908 56.4108 165.042 56.3812 165.183L53.0315 183.4C53.0093 183.541 52.8762 183.638 52.7283 183.608Z"
            fill="#FEFEFE" />
        <path
            d="M58.903 180.883C57.8603 180.883 57.0173 180.027 57.0173 178.985C57.0173 177.943 57.8677 177.079 58.903 177.079C59.9382 177.079 60.796 177.935 60.796 178.985C60.796 180.035 59.9456 180.883 58.903 180.883ZM58.903 177.593C58.1487 177.593 57.5276 178.218 57.5276 178.978C57.5276 179.737 58.1413 180.362 58.903 180.362C59.6646 180.362 60.2784 179.744 60.2784 178.978C60.2784 178.211 59.6572 177.593 58.903 177.593Z"
            fill="#FEFEFE" />
        <path
            d="M52.0557 99.5682C52.0557 99.5682 52.0113 99.5161 51.9817 99.4938C51.9596 99.4863 51.93 99.4714 51.9078 99.4714C51.9004 99.464 51.893 99.464 51.8856 99.464C51.8486 99.4565 48.3066 98.8759 46.1252 96.3969C46.0587 96.3224 45.9625 96.2927 45.8664 96.315C45.7703 96.3448 45.6963 96.4192 45.6815 96.516C45.6667 96.5607 44.8459 101.124 50.9909 103.521C51.0426 103.544 51.0944 103.558 51.1461 103.581C51.1535 103.581 51.1609 103.581 51.1683 103.588C51.2127 103.603 51.2645 103.588 51.3088 103.581C51.3976 103.558 51.4789 103.484 51.4937 103.38L52.0557 100.052L52.0853 99.866L52.1 99.7618V99.7171C52.1 99.665 52.0853 99.6129 52.0557 99.5682ZM46.14 97.1711C48.0996 99.0918 50.7173 99.7618 51.5455 99.933L51.0352 102.978C46.628 101.206 46.14 98.3622 46.14 97.1711Z"
            fill="#FEFEFE" />
        <path
            d="M56.9732 93.7243C56.4925 93.6052 56.0193 93.4414 55.5682 93.2256C55.4425 93.166 55.3833 93.0097 55.4425 92.8757C55.5017 92.7417 55.6569 92.6896 55.79 92.7491C56.2115 92.9501 56.6478 93.1065 57.0915 93.2107C57.7792 93.3819 57.8605 93.0767 57.6239 92.4365L57.5869 92.3397C57.1063 91.0295 57.1876 89.4959 57.8014 88.2453C57.8605 88.1187 58.0232 88.0666 58.1489 88.1261C58.2746 88.1931 58.3264 88.3495 58.2672 88.476C57.7126 89.6001 57.6387 90.9773 58.0676 92.161L58.1046 92.2503C58.5556 93.4489 57.9123 93.9477 56.9658 93.7094L56.9732 93.7243Z"
            fill="#FEFEFE" />
        <path
            d="M61.4838 90.7094C61.1955 90.9401 60.7592 90.8955 60.5299 90.5977C60.2933 90.2999 60.3451 89.8682 60.6409 89.6374C60.9366 89.3992 61.3655 89.4438 61.6022 89.7416C61.8388 90.0394 61.787 90.4712 61.4912 90.7094H61.4838Z"
            fill="#FEFEFE" />
        <path
            d="M62.6301 89.5035C62.0459 88.5953 60.8406 88.3273 59.9385 88.9154C59.8202 88.9898 59.6575 88.9601 59.5835 88.841C59.5096 88.7218 59.5392 88.5581 59.6575 88.4836C60.7962 87.7392 62.3269 88.0742 63.059 89.2281C63.1329 89.3472 63.1034 89.511 62.985 89.5854C62.8667 89.6673 62.704 89.6301 62.6301 89.511V89.5035Z"
            fill="#FEFEFE" />
        <path
            d="M54.7546 88.6176C54.4662 88.8484 54.0373 88.8037 53.8007 88.5059C53.5641 88.2081 53.6158 87.7764 53.9116 87.5456C54.2074 87.3074 54.6363 87.352 54.8729 87.6498C55.1095 87.9476 55.0578 88.3794 54.762 88.6176H54.7546Z"
            fill="#FEFEFE" />
        <path
            d="M55.9011 87.4189C55.3169 86.5107 54.1116 86.2501 53.2095 86.8308C53.0911 86.9053 52.9285 86.8755 52.8545 86.7564C52.7806 86.6373 52.8102 86.4735 52.9285 86.399C54.0672 85.662 55.5979 85.9896 56.33 87.1435C56.4039 87.2626 56.3744 87.4264 56.256 87.5008C56.1377 87.5827 55.975 87.5455 55.9011 87.4264V87.4189Z"
            fill="#FEFEFE" />
        <path
            d="M54.0227 95.7493C53.971 95.6153 54.0449 95.4664 54.178 95.4143C54.3111 95.3622 54.459 95.4366 54.5108 95.5706C54.533 95.6302 55.0654 97.0074 56.7661 96.4193C56.8992 96.3746 57.0471 96.4491 57.0915 96.5831C57.1359 96.7171 57.0619 96.866 56.9288 96.9106C55.4869 97.4094 54.3777 96.7394 54.0227 95.7493Z"
            fill="#FEFEFE" />
        <path
            d="M285.466 171.198C285.466 174.608 283.595 177.37 281.281 177.37C278.966 177.37 277.095 174.6 277.095 171.198C277.095 167.796 278.974 165.027 281.281 165.027C283.588 165.027 285.466 167.789 285.466 171.198Z"
            fill="#55AE7B" />
        <path
            d="M93.5987 29.4494C89.7387 29.4494 86.6182 32.5984 86.6182 36.4844C86.6182 39.544 90.944 46.1472 92.7853 48.8272C93.1772 49.4079 94.0202 49.4079 94.4121 48.8272C96.2533 46.1547 100.579 39.5515 100.579 36.4844C100.579 32.5984 97.4587 29.4494 93.5987 29.4494ZM93.5987 39.3579C91.8905 39.3579 90.5003 37.9584 90.5003 36.2313C90.5003 34.5042 91.8905 33.1046 93.5987 33.1046C95.3068 33.1046 96.7118 34.5042 96.7118 36.2313C96.7118 37.9584 95.3142 39.3579 93.5987 39.3579Z"
            fill="#55AE7B" />
        <path
            d="M75.1047 58.9813V27.5361C75.1047 25.5857 76.6798 24 78.6172 24H108.173C110.111 24 111.686 25.5857 111.686 27.5361V52.8471C111.686 54.7975 110.111 56.3832 108.173 56.3832H81.9669L76.3248 59.6885C75.785 60.0086 75.1047 59.614 75.1047 58.9813ZM78.6172 24.5211C76.9682 24.5211 75.6224 25.876 75.6224 27.5361V58.9813C75.6224 59.2046 75.8664 59.3535 76.066 59.2344L81.7673 55.8918C81.8042 55.8695 81.8486 55.8546 81.9004 55.8546H108.181C109.83 55.8546 111.176 54.4997 111.176 52.8396V27.5361C111.176 25.876 109.83 24.5211 108.181 24.5211H78.6246H78.6172Z"
            fill="#FEFEFE" />
        <path
            d="M217.111 309.575L198.624 319.439C194.749 321.002 192.206 324.784 192.206 328.983V330.122H217.007L228.587 323.742L235.812 330.122H246.186L241.239 309.575H217.111Z"
            fill="#55AE7B" />
        <path
            d="M201.464 311.22C200.155 308.25 200.192 305.443 201.545 304.84C202.898 304.237 204.983 306.091 206.292 309.069C209.391 316.104 204.547 318.233 201.464 311.22ZM201.759 305.317C200.82 305.734 200.672 308.123 201.944 311.012C202.617 312.538 204.599 315.597 206.004 314.965C207.409 314.339 206.507 310.826 205.826 309.277C205.065 307.543 203.083 304.729 201.759 305.317Z"
            fill="#FEFEFE" />
        <path
            d="M200.303 315.077C199.119 314.191 197.271 312.181 198.136 311.012C198.787 310.133 200.761 310.543 202.624 311.942C207.017 315.24 204.769 318.434 200.303 315.077ZM198.55 311.317C197.929 312.151 199.718 313.982 200.606 314.652C202.321 315.94 203.963 316.23 204.37 315.687C204.769 315.144 204.029 313.64 202.314 312.352C201.36 311.637 199.127 310.528 198.55 311.317Z"
            fill="#FEFEFE" />
        <path d="M135.678 108.965L119.225 117.993L119.579 118.646L136.032 109.619L135.678 108.965Z"
            fill="#FEFEFE" />
        <path
            d="M130.113 109.09C129.056 109.09 128.198 108.226 128.198 107.161C128.198 106.097 129.056 105.233 130.113 105.233C131.17 105.233 132.028 106.097 132.028 107.161C132.028 108.226 131.17 109.09 130.113 109.09ZM130.113 105.985C129.462 105.985 128.937 106.514 128.937 107.169C128.937 107.824 129.462 108.353 130.113 108.353C130.764 108.353 131.289 107.824 131.289 107.169C131.289 106.514 130.764 105.985 130.113 105.985Z"
            fill="#FEFEFE" />
        <path
            d="M12.2728 216.289C12.0732 216.289 11.9105 216.133 11.9031 215.932C11.9031 215.723 12.0584 215.552 12.258 215.545C16.3694 215.411 19.4973 213.974 21.5456 211.279C26.3743 204.929 23.7862 193.584 23.764 193.464C23.7197 193.263 23.838 193.062 24.0376 193.018C24.2447 192.973 24.4369 193.092 24.4813 193.293C24.5922 193.77 27.1729 205.1 22.1372 211.726C19.941 214.607 16.6282 216.14 12.2876 216.282C12.2876 216.282 12.2802 216.282 12.2728 216.282V216.289Z"
            fill="#FEFEFE" />
        <path d="M242.289 290.755H213.502V291.5H242.289V290.755Z" fill="#FEFEFE" />
        <path d="M242.296 291.492H213.509V290.748H242.289L242.296 291.492Z" fill="#FEFEFE" />
        <path d="M193.13 290.755H163.419V291.5H193.13V290.755Z" fill="#FEFEFE" />
        <path d="M83.52 295.043H55.4871V295.788H83.52V295.043Z" fill="#FEFEFE" />
        <path d="M36.9854 295.043H8.91553V295.788H36.9854V295.043Z" fill="#FEFEFE" />
        <path
            d="M34.0351 172.814C33.0812 168.622 28.5557 166.501 25.9454 165.607C22.2777 164.349 18.2329 163.754 14.9349 161.55C9.89914 158.193 7.65118 151.106 9.83259 145.433C12.1989 139.269 18.7653 135.339 19.8227 129.041C20.3847 125.691 19.2237 122.266 18.2033 119.236L18.9058 118.998C19.9558 122.11 21.1463 125.631 20.5548 129.16C19.4604 135.703 12.8274 139.701 10.5277 145.701C8.47198 151.069 10.5868 157.754 15.349 160.932C18.5212 163.047 22.5291 163.65 26.1894 164.9C28.9476 165.846 33.7245 168.101 34.7598 172.65L34.0425 172.814H34.0351Z"
            fill="#FEFEFE" />
        <path
            d="M161.363 51.3805C161.2 51.3805 161.082 51.2316 161.111 51.0753C161.792 47.4796 159.44 44.0031 155.868 43.3182C152.312 42.6408 148.844 44.9709 148.163 48.6037C148.134 48.7452 148.008 48.842 147.86 48.8122C147.72 48.7824 147.631 48.6484 147.653 48.507C148.385 44.621 152.105 42.0676 155.965 42.812C159.817 43.549 162.354 47.301 161.621 51.1795C161.599 51.3061 161.488 51.388 161.37 51.388L161.363 51.3805Z"
            fill="#FEFEFE" />
        <path
            d="M136.347 193.39C134.291 190.018 135.334 185.618 138.684 183.541C142.018 181.472 146.396 182.514 148.459 185.894C148.533 186.013 148.496 186.177 148.378 186.251C148.252 186.325 148.097 186.288 148.023 186.162C146.115 183.042 142.063 182.06 138.957 183.98C135.851 185.901 134.883 189.981 136.79 193.107C136.864 193.226 136.827 193.39 136.709 193.465C136.583 193.539 136.428 193.502 136.354 193.375L136.347 193.39Z"
            fill="#FEFEFE" />
        <path
            d="M12.9755 88.6548C10.9198 85.2824 11.9624 80.8828 15.3122 78.8058C18.6619 76.7363 23.0321 77.7859 25.0878 81.1582C25.1618 81.2774 25.1248 81.4411 25.0065 81.5156C24.8808 81.59 24.7255 81.5528 24.6516 81.4262C22.7437 78.307 18.6915 77.3244 15.5858 79.245C12.48 81.1657 11.5113 85.2452 13.4191 88.3719C13.4931 88.491 13.4561 88.6548 13.3378 88.7292C13.2121 88.8036 13.0568 88.7664 12.9829 88.6399L12.9755 88.6548Z"
            fill="#FEFEFE" />
        <path d="M226.354 325.402L225.001 326.146H212.829V325.402H226.354Z" fill="#FEFEFE" />
        <path
            d="M241.535 309.195H217.022L198.499 319.089C194.454 320.712 191.844 324.598 191.844 328.983V330.494H217.103L225.001 326.146L225.304 325.982L226.354 325.402L228.543 324.196L229.911 325.402L230.754 326.146L235.679 330.494H246.66L241.535 309.195ZM216.911 329.749H192.583V328.983C192.583 328 192.723 327.047 192.99 326.146H223.448L216.911 329.749ZM228.639 323.288L224.801 325.402H193.241C194.202 322.886 196.177 320.823 198.809 319.766L217.207 309.94H240.951L244.671 325.402H231.035L228.639 323.288ZM231.878 326.146H244.855L245.721 329.749H235.952L231.878 326.146Z"
            fill="#FEFEFE" />
        <path
            d="M72.9381 74.9272C71.9103 71.339 65.9207 68.6963 59.8201 67.6019C58.6961 67.4009 57.5648 67.252 56.463 67.1553C52.7804 66.8426 50.1849 67.5424 48.7356 69.2323C47.4637 70.7211 47.4489 72.5227 47.5303 73.3639C47.0792 73.215 46.6503 73.1033 46.2436 73.0289C44.676 72.746 43.4115 73.0363 42.4724 73.9148C39.2187 76.9447 40.9121 86.0566 41.7033 89.5257L41.8734 90.2478L42.0361 90.9699L39.7068 102.874C39.6107 103.209 39.5959 103.551 39.6624 103.893H39.8547C39.9064 103.893 39.9508 103.893 40.0026 103.901C40.0617 103.893 40.1283 103.901 40.1874 103.901C40.1209 103.603 40.1283 103.298 40.2096 102.993L42.5241 91.1263L42.8051 91.0295L43.0122 90.9699H43.0196L46.5838 89.8012C46.6429 89.7788 46.6947 89.7565 46.7538 89.7416C46.7908 89.7193 46.8352 89.7118 46.8722 89.6969C46.9091 89.682 46.9831 89.6448 47.0718 89.6076C48.5138 88.9674 48.8909 88.8259 49.4159 88.4909C49.4159 88.4909 49.6525 88.3346 49.9039 88.1485C50.9466 87.3668 51.6565 86.4214 52.0188 85.3196C52.9136 82.6322 51.5086 79.7735 50.7617 78.5452C52.9209 79.1035 54.9249 79.3269 56.7514 79.3269C58.7923 79.3269 60.6113 79.044 62.1716 78.642C64.109 81.5676 64.6784 86.3395 61.8314 94.9378C60.7444 98.2059 58.3116 99.9553 55.058 99.9553C54.1041 99.9553 53.0688 99.8064 51.9818 99.4938C52.0114 99.5161 52.0336 99.5384 52.0558 99.5682C52.0854 99.6129 52.1001 99.665 52.1001 99.7171V99.7618L52.0854 99.866L52.0558 100.052C53.128 100.342 54.1485 100.484 55.095 100.484C58.563 100.484 61.1585 98.6004 62.3195 95.1016C64.1829 89.4736 64.5822 85.4238 64.1016 82.4461C67.0816 82.1036 69.1521 81.1805 69.8694 80.8232C70.0395 80.7339 70.1356 80.6818 70.143 80.6818L70.1726 80.6594C70.2243 80.6222 70.2761 80.5775 70.3131 80.5403C72.598 78.7015 73.4779 76.8107 72.9381 74.9272ZM42.4946 90.4339L42.2505 89.3992H42.2431C42.1692 89.0865 42.0879 88.7366 42.0139 88.342C41.2153 84.4486 40.1061 76.8553 42.8347 74.3093C43.6407 73.5723 44.7425 73.3267 46.1475 73.5798C46.6503 73.6691 47.1901 73.8106 47.7743 74.0339L48.2402 74.22L48.1292 73.7212C48.1292 73.7212 47.6412 71.339 49.1423 69.597C50.4733 68.0486 52.9209 67.4084 56.4186 67.7061C57.4982 67.7955 58.6 67.9444 59.6944 68.1454C65.6914 69.2174 71.4814 71.8155 72.4205 75.0836C72.8864 76.6841 72.1173 78.3293 70.1356 79.9894C70.0468 80.0639 69.9581 80.1383 69.862 80.2128C69.8398 80.2202 69.7806 80.2574 69.6993 80.2946C69.1003 80.6073 67.0372 81.5751 63.9981 81.9026C63.7245 80.5626 63.2586 79.446 62.667 78.508C62.5635 78.3442 62.4526 78.1804 62.3417 78.0315C62.179 78.0837 62.0089 78.1283 61.8388 78.1655C60.3673 78.5303 58.6739 78.7834 56.7809 78.7834C54.8879 78.7834 52.603 78.508 50.2145 77.8231L49.4381 77.5998L49.9113 78.2549C49.9113 78.2549 52.5586 81.9399 51.4938 85.1484C51.1906 86.0641 50.6138 86.8755 49.7782 87.5455C49.6303 87.6572 49.4825 87.7688 49.3272 87.8731C48.7134 88.2974 47.9961 88.6622 47.1605 88.9748C46.9831 89.0418 46.7612 89.1535 46.569 89.213L43.4706 90.2329L43.1823 90.3297L42.9013 90.419L42.5315 90.5605"
            fill="#FEFEFE" />
        <path
            d="M51.9227 99.6725L51.8414 99.6501L51.7748 99.7097L51.1759 103.551V103.588L50.9171 105.196L50.7914 105.963C50.5621 106.752 49.9336 107.288 48.9131 107.556C48.4547 107.675 47.9222 107.742 47.3455 107.742C44.9422 107.742 42.1988 106.722 40.8234 105.323C40.3871 104.869 40.1209 104.422 40.01 103.938C40.01 103.923 40.0026 103.916 40.0026 103.901C39.9509 103.893 39.9065 103.893 39.8547 103.893C39.9435 104.422 40.2393 104.928 40.7199 105.42C42.0953 106.827 44.9644 107.884 47.3824 107.884C47.9592 107.884 48.4916 107.824 48.9501 107.705C50.0149 107.422 50.7026 106.834 50.9318 105.978L51.0502 105.226L51.309 103.581L51.9079 99.8214L52.0854 99.866L52.1002 99.7618V99.7171C52.041 99.7097 51.9819 99.6874 51.9227 99.6725Z"
            fill="#FEFEFE" />
        <path
            d="M52.0555 99.5682C52.0555 99.5682 52.0111 99.5161 51.9815 99.4938C51.9593 99.4863 51.9298 99.4714 51.9076 99.4714C51.8854 99.464 51.8632 99.464 51.841 99.464C51.7893 99.464 51.7449 99.4789 51.7005 99.5012C51.6414 99.5384 51.597 99.6054 51.5896 99.6799L50.9906 103.521L50.7318 105.152L50.6135 105.911C50.4065 106.633 49.8223 107.124 48.8684 107.377C48.4099 107.497 47.8923 107.556 47.3451 107.556C45.0897 107.556 42.3316 106.588 40.9562 105.189C40.5421 104.764 40.2907 104.34 40.1871 103.901C40.128 103.901 40.0614 103.893 40.0023 103.901C39.9505 103.893 39.9061 103.893 39.8544 103.893H39.6621C39.7582 104.467 40.0688 105.025 40.5864 105.554C42.058 107.05 44.9936 108.07 47.3821 108.07C47.9589 108.07 48.5061 108.01 48.9941 107.884C50.1329 107.586 50.8649 106.946 51.1163 106.037V106.008L51.2347 105.278L52.0555 100.052L52.085 99.866L52.0998 99.7618V99.7171C52.0998 99.665 52.085 99.6129 52.0555 99.5682Z"
            fill="#FEFEFE" />
    </g>
    <defs>
        <clipPath id="clip0_1343_20280">
            <rect fill="white" height="358" width="358" />
        </clipPath>
    </defs>
</svg>
