<svg fill="none" height="307" viewBox="0 0 335 307" width="335" xmlns="http://www.w3.org/2000/svg">
    <path
        d="M335 167.981C335.044 196.682 327.66 224.906 313.567 249.909C313.533 249.969 313.493 250.036 313.46 250.096C313.427 250.156 313.393 250.216 313.353 250.277C312.509 251.769 311.642 253.248 310.753 254.713C310.72 254.773 310.679 254.827 310.646 254.887V254.894C310.606 254.954 310.566 255.014 310.532 255.075C304.72 264.568 297.981 273.461 290.412 281.622C287.819 284.405 285.142 287.101 282.379 289.71C281.997 290.071 281.608 290.433 281.22 290.787C281.166 290.841 281.113 290.887 281.059 290.934C281.005 290.981 280.952 291.034 280.898 291.081C279.578 292.292 278.245 293.481 276.885 294.654C276.83 294.707 276.772 294.756 276.711 294.801C276.66 294.853 276.604 294.9 276.543 294.941C266.131 292.961 255.829 290.999 245.636 289.054C222.494 294.112 199.969 299.029 178.274 303.772L178.241 303.779L178.208 303.772C155.287 298.634 133.308 293.71 112.454 289.033C94.565 291.963 77.507 294.76 61.393 297.409C61.346 297.369 61.293 297.329 61.246 297.289C61.199 297.249 61.146 297.209 61.099 297.169C59.6783 295.998 58.2783 294.805 56.899 293.59C56.8511 293.554 56.8063 293.514 56.765 293.47C56.718 293.437 56.678 293.396 56.631 293.356C53.9843 291.023 51.4117 288.605 48.913 286.104C47.9263 285.119 46.9553 284.121 46 283.112V283.105C43.7887 280.784 41.649 278.402 39.581 275.96C39.554 275.927 39.527 275.9 39.501 275.866C39.475 275.832 39.447 275.806 39.421 275.772C38.2017 274.327 37.0067 272.86 35.836 271.372C35.787 271.31 35.738 271.247 35.689 271.185C12.5186 241.78 -0.0555857 205.418 4.00541e-07 167.981C4.00541e-07 75.609 74.993 0.726013 167.5 0.726013C260.007 0.726013 335 75.609 335 167.981Z"
        fill="white" fill-opacity="0.5" />
    <path d="M128.058 54.264H95.715V156.766H128.058V54.264Z" fill="#F5F5F5" />
    <path d="M128.058 54.264H111.887V156.484H128.058V54.264Z" fill="#ECECEC" />
    <path d="M110.83 44.201H99.409V54.264H110.83V44.201Z" fill="#F5F5F5" />
    <path d="M110.83 44.201H108.108V54.264H110.83V44.201Z" fill="#ECECEC" />
    <path d="M129.005 53.677H93.02V54.264H129.005V53.677Z" fill="#E1E1E1" />
    <path d="M104.838 58.653H102.1V64.426H104.838V58.653Z" fill="#FAFAFA" />
    <path
        d="M111.888 66.691C111.888 66.752 108.267 66.801 103.802 66.801C99.337 66.801 95.716 66.751 95.716 66.691C95.716 66.631 99.335 66.581 103.802 66.581C108.269 66.581 111.888 66.63 111.888 66.691Z"
        fill="#E1E1E1" />
    <path d="M121.15 58.653H118.412V64.426H121.15V58.653Z" fill="#E1E1E1" />
    <path
        d="M128.2 66.691C128.2 66.752 124.579 66.801 120.115 66.801C115.651 66.801 112.029 66.751 112.029 66.691C112.029 66.631 115.648 66.581 120.115 66.581C124.582 66.581 128.2 66.63 128.2 66.691Z"
        fill="#E1E1E1" />
    <path d="M121.15 70.114H118.412V75.887H121.15V70.114Z" fill="#E1E1E1" />
    <path
        d="M128.2 78.152C128.2 78.213 124.579 78.262 120.115 78.262C115.651 78.262 112.029 78.213 112.029 78.152C112.029 78.091 115.648 78.042 120.115 78.042C124.582 78.042 128.2 78.092 128.2 78.152Z"
        fill="#E1E1E1" />
    <path d="M121.15 81.921H118.412V87.694H121.15V81.921Z" fill="#E1E1E1" />
    <path
        d="M128.2 89.959C128.2 90.02 124.579 90.069 120.115 90.069C115.651 90.069 112.029 90.019 112.029 89.959C112.029 89.899 115.648 89.849 120.115 89.849C124.582 89.849 128.2 89.898 128.2 89.959Z"
        fill="#E1E1E1" />
    <path d="M121.15 93.728H118.412V99.501H121.15V93.728Z" fill="#E1E1E1" />
    <path
        d="M128.2 101.766C128.2 101.827 124.579 101.876 120.115 101.876C115.651 101.876 112.029 101.827 112.029 101.766C112.029 101.705 115.648 101.656 120.115 101.656C124.582 101.656 128.2 101.705 128.2 101.766Z"
        fill="#E1E1E1" />
    <path d="M121.15 105.197H118.412V110.97H121.15V105.197Z" fill="#E1E1E1" />
    <path
        d="M128.2 113.235C128.2 113.296 124.579 113.345 120.115 113.345C115.651 113.345 112.029 113.296 112.029 113.235C112.029 113.174 115.648 113.125 120.115 113.125C124.582 113.125 128.2 113.175 128.2 113.235Z"
        fill="#E1E1E1" />
    <path d="M121.15 116.712H118.412V122.485H121.15V116.712Z" fill="#E1E1E1" />
    <path d="M121.15 128.378H118.412V134.151H121.15V128.378Z" fill="#E1E1E1" />
    <path
        d="M128.2 124.75C128.2 124.811 124.579 124.86 120.115 124.86C115.651 124.86 112.029 124.811 112.029 124.75C112.029 124.689 115.648 124.64 120.115 124.64C124.582 124.64 128.2 124.69 128.2 124.75Z"
        fill="#E1E1E1" />
    <path d="M104.838 70.289H102.1V76.062H104.838V70.289Z" fill="#FAFAFA" />
    <path
        d="M111.888 78.327C111.888 78.388 108.267 78.437 103.802 78.437C99.337 78.437 95.716 78.387 95.716 78.327C95.716 78.267 99.335 78.217 103.802 78.217C108.269 78.217 111.888 78.267 111.888 78.327Z"
        fill="#E1E1E1" />
    <path d="M104.838 81.925H102.1V87.698H104.838V81.925Z" fill="#FAFAFA" />
    <path
        d="M111.888 89.963C111.888 90.025 108.267 90.073 103.802 90.073C99.337 90.073 95.716 90.024 95.716 89.963C95.716 89.902 99.335 89.853 103.802 89.853C108.269 89.853 111.888 89.902 111.888 89.963Z"
        fill="#E1E1E1" />
    <path d="M104.838 93.561H102.1V99.334H104.838V93.561Z" fill="#FAFAFA" />
    <path
        d="M111.888 101.599C111.888 101.66 108.267 101.709 103.802 101.709C99.337 101.709 95.716 101.659 95.716 101.599C95.716 101.539 99.335 101.489 103.802 101.489C108.269 101.489 111.888 101.539 111.888 101.599Z"
        fill="#E1E1E1" />
    <path d="M104.838 105.197H102.1V110.97H104.838V105.197Z" fill="#FAFAFA" />
    <path
        d="M111.888 113.235C111.888 113.296 108.267 113.345 103.802 113.345C99.337 113.345 95.716 113.296 95.716 113.235C95.716 113.174 99.335 113.125 103.802 113.125C108.269 113.125 111.888 113.175 111.888 113.235Z"
        fill="#E1E1E1" />
    <path d="M104.838 116.833H102.1V122.606H104.838V116.833Z" fill="#FAFAFA" />
    <path
        d="M111.888 124.87C111.888 124.931 108.267 124.98 103.802 124.98C99.337 124.98 95.716 124.93 95.716 124.87C95.716 124.81 99.335 124.76 103.802 124.76C108.269 124.76 111.888 124.81 111.888 124.87Z"
        fill="#E1E1E1" />
    <path d="M104.838 128.469H102.1V134.242H104.838V128.469Z" fill="#FAFAFA" />
    <path d="M246.7 75.998H214.357V178.5H246.7V75.998Z" fill="#F5F5F5" />
    <path d="M246.7 75.998H230.529V178.218H246.7V75.998Z" fill="#ECECEC" />
    <path d="M229.472 65.935H218.051V75.998H229.472V65.935Z" fill="#F5F5F5" />
    <path d="M229.472 65.935H226.75V75.998H229.472V65.935Z" fill="#ECECEC" />
    <path d="M247.647 75.411H211.662V75.998H247.647V75.411Z" fill="#E1E1E1" />
    <path d="M223.48 80.387H220.742V86.16H223.48V80.387Z" fill="#FAFAFA" />
    <path
        d="M230.529 88.425C230.529 88.486 226.908 88.535 222.444 88.535C217.98 88.535 214.358 88.486 214.358 88.425C214.358 88.364 217.977 88.315 222.444 88.315C226.911 88.315 230.529 88.365 230.529 88.425Z"
        fill="#E1E1E1" />
    <path d="M239.792 80.387H237.054V86.16H239.792V80.387Z" fill="#E1E1E1" />
    <path
        d="M246.842 88.425C246.842 88.486 243.222 88.535 238.757 88.535C234.292 88.535 230.671 88.486 230.671 88.425C230.671 88.364 234.291 88.315 238.757 88.315C243.223 88.315 246.842 88.365 246.842 88.425Z"
        fill="#E1E1E1" />
    <path d="M239.792 91.848H237.054V97.621H239.792V91.848Z" fill="#E1E1E1" />
    <path
        d="M246.842 99.886C246.842 99.947 243.222 99.996 238.757 99.996C234.292 99.996 230.671 99.947 230.671 99.886C230.671 99.825 234.291 99.776 238.757 99.776C243.223 99.776 246.842 99.824 246.842 99.886Z"
        fill="#E1E1E1" />
    <path d="M239.792 103.655H237.054V109.428H239.792V103.655Z" fill="#E1E1E1" />
    <path
        d="M246.842 111.693C246.842 111.754 243.222 111.803 238.757 111.803C234.292 111.803 230.671 111.754 230.671 111.693C230.671 111.632 234.291 111.583 238.757 111.583C243.223 111.583 246.842 111.633 246.842 111.693Z"
        fill="#E1E1E1" />
    <path d="M239.792 115.462H237.054V121.235H239.792V115.462Z" fill="#E1E1E1" />
    <path
        d="M246.842 123.5C246.842 123.561 243.222 123.61 238.757 123.61C234.292 123.61 230.671 123.561 230.671 123.5C230.671 123.439 234.291 123.39 238.757 123.39C243.223 123.39 246.842 123.442 246.842 123.5Z"
        fill="#E1E1E1" />
    <path d="M239.792 126.931H237.054V132.704H239.792V126.931Z" fill="#E1E1E1" />
    <path
        d="M246.842 134.968C246.842 135.029 243.222 135.078 238.757 135.078C234.292 135.078 230.671 135.029 230.671 134.968C230.671 134.907 234.291 134.858 238.757 134.858C243.223 134.858 246.842 134.909 246.842 134.968Z"
        fill="#E1E1E1" />
    <path d="M239.792 138.446H237.054V144.219H239.792V138.446Z" fill="#E1E1E1" />
    <path d="M239.792 150.112H237.054V155.885H239.792V150.112Z" fill="#E1E1E1" />
    <path
        d="M246.842 146.484C246.842 146.545 243.222 146.594 238.757 146.594C234.292 146.594 230.671 146.544 230.671 146.484C230.671 146.424 234.291 146.374 238.757 146.374C243.223 146.374 246.842 146.423 246.842 146.484Z"
        fill="#E1E1E1" />
    <path d="M223.48 92.023H220.742V97.796H223.48V92.023Z" fill="#FAFAFA" />
    <path
        d="M230.529 100.061C230.529 100.122 226.908 100.171 222.444 100.171C217.98 100.171 214.358 100.121 214.358 100.061C214.358 100.001 217.977 99.951 222.444 99.951C226.911 99.951 230.529 100.001 230.529 100.061Z"
        fill="#E1E1E1" />
    <path d="M223.48 103.659H220.742V109.432H223.48V103.659Z" fill="#FAFAFA" />
    <path
        d="M230.529 111.697C230.529 111.758 226.908 111.807 222.444 111.807C217.98 111.807 214.358 111.758 214.358 111.697C214.358 111.636 217.977 111.587 222.444 111.587C226.911 111.587 230.529 111.637 230.529 111.697Z"
        fill="#E1E1E1" />
    <path d="M223.48 115.295H220.742V121.068H223.48V115.295Z" fill="#FAFAFA" />
    <path
        d="M230.529 123.333C230.529 123.394 226.908 123.443 222.444 123.443C217.98 123.443 214.358 123.394 214.358 123.333C214.358 123.272 217.977 123.223 222.444 123.223C226.911 123.223 230.529 123.272 230.529 123.333Z"
        fill="#E1E1E1" />
    <path d="M223.48 126.931H220.742V132.704H223.48V126.931Z" fill="#FAFAFA" />
    <path
        d="M230.529 134.968C230.529 135.029 226.908 135.078 222.444 135.078C217.98 135.078 214.358 135.029 214.358 134.968C214.358 134.907 217.977 134.858 222.444 134.858C226.911 134.858 230.529 134.909 230.529 134.968Z"
        fill="#E1E1E1" />
    <path d="M223.48 138.567H220.742V144.34H223.48V138.567Z" fill="#FAFAFA" />
    <path
        d="M230.529 146.605C230.529 146.666 226.908 146.715 222.444 146.715C217.98 146.715 214.358 146.666 214.358 146.605C214.358 146.544 217.977 146.495 222.444 146.495C226.911 146.495 230.529 146.545 230.529 146.605Z"
        fill="#E1E1E1" />
    <path d="M223.48 150.203H220.742V155.976H223.48V150.203Z" fill="#FAFAFA" />
    <path d="M276.224 115.767H223.855V184.84H276.224V115.767Z" fill="#ECECEC" />
    <path d="M276.224 115.767H251.669V184.84H276.224V115.767Z" fill="#E1E1E1" />
    <path d="M239.545 125.119H234.836V136.559H239.545V125.119Z" fill="#F5F5F5" />
    <path d="M239.545 169.892H234.836V181.332H239.545V169.892Z" fill="#F5F5F5" />
    <path
        d="M251.67 141.049C251.67 141.177 245.443 141.282 237.764 141.282C230.085 141.282 223.856 141.182 223.856 141.049C223.856 140.916 230.082 140.816 237.764 140.816C245.446 140.816 251.67 140.92 251.67 141.049Z"
        fill="#F5F5F5" />
    <path d="M239.545 147.676H234.836V159.116H239.545V147.676Z" fill="#F5F5F5" />
    <path
        d="M251.67 163.606C251.67 163.734 245.443 163.839 237.764 163.839C230.085 163.839 223.856 163.739 223.856 163.606C223.856 163.473 230.082 163.373 237.764 163.373C245.446 163.373 251.67 163.477 251.67 163.606Z"
        fill="#F5F5F5" />
    <path d="M261.592 125.119H256.883V136.559H261.592V125.119Z" fill="#F5F5F5" />
    <path d="M271.808 125.119H267.099V136.559H271.808V125.119Z" fill="#F5F5F5" />
    <path d="M261.592 146.827H256.883V158.267H261.592V146.827Z" fill="#F5F5F5" />
    <path d="M271.808 146.827H267.099V158.267H271.808V146.827Z" fill="#F5F5F5" />
    <path d="M261.592 168.534H256.883V179.974H261.592V168.534Z" fill="#F5F5F5" />
    <path d="M271.808 168.534H267.099V179.974H271.808V168.534Z" fill="#F5F5F5" />
    <path d="M280.16 113.363H219.918V115.854H280.16V113.363Z" fill="#E1E1E1" />
    <path
        d="M276.589 116.088C276.589 116.216 264.884 116.321 250.448 116.321C236.012 116.321 224.305 116.221 224.305 116.088C224.305 115.955 236.005 115.855 250.448 115.855C264.891 115.855 276.589 115.959 276.589 116.088Z"
        fill="#ECECEC" />
    <path d="M116.017 186.221H68.424L68.217 111.003H115.811L116.017 186.221Z" fill="#ECECEC" />
    <path d="M115.811 111.002H92.014V186.22H115.811V111.002Z" fill="#E1E1E1" />
    <path d="M90.458 96.194H73.652V111.002H90.458V96.194Z" fill="#ECECEC" />
    <path d="M90.459 96.194H86.453V111.002H90.459V96.194Z" fill="#E1E1E1" />
    <path d="M117.204 110.138H64.251V111.002H117.204V110.138Z" fill="#E1E1E1" />
    <path d="M81.641 117.46H77.612V125.955H81.641V117.46Z" fill="white" />
    <path
        d="M92.017 129.289C92.017 129.379 86.689 129.451 80.117 129.451C73.545 129.451 68.217 129.379 68.217 129.289C68.217 129.199 73.543 129.127 80.117 129.127C86.691 129.127 92.017 129.203 92.017 129.289Z"
        fill="#E1E1E1" />
    <path d="M105.645 117.46H101.616V125.955H105.645V117.46Z" fill="#F5F5F5" />
    <path
        d="M116.018 129.289C116.018 129.379 110.691 129.451 104.118 129.451C97.545 129.451 92.218 129.379 92.218 129.289C92.218 129.199 97.545 129.127 104.118 129.127C110.691 129.127 116.018 129.203 116.018 129.289Z"
        fill="#ECECEC" />
    <path d="M105.645 134.326H101.616V142.821H105.645V134.326Z" fill="#F5F5F5" />
    <path
        d="M116.018 146.155C116.018 146.245 110.691 146.317 104.118 146.317C97.545 146.317 92.218 146.245 92.218 146.155C92.218 146.065 97.545 145.992 104.118 145.992C110.691 145.992 116.018 146.06 116.018 146.155Z"
        fill="#ECECEC" />
    <path d="M105.645 151.7H101.616V160.195H105.645V151.7Z" fill="#F5F5F5" />
    <path
        d="M116.018 163.528C116.018 163.618 110.691 163.691 104.118 163.691C97.545 163.691 92.218 163.618 92.218 163.528C92.218 163.438 97.545 163.366 104.118 163.366C110.691 163.366 116.018 163.438 116.018 163.528Z"
        fill="#ECECEC" />
    <path d="M105.645 169.074H101.616V177.569H105.645V169.074Z" fill="#F5F5F5" />
    <path
        d="M116.018 180.903C116.018 180.993 110.691 181.065 104.118 181.065C97.545 181.065 92.218 180.993 92.218 180.903C92.218 180.813 97.545 180.74 104.118 180.74C110.691 180.74 116.018 180.813 116.018 180.903Z"
        fill="#ECECEC" />
    <path d="M81.641 134.583H77.612V143.078H81.641V134.583Z" fill="white" />
    <path
        d="M92.017 146.411C92.017 146.501 86.689 146.574 80.117 146.574C73.545 146.574 68.217 146.501 68.217 146.411C68.217 146.321 73.543 146.249 80.117 146.249C86.691 146.249 92.017 146.322 92.017 146.411Z"
        fill="#E1E1E1" />
    <path d="M81.641 151.706H77.612V160.201H81.641V151.706Z" fill="white" />
    <path
        d="M92.017 163.534C92.017 163.624 86.689 163.697 80.117 163.697C73.545 163.697 68.217 163.624 68.217 163.534C68.217 163.444 73.543 163.372 80.117 163.372C86.691 163.372 92.017 163.444 92.017 163.534Z"
        fill="#E1E1E1" />
    <path d="M81.641 168.828H77.612V177.322H81.641V168.828Z" fill="white" />
    <path
        d="M92.017 180.657C92.017 180.747 86.689 180.819 80.117 180.819C73.545 180.819 68.217 180.747 68.217 180.657C68.217 180.567 73.543 180.494 80.117 180.494C86.691 180.494 92.017 180.567 92.017 180.657Z"
        fill="#E1E1E1" />
    <path
        d="M304.885 95.798C305.137 93.97 302.557 92.466 300.618 92.309C299.691 92.3466 298.764 92.2667 297.857 92.071C295.957 91.409 295.201 88.957 293.349 88.177C291.965 87.593 290.371 88.113 289.029 88.788C287.762 89.6012 286.345 90.1527 284.861 90.41C283.561 90.493 282.14 90.01 280.999 90.647C280.149 91.121 279.699 92.101 278.919 92.68C278.103 93.1829 277.159 93.4388 276.201 93.417C275.247 93.3937 274.298 93.5491 273.401 93.875C272.956 94.049 272.58 94.3619 272.328 94.7672C272.075 95.1724 271.961 95.6483 272.001 96.124L304.885 95.798Z"
        fill="#F5F5F5" />
    <path
        d="M224.174 43.692C224.568 40.831 220.529 38.476 217.494 38.232C216.047 38.115 214.544 38.332 213.172 37.859C210.202 36.823 209.015 32.986 206.117 31.759C203.95 30.845 201.455 31.659 199.355 32.716C197.255 33.773 195.178 35.104 192.831 35.254C190.789 35.384 188.572 34.627 186.786 35.625C185.455 36.368 184.758 37.902 183.531 38.807C182.254 39.5944 180.776 39.9949 179.276 39.96C177.782 39.9234 176.294 40.1665 174.889 40.677C174.192 40.9478 173.601 41.4368 173.204 42.071C172.808 42.7052 172.627 43.4506 172.689 44.196L224.174 43.692Z"
        fill="#ECECEC" />
    <path
        d="M86.317 83.268C86.631 80.987 83.411 79.109 80.992 78.915C79.8356 78.9611 78.678 78.8603 77.547 78.615C75.179 77.789 74.233 74.73 71.922 73.756C70.195 73.027 68.206 73.676 66.531 74.519C64.856 75.362 63.201 76.419 61.331 76.542C59.703 76.642 57.931 76.042 56.512 76.842C55.451 77.435 54.895 78.657 53.912 79.379C52.8938 80.0066 51.7157 80.3257 50.52 80.298C49.3279 80.2687 48.1408 80.4627 47.02 80.87C46.4647 81.0862 45.9941 81.4761 45.6786 81.9817C45.363 82.4872 45.2193 83.0812 45.269 83.675L86.317 83.268Z"
        fill="#F5F5F5" />
    <path
        d="M62.656 133.585C60.056 133.646 57.522 134.416 55.3273 135.811C53.1325 137.207 51.3603 139.175 50.2017 141.503C49.043 143.832 48.5419 146.432 48.7524 149.024C48.9629 151.616 49.8769 154.102 51.396 156.213L51.535 156.402L51.555 156.429L61.673 170.191C61.8793 170.472 62.1501 170.699 62.4626 170.853C62.775 171.007 63.1199 171.083 63.4682 171.076C63.8165 171.069 64.1579 170.978 64.4636 170.811C64.7694 170.644 65.0305 170.406 65.225 170.117L74.371 156.517C76.1913 153.993 77.2083 150.978 77.289 147.867C77.2885 145.962 76.907 144.076 76.1671 142.321C75.4271 140.565 74.3435 138.975 72.9802 137.644C71.6168 136.314 70.0011 135.269 68.2281 134.572C66.4551 133.875 64.5606 133.539 62.656 133.585ZM62.996 158.262C60.8712 158.262 58.7942 157.632 57.0275 156.451C55.2608 155.271 53.8839 153.593 53.0708 151.63C52.2576 149.667 52.0449 147.507 52.4594 145.423C52.8739 143.339 53.8971 141.425 55.3995 139.923C56.902 138.42 58.8162 137.397 60.9001 136.982C62.9841 136.568 65.1441 136.781 67.1072 137.594C69.0702 138.407 70.748 139.784 71.9285 141.551C73.1089 143.317 73.739 145.394 73.739 147.519C73.7391 148.93 73.4613 150.327 72.9215 151.63C72.3817 152.934 71.5904 154.118 70.5928 155.116C69.5952 156.114 68.4109 156.905 67.1074 157.445C65.8039 157.985 64.4069 158.263 62.996 158.263V158.262Z"
        fill="#55AE7B" />
    <g opacity="0.3">
        <path
            d="M62.656 133.585C60.056 133.646 57.522 134.416 55.3273 135.811C53.1325 137.207 51.3603 139.175 50.2017 141.503C49.043 143.832 48.5419 146.432 48.7524 149.024C48.9629 151.616 49.8769 154.102 51.396 156.213L51.535 156.402L51.555 156.429L61.673 170.191C61.8793 170.472 62.1501 170.699 62.4626 170.853C62.775 171.007 63.1199 171.083 63.4682 171.076C63.8165 171.069 64.1579 170.978 64.4636 170.811C64.7694 170.644 65.0305 170.406 65.225 170.117L74.371 156.517C76.1913 153.993 77.2083 150.978 77.289 147.867C77.2885 145.962 76.907 144.076 76.1671 142.321C75.4271 140.565 74.3435 138.975 72.9802 137.644C71.6168 136.314 70.0011 135.269 68.2281 134.572C66.4551 133.875 64.5606 133.539 62.656 133.585ZM62.996 158.262C60.8712 158.262 58.7942 157.632 57.0275 156.451C55.2608 155.271 53.8839 153.593 53.0708 151.63C52.2576 149.667 52.0449 147.507 52.4594 145.423C52.8739 143.339 53.8971 141.425 55.3995 139.923C56.902 138.42 58.8162 137.397 60.9001 136.982C62.9841 136.568 65.1441 136.781 67.1072 137.594C69.0702 138.407 70.748 139.784 71.9285 141.551C73.1089 143.317 73.739 145.394 73.739 147.519C73.7391 148.93 73.4613 150.327 72.9215 151.63C72.3817 152.934 71.5904 154.118 70.5928 155.116C69.5952 156.114 68.4109 156.905 67.1074 157.445C65.8039 157.985 64.4069 158.263 62.996 158.263V158.262Z"
            fill="black" />
    </g>
    <path
        d="M61.809 133.585C59.209 133.646 56.675 134.416 54.4803 135.811C52.2855 137.207 50.5133 139.175 49.3547 141.503C48.196 143.832 47.6949 146.432 47.9054 149.024C48.1159 151.616 49.0299 154.102 50.549 156.213L50.689 156.402L50.708 156.429L60.822 170.192C61.0283 170.473 61.2991 170.7 61.6116 170.854C61.924 171.008 62.2689 171.084 62.6172 171.077C62.9655 171.07 63.3069 170.979 63.6126 170.812C63.9184 170.645 64.1795 170.407 64.374 170.118L73.52 156.518C75.3403 153.994 76.3573 150.979 76.438 147.868C76.4376 145.963 76.0564 144.078 75.3167 142.322C74.577 140.567 73.4939 138.977 72.1309 137.646C70.7679 136.316 69.1527 135.271 67.3801 134.573C65.6075 133.876 63.7133 133.54 61.809 133.585ZM62.149 156.326C60.5399 156.326 58.9668 155.849 57.6289 154.955C56.2909 154.061 55.2481 152.79 54.6323 151.304C54.0165 149.817 53.8554 148.181 54.1693 146.603C54.4833 145.025 55.2581 143.575 56.396 142.437C57.5338 141.299 58.9835 140.524 60.5617 140.21C62.14 139.896 63.7758 140.058 65.2625 140.673C66.7492 141.289 68.0198 142.332 68.9138 143.67C69.8078 145.008 70.285 146.581 70.285 148.19C70.285 150.348 69.4278 152.417 67.902 153.943C66.3762 155.469 64.3068 156.326 62.149 156.326Z"
        fill="#55AE7B" />
    <path
        d="M275.289 120.04C273.308 120.087 271.376 120.673 269.704 121.737C268.031 122.8 266.68 124.3 265.797 126.075C264.914 127.849 264.533 129.831 264.693 131.806C264.854 133.782 265.55 135.676 266.708 137.285L266.814 137.43L266.829 137.45L274.54 147.938C274.697 148.152 274.904 148.325 275.142 148.442C275.38 148.56 275.643 148.618 275.908 148.613C276.173 148.607 276.434 148.538 276.667 148.411C276.9 148.284 277.099 148.102 277.247 147.882L284.217 137.52C285.604 135.596 286.379 133.298 286.441 130.927C286.441 129.475 286.15 128.037 285.587 126.699C285.023 125.361 284.197 124.149 283.158 123.135C282.119 122.12 280.887 121.324 279.536 120.793C278.185 120.261 276.741 120.005 275.289 120.04ZM275.548 138.847C273.929 138.847 272.346 138.367 271 137.467C269.653 136.568 268.604 135.289 267.984 133.793C267.365 132.297 267.202 130.651 267.518 129.063C267.834 127.475 268.614 126.016 269.759 124.871C270.904 123.726 272.363 122.946 273.951 122.63C275.539 122.314 277.185 122.477 278.681 123.096C280.177 123.716 281.456 124.765 282.355 126.112C283.255 127.458 283.735 129.041 283.735 130.66C283.735 132.831 282.872 134.913 281.337 136.448C279.801 137.984 277.719 138.847 275.548 138.847Z"
        fill="#55AE7B" />
    <g opacity="0.3">
        <path
            d="M275.289 120.04C273.308 120.087 271.376 120.673 269.704 121.737C268.031 122.8 266.68 124.3 265.797 126.075C264.914 127.849 264.533 129.831 264.693 131.806C264.854 133.782 265.55 135.676 266.708 137.285L266.814 137.43L266.829 137.45L274.54 147.938C274.697 148.152 274.904 148.325 275.142 148.442C275.38 148.56 275.643 148.618 275.908 148.613C276.173 148.607 276.434 148.538 276.667 148.411C276.9 148.284 277.099 148.102 277.247 147.882L284.217 137.52C285.604 135.596 286.379 133.298 286.441 130.927C286.441 129.475 286.15 128.037 285.587 126.699C285.023 125.361 284.197 124.149 283.158 123.135C282.119 122.12 280.887 121.324 279.536 120.793C278.185 120.261 276.741 120.005 275.289 120.04ZM275.548 138.847C273.929 138.847 272.346 138.367 271 137.467C269.653 136.568 268.604 135.289 267.984 133.793C267.365 132.297 267.202 130.651 267.518 129.063C267.834 127.475 268.614 126.016 269.759 124.871C270.904 123.726 272.363 122.946 273.951 122.63C275.539 122.314 277.185 122.477 278.681 123.096C280.177 123.716 281.456 124.765 282.355 126.112C283.255 127.458 283.735 129.041 283.735 130.66C283.735 132.831 282.872 134.913 281.337 136.448C279.801 137.984 277.719 138.847 275.548 138.847Z"
            fill="black" />
    </g>
    <path
        d="M274.643 120.04C272.661 120.086 270.73 120.673 269.057 121.736C267.384 122.799 266.033 124.299 265.15 126.074C264.267 127.849 263.886 129.831 264.046 131.806C264.207 133.782 264.904 135.676 266.062 137.285L266.168 137.43L266.183 137.45L273.894 147.938C274.051 148.152 274.258 148.325 274.496 148.443C274.734 148.561 274.997 148.619 275.263 148.614C275.528 148.608 275.788 148.539 276.022 148.411C276.255 148.284 276.454 148.102 276.602 147.882L283.572 137.52C284.959 135.596 285.734 133.298 285.796 130.927C285.796 129.475 285.505 128.037 284.941 126.699C284.378 125.361 283.552 124.149 282.513 123.134C281.473 122.12 280.242 121.324 278.89 120.792C277.539 120.261 276.095 120.005 274.643 120.04ZM274.902 137.371C273.676 137.371 272.477 137.007 271.457 136.326C270.438 135.645 269.643 134.677 269.174 133.544C268.705 132.411 268.582 131.164 268.821 129.961C269.06 128.759 269.651 127.654 270.518 126.787C271.385 125.92 272.49 125.329 273.692 125.09C274.895 124.851 276.142 124.974 277.275 125.443C278.408 125.912 279.376 126.707 280.057 127.726C280.738 128.746 281.102 129.945 281.102 131.171C281.102 132.815 280.448 134.392 279.286 135.554C278.123 136.717 276.546 137.371 274.902 137.371Z"
        fill="#55AE7B" />
    <path
        d="M58.546 184.952L10.689 303.61L100.42 288.882L166.22 303.615L233.62 288.882L323.75 306.048L275.496 184.952L221.657 171.414L167.22 181.767L111.586 171.414L58.546 184.952Z"
        fill="white" />
    <path
        d="M58.442 185.027C58.4357 185.046 58.4266 185.064 58.415 185.08C58.4206 185.062 58.4273 185.044 58.435 185.027L58.455 184.987C58.448 185 58.448 185.014 58.442 185.027Z"
        fill="#1A2E35" />
    <path
        d="M324.031 306.273L323.723 306.213L277.354 297.382C273.065 296.566 268.793 295.752 264.536 294.94C254.123 292.96 243.82 290.998 233.626 289.053C210.482 294.111 187.954 299.028 166.257 303.771L166.224 303.778L166.19 303.771C143.267 298.633 121.29 293.709 100.43 289.032C82.539 291.962 65.479 294.759 49.364 297.408C35.7753 299.629 22.89 301.739 10.708 303.737L10.487 303.77L10.574 303.563C15.2173 292.062 19.5773 281.271 23.654 271.189C32.539 249.205 39.963 230.827 45.646 216.758C49.794 206.515 53.017 198.558 55.201 193.158C56.293 190.458 57.131 188.408 57.694 187.03C57.821 186.722 57.929 186.448 58.022 186.214C58.115 185.98 58.203 185.779 58.277 185.614C58.297 185.561 58.311 185.52 58.331 185.474C58.365 185.387 58.398 185.313 58.425 185.247C58.452 185.181 58.472 185.133 58.492 185.086C58.4849 185.111 58.4759 185.136 58.465 185.16C58.445 185.213 58.4183 185.28 58.385 185.36C58.305 185.567 58.197 185.86 58.05 186.216C57.95 186.457 57.842 186.745 57.715 187.059C57.159 188.444 56.335 190.511 55.249 193.214C53.076 198.622 49.876 206.59 45.752 216.852C40.083 230.942 32.666 249.352 23.801 271.377C19.7843 281.346 15.4823 292.035 10.895 303.444C22.909 301.47 35.661 299.37 49.069 297.169C65.258 294.5 82.412 291.683 100.396 288.726L100.423 288.719H100.436L100.456 288.726C121.315 293.396 143.3 298.313 166.223 303.438H166.23C187.92 298.695 210.441 293.771 233.585 288.706L233.605 288.699H233.618L233.652 288.706C243.944 290.666 254.352 292.649 264.877 294.654C269.045 295.45 273.226 296.246 277.421 297.042C293.194 300.042 308.747 303.01 323.475 305.813C315.903 286.813 308.512 268.254 301.349 250.278C292.283 227.518 283.592 205.695 275.377 185.078C275.055 184.998 274.74 184.917 274.426 184.837L250.558 178.829C246.451 177.799 242.401 176.78 238.41 175.772C237.17 175.464 235.931 175.15 234.705 174.842C234.363 174.755 234.028 174.668 233.693 174.588L233.293 174.488C232.007 174.16 230.733 173.839 229.46 173.518C227.182 172.949 224.928 172.383 222.699 171.818C222.357 171.731 222.016 171.651 221.674 171.564C221.667 171.564 221.661 171.557 221.654 171.557C220.602 171.757 219.554 171.952 218.511 172.157C216.065 172.618 213.642 173.078 211.241 173.535C209.492 173.869 207.75 174.197 206.028 174.525C204.782 174.759 203.542 175 202.316 175.225C201.921 175.305 201.532 175.379 201.15 175.446C197.639 176.113 194.186 176.768 190.791 177.413C183.836 178.738 177.135 180.013 170.743 181.22C169.564 181.441 168.397 181.661 167.243 181.882L167.223 181.889L167.203 181.882C159.886 180.517 152.89 179.213 146.216 177.968C145.716 177.874 145.231 177.781 144.742 177.694L144.3 177.614C142.37 177.253 140.467 176.891 138.591 176.544C135.14 175.902 131.792 175.278 128.547 174.671C126.778 174.336 125.047 174.015 123.341 173.694L123.234 173.674C119.16 172.918 115.28 172.195 111.595 171.506H111.576C109.11 172.135 106.718 172.737 104.406 173.332C104.279 173.359 104.145 173.392 104.017 173.426C103.958 173.438 103.9 173.453 103.843 173.473C102.731 173.754 101.643 174.028 100.573 174.296C98.173 174.911 95.862 175.496 93.658 176.056C92.271 176.411 90.931 176.756 89.624 177.08C86.1393 177.97 82.9343 178.786 80.009 179.529C78.622 179.877 77.302 180.218 76.042 180.529C75.707 180.616 75.372 180.703 75.042 180.783C74.111 181.024 73.213 181.245 72.355 181.465C67.845 182.609 64.395 183.479 62.069 184.065C60.91 184.359 60.025 184.58 59.436 184.727C59.289 184.767 59.161 184.794 59.047 184.821C58.993 184.834 58.94 184.848 58.893 184.861C58.806 184.881 58.739 184.901 58.685 184.908C58.705 184.901 58.732 184.895 58.759 184.888C58.906 184.848 59.128 184.788 59.422 184.714L62.042 184.032C64.36 183.432 67.805 182.547 72.301 181.389C73.051 181.195 73.822 181.001 74.633 180.789C74.975 180.702 75.3233 180.615 75.678 180.528C77.045 180.173 78.486 179.805 80.007 179.411C82.935 178.668 86.14 177.848 89.622 176.949C90.9287 176.616 92.2733 176.272 93.656 175.919C95.8407 175.357 98.121 174.77 100.497 174.159C101.589 173.885 102.708 173.597 103.841 173.309C103.898 173.289 103.956 173.274 104.015 173.262C104.115 173.235 104.223 173.208 104.33 173.182C106.663 172.582 109.073 171.962 111.56 171.322H111.6C115.252 171.998 119.098 172.709 123.139 173.456C123.147 173.462 123.156 173.464 123.166 173.463C124.848 173.777 126.566 174.099 128.319 174.42C131.629 175.035 135.053 175.671 138.591 176.327C140.427 176.668 142.294 177.016 144.191 177.371L144.647 177.451L146.135 177.732C152.829 178.97 159.858 180.272 167.222 181.639C169.293 181.251 171.39 180.85 173.527 180.439C179.06 179.382 184.807 178.287 190.768 177.154C194.185 176.499 197.663 175.834 201.201 175.16C201.57 175.093 201.945 175.02 202.313 174.953C203.64 174.699 204.975 174.445 206.32 174.19C208.042 173.855 209.771 173.528 211.52 173.2C213.832 172.759 216.162 172.313 218.509 171.862C219.548 171.668 220.586 171.467 221.632 171.262H221.665L221.692 171.269C222.027 171.349 222.362 171.436 222.697 171.523L229.597 173.249C230.87 173.57 232.15 173.891 233.436 174.212C233.523 174.239 233.61 174.259 233.697 174.279C234.032 174.366 234.367 174.446 234.709 174.533C235.935 174.841 237.175 175.155 238.414 175.463C242.401 176.466 246.45 177.483 250.562 178.514C252.291 178.949 254.033 179.39 255.782 179.825L256.331 179.966C262.489 181.511 268.763 183.086 275.153 184.689L275.542 184.789L275.616 184.809L275.643 184.883C283.838 205.442 292.515 227.205 301.568 249.898C308.798 268.035 316.268 286.781 323.915 305.969L324.031 306.273Z"
        fill="#1A2E35" />
    <path
        d="M61.328 188.138L19.051 297.638L100.016 284.498L167.216 300.027L233.623 284.1L316.183 300.027L272.713 188.138L222.459 175.794L167.22 186.147L110.784 175.794L61.328 188.138Z"
        fill="white" />
    <path
        d="M23.741 285.471L87.988 270.59L85.618 256.75L90.957 253.389L82.657 221.065L56.958 199.29L23.741 285.471Z"
        fill="#121418" />
    <path
        d="M19.051 297.638L22.183 289.511L129.906 264.483L135.758 280.583L133.858 283.835L113.625 287.676L99.879 284.494L19.051 297.638Z"
        fill="#ECECEC" />
    <path
        d="M136.012 262.925L140.286 278.858L152.686 284.251L170.339 276.407L207.366 265.622L195.812 248.222L136.012 262.925Z"
        fill="#ECECEC" />
    <path
        d="M92.862 268.825L112.879 264.483L108.885 251.478L94.303 255.002L90.421 257.741L92.862 268.825Z"
        fill="#E1E1E1" />
    <path
        d="M88.783 225.724L96.051 249.572L107.407 247.072L105.363 237.908L130.351 232.314L88.783 225.724Z"
        fill="#121418" />
    <path
        d="M58.971 194.39L90.409 219.63L132.146 227.542L176.663 216.475L156.342 184.175L110.756 175.799L61.381 188.143L58.971 194.39Z"
        fill="#ECECEC" />
    <path
        d="M162.606 185.287L227.873 285.47L233.581 284.099L170.412 185.559L167.283 186.146L162.606 185.287Z"
        fill="#ECECEC" />
    <path d="M109.639 240.433L117.909 264.484L191.323 245.728L177.737 222.598L109.639 240.433Z"
        fill="#E1E1E1" />
    <path
        d="M150.548 296.159L151.263 295.097L156.085 287.929L167.656 284.251L175.613 278.251L210.118 268.822L220.834 287.152L167.258 300.023L150.548 296.159Z"
        fill="#E1E1E1" />
    <path d="M211.777 177.811L229.07 197.046L272.687 188.138L222.516 175.794L211.777 177.811Z"
        fill="#E1E1E1" />
    <path d="M281.965 211.803L249.93 220.703L233.763 199.293L273.879 190.958L281.965 211.803Z"
        fill="#E1E1E1" />
    <path d="M173.862 184.917L207.446 233.161L246.21 222.038L207.446 178.611L173.862 184.917Z"
        fill="#ECECEC" />
    <path d="M267.922 290.7L306.68 275.518L316.187 300.027L267.922 290.7Z" fill="#E1E1E1" />
    <path d="M227.291 230.278L248.349 224.788L270.594 251.478L248.942 258.668L227.291 230.278Z"
        fill="#121418" />
    <path d="M253.192 222.602L276.623 249.468L294.275 243.545L282.669 213.625L253.192 222.602Z"
        fill="#E1E1E1" />
    <path
        d="M270.692 284.426L253.192 260.152L295.492 246.668L304.092 268.826L298.58 274.377L270.692 284.426Z"
        fill="#121418" />
    <path
        d="M209.558 236.707L241.711 285.468L261.511 289.479L265.246 287.769L224.5 232.207L209.558 236.707Z"
        fill="#E1E1E1" />
    <path d="M77.404 273.036L69.394 235.373L41.146 240.308L23.741 285.469L77.404 273.036Z"
        fill="#E1E1E1" />
    <path
        d="M103.482 177.608V194.851L109.529 195.615L126.414 215.287L140.929 213.62L147.838 223.635L132.127 227.541L90.39 219.629L58.955 194.389L61.365 188.137L103.482 177.608Z"
        fill="#121418" />
    <path d="M191.99 181.66L215.707 216.27L236.135 210.751L207.446 178.612L191.99 181.66Z"
        fill="#E1E1E1" />
    <path d="M261.772 217.413L253.192 203.998L276.392 197.441L281.963 211.804L261.772 217.413Z"
        fill="#ECECEC" />
    <path d="M227.277 263.585L238.507 259.704L260.289 289.234L241.708 285.469L227.277 263.585Z"
        fill="#ECECEC" />
    <path
        d="M123.49 289.917L133.935 288.646L137.415 283.546L150.459 287.646L147.047 295.364L123.49 289.917Z"
        fill="#121418" />
    <path
        d="M61.329 188.138C61.329 188.138 62.429 187.848 64.589 187.302L74.158 184.891L110.764 175.709H110.782H110.801L167.243 186.027H167.199L222.436 175.653L222.466 175.647L222.497 175.654L272.754 187.984L272.834 188.004L272.863 188.08C286.172 222.319 300.869 260.13 316.351 299.963L316.464 300.255L316.156 300.195L274.736 292.206L233.598 284.269H233.672L167.259 300.188L167.221 300.197L167.183 300.188L99.983 284.646H100.042L19.072 297.762L18.855 297.797L18.934 297.592C32.02 263.77 42.611 236.392 49.934 217.474L58.373 195.708L60.573 190.055C61.073 188.783 61.331 188.138 61.331 188.138C61.331 188.138 61.086 188.801 60.598 190.082L58.423 195.76C56.506 200.748 53.679 208.099 50.04 217.565L19.169 297.683L19.031 297.513L99.991 284.346H100.02L100.049 284.353L167.256 299.869H167.18L233.585 283.936L233.621 283.927L233.658 283.934L274.796 291.869L316.218 299.861L316.024 300.094L272.566 188.194L272.675 188.294L222.424 175.937H222.485L167.242 186.269H167.219H167.197L110.768 175.882H110.805L74.205 184.971L64.614 187.343C62.451 187.871 61.329 188.138 61.329 188.138Z"
        fill="#1A2E35" />
    <g opacity="0.2">
        <path d="M166.159 303.61L167.159 181.766L111.613 171.413L100.459 288.882L166.159 303.61Z"
            fill="black" />
    </g>
    <g opacity="0.2">
        <path d="M221.818 171.414L233.764 288.882L323.753 306.048L275.573 184.952L221.818 171.414Z"
            fill="black" />
    </g>
    <path
        d="M167.649 66.47C154.342 66.7833 141.373 70.723 130.141 77.8642C118.908 85.0054 109.838 95.0772 103.908 106.994C97.9782 118.91 95.4137 132.22 96.4909 145.486C97.5681 158.753 102.246 171.474 110.021 182.278L110.002 182.284L110.715 183.253L110.815 183.39L162.601 253.827C163.657 255.264 165.043 256.425 166.643 257.214C168.242 258.002 170.008 258.395 171.791 258.357C173.573 258.32 175.321 257.854 176.886 257C178.451 256.145 179.788 254.927 180.783 253.447L227.591 183.86C236.449 170.351 242.524 156.232 242.524 139.588C242.524 129.837 240.574 120.185 236.789 111.198C233.005 102.212 227.461 94.0733 220.485 87.2607C213.509 80.4482 205.24 75.0994 196.167 71.5289C187.093 67.9585 177.397 66.2384 167.649 66.47ZM169.387 192.77C158.512 192.77 147.881 189.545 138.839 183.503C129.797 177.462 122.749 168.874 118.587 158.827C114.426 148.78 113.337 137.724 115.459 127.058C117.58 116.392 122.817 106.595 130.507 98.9047C138.197 91.215 147.994 85.9781 158.66 83.8565C169.326 81.7349 180.382 82.8238 190.429 86.9855C200.476 91.1472 209.064 98.1948 215.105 107.237C221.147 116.279 224.372 126.91 224.372 137.785C224.372 145.006 222.95 152.156 220.187 158.828C217.424 165.499 213.374 171.561 208.268 176.667C203.162 181.773 197.101 185.823 190.429 188.587C183.758 191.35 176.608 192.773 169.387 192.773V192.77Z"
        fill="#55AE7B" />
    <g opacity="0.3">
        <path
            d="M167.649 66.47C154.342 66.7833 141.373 70.723 130.141 77.8642C118.908 85.0054 109.838 95.0772 103.908 106.994C97.9782 118.91 95.4137 132.22 96.4909 145.486C97.5681 158.753 102.246 171.474 110.021 182.278L110.002 182.284L110.715 183.253L110.815 183.39L162.601 253.827C163.657 255.264 165.043 256.425 166.643 257.214C168.242 258.002 170.008 258.395 171.791 258.357C173.573 258.32 175.321 257.854 176.886 257C178.451 256.145 179.788 254.927 180.783 253.447L227.591 183.86C236.449 170.351 242.524 156.232 242.524 139.588C242.524 129.837 240.574 120.185 236.789 111.198C233.005 102.212 227.461 94.0733 220.485 87.2607C213.509 80.4482 205.24 75.0994 196.167 71.5289C187.093 67.9585 177.397 66.2384 167.649 66.47ZM169.387 192.77C158.512 192.77 147.881 189.545 138.839 183.503C129.797 177.462 122.749 168.874 118.587 158.827C114.426 148.78 113.337 137.724 115.459 127.058C117.58 116.392 122.817 106.595 130.507 98.9047C138.197 91.215 147.994 85.9781 158.66 83.8565C169.326 81.7349 180.382 82.8238 190.429 86.9855C200.476 91.1472 209.064 98.1948 215.105 107.237C221.147 116.279 224.372 126.91 224.372 137.785C224.372 145.006 222.95 152.156 220.187 158.828C217.424 165.499 213.374 171.561 208.268 176.667C203.162 181.773 197.101 185.823 190.429 188.587C183.758 191.35 176.608 192.773 169.387 192.773V192.77Z"
            fill="black" />
    </g>
    <path
        d="M163.314 66.47C150.007 66.783 137.038 70.7224 125.805 77.8635C114.572 85.0047 105.502 95.0766 99.5721 106.993C93.6422 118.91 91.0776 132.219 92.155 145.486C93.2324 158.753 97.9109 171.474 105.686 182.278L105.667 182.284L106.379 183.253C106.413 183.299 106.446 183.345 106.479 183.39L158.266 253.827C159.322 255.264 160.708 256.425 162.308 257.214C163.907 258.002 165.673 258.395 167.456 258.357C169.238 258.32 170.986 257.854 172.551 257C174.116 256.145 175.453 254.927 176.448 253.447L223.256 183.86C232.114 170.351 238.189 156.232 238.189 139.588C238.189 129.837 236.239 120.185 232.455 111.198C228.67 102.212 223.126 94.0733 216.15 87.2607C209.174 80.4482 200.905 75.0994 191.832 71.5289C182.758 67.9585 173.062 66.2384 163.314 66.47ZM165.052 192.77C154.177 192.77 143.546 189.545 134.504 183.503C125.462 177.462 118.414 168.874 114.252 158.827C110.091 148.78 109.002 137.724 111.124 127.058C113.245 116.392 118.482 106.595 126.172 98.9047C133.862 91.215 143.659 85.9781 154.325 83.8565C164.991 81.7349 176.047 82.8238 186.094 86.9855C196.141 91.1472 204.729 98.1948 210.77 107.237C216.812 116.279 220.037 126.91 220.037 137.785C220.038 152.368 214.245 166.353 203.934 176.666C193.624 186.978 179.639 192.772 165.056 192.773L165.052 192.77Z"
        fill="#55AE7B" />
    <g opacity="0.3">
        <path
            d="M196.685 179.259C195.805 180.259 137.659 195.608 136.779 196.604C147.93 200.004 161.553 202.965 173.192 202.29C179.754 201.909 186.598 200.74 191.786 196.703C196.974 192.666 199.843 185.025 196.685 179.259Z"
            fill="black" />
    </g>
    <path
        d="M141.158 68.297C139.481 70.0809 138.26 72.2434 137.598 74.6007C136.937 76.9579 136.854 79.4401 137.358 81.836C137.868 84.151 138.887 86.736 137.616 88.736C136.356 90.717 133.388 91.081 132.199 93.104C130.799 95.485 132.67 98.476 132.434 101.229C132.283 102.521 131.677 103.717 130.724 104.603C129.771 105.489 128.534 106.006 127.234 106.061C130.587 108.089 134.434 109.154 138.352 109.14L140.757 104.964C140.364 105.743 140.241 106.631 140.409 107.488C140.577 108.344 141.026 109.12 141.685 109.693C143.038 110.807 144.689 111.498 146.432 111.681C150.551 112.344 154.767 112.047 158.752 110.813C162.736 109.578 166.382 107.44 169.405 104.565L141.158 68.297Z"
        fill="#1A2E35" />
    <path
        d="M188.072 82.812C187.234 81.099 186.017 79.574 185.363 77.783C183.963 73.933 185.263 69.195 182.84 65.893C181.113 63.542 178.019 62.706 175.14 62.243C172.261 61.78 169.196 61.474 166.854 59.737C165.136 58.463 163.99 56.537 162.277 55.256C159.834 53.432 156.568 53.156 153.529 53.393C150.385 53.528 147.329 54.474 144.658 56.139C143.335 56.9821 142.228 58.1244 141.427 59.4737C140.626 60.823 140.153 62.3415 140.047 63.907C140.014 65.433 140.416 66.971 140.147 68.474C139.847 70.126 138.783 71.529 138.225 73.112C137.675 74.8045 137.703 76.6316 138.305 78.3063C138.907 79.981 140.048 81.4083 141.549 82.364L166.639 106.827C171.339 107.887 181.866 104.333 184.853 100.554C187.84 96.775 190.189 87.139 188.072 82.812Z"
        fill="#1A2E35" />
    <path
        d="M141.621 78.802C141.621 72.45 145.33 64.423 151.677 64.695L171.677 68.438C172.607 68.478 173.488 68.8653 174.146 69.5236C174.805 70.1818 175.192 71.063 175.232 71.993L176.098 119.6L176.236 119.621C176.236 119.621 172.62 133.3 159.345 130.054C156.712 129.41 155.352 126.665 154.652 123.795L154.52 123.821C154.493 123.476 154.468 123.156 154.442 122.827C154.047 120.68 153.88 118.497 153.942 116.315C153.657 112.485 153.559 110.915 153.559 110.949C153.559 110.949 145.391 110.113 143.059 99.671C141.894 94.477 141.619 85.86 141.621 78.802Z"
        fill="#FFBF9D" />
    <path
        d="M159.945 85.312C159.963 85.665 160.119 85.9968 160.379 86.2365C160.639 86.4762 160.982 86.6049 161.335 86.595C161.508 86.5974 161.679 86.5653 161.84 86.5006C162 86.4359 162.146 86.3399 162.268 86.2182C162.391 86.0965 162.488 85.9516 162.554 85.7919C162.62 85.6321 162.654 85.4608 162.653 85.288C162.635 84.9353 162.479 84.6037 162.22 84.3639C161.961 84.1241 161.618 83.9949 161.265 84.004C161.092 84.0014 160.92 84.0333 160.759 84.0979C160.599 84.1626 160.453 84.2586 160.33 84.3804C160.207 84.5023 160.11 84.6474 160.043 84.8074C159.977 84.9674 159.944 85.1389 159.945 85.312Z"
        fill="#1A2E35" />
    <path
        d="M146.129 86.366C146.148 86.7189 146.303 87.0505 146.563 87.2902C146.823 87.5299 147.166 87.6587 147.519 87.649C147.692 87.6514 147.863 87.6193 148.024 87.5546C148.184 87.4899 148.33 87.3939 148.452 87.2722C148.575 87.1505 148.672 87.0056 148.738 86.8459C148.804 86.6861 148.838 86.5149 148.837 86.342C148.819 85.9893 148.663 85.6577 148.404 85.4179C148.145 85.1781 147.802 85.0489 147.449 85.058C147.276 85.0554 147.104 85.0873 146.944 85.1519C146.783 85.2166 146.637 85.3126 146.514 85.4344C146.391 85.5563 146.294 85.7014 146.228 85.8614C146.161 86.0214 146.128 86.1929 146.129 86.366Z"
        fill="#1A2E35" />
    <path
        d="M143.227 83.374C143.406 83.599 144.542 82.637 146.127 82.645C147.716 82.627 148.868 83.582 149.044 83.356C149.131 83.256 148.95 82.85 148.449 82.418C147.798 81.8691 146.974 81.569 146.123 81.5714C145.271 81.5738 144.449 81.8784 143.801 82.431C143.311 82.868 143.138 83.273 143.227 83.374Z"
        fill="#1A2E35" />
    <path
        d="M157.928 83.016C158.143 83.216 159.245 82.155 160.928 81.992C162.611 81.803 163.937 82.61 164.098 82.37C164.179 82.262 163.946 81.887 163.365 81.52C162.596 81.0534 161.695 80.8517 160.801 80.946C159.914 81.0356 159.081 81.4193 158.437 82.036C157.963 82.513 157.824 82.928 157.928 83.016Z"
        fill="#1A2E35" />
    <path
        d="M153.486 93.661C152.704 93.4692 151.9 93.3759 151.095 93.383C150.721 93.368 150.364 93.316 150.286 93.066C150.23 92.6842 150.293 92.2944 150.465 91.949C150.759 91.0277 151.067 90.061 151.388 89.049C152.662 84.924 153.559 81.541 153.393 81.491C153.227 81.441 152.058 84.744 150.784 88.87C150.479 89.8867 150.187 90.858 149.91 91.784C149.704 92.2473 149.669 92.7682 149.81 93.255C149.872 93.3829 149.963 93.4949 150.075 93.5826C150.187 93.6703 150.317 93.7313 150.456 93.761C150.665 93.8039 150.879 93.82 151.093 93.809C151.894 93.861 152.698 93.8113 153.486 93.661Z"
        fill="#1A2E35" />
    <path
        d="M153.559 110.949C158.53 110.714 163.339 109.103 167.449 106.297C167.449 106.297 164.476 113.757 153.857 113.431L153.559 110.949Z"
        fill="#FF9A6C" />
    <path
        d="M157.834 94.4C157.597 94.4 157.693 95.982 156.41 97.187C155.127 98.392 153.435 98.325 153.437 98.546C153.421 98.646 153.831 98.83 154.543 98.804C155.469 98.7594 156.351 98.3894 157.031 97.759C157.684 97.1531 158.075 96.3173 158.123 95.428C158.142 94.764 157.941 94.384 157.834 94.4Z"
        fill="#1A2E35" />
    <path
        d="M157.375 78.085C157.544 78.472 158.985 78.193 160.705 78.292C162.428 78.356 163.837 78.77 164.041 78.4C164.131 78.224 163.868 77.867 163.287 77.518C162.514 77.0952 161.655 76.8538 160.775 76.8121C159.895 76.7703 159.017 76.9293 158.208 77.277C157.599 77.574 157.303 77.905 157.375 78.085Z"
        fill="#1A2E35" />
    <path
        d="M144.045 78.913C144.358 79.225 145.483 78.813 146.86 78.708C148.233 78.563 149.419 78.771 149.667 78.408C149.774 78.233 149.567 77.908 149.04 77.632C148.317 77.2859 147.513 77.1475 146.716 77.232C145.921 77.2877 145.157 77.5648 144.511 78.032C144.044 78.409 143.905 78.759 144.045 78.913Z"
        fill="#1A2E35" />
    <path
        d="M176.112 69.347C174.941 67.999 173.102 67.479 171.363 67.073C163.854 65.3218 156.163 64.4712 148.452 64.539C147.727 66.224 148.895 68.215 150.474 69.146C152.053 70.077 153.942 70.267 155.732 70.665C157.522 71.063 159.403 71.798 160.338 73.375C161.333 75.053 161 77.251 161.908 78.975C163.473 81.943 167.977 82.34 169.524 85.317C170.694 87.568 169.676 90.282 169.681 92.817C169.681 94.1074 169.957 95.3829 170.49 96.5582C171.023 97.7335 171.801 98.7815 172.771 99.6321C173.741 100.483 174.882 101.117 176.117 101.491C177.352 101.866 178.653 101.972 179.932 101.804C179.193 92.7607 178.453 83.718 177.714 74.676C177.561 72.796 177.351 70.774 176.112 69.347Z"
        fill="#1A2E35" />
    <path
        d="M197.358 89.475C195.764 88.404 193.834 87.555 193.014 85.817C191.821 83.286 193.514 79.879 191.804 77.661C190.248 75.639 186.586 76.261 185.111 74.182C183.959 72.556 184.782 70.858 184.222 69.366C183.794 68.5859 183.131 67.9603 182.328 67.5776C181.525 67.195 180.621 67.0748 179.746 67.234L169.984 86.705C169.684 92.82 168.984 96.151 170.748 99.456C171.844 101.195 172.75 103.048 173.448 104.982C174.005 106.96 173.811 109.318 172.329 110.742C179.729 110.29 186.06 105.494 191.884 100.899L198.048 96.035C198.732 95.5812 199.291 94.9643 199.677 94.24C200.435 92.475 198.953 90.546 197.358 89.475Z"
        fill="#1A2E35" />
    <path
        d="M191.817 99.077C191.574 99.1925 191.319 99.2798 191.056 99.337C190.304 99.5215 189.526 99.575 188.756 99.495C187.525 99.3765 186.346 98.9403 185.334 98.229C183.993 97.2593 183.039 95.8467 182.639 94.241C182.4 93.3129 182.347 92.3465 182.485 91.398C182.68 90.3878 183.009 89.4081 183.463 88.485C183.943 87.5328 184.281 86.5153 184.465 85.465C184.563 84.9269 184.539 84.3738 184.396 83.846C184.252 83.3181 183.993 82.8289 183.637 82.414C182.846 81.614 181.577 81.57 180.365 81.268C179.71 81.1328 179.11 80.8067 178.64 80.331C178.197 79.8087 177.927 79.1621 177.867 78.48C177.844 77.1628 177.944 75.8464 178.167 74.548C178.226 73.9127 178.141 73.2722 177.916 72.675C177.669 72.0917 177.22 71.6171 176.651 71.338C175.434 70.8423 174.107 70.6797 172.807 70.867C171.469 71.0059 170.117 70.8061 168.876 70.286C167.681 69.7586 166.652 68.9154 165.9 67.847C165.245 66.8035 164.758 65.6641 164.455 64.47C164.173 63.3682 163.777 62.2986 163.275 61.278C162.757 60.3521 162.045 59.5486 161.189 58.922C159.768 57.8835 158.053 57.3238 156.293 57.3238C154.532 57.3238 152.817 57.8835 151.396 58.922C150.412 59.6139 149.559 60.4753 148.876 61.466C148.308 62.3244 147.84 63.245 147.482 64.21C147.487 64.1417 147.502 64.0744 147.525 64.01C147.564 63.881 147.607 63.683 147.703 63.437C147.964 62.7103 148.311 62.0174 148.737 61.373C149.408 60.3443 150.262 59.4472 151.256 58.726C152.574 57.7462 154.143 57.1606 155.781 57.037C157.781 56.9165 159.762 57.4808 161.398 58.637C162.303 59.2888 163.057 60.1287 163.607 61.099C164.128 62.1398 164.539 63.232 164.834 64.358C165.13 65.5095 165.602 66.6082 166.234 67.615C166.946 68.6183 167.916 69.4092 169.043 69.903C170.225 70.3948 171.512 70.5802 172.784 70.442C174.16 70.2475 175.563 70.426 176.846 70.959C177.503 71.2851 178.022 71.8356 178.308 72.511C178.558 73.1683 178.654 73.8738 178.59 74.574C178.371 75.848 178.268 77.1394 178.283 78.432C178.332 79.0273 178.563 79.5931 178.945 80.052C179.359 80.4692 179.888 80.7545 180.464 80.872C181.043 81.027 181.654 81.102 182.255 81.263C182.876 81.3981 183.449 81.6991 183.912 82.134C184.309 82.5918 184.599 83.1331 184.759 83.7178C184.919 84.3025 184.945 84.9157 184.836 85.512C184.64 86.599 184.284 87.6509 183.779 88.633C183.33 89.5254 183.002 90.4733 182.803 91.452C182.664 92.3567 182.704 93.2801 182.923 94.169C183.291 95.7157 184.191 97.0841 185.464 98.036C186.435 98.7432 187.571 99.1906 188.764 99.336C189.789 99.4475 190.826 99.3595 191.817 99.077Z"
        fill="#121418" />
    <path
        d="M199.819 85.088C199.966 85.2513 200.077 85.4438 200.144 85.653C200.349 86.2599 200.328 86.9206 200.084 87.513C199.914 87.9457 199.639 88.3295 199.284 88.63C198.852 88.9799 198.33 89.2004 197.778 89.266C197.106 89.347 196.425 89.2418 195.808 88.9617C195.192 88.6816 194.665 88.2376 194.284 87.678C193.839 87.0343 193.552 86.294 193.449 85.518C193.355 84.6832 193.415 83.8384 193.625 83.025C193.984 81.359 194.825 79.667 194.586 77.811C194.558 77.3507 194.438 76.9008 194.231 76.4883C194.025 76.0758 193.738 75.7094 193.386 75.411C192.555 74.9015 191.558 74.7371 190.607 74.953C189.55 75.1828 188.461 75.2221 187.39 75.069C186.82 74.9251 186.309 74.6045 185.932 74.153C185.569 73.7012 185.308 73.1752 185.17 72.612C184.967 71.5265 184.903 70.4197 184.978 69.318C184.996 68.2889 184.794 67.2678 184.386 66.323C183.6 64.5235 182.157 63.0924 180.35 62.323C178.666 61.7472 176.866 61.5934 175.108 61.875C173.534 62.0968 171.935 62.0691 170.369 61.793C168.102 61.2761 166.087 59.9806 164.676 58.132C164.147 57.4767 163.741 56.7315 163.476 55.932C163.854 56.6714 164.299 57.3744 164.806 58.032C165.415 58.7873 166.132 59.4484 166.934 59.994C167.989 60.722 169.179 61.2319 170.434 61.494C171.971 61.742 173.538 61.7498 175.078 61.517C176.894 61.2125 178.758 61.3623 180.502 61.953C182.411 62.7518 183.94 64.2531 184.774 66.147C185.208 67.1432 185.424 68.2206 185.408 69.307C185.335 70.3727 185.396 71.4433 185.588 72.494C185.677 72.994 185.903 73.4595 186.24 73.8393C186.578 74.219 187.013 74.4982 187.499 74.646C188.518 74.7843 189.554 74.7437 190.559 74.526C191.617 74.2988 192.721 74.4959 193.635 75.075C194.031 75.4068 194.354 75.8158 194.587 76.2769C194.819 76.738 194.955 77.2416 194.986 77.757C195.077 78.7078 194.979 79.6671 194.698 80.58C194.46 81.46 194.171 82.286 193.979 83.099C193.771 83.87 193.705 84.6724 193.784 85.467C193.873 86.1929 194.132 86.8877 194.539 87.495C194.885 88.0181 195.367 88.4365 195.934 88.705C196.501 88.9735 197.13 89.0817 197.754 89.018C198.266 88.9676 198.753 88.7746 199.16 88.461C199.497 88.1884 199.762 87.838 199.933 87.44C200.18 86.8829 200.227 86.2576 200.065 85.67C199.941 85.28 199.798 85.1 199.819 85.088Z"
        fill="#1A2E35" />
    <path
        d="M123.238 100.282C123.117 100.933 123.221 101.605 123.533 102.189C123.706 102.526 123.951 102.821 124.252 103.051C124.553 103.281 124.901 103.441 125.272 103.52C125.764 103.593 126.266 103.528 126.723 103.332C127.179 103.136 127.572 102.816 127.857 102.409C128.181 101.934 128.328 101.36 128.272 100.787C128.206 100.154 128.023 99.5388 127.732 98.973C127.169 97.787 126.187 96.549 126.082 94.915C126.023 94.0853 126.138 93.2524 126.419 92.4697C126.701 91.687 127.143 90.9718 127.717 90.37C128.32 89.7345 129.037 89.2182 129.831 88.848C130.647 88.4909 131.506 88.2418 132.387 88.107C133.236 87.9783 134.071 87.7708 134.882 87.487C135.641 87.2161 136.279 86.6845 136.682 85.987C137.028 85.2846 137.17 84.4991 137.091 83.72C137.026 82.9559 136.856 82.2045 136.585 81.487C135.99 80.1483 135.568 78.7393 135.328 77.294C135.219 75.9939 135.502 74.6909 136.138 73.552C136.685 72.6438 137.397 71.8463 138.238 71.201C138.851 70.715 139.427 70.185 139.962 69.615C140.401 69.1166 140.736 68.5351 140.946 67.905C140.953 67.905 140.946 67.951 140.933 68.037C140.911 68.1661 140.878 68.2929 140.833 68.416C140.67 68.8953 140.417 69.3388 140.086 69.722C139.567 70.3201 139.001 70.8752 138.393 71.382C137.59 72.0247 136.912 72.8098 136.393 73.698C135.807 74.7884 135.556 76.0276 135.672 77.26C135.926 78.6722 136.355 80.0474 136.948 81.354C137.236 82.1038 137.419 82.89 137.491 83.69C137.581 84.5489 137.425 85.4157 137.043 86.19C136.595 86.9772 135.883 87.5798 135.032 87.89C134.196 88.1857 133.334 88.4017 132.458 88.535C131.612 88.664 130.787 88.9013 130.002 89.241C129.256 89.5877 128.582 90.0707 128.014 90.665C127.477 91.2236 127.062 91.8878 126.796 92.6153C126.53 93.3429 126.418 94.1179 126.468 94.891C126.546 96.391 127.461 97.578 128.045 98.825C128.349 99.4339 128.535 100.095 128.594 100.773C128.646 101.419 128.469 102.063 128.094 102.592C127.773 103.038 127.332 103.385 126.822 103.592C126.313 103.799 125.756 103.858 125.214 103.763C124.566 103.6 123.996 103.211 123.608 102.667C123.219 102.123 123.037 101.458 123.093 100.792C123.112 100.615 123.161 100.442 123.238 100.282Z"
        fill="#1A2E35" />
    <path
        d="M125.711 141.075C125.711 141.075 126.835 132.081 131.172 127.584C135.509 123.087 153.651 117.456 153.651 117.456C153.651 117.456 154.4 123.872 158.745 125.419C163.354 127.061 168.56 126.444 171.935 122.529C173.989 120.008 175.432 117.046 176.151 113.875C176.151 113.875 197.819 115.869 201.351 121.812C204.883 127.755 209.451 150.772 209.451 150.772L189.192 155.072L191.946 194.723H138.117L139.171 157.513L124.516 159.605L125.711 141.075Z"
        fill="#121418" />
    <path
        d="M185.174 156.381C185.11 156.088 185.086 155.787 185.102 155.487C185.086 154.912 185.079 154.079 185.079 153.052C185.079 150.996 185.112 148.152 185.179 145.022C185.246 141.892 185.33 139.047 185.414 136.992C185.457 135.964 185.499 135.133 185.538 134.558C185.535 134.257 185.572 133.957 185.648 133.666C185.712 133.959 185.736 134.259 185.72 134.558C185.736 135.133 185.744 135.964 185.743 136.993C185.743 139.048 185.71 141.893 185.643 145.027C185.576 148.161 185.492 151.003 185.408 153.059C185.365 154.087 185.323 154.918 185.284 155.492C185.287 155.792 185.25 156.091 185.174 156.381Z"
        fill="#1A2E35" />
    <path
        d="M134.18 140.056C134.304 140.021 135.568 144.041 137.003 149.036C138.438 154.031 139.503 158.11 139.378 158.145C139.253 158.18 137.99 154.16 136.555 149.164C135.12 144.168 134.052 140.095 134.18 140.056Z"
        fill="#1A2E35" />
    <path
        d="M199.087 120.384C199.103 120.467 198.127 120.646 196.648 121.209C192.77 122.693 189.542 125.501 187.534 129.136C186.772 130.522 186.459 131.465 186.379 131.436C186.39 131.201 186.442 130.969 186.532 130.752C186.718 130.143 186.955 129.551 187.242 128.982C188.184 127.088 189.49 125.399 191.086 124.012C192.682 122.624 194.536 121.565 196.542 120.896C197.145 120.692 197.765 120.539 198.394 120.439C198.62 120.381 198.855 120.363 199.087 120.384Z"
        fill="#1A2E35" />
    <path
        d="M130.845 129.401C131.627 131.212 132.116 133.136 132.294 135.101C131.513 133.29 131.024 131.366 130.845 129.401Z"
        fill="#1A2E35" />
    <path
        d="M205.85 151.537C205.85 151.537 199.782 182.351 199.088 184.988C198.394 187.625 197.273 194.722 189.924 196.188C180.004 198.169 141.045 196.788 141.045 196.788L148.394 187.488L182.481 177.93L187.14 155.51L205.85 151.537Z"
        fill="#FFBF9D" />
    <path
        d="M147.75 182.284C147.888 182.502 147.986 182.743 148.041 182.995C148.242 183.665 148.373 184.353 148.432 185.05C148.639 187.376 148.155 189.711 147.04 191.762C146.442 192.89 145.692 193.929 144.81 194.852C144.075 195.606 143.189 196.197 142.21 196.584C141.553 196.837 140.863 196.992 140.161 197.046C139.906 197.081 139.646 197.073 139.394 197.021C140.311 196.855 141.211 196.607 142.083 196.28C142.997 195.87 143.82 195.282 144.505 194.551C145.34 193.641 146.056 192.628 146.634 191.536C147.702 189.555 148.211 187.32 148.106 185.072C148.024 183.343 147.668 182.304 147.75 182.284Z"
        fill="#FF9A6C" />
    <path
        d="M115.129 145.815C115.129 145.815 120.622 164.299 122.902 172.285C125.324 180.772 130.614 200.042 141.896 196.618C150.477 194.018 147.951 182.894 147.951 182.894L139.171 157.513L132.342 158.652L125.711 141.536L115.129 145.815Z"
        fill="#FFBF9D" />
    <path
        d="M144.95 183.692C145.258 182.315 145.258 180.888 144.95 179.511C144.588 178.03 143.969 176.623 143.121 175.356C142.047 173.813 140.858 172.353 139.562 170.991C138.256 169.606 137.061 168.121 135.989 166.549C135.128 165.253 134.378 163.887 133.745 162.465C133.318 161.51 132.951 160.529 132.645 159.528C132.511 159.167 132.421 158.791 132.378 158.409C132.556 158.748 132.702 159.103 132.816 159.469C133.082 160.155 133.472 161.145 134.044 162.326C134.711 163.709 135.479 165.04 136.344 166.308C137.425 167.849 138.616 169.309 139.907 170.678C141.219 172.058 142.414 173.544 143.48 175.122C144.338 176.439 144.945 177.904 145.27 179.442C145.488 180.48 145.501 181.551 145.307 182.594C145.25 182.875 145.172 183.151 145.072 183.42C145.009 183.604 144.966 183.697 144.95 183.692Z"
        fill="#FF9A6C" />
    <path
        d="M125.71 141.536C125.71 141.536 125.749 134.155 125.1 132.073L119.884 120.418C119.884 120.418 118.541 119.594 117.899 121.918C117.267 124.205 119.292 126.631 119.292 126.631L119.451 129.683L117.34 127.966L113.277 120.352C113.277 120.352 110.477 114.808 109.751 115.688C109.025 116.568 109.264 118.35 110.472 120.742L113.212 126.168C113.212 126.168 113.625 127.131 112.187 125.734C110.749 124.337 107.625 117.567 106.979 116.721C106.333 115.875 105.446 113.395 104.045 113.955C102.644 114.515 104.439 117.491 104.439 117.491L108.92 127.53C108.92 127.53 106.32 123.73 105.853 123.087C105.386 122.444 104.304 120.268 103.453 119.161C102.602 118.054 101.673 117.621 101.053 117.888C100.753 117.996 100.505 118.214 100.361 118.499C100.217 118.783 100.187 119.112 100.277 119.418L105.062 127.718C105.062 127.718 107.454 131.442 107.45 131.724C107.446 132.006 105.365 130.494 105.365 130.494L103.359 127.938C103.359 127.938 101.189 124.109 100.05 124.317C98.911 124.525 99.119 125.373 99.119 125.373L103.15 132.344L108.996 139.863L115.249 146.074L118.86 144.91L125.71 141.536Z"
        fill="#FFBF9D" />
    <path
        d="M114.21 140.287C114.397 139.523 114.523 138.745 114.584 137.961C114.76 136.124 115.616 134.419 116.984 133.18C117.667 132.607 118.523 132.281 119.414 132.254H119.714L119.693 131.929C119.601 130.498 119.652 129.136 119.6 128.229C119.572 127.307 119.473 126.755 119.4 126.767C119.306 127.247 119.259 127.736 119.258 128.225C119.155 129.487 119.117 130.753 119.142 132.018L119.42 131.694C118.395 131.695 117.402 132.055 116.615 132.711C115.757 133.403 115.104 134.315 114.725 135.35C114.423 136.173 114.234 137.033 114.164 137.906C114.042 138.696 114.058 139.502 114.21 140.287Z"
        fill="#FF9A6C" />
    <path
        d="M208.601 205.99H125.368C122.686 205.99 120.512 208.164 120.512 210.846V231.208C120.512 233.89 122.686 236.064 125.368 236.064H208.601C211.283 236.064 213.457 233.89 213.457 231.208V210.846C213.457 208.164 211.283 205.99 208.601 205.99Z"
        fill="white" />
    <path
        d="M210.208 236.063C210.208 236.047 210.421 236.063 210.822 235.985C211.416 235.863 211.963 235.576 212.402 235.158C212.755 234.819 213.028 234.405 213.201 233.947C213.374 233.489 213.443 232.998 213.402 232.51C213.402 231.337 213.392 229.986 213.386 228.467C213.377 225.422 213.368 221.701 213.356 217.381C213.352 215.22 213.348 212.913 213.343 210.46C213.366 209.847 213.344 209.232 213.279 208.622C213.153 208.016 212.854 207.46 212.417 207.022C211.965 206.576 211.388 206.276 210.762 206.164C210.1 206.108 209.435 206.092 208.771 206.115L123.764 206.166C123.272 206.167 122.788 206.286 122.351 206.512C121.914 206.738 121.538 207.065 121.253 207.466C120.968 207.864 120.785 208.325 120.718 208.81C120.681 209.313 120.67 209.818 120.684 210.323C120.684 212.373 120.684 214.409 120.684 216.43C120.684 220.472 120.684 224.452 120.684 228.369C120.684 229.347 120.684 230.321 120.684 231.291V232.742C120.668 233.43 120.882 234.103 121.293 234.655C121.704 235.207 122.288 235.605 122.951 235.787C123.399 235.89 123.86 235.928 124.319 235.9H125.735L136.782 235.906L174.999 235.943L200.764 235.999L207.769 236.032L209.591 236.049C210.001 236.054 210.211 236.066 210.211 236.066C210.211 236.066 210.001 236.078 209.591 236.084L207.769 236.101L200.764 236.134L174.999 236.189L136.782 236.226L125.735 236.232H124.319C123.83 236.26 123.34 236.219 122.863 236.109C122.128 235.908 121.481 235.467 121.025 234.857C120.569 234.247 120.33 233.502 120.345 232.74C120.345 232.257 120.345 231.773 120.345 231.289C120.345 230.32 120.345 229.346 120.345 228.367C120.345 224.453 120.345 220.473 120.345 216.428C120.345 214.407 120.345 212.371 120.345 210.321C120.33 209.8 120.342 209.279 120.382 208.759C120.455 208.218 120.66 207.703 120.977 207.259C121.295 206.813 121.715 206.449 122.202 206.197C122.689 205.946 123.229 205.815 123.777 205.815L208.784 205.866C209.462 205.844 210.141 205.864 210.817 205.925C211.482 206.045 212.095 206.362 212.577 206.835C213.058 207.309 213.386 207.916 213.517 208.579C213.584 209.204 213.604 209.833 213.579 210.461C213.574 212.911 213.569 215.218 213.566 217.382C213.554 221.701 213.544 225.422 213.536 228.468C213.53 229.987 213.525 231.339 213.52 232.511C213.549 233.058 213.455 233.605 213.246 234.111C213.062 234.528 212.795 234.902 212.461 235.211C212.01 235.631 211.448 235.912 210.841 236.021C210.688 236.049 210.533 236.064 210.377 236.065C210.261 236.063 210.208 236.063 210.208 236.063Z"
        fill="#1A2E35" />
    <path
        d="M129.787 218.633C129.784 218.293 129.852 217.956 129.985 217.643C130.118 217.331 130.315 217.049 130.562 216.815C130.809 216.581 131.101 216.401 131.421 216.286C131.741 216.17 132.081 216.121 132.42 216.143C132.809 216.124 133.198 216.196 133.555 216.352C133.912 216.508 134.228 216.745 134.479 217.043L133.617 217.823C133.485 217.649 133.314 217.507 133.118 217.41C132.922 217.313 132.707 217.262 132.488 217.262C132.134 217.276 131.799 217.426 131.554 217.681C131.308 217.936 131.171 218.276 131.171 218.63C131.171 218.984 131.308 219.324 131.554 219.579C131.799 219.834 132.134 219.984 132.488 219.998C132.707 219.998 132.922 219.947 133.118 219.85C133.314 219.753 133.485 219.611 133.617 219.437L134.479 220.217C134.228 220.515 133.912 220.752 133.555 220.908C133.198 221.064 132.809 221.136 132.42 221.117C132.081 221.139 131.742 221.09 131.422 220.975C131.103 220.86 130.811 220.68 130.564 220.447C130.317 220.214 130.121 219.933 129.987 219.621C129.853 219.309 129.785 218.973 129.787 218.633Z"
        fill="#1A2E35" />
    <path
        d="M134.983 218.893V216.239H136.338V218.852C136.338 219.673 136.68 220.001 137.247 220.001C137.814 220.001 138.147 219.673 138.147 218.852V216.239H139.481V218.893C139.464 219.478 139.219 220.033 138.799 220.441C138.379 220.849 137.816 221.077 137.231 221.077C136.646 221.077 136.083 220.849 135.663 220.441C135.243 220.033 134.998 219.478 134.981 218.893H134.983Z"
        fill="#1A2E35" />
    <path
        d="M142.493 219.755H141.754V221.027H140.4V216.239H142.588C143.895 216.239 144.715 216.916 144.715 218.01C144.727 218.327 144.645 218.64 144.478 218.909C144.311 219.179 144.067 219.392 143.778 219.522L144.81 221.022H143.36L142.493 219.755ZM142.506 217.306H141.754V218.706H142.506C143.067 218.706 143.348 218.446 143.348 218.006C143.348 217.566 143.07 217.306 142.506 217.306Z"
        fill="#1A2E35" />
    <path
        d="M147.552 219.755H146.813V221.027H145.459V216.239H147.648C148.954 216.239 149.775 216.916 149.775 218.01C149.787 218.327 149.705 218.64 149.538 218.909C149.371 219.179 149.127 219.392 148.838 219.522L149.871 221.022H148.421L147.552 219.755ZM147.565 217.306H146.812V218.706H147.565C148.126 218.706 148.406 218.446 148.406 218.006C148.406 217.566 148.126 217.306 147.566 217.306H147.565Z"
        fill="#1A2E35" />
    <path
        d="M154.363 219.98V221.026H150.519V216.238H154.274V217.284H151.863V218.091H153.99V219.106H151.863V219.982L154.363 219.98Z"
        fill="#1A2E35" />
    <path
        d="M159.669 216.239V221.027H158.554L156.441 218.476V221.027H155.114V216.239H156.229L158.343 218.79V216.239H159.669Z"
        fill="#1A2E35" />
    <path d="M161.646 217.312H160.175V216.239H164.463V217.312H162.999V221.026H161.646V217.312Z"
        fill="#1A2E35" />
    <path d="M166.957 216.239H168.312V219.953H170.596V221.027H166.957V216.239Z" fill="#1A2E35" />
    <path
        d="M170.807 218.633C170.771 218.099 170.897 217.567 171.168 217.106C171.439 216.644 171.843 216.275 172.326 216.046C172.81 215.817 173.351 215.738 173.879 215.821C174.408 215.903 174.9 216.143 175.29 216.509C175.681 216.874 175.953 217.349 176.07 217.871C176.188 218.393 176.145 218.938 175.949 219.436C175.752 219.933 175.41 220.36 174.968 220.661C174.526 220.962 174.003 221.123 173.468 221.123C173.127 221.145 172.786 221.097 172.464 220.982C172.143 220.867 171.848 220.687 171.599 220.454C171.35 220.22 171.151 219.938 171.014 219.625C170.878 219.312 170.808 218.974 170.807 218.633ZM174.761 218.633C174.747 218.38 174.659 218.137 174.508 217.934C174.357 217.731 174.15 217.577 173.913 217.49C173.675 217.403 173.417 217.388 173.171 217.446C172.925 217.504 172.701 217.633 172.527 217.816C172.353 218 172.237 218.231 172.193 218.48C172.149 218.729 172.179 218.986 172.279 219.218C172.379 219.451 172.545 219.649 172.756 219.788C172.968 219.927 173.215 220.001 173.468 220.001C173.645 220.003 173.82 219.968 173.983 219.899C174.145 219.83 174.292 219.728 174.413 219.599C174.535 219.471 174.628 219.319 174.688 219.153C174.748 218.986 174.773 218.809 174.761 218.633Z"
        fill="#1A2E35" />
    <path
        d="M176.592 218.633C176.589 218.293 176.657 217.956 176.79 217.643C176.923 217.331 177.12 217.049 177.367 216.815C177.614 216.581 177.906 216.401 178.226 216.286C178.546 216.17 178.886 216.121 179.225 216.143C179.614 216.124 180.003 216.196 180.36 216.352C180.717 216.508 181.033 216.745 181.284 217.043L180.422 217.823C180.29 217.649 180.12 217.507 179.924 217.41C179.728 217.313 179.513 217.262 179.294 217.262C178.94 217.276 178.605 217.426 178.36 217.681C178.114 217.936 177.977 218.276 177.977 218.63C177.977 218.984 178.114 219.324 178.36 219.579C178.605 219.834 178.94 219.984 179.294 219.998C179.513 219.998 179.728 219.947 179.924 219.85C180.12 219.753 180.29 219.611 180.422 219.437L181.284 220.217C181.033 220.515 180.717 220.752 180.36 220.908C180.003 221.064 179.614 221.136 179.225 221.117C178.886 221.139 178.547 221.09 178.227 220.975C177.908 220.86 177.616 220.68 177.369 220.447C177.122 220.214 176.926 219.933 176.792 219.621C176.658 219.309 176.59 218.973 176.592 218.633Z"
        fill="#1A2E35" />
    <path
        d="M185.011 220.096H182.986L182.61 221.027H181.228L183.341 216.239H184.671L186.791 221.027H185.381L185.011 220.096ZM184.611 219.096L183.996 217.564L183.38 219.096H184.611Z"
        fill="#1A2E35" />
    <path
        d="M187.957 217.312H186.486V216.239H190.774V217.312H189.31V221.026H187.956L187.957 217.312Z"
        fill="#1A2E35" />
    <path d="M191.28 216.239H192.634V221.027H191.28V216.239Z" fill="#1A2E35" />
    <path
        d="M193.352 218.633C193.316 218.099 193.442 217.567 193.713 217.105C193.984 216.644 194.388 216.275 194.871 216.046C195.355 215.817 195.896 215.738 196.425 215.821C196.954 215.904 197.445 216.143 197.836 216.509C198.226 216.875 198.498 217.349 198.615 217.871C198.733 218.393 198.69 218.939 198.493 219.436C198.297 219.934 197.955 220.361 197.512 220.662C197.07 220.962 196.547 221.123 196.012 221.123C195.671 221.145 195.33 221.097 195.008 220.982C194.687 220.866 194.393 220.687 194.144 220.453C193.894 220.22 193.695 219.938 193.559 219.625C193.423 219.312 193.353 218.974 193.352 218.633ZM197.305 218.633C197.291 218.38 197.203 218.137 197.052 217.934C196.901 217.731 196.694 217.577 196.457 217.49C196.219 217.403 195.961 217.388 195.715 217.446C195.469 217.504 195.245 217.633 195.071 217.816C194.897 218 194.781 218.231 194.737 218.48C194.693 218.729 194.723 218.986 194.823 219.218C194.923 219.451 195.089 219.649 195.3 219.788C195.512 219.927 195.759 220.001 196.012 220.001C196.189 220.003 196.364 219.968 196.527 219.899C196.689 219.83 196.836 219.728 196.957 219.599C197.079 219.471 197.172 219.319 197.232 219.153C197.292 218.986 197.317 218.809 197.305 218.633Z"
        fill="#1A2E35" />
    <path
        d="M203.937 216.239V221.027H202.822L200.709 218.476V221.027H199.382V216.239H200.497L202.61 218.79V216.239H203.937Z"
        fill="#1A2E35" />
    <path
        d="M140.237 226.62C140.267 226.13 140.44 225.659 140.735 225.266C141.031 224.873 141.435 224.576 141.898 224.411C142.361 224.246 142.862 224.221 143.339 224.339C143.816 224.456 144.248 224.712 144.581 225.073L143.905 225.697C143.766 225.528 143.591 225.393 143.393 225.301C143.195 225.208 142.979 225.162 142.76 225.164C142.374 225.164 142.003 225.317 141.73 225.591C141.457 225.864 141.304 226.234 141.304 226.621C141.304 227.007 141.457 227.377 141.73 227.65C142.003 227.924 142.374 228.077 142.76 228.077C142.979 228.08 143.196 228.032 143.394 227.939C143.593 227.846 143.767 227.709 143.905 227.538L144.581 228.162C144.25 228.526 143.818 228.784 143.341 228.903C142.863 229.023 142.361 228.999 141.897 228.835C141.433 228.67 141.028 228.372 140.733 227.978C140.438 227.585 140.265 227.111 140.237 226.62Z"
        fill="#E1E1E1" />
    <path d="M145.287 224.344H146.341V228.897H145.287V224.344Z" fill="#E1E1E1" />
    <path
        d="M148.362 225.202H146.905V224.344H150.872V225.202H149.416V228.897H148.363L148.362 225.202Z"
        fill="#E1E1E1" />
    <path
        d="M153.536 227.284V228.897H152.483V227.271L150.72 224.345H151.839L153.055 226.367L154.271 224.345H155.305L153.536 227.284Z"
        fill="#E1E1E1" />
    <path
        d="M156.441 228.311C156.432 228.538 156.372 228.76 156.265 228.961L155.894 229.898H155.254L155.54 228.864C155.431 228.82 155.339 228.743 155.276 228.644C155.213 228.545 155.183 228.428 155.189 228.311C155.195 228.149 155.264 227.996 155.381 227.883C155.498 227.771 155.654 227.708 155.817 227.708C155.979 227.708 156.135 227.771 156.252 227.883C156.369 227.996 156.438 228.149 156.444 228.311H156.441Z"
        fill="#E1E1E1" />
    <path
        d="M158.753 226.62C158.783 226.13 158.956 225.659 159.251 225.266C159.547 224.873 159.951 224.576 160.414 224.411C160.877 224.246 161.378 224.221 161.855 224.339C162.332 224.456 162.764 224.712 163.097 225.073L162.421 225.697C162.282 225.528 162.107 225.393 161.909 225.301C161.711 225.209 161.495 225.162 161.276 225.164C160.89 225.164 160.519 225.317 160.246 225.591C159.973 225.864 159.819 226.234 159.819 226.621C159.819 227.007 159.973 227.377 160.246 227.65C160.519 227.924 160.89 228.077 161.276 228.077C161.495 228.079 161.712 228.032 161.91 227.939C162.109 227.845 162.283 227.708 162.421 227.538L163.097 228.162C162.766 228.526 162.334 228.784 161.857 228.903C161.379 229.023 160.877 228.999 160.413 228.835C159.949 228.67 159.544 228.372 159.249 227.978C158.954 227.585 158.781 227.111 158.753 226.62Z"
        fill="#E1E1E1" />
    <path
        d="M163.419 226.62C163.391 226.121 163.513 225.626 163.769 225.197C164.026 224.769 164.405 224.427 164.858 224.216C165.311 224.006 165.817 223.936 166.31 224.016C166.803 224.096 167.261 224.323 167.624 224.666C167.987 225.009 168.238 225.453 168.346 225.94C168.454 226.428 168.413 226.937 168.228 227.401C168.044 227.865 167.724 228.263 167.311 228.544C166.897 228.824 166.409 228.974 165.91 228.974C165.59 228.992 165.269 228.945 164.967 228.835C164.666 228.725 164.39 228.555 164.157 228.334C163.924 228.114 163.738 227.848 163.611 227.553C163.484 227.259 163.419 226.941 163.419 226.62ZM167.334 226.62C167.328 226.34 167.239 226.067 167.078 225.837C166.918 225.607 166.693 225.429 166.432 225.326C166.171 225.223 165.886 225.2 165.612 225.258C165.337 225.317 165.086 225.455 164.89 225.656C164.694 225.857 164.562 226.111 164.509 226.386C164.457 226.662 164.487 226.947 164.596 227.205C164.705 227.464 164.888 227.684 165.121 227.839C165.355 227.994 165.629 228.077 165.91 228.077C166.101 228.082 166.291 228.048 166.469 227.976C166.646 227.904 166.807 227.796 166.94 227.66C167.074 227.523 167.178 227.36 167.246 227.181C167.314 227.002 167.344 226.811 167.334 226.62Z"
        fill="#E1E1E1" />
    <path
        d="M169.152 226.897V224.348H170.206V226.858C170.206 227.722 170.583 228.08 171.22 228.08C171.857 228.08 172.234 227.722 172.234 226.858V224.348H173.275V226.897C173.281 227.172 173.232 227.445 173.131 227.7C173.03 227.955 172.88 228.188 172.688 228.384C172.495 228.581 172.266 228.737 172.013 228.843C171.76 228.95 171.488 229.004 171.214 229.004C170.939 229.004 170.667 228.95 170.414 228.843C170.161 228.737 169.932 228.581 169.739 228.384C169.547 228.188 169.397 227.955 169.296 227.7C169.195 227.445 169.146 227.172 169.152 226.897Z"
        fill="#E1E1E1" />
    <path
        d="M178.491 224.344V228.897H177.626L175.357 226.133V228.897H174.317V224.345H175.188L177.451 227.109V224.345L178.491 224.344Z"
        fill="#E1E1E1" />
    <path d="M180.507 225.202H179.047V224.344H183.013V225.202H181.557V228.897H180.507V225.202Z"
        fill="#E1E1E1" />
    <path
        d="M186.48 228.897L185.606 227.628H184.637V228.897H183.583V224.345H185.553C186.769 224.345 187.531 224.976 187.531 225.997C187.543 226.304 187.46 226.608 187.292 226.865C187.124 227.122 186.88 227.321 186.594 227.434L187.616 228.897H186.48ZM185.492 225.203H184.634V226.789H185.492C186.136 226.789 186.461 226.489 186.461 225.996C186.461 225.503 186.136 225.203 185.492 225.203Z"
        fill="#E1E1E1" />
    <path
        d="M190.477 227.284V228.897H189.424V227.271L187.662 224.345H188.781L189.997 226.367L191.213 224.345H192.247L190.477 227.284Z"
        fill="#E1E1E1" />
</svg>
