<svg height="200.237" viewBox="0 0 211.912 200.237" width="211.912"
    xmlns="http://www.w3.org/2000/svg">
    <g data-name="Group 8657" id="Group_8657" transform="translate(-171.538 -1362.277)">
        <g data-name="Group 8655" id="Group_8655" transform="translate(213.079 1362.277)">
            <g data-name="Group 8650" id="Group_8650" transform="translate(0)">
                <g data-name="Group 8649" id="Group_8649">
                    <path
                        d="M437.549,1400.882c-3.173-.665-6.373-.312-9.56-.359-1.363-.019-1.906-.419-1.981-1.854a39.9,39.9,0,0,0-.8-5.642c-4.93-24.849-34.089-38.453-56.237-26.149-12.495,6.944-19.464,17.643-20.692,31.948-.119,1.377-.668,1.73-1.9,1.7-2.177-.05-4.356-.055-6.533.006-10.3.3-18.8,9.764-17.629,19.748.571,4.85,1.44,9.667,2.169,14.5,1.7,11.278,3.479,22.543,5.057,33.838.806,5.785,2.533,10.964,7.363,14.691,3.8,2.933,8.177,3.857,12.829,3.865q18.776.025,37.551.005c12.586,0,25.169.047,37.755-.014,10.98-.052,17.853-5.752,19.58-16.542,2.593-16.225,4.9-32.491,7.419-48.727A18.455,18.455,0,0,0,437.549,1400.882Zm-86.033,8.964a3.387,3.387,0,1,1,3.388-3.388A3.386,3.386,0,0,1,351.516,1409.846Zm62.384,35.493a4.443,4.443,0,0,1-1.415,2.163,4.634,4.634,0,0,1-2.982,1.043H387.428a4.434,4.434,0,0,1-4.4-4.958,4.5,4.5,0,0,1,4.508-3.9h17.2l-.513-1.46a18,18,0,0,0-4.552-7.03,17.725,17.725,0,0,0-12.241-4.886c-.326,0-.659.011-.988.03a17.929,17.929,0,0,0-16.8,16.81,17.8,17.8,0,0,0,17.778,18.766h21.721a4.751,4.751,0,0,1,4.751,4.751,4.1,4.1,0,0,1-4.1,4.1H387.428a26.649,26.649,0,0,1-26.618-28.08A26.881,26.881,0,0,1,386,1417.507c.483-.025.966-.042,1.44-.042a26.66,26.66,0,0,1,26.463,23.563Zm1.3-44.843H387.059c-10.062,0-20.12-.028-30.179.03-1.589.011-2.066-.359-1.964-2.052.839-14.1,12.691-27.062,26.778-29.15,18.1-2.679,33.827,8.387,37.4,26.317C420.057,1400.5,420.057,1400.5,415.2,1400.5Zm7.78,10.194a3.386,3.386,0,1,1,3.385-3.385A3.386,3.386,0,0,1,422.982,1410.69Z"
                        data-name="Path 7538" fill="#55AE7B" id="Path_7538"
                        transform="translate(-322.111 -1362.277)" />
                </g>
            </g>
            <g data-name="Group 8654" id="Group_8654" transform="translate(27.783 42.559)">
                <g data-name="Group 8653" id="Group_8653">
                    <g data-name="Group 8651" id="Group_8651">
                        <circle cx="1.623" cy="1.623" data-name="Ellipse 84" fill="#55AE7B"
                            id="Ellipse_84" r="1.623" />
                    </g>
                    <g data-name="Group 8652" id="Group_8652" transform="translate(71.464 0.845)">
                        <circle cx="1.623" cy="1.623" data-name="Ellipse 85" fill="#55AE7B"
                            id="Ellipse_85" r="1.623" />
                    </g>
                </g>
            </g>
        </g>
        <g data-name="Group 8656" id="Group_8656" transform="translate(171.538 1511.47)">
            <path
                d="M187.563,1999.6a18.9,18.9,0,0,1-8.289-1.727,13.952,13.952,0,0,1-5.664-4.8,12.6,12.6,0,0,1-2.072-7.218v-6.562a12.073,12.073,0,0,1,1.968-6.7,14.724,14.724,0,0,1,5.215-4.87,14.38,14.38,0,0,1,7.184-1.83,14.556,14.556,0,0,1,6.838,1.623,13.18,13.18,0,0,1,5.008,4.525,11.833,11.833,0,0,1,1.9,6.631,7.278,7.278,0,0,1-.9,4.144,3.653,3.653,0,0,1-2.349,1.52,16.177,16.177,0,0,1-3.039.276H178.791v1.589a6.688,6.688,0,0,0,2.521,5.491,9.944,9.944,0,0,0,6.458,2.038,9.574,9.574,0,0,0,3.937-.691,25.537,25.537,0,0,0,2.556-1.312,3.8,3.8,0,0,1,1.934-.622,2.209,2.209,0,0,1,1.52.553,3.911,3.911,0,0,1,.967,1.312,3.39,3.39,0,0,1,.345,1.382,3.342,3.342,0,0,1-1.416,2.279,11.637,11.637,0,0,1-3.972,2.107A19.074,19.074,0,0,1,187.563,1999.6Zm-8.772-19.478h11.466a3.486,3.486,0,0,0,2.038-.415,2.064,2.064,0,0,0,.518-1.658,6.594,6.594,0,0,0-.9-3.35,6.288,6.288,0,0,0-2.487-2.417,7.408,7.408,0,0,0-3.592-.864,7.5,7.5,0,0,0-3.523.829,6.782,6.782,0,0,0-2.556,2.279,5.957,5.957,0,0,0-.967,3.385Z"
                data-name="Path 7539" fill="#55AE7B" id="Path_7539"
                transform="translate(-171.538 -1948.554)" />
            <path
                d="M311.439,1953.957a19.607,19.607,0,0,1-7.909-1.52,11.856,11.856,0,0,1-5.526-4.9,17.282,17.282,0,0,1-2.038-8.979v-20.1a17.285,17.285,0,0,1,2.038-8.98,11.867,11.867,0,0,1,5.526-4.9,19.085,19.085,0,0,1,7.7-1.519,19.84,19.84,0,0,1,8.22,1.588,13.28,13.28,0,0,1,5.526,4.421,11.422,11.422,0,0,1,2,6.769,3.4,3.4,0,0,1-.932,2.8,4.379,4.379,0,0,1-2.728.725,5.731,5.731,0,0,1-2.521-.518,2.039,2.039,0,0,1-1.14-1.9,11.978,11.978,0,0,0-.967-3.7,5.855,5.855,0,0,0-2.487-2.694,9.542,9.542,0,0,0-4.766-1,8.168,8.168,0,0,0-6.044,2.176q-2.176,2.175-2.176,6.735v20.1q0,4.559,2.176,6.734a9.434,9.434,0,0,0,12.053,0q2.21-2.176,2.21-6.734v-5.664h-6.976a1.983,1.983,0,0,1-1.727-.9,3.547,3.547,0,0,1-.622-2.072,3.493,3.493,0,0,1,.622-1.969,1.965,1.965,0,0,1,1.727-.932h11.88a2.236,2.236,0,0,1,1.8.725,2.615,2.615,0,0,1,.622,1.761v9.049a17.053,17.053,0,0,1-2.072,8.979,12.02,12.02,0,0,1-5.6,4.9A19.675,19.675,0,0,1,311.439,1953.957Z"
                data-name="Path 7540" fill="#55AE7B" id="Path_7540"
                transform="translate(-261.639 -1903.051)" />
            <path
                d="M436.94,1999.046a4.046,4.046,0,0,1-2.521-.76,2.114,2.114,0,0,1-1-1.658v-27.974a1.961,1.961,0,0,1,1-1.692,4.512,4.512,0,0,1,2.521-.656,4.087,4.087,0,0,1,2.348.656,1.976,1.976,0,0,1,.967,1.692v3.039a11.835,11.835,0,0,1,2.038-2.763,11.068,11.068,0,0,1,3-2.176,8.224,8.224,0,0,1,3.73-.863h2.21a2.519,2.519,0,0,1,1.934.933,3.263,3.263,0,0,1,.829,2.245,3.39,3.39,0,0,1-.829,2.279,2.484,2.484,0,0,1-1.934.967h-2.21a7.309,7.309,0,0,0-4.006,1.243,9.258,9.258,0,0,0-3.143,3.488,11.294,11.294,0,0,0-1.209,5.422v14.16a2.1,2.1,0,0,1-1.071,1.658A4.475,4.475,0,0,1,436.94,1999.046Z"
                data-name="Path 7541" fill="#55AE7B" id="Path_7541"
                transform="translate(-361.168 -1948.554)" />
            <path
                d="M528.941,1999.6a13.391,13.391,0,0,1-6.976-1.934,15.272,15.272,0,0,1-5.215-5.077,12.462,12.462,0,0,1-1.968-6.734V1979.5a12.735,12.735,0,0,1,1.9-6.769,14.524,14.524,0,0,1,19.444-4.973,15.025,15.025,0,0,1,5.215,4.9,12.309,12.309,0,0,1,1.968,6.838v6.355a12.52,12.52,0,0,1-1.968,6.7,15.082,15.082,0,0,1-5.25,5.111A13.826,13.826,0,0,1,528.941,1999.6Zm.069-6.424a6.318,6.318,0,0,0,3.523-1.036,7.865,7.865,0,0,0,2.556-2.729,7.069,7.069,0,0,0,.967-3.557V1979.5a6.7,6.7,0,0,0-.967-3.488,8.08,8.08,0,0,0-2.556-2.659,6.433,6.433,0,0,0-3.592-1.036,6.147,6.147,0,0,0-3.488,1.036,7.865,7.865,0,0,0-2.487,2.659,6.889,6.889,0,0,0-.932,3.488v6.355a7.266,7.266,0,0,0,.932,3.557,7.55,7.55,0,0,0,2.521,2.729A6.314,6.314,0,0,0,529.01,1993.175Z"
                data-name="Path 7542" fill="#55AE7B" id="Path_7542"
                transform="translate(-420.085 -1948.554)" />
            <path
                d="M651.143,1999.6a16.626,16.626,0,0,1-8.185-1.8,11.164,11.164,0,0,1-4.732-4.9,15.833,15.833,0,0,1-1.52-7.045v-6.217a15.894,15.894,0,0,1,1.52-7.011,11.174,11.174,0,0,1,4.7-4.939,16.277,16.277,0,0,1,8.082-1.8,18.355,18.355,0,0,1,5.561.76,10.86,10.86,0,0,1,3.73,1.9,3.184,3.184,0,0,1,1.347,2.383,3.817,3.817,0,0,1-.38,1.485,4.164,4.164,0,0,1-1.036,1.45,2.256,2.256,0,0,1-1.554.587,2.637,2.637,0,0,1-1.485-.552,10.507,10.507,0,0,0-2.107-1.071,9.82,9.82,0,0,0-3.523-.518q-3.869,0-5.733,1.934a7.442,7.442,0,0,0-1.865,5.388v6.217a7.438,7.438,0,0,0,1.865,5.387q1.865,1.935,5.8,1.934a8.97,8.97,0,0,0,3.592-.587,13.1,13.1,0,0,0,2.107-1.14,2.656,2.656,0,0,1,3.246,0,3.6,3.6,0,0,1,1.105,1.381,3.7,3.7,0,0,1,.38,1.52,3.4,3.4,0,0,1-1.416,2.417,10.9,10.9,0,0,1-3.868,2.038A18.291,18.291,0,0,1,651.143,1999.6Z"
                data-name="Path 7543" fill="#55AE7B" id="Path_7543"
                transform="translate(-508.373 -1948.554)" />
            <path
                d="M757.636,1999.6a18.9,18.9,0,0,1-8.289-1.727,13.951,13.951,0,0,1-5.664-4.8,12.6,12.6,0,0,1-2.072-7.218v-6.562a12.073,12.073,0,0,1,1.968-6.7,14.722,14.722,0,0,1,5.215-4.87,14.379,14.379,0,0,1,7.184-1.83,14.555,14.555,0,0,1,6.838,1.623,13.178,13.178,0,0,1,5.008,4.525,11.834,11.834,0,0,1,1.9,6.631,7.279,7.279,0,0,1-.9,4.144,3.654,3.654,0,0,1-2.349,1.52,16.172,16.172,0,0,1-3.039.276H748.864v1.589a6.689,6.689,0,0,0,2.521,5.491,9.944,9.944,0,0,0,6.458,2.038,9.574,9.574,0,0,0,3.937-.691,25.581,25.581,0,0,0,2.556-1.312,3.8,3.8,0,0,1,1.934-.622,2.209,2.209,0,0,1,1.52.553,3.911,3.911,0,0,1,.967,1.312,3.391,3.391,0,0,1,.345,1.382,3.342,3.342,0,0,1-1.416,2.279,11.634,11.634,0,0,1-3.971,2.107A19.077,19.077,0,0,1,757.636,1999.6Zm-8.772-19.478h11.466a3.486,3.486,0,0,0,2.038-.415,2.064,2.064,0,0,0,.518-1.658,6.594,6.594,0,0,0-.9-3.35,6.288,6.288,0,0,0-2.487-2.417,7.407,7.407,0,0,0-3.592-.864,7.5,7.5,0,0,0-3.523.829,6.779,6.779,0,0,0-2.556,2.279,5.957,5.957,0,0,0-.967,3.385Z"
                data-name="Path 7544" fill="#55AE7B" id="Path_7544"
                transform="translate(-584.335 -1948.554)" />
            <path
                d="M868.561,1999.046a4.046,4.046,0,0,1-2.521-.76,2.114,2.114,0,0,1-1-1.658v-27.974a1.96,1.96,0,0,1,1-1.692,4.512,4.512,0,0,1,2.521-.656,4.089,4.089,0,0,1,2.348.656,1.975,1.975,0,0,1,.967,1.692v3.039a11.835,11.835,0,0,1,2.038-2.763,11.068,11.068,0,0,1,3-2.176,8.225,8.225,0,0,1,3.73-.863h2.21a2.519,2.519,0,0,1,1.934.933,3.263,3.263,0,0,1,.829,2.245,3.39,3.39,0,0,1-.829,2.279,2.484,2.484,0,0,1-1.934.967h-2.21a7.31,7.31,0,0,0-4.006,1.243,9.258,9.258,0,0,0-3.143,3.488,11.294,11.294,0,0,0-1.209,5.422v14.16a2.1,2.1,0,0,1-1.07,1.658A4.476,4.476,0,0,1,868.561,1999.046Z"
                data-name="Path 7545" fill="#55AE7B" id="Path_7545"
                transform="translate(-673.71 -1948.554)" />
        </g>
    </g>
</svg>
