<svg height="24" viewBox="0 0 24 24" width="24" xmlns="http://www.w3.org/2000/svg">
    <g id="logout_icon" transform="translate(-2205 -9049)">
        <rect data-name="Rectangle 17557" fill="none" height="24" id="Rectangle_17557"
            transform="translate(2205 9049)" width="24" />
        <g data-name="Group 8484" id="Group_8484" transform="translate(2092.996 8922.012)">
            <path
                d="M123.735,141.988a1,1,0,0,0-1.011,1v3a3.017,3.017,0,0,1-3.034,3h-2.5a3.017,3.017,0,0,1-3.034-3v-14a3.017,3.017,0,0,1,3.034-3h2.5a3.017,3.017,0,0,1,3.034,3v3a1.011,1.011,0,1,0,2.023,0v-3a5.034,5.034,0,0,0-5.056-5h-2.5a5.034,5.034,0,0,0-5.056,5v14a5.035,5.035,0,0,0,5.056,5h2.5a5.035,5.035,0,0,0,5.056-5v-3a1,1,0,0,0-1.012-1Z"
                data-name="Path 7177" fill="#121418" id="Path_7177" />
            <path
                d="M135.2,136.828l-4.638-4.549a1.024,1.024,0,0,0-1.43-.025.979.979,0,0,0-.025,1.4l.025.025,4.31,4.229-15.3.03a.992.992,0,1,0,0,1.984h0l15.36-.031-4.372,4.289a.979.979,0,0,0-.025,1.4,1.025,1.025,0,0,0,1.43.024l.025-.024,4.638-4.549a2.936,2.936,0,0,0,0-4.2Z"
                data-name="Path 7178" fill="#121418" id="Path_7178"
                transform="translate(-0.212 0.056)" />
        </g>
    </g>
</svg>
