<svg height="24" viewBox="0 0 24 24" width="24" xmlns="http://www.w3.org/2000/svg">
    <g id="mail_icon" transform="translate(-2439 -9049)">
        <rect data-name="Rectangle 17563" fill="none" height="24" id="Rectangle_17563"
            transform="translate(2439 9049)" width="24" />
        <path
            d="M19,1H5A5.006,5.006,0,0,0,0,6V18a5.006,5.006,0,0,0,5,5H19a5.006,5.006,0,0,0,5-5V6a5.006,5.006,0,0,0-5-5ZM5,3H19a3,3,0,0,1,2.78,1.887l-7.658,7.659a3.007,3.007,0,0,1-4.244,0L2.22,4.887A3,3,0,0,1,5,3ZM19,21H5a3,3,0,0,1-3-3V7.5l6.464,6.46a5.007,5.007,0,0,0,7.072,0L22,7.5V18A3,3,0,0,1,19,21Z"
            data-name="mail_icon" id="mail_icon-2" transform="translate(2439 9049)" />
    </g>
</svg>
