<svg height="92.518" viewBox="0 0 65.617 92.518" width="65.617" xmlns="http://www.w3.org/2000/svg">
    <g id="no_address_icon" transform="translate(-110.831 -53.799)">
        <path
            d="M146.478,53.8a.509.509,0,0,1,.079.006,39.8,39.8,0,0,1,6.542,1.38c12.61,4.322,20.447,12.932,22.816,26.1,1.664,9.25-.61,17.725-6.231,25.264a25,25,0,0,1-3.358,3.712,79.393,79.393,0,0,0-11.809,12.873,55.869,55.869,0,0,0-8.314,16.635c-.616,2.073-1.333,4.116-2.041,6.212a.5.5,0,0,1-.954-.051l0-.011a76.741,76.741,0,0,0-4.438-13.482A60.221,60.221,0,0,0,128.551,117.1c-2.408-2.634-5.191-4.853-7.764-7.3a30.611,30.611,0,0,1-9.512-17.95c-1.778-11.834,1.794-21.929,10.563-30.051A29.858,29.858,0,0,1,139.6,53.916a3.4,3.4,0,0,0,.471-.1.5.5,0,0,1,.119-.014Zm-2.827,51.252A18.516,18.516,0,1,0,125.1,86.5,18.473,18.473,0,0,0,143.651,105.051Z"
            data-name="Path 7528" fill="#55AE7B" id="Path_7528" transform="translate(0)" />
    </g>
</svg>
