<svg height="82.851" viewBox="0 0 92.919 82.851" width="92.919" xmlns="http://www.w3.org/2000/svg">
    <g id="no_internet_icon" transform="translate(0 0)">
        <path
            d="M72,160.847a19.509,19.509,0,0,1,4.157-4.25,61.967,61.967,0,0,1,12.14-8.32,2.993,2.993,0,0,1,4.141,4.023,3.1,3.1,0,0,1-1.36,1.286,60.472,60.472,0,0,0-14.016,10.319c-1.666,1.627-3.649,1.18-5.061-1.064Z"
            data-name="Path 7519" fill="#55AE7B" id="Path_7519"
            transform="translate(-72 -130.649)" />
        <path
            d="M134.759,94.724c1.721,1.726,3.329,3.32,4.913,4.939a1.472,1.472,0,0,0,1.434.3,52.18,52.18,0,0,1,5.582-.545c15.112-.577,28.065,4.474,38.972,14.892a3.114,3.114,0,0,1,1.153,2.811,2.832,2.832,0,0,1-1.96,2.4,2.925,2.925,0,0,1-3.174-.725,47.919,47.919,0,0,0-5.74-4.851,45.679,45.679,0,0,0-21.311-8.263,53.891,53.891,0,0,0-7.413-.322,4.315,4.315,0,0,0-1.443.212c.055.412.411.582.65.825,1.636,1.655,3.288,3.293,4.928,4.943a1.906,1.906,0,0,0,1.253.624,39.029,39.029,0,0,1,21.087,8.35,33.458,33.458,0,0,1,3.386,3.007,3.006,3.006,0,0,1,.086,4.307,2.924,2.924,0,0,1-4.291-.059,34.165,34.165,0,0,0-12.74-7.938.6.6,0,0,0-.453.009c.21.217.416.437.629.65Q173.415,133.4,186.53,146.5a3.1,3.1,0,0,1,1.072,3.324,2.967,2.967,0,0,1-4.623,1.527,7.675,7.675,0,0,1-.869-.793Q147.976,116.426,113.841,82.3a3.307,3.307,0,0,1-1.267-3.112,2.81,2.81,0,0,1,2.052-2.316,2.961,2.961,0,0,1,3.077.811c3.751,3.77,7.536,7.506,11.261,11.3a1.817,1.817,0,0,0,2.13.523,61.117,61.117,0,0,1,21.484-2.513,63.966,63.966,0,0,1,38.767,15.653c1.123.962,2.193,1.989,3.249,3.026a3,3,0,0,1,.16,4.367,2.937,2.937,0,0,1-4.357-.114,58.322,58.322,0,0,0-54.656-15.467C135.454,94.519,135.172,94.609,134.759,94.724Z"
            data-name="Path 7520" fill="#55AE7B" id="Path_7520"
            transform="translate(-102.7 -76.732)" />
        <path
            d="M228.366,348.583a11.217,11.217,0,1,1,11.259-11.209A11.194,11.194,0,0,1,228.366,348.583Zm5.2-11.221a5.224,5.224,0,1,0-5.194,5.282A5.262,5.262,0,0,0,233.569,337.363Z"
            data-name="Path 7521" fill="#55AE7B" id="Path_7521"
            transform="translate(-181.927 -265.732)" />
        <path
            d="M144.36,239.13a2.8,2.8,0,0,1,.926-2.18A39.009,39.009,0,0,1,162.8,226.824a2.985,2.985,0,1,1,1.655,5.732,35.357,35.357,0,0,0-9.545,4.286,38.669,38.669,0,0,0-5.493,4.424,2.969,2.969,0,0,1-4.835-.9A2.623,2.623,0,0,1,144.36,239.13Z"
            data-name="Path 7522" fill="#55AE7B" id="Path_7522"
            transform="translate(-126.829 -190.365)" />
        <path
            d="M199.133,272.856h1.177a2.976,2.976,0,1,1,.086,5.952,21.287,21.287,0,0,0-12.851,4.5c-.688.54-1.329,1.14-1.981,1.725a3.014,3.014,0,0,1-4.309-.075,2.916,2.916,0,0,1,.151-4.223A26.79,26.79,0,0,1,199.133,272.856Z"
            data-name="Path 7523" fill="#55AE7B" id="Path_7523"
            transform="translate(-154.158 -225.348)" />
        <path
            d="M111.129,202.761a3,3,0,0,1-3.04-1.768,2.8,2.8,0,0,1,.632-3.33,50.675,50.675,0,0,1,9.64-7.62,46.394,46.394,0,0,1,6.68-3.428,2.981,2.981,0,0,1,2.518,5.4c-1.5.767-3.064,1.424-4.54,2.254a47.227,47.227,0,0,0-9.817,7.382A3.084,3.084,0,0,1,111.129,202.761Z"
            data-name="Path 7524" fill="#55AE7B" id="Path_7524"
            transform="translate(-99.125 -159.796)" />
    </g>
</svg>
