<svg height="83.441" viewBox="0 0 83.389 83.441" width="83.389" xmlns="http://www.w3.org/2000/svg">
    <g id="no_notification_icon" transform="translate(-49.061 -54.141)">
        <path
            d="M49.061,134.036q6.688-6.681,13.381-13.356a1.475,1.475,0,0,0,.481-1.153c-.019-.842.008-1.684-.006-2.526-.008-.523.18-.745.743-.821a7.162,7.162,0,0,0,6.438-5.5,8.927,8.927,0,0,0,.266-2.421c0-6.384-.016-12.767,0-19.151A21.76,21.76,0,0,1,88.454,67.77c1.476-.25,1.476-.25,1.476-1.751,0-2.526.022-5.053-.013-7.579-.01-.713.218-.97.934-.936a28.5,28.5,0,0,0,3.014,0c.807-.047,1.1.207,1.081,1.05-.048,2.634.008,5.27-.034,7.9-.012.74.206,1.051.955,1.169A21.184,21.184,0,0,1,108,73.954c.377.388.616.569,1.1.084q9.914-9.966,19.863-19.9h.326c.834.855,1.665,1.714,2.5,2.564.879.889.883.886.022,1.747q-15.1,15.1-30.2,30.2-24.09,24.09-48.182,48.177c-.99.99-.793,1.027-1.86-.022-.832-.819-1.672-1.63-2.508-2.444Z"
            data-name="Path 7525" fill="#55AE7B" id="Path_7525" transform="translate(0)" />
        <path
            d="M195.792,227.3H174.52a6.43,6.43,0,0,1-.652,0c-.306-.031-.745.147-.866-.228-.095-.291.295-.483.5-.687q18.12-18.13,36.251-36.249c.2-.2.37-.585.692-.476.293.1.265.5.333.781a22.169,22.169,0,0,1,.658,5.318c-.023,6.249-.011,12.5-.008,18.746a7.189,7.189,0,0,0,6.365,7.6c.8.136,1.026.439.985,1.2-.058,1.084-.031,2.173-.01,3.259.01.527-.219.747-.725.736-.272-.006-.543,0-.815,0Z"
            data-name="Path 7526" fill="#55AE7B" id="Path_7526"
            transform="translate(-96.932 -105.977)" />
        <path
            d="M223.426,389.1a7.445,7.445,0,0,1-6.719-4.222c-.373-.718-.281-.859.5-.86q6.142-.009,12.285,0c.786,0,.884.147.518.855A7.409,7.409,0,0,1,223.426,389.1Z"
            data-name="Path 7527" fill="#55AE7B" id="Path_7527"
            transform="translate(-130.963 -258.017)" />
    </g>
</svg>
