<svg height="81.329" viewBox="0 0 81.327 81.329" width="81.327" xmlns="http://www.w3.org/2000/svg">
    <g id="no_order_icon" transform="translate(-68.419 -6.712)">
        <path
            d="M68.42,35.767q0-12.818,0-25.636c0-2.357,1.067-3.417,3.433-3.418q7.836,0,15.671,0c1.313,0,1.315,0,1.315,1.358q0,8.243,0,16.486c0,.3-.011.605.012.906a1.488,1.488,0,0,0,.873,1.373,1.321,1.321,0,0,0,1.5-.316c1.607-1.372,3.2-2.764,4.811-4.129,1.678-1.419,1.2-1.452,2.865-.019,1.511,1.3,3.012,2.609,4.522,3.908.535.46,1.085.922,1.86.526a1.724,1.724,0,0,0,.824-1.775q0-8.515,0-17.03c0-1.285,0-1.288,1.294-1.288q7.881,0,15.762,0c2.218,0,3.361,1.128,3.362,3.321q.005,11.232,0,22.465c0,1.127-.015,1.146-1.115.935A25.986,25.986,0,0,0,95.954,50.893a24.993,24.993,0,0,0-.833,12.682c.237,1.239.234,1.242-1.057,1.242q-11.1,0-22.193,0c-2.345,0-3.449-1.093-3.45-3.416Q68.418,48.584,68.42,35.767Z"
            data-name="Path 7529" fill="#55AE7B" id="Path_7529" transform="translate(0 0)" />
        <path
            d="M220.486,138.559A20.225,20.225,0,0,1,240.681,156.1a19.8,19.8,0,0,1-2.535,12.9,1,1,0,0,0,.21,1.46c3.265,3.226,6.5,6.482,9.748,9.725a4.447,4.447,0,1,1-6.115,6.455c-2.961-2.888-5.856-5.845-8.791-8.759-.575-.571-1.033-1.454-1.789-1.6-.725-.139-1.383.621-2.081.962a20.388,20.388,0,1,1-10.833-38.67A19.647,19.647,0,0,1,220.486,138.559Zm14.44,20.3a14.351,14.351,0,0,0-14.46-14.374,14.386,14.386,0,0,0,.02,28.771A14.362,14.362,0,0,0,234.926,158.861Z"
            data-name="Path 7530" fill="#55AE7B" id="Path_7530"
            transform="translate(-99.834 -99.916)" />
        <path
            d="M296.557,187.491c.013,1.688-.63,2.749-1.95,3.218a2.954,2.954,0,0,1-3.394-1.024,2.9,2.9,0,0,1-.583-1.677,5.867,5.867,0,0,0-3.685-5.436,2.959,2.959,0,0,1-1.594-3.917,3.007,3.007,0,0,1,3.923-1.594A11.59,11.59,0,0,1,296.557,187.491Z"
            data-name="Path 7531" fill="#55AE7B" id="Path_7531"
            transform="translate(-164.237 -128.952)" />
    </g>
</svg>
