<svg height="69.88" viewBox="0 0 67.08 69.88" width="67.08" xmlns="http://www.w3.org/2000/svg">
    <g data-name="Group 9810" id="Group_9810" transform="translate(1639 -3922)">
        <rect data-name="Rectangle 17662" fill="none" height="69.88" id="Rectangle_17662"
            transform="translate(-1639 3922)" width="67.08" />
        <path
            d="M11.739,65.319v8.133H68.757V65.319Zm0-37.146H22.22a7.045,7.045,0,0,1-.671-1.887,9.549,9.549,0,0,1-.252-2.054,9.132,9.132,0,0,1,2.767-6.712,9.043,9.043,0,0,1,6.624-2.764,9.179,9.179,0,0,1,4.769,1.3,9.993,9.993,0,0,1,3.449,3.312l1.384,2.18,1.384-2.18a10.369,10.369,0,0,1,3.439-3.354,8.632,8.632,0,0,1,4.518-1.258,9.318,9.318,0,0,1,6.8,2.725,9.132,9.132,0,0,1,2.767,6.78,8.17,8.17,0,0,1-.21,1.814,18.566,18.566,0,0,1-.629,2.1h10.4A5.158,5.158,0,0,1,73.788,33.2V73.453a5.158,5.158,0,0,1-5.031,5.031H11.739a4.827,4.827,0,0,1-3.522-1.509,4.827,4.827,0,0,1-1.509-3.522V33.2a4.827,4.827,0,0,1,1.509-3.522A4.827,4.827,0,0,1,11.739,28.174Zm0,28.174H68.757V33.2H47.878L56.263,44.86l-4.025,3.019-11.991-16.6-11.991,16.6L24.233,44.86,32.618,33.2H11.739ZM30.773,28.677a4.447,4.447,0,0,0,3.144-7.588,4.447,4.447,0,0,0-6.289,6.289A4.283,4.283,0,0,0,30.773,28.677Zm18.866,0a4.385,4.385,0,0,0,3.226-1.3,4.448,4.448,0,0,0,0-6.289,4.385,4.385,0,0,0-3.226-1.3,4.187,4.187,0,0,0-3.061,1.3,4.454,4.454,0,0,0,0,6.289A4.187,4.187,0,0,0,49.639,28.677Z"
            fill="#55AE7B" id="redeem_FILL1_wght400_GRAD0_opsz48"
            transform="translate(-1645.708 3910.319)" />
    </g>
</svg>
