<svg height="69.845" viewBox="0 0 69.711 69.845" width="69.711" xmlns="http://www.w3.org/2000/svg">
    <g id="no_product" transform="translate(-1988.739 -156.272)">
        <path
            d="M2047.009,163.769a7.313,7.313,0,0,0-6.156-7.386h0a3.916,3.916,0,0,0-.782-.11h-43.646a8.425,8.425,0,0,0-3.055.547,6.433,6.433,0,0,0-1.63.895,7.25,7.25,0,0,0-2.99,5.988q-.019,14.766-.005,29.533,0,6.308,0,12.618a7.37,7.37,0,0,0,7.708,7.712q12.322.005,24.642,0c1.159,0,1.4-.3,1.188-1.452a19.109,19.109,0,0,1,15.743-22.312,19.725,19.725,0,0,1,7.629.327c.995.238,1.362-.047,1.362-1.057Q2047.015,176.423,2047.009,163.769Zm-37.305,39.59a1.63,1.63,0,0,1-1.748,1.744q-4.792.02-9.586,0a1.62,1.62,0,0,1-1.726-1.695q-.031-1.567,0-3.134a1.619,1.619,0,0,1,1.713-1.708q.974-.01,1.946-.009c.96,0,1.919.006,2.881.006q1.321,0,2.641,0,.99,0,1.98,0a1.673,1.673,0,0,1,1.9,1.868C2009.712,201.406,2009.72,202.383,2009.7,203.359Zm15.985-30.279a1.763,1.763,0,0,1-2.008-.356c-1.489-1.155-2.991-2.288-4.491-3.427a1.762,1.762,0,0,0-2.619.006c-1.519,1.15-3.042,2.3-4.549,3.461a1.686,1.686,0,0,1-2.863-1.443c.011-4.247.005-8.5.005-12.745v-.657h17.427v.722c0,4.2-.008,8.407.008,12.611A1.79,1.79,0,0,1,2025.688,173.08Z"
            data-name="Path 8591" fill="#55AE7B" id="Path_8591" />
        <path
            d="M2074.1,222.509a17.428,17.428,0,1,0-21.528,18.882c.632.157,1.275.271,1.918.386a9.378,9.378,0,0,0,1.666.149h0a21.27,21.27,0,0,0,4.63-.488c.275-.062.549-.129.82-.2a17.411,17.411,0,0,0,12.49-14.744v-.006a13.458,13.458,0,0,0,.123-1.578v-.974a11.5,11.5,0,0,0-.12-1.417Zm-11.359,4.484a3.6,3.6,0,0,1,.84,1.5,2.292,2.292,0,0,1-1.231,2.568,2.423,2.423,0,0,1-2.883-.443c-.889-.869-1.754-1.768-2.681-2.708-.9.905-1.74,1.757-2.584,2.606a2.4,2.4,0,0,1-2.552.678,2.432,2.432,0,0,1-1.029-4.02c.855-.906,1.768-1.759,2.73-2.708-.9-.893-1.73-1.7-2.545-2.521a2.459,2.459,0,1,1,3.443-3.49c.809.8,1.608,1.6,2.412,2.4a1.622,1.622,0,0,0,.153.089l1.733-1.733c.322-.32.634-.653.966-.96A2.447,2.447,0,0,1,2063,221.7c-.426.471-.891.908-1.34,1.355s-.9.891-1.428,1.413C2061.1,225.328,2061.965,226.119,2062.746,226.992Z"
            data-name="Path 8592" fill="#55AE7B" id="Path_8592"
            transform="translate(-15.775 -15.808)" />
        <path
            d="M2011.057,217.7q-1.321,0-2.641,0c-.962,0-1.921-.006-2.881-.006.96,0,1.921.006,2.881,0Z"
            data-name="Path 8593" fill="#fff" id="Path_8593"
            transform="translate(-5.233 -19.138)" />
    </g>
</svg>
