<svg fill="none" height="512" viewBox="0 0 512 512" width="512" xmlns="http://www.w3.org/2000/svg">
    <path
        d="M45.1239 0.00600052C20.2425 0.00600052 0 20.2485 0 45.1299V105.378C0 130.26 20.2425 150.502 45.1239 150.502C70.0052 150.502 90.2477 130.26 90.2477 105.378V45.1299C90.2477 20.2485 70.0052 0.00600052 45.1239 0.00600052ZM60.2485 105.378C60.2485 113.718 53.4636 120.503 45.1239 120.503C36.7841 120.503 29.9992 113.718 29.9992 105.378V45.1299C29.9992 36.7901 36.7841 30.0052 45.1239 30.0052C53.4636 30.0052 60.2485 36.7901 60.2485 45.1299V105.378ZM165.621 150.502C190.502 150.502 210.745 130.26 210.745 105.378V45.1299C210.745 20.2485 190.502 0.00600052 165.621 0.00600052C140.739 0.00600052 120.497 20.2485 120.497 45.1299V105.378C120.497 130.26 140.739 150.502 165.621 150.502ZM150.496 45.1299C150.496 36.7901 157.281 30.0052 165.621 30.0052C173.961 30.0052 180.745 36.7901 180.745 45.1299V105.378C180.745 113.718 173.961 120.503 165.621 120.503C157.281 120.503 150.496 113.718 150.496 105.378V45.1299ZM286.118 0.00600052H255.993C247.71 0.00600052 240.994 6.72183 240.994 15.0056V135.503C240.994 143.786 247.71 150.502 255.993 150.502C264.277 150.502 270.993 143.786 270.993 135.503V90.2537H286.118C310.999 90.2537 331.242 70.0112 331.242 45.1299C331.242 20.2485 310.999 0.00600052 286.118 0.00600052ZM286.118 60.2545H270.993V30.0052H286.118C294.458 30.0052 301.242 36.7901 301.242 45.1299C301.242 53.4696 294.458 60.2545 286.118 60.2545ZM406.615 30.0052H436.739C445.023 30.0052 451.739 23.2894 451.739 15.0056C451.739 6.72183 445.023 0.00600052 436.739 0.00600052H406.615C381.733 0.00600052 361.491 20.2485 361.491 45.1299C361.491 70.0112 381.733 90.2537 406.615 90.2537C414.954 90.2537 421.739 97.0385 421.739 105.378C421.739 113.718 414.954 120.503 406.615 120.503H376.49C368.207 120.503 361.491 127.219 361.491 135.503C361.491 143.786 368.207 150.502 376.49 150.502H406.615C431.496 150.502 451.739 130.26 451.739 105.378C451.739 80.497 431.496 60.2545 406.615 60.2545C398.275 60.2545 391.49 53.4696 391.49 45.1299C391.49 36.7901 398.275 30.0052 406.615 30.0052ZM496.987 0.00600052C488.704 0.00600052 481.988 6.72183 481.988 15.0056V75.2541C481.988 83.5379 488.704 90.2537 496.987 90.2537C505.271 90.2537 511.987 83.5379 511.987 75.2541V15.0056C511.987 6.72183 505.271 0.00600052 496.987 0.00600052ZM496.987 120.503C489.142 120.503 481.625 127.402 481.988 135.503C482.352 143.629 488.579 150.502 496.987 150.502C504.833 150.502 512.35 143.603 511.987 135.503C511.623 127.376 505.396 120.503 496.987 120.503ZM335.067 318.628C334.575 321.744 333.109 324.624 330.878 326.855C322.945 334.787 312.399 339.156 301.18 339.156C289.962 339.156 279.415 334.787 271.483 326.855C265.625 320.997 265.625 311.5 271.483 305.642C277.34 299.784 286.838 299.784 292.696 305.642C294.963 307.908 297.975 309.157 301.18 309.157C304.385 309.157 307.399 307.908 309.665 305.642C311.648 303.658 314.151 302.275 316.886 301.65C307.164 288.987 301.367 273.161 301.367 256C301.367 240.226 307.688 222.598 322.505 197.058C322.87 196.43 323.234 195.808 323.597 195.189C302.943 185.917 280.061 180.751 255.993 180.751C164.67 180.751 90.3727 255.049 90.3727 346.372C90.3727 437.696 164.67 511.993 255.993 511.993C347.317 511.993 421.614 437.696 421.614 346.372C421.614 336.628 420.761 327.081 419.139 317.794C407.015 326.188 392.321 331.123 376.49 331.123C361.19 331.123 346.95 326.515 335.067 318.628ZM181.109 305.642C186.966 299.784 196.464 299.784 202.322 305.642C203.434 306.76 204.756 307.646 206.212 308.249C207.669 308.853 209.23 309.161 210.807 309.157C214.013 309.157 217.025 307.908 219.291 305.642C225.148 299.784 234.646 299.784 240.504 305.642C246.362 311.5 246.362 320.997 240.504 326.855C232.571 334.787 222.025 339.156 210.807 339.156C199.588 339.156 189.041 334.787 181.109 326.855C175.252 320.997 175.252 311.5 181.109 305.642ZM327.557 417.227C324.628 420.156 320.789 421.621 316.951 421.621C313.113 421.621 309.273 420.157 306.345 417.227C278.581 389.464 233.408 389.464 205.644 417.227C199.787 423.085 190.289 423.085 184.431 417.227C178.573 411.37 178.573 401.873 184.431 396.015C223.891 356.554 288.098 356.554 327.558 396.015C333.415 401.873 333.415 411.37 327.557 417.227Z"
        fill="#55AE7B" />
    <path
        d="M388.832 187.226C387.452 185.229 385.609 183.596 383.459 182.468C381.309 181.341 378.918 180.751 376.49 180.751C374.063 180.751 371.672 181.341 369.522 182.468C367.372 183.596 365.528 185.229 364.149 187.226C363.828 187.691 356.192 198.769 348.453 212.11C333.138 238.512 331.367 249.803 331.367 256C331.367 280.881 351.609 301.123 376.49 301.123C401.372 301.123 421.614 280.881 421.614 256C421.614 249.804 419.843 238.512 404.528 212.11C396.788 198.769 389.153 187.691 388.832 187.226Z"
        fill="#55AE7B" />
</svg>
