<svg height="77.759" viewBox="0 0 77.754 77.759" width="77.754" xmlns="http://www.w3.org/2000/svg">
    <g id="no_search_found_icon" transform="translate(-64.749 -65.234)">
        <path
            d="M64.749,90.784a31.066,31.066,0,0,1,1.321-6.058c3.906-10.777,11.475-17.37,22.8-19.152A28.264,28.264,0,1,1,64.988,97.74c-.076-.5-.159-.994-.239-1.492ZM93.6,100.657c1.921,0,3.842.007,5.763,0a2.845,2.845,0,0,0,3.143-2.183c.442-1.129.887-2.257,1.317-3.392.734-1.936,1.52-3.856,2.162-5.823a2.736,2.736,0,0,0-1.871-3.349,4.629,4.629,0,0,0-1.429-.114q-8.607-.005-17.214.008a1.076,1.076,0,0,1-1.235-.825,21.035,21.035,0,0,0-.847-2.19,3.816,3.816,0,0,0-3.034-2.462c-1.447-.217-2.9-.416-4.355-.553a1.906,1.906,0,0,0-2.1,1.653,1.872,1.872,0,0,0,1.615,2.186,23.035,23.035,0,0,0,3.151.4c.874.029,1.2.456,1.484,1.2,1.744,4.608,3.527,9.2,5.3,13.8a2.046,2.046,0,0,0,2.383,1.649C89.758,100.662,91.679,100.657,93.6,100.657Zm-5.767,4.663a1.913,1.913,0,0,0,1.9,1.95,2.033,2.033,0,0,0,1.971-2,1.917,1.917,0,0,0-1.984-1.869A1.834,1.834,0,0,0,87.833,105.32Zm9.442-1.923a1.81,1.81,0,0,0-1.874,1.935,1.914,1.914,0,0,0,1.91,1.938,2.013,2.013,0,0,0,1.957-1.937A1.91,1.91,0,0,0,97.275,103.4Z"
            data-name="Path 7532" fill="#55AE7B" id="Path_7532" transform="translate(0 0)" />
        <path
            d="M334.6,344.73a10.6,10.6,0,0,1-5.035-3.208c-3.914-3.989-7.89-7.916-11.841-11.868-.716-.716-.716-.719-.026-1.409,3.182-3.183,6.378-6.353,9.535-9.561.544-.553.845-.536,1.382.006,4.18,4.223,8.32,8.49,12.613,12.6a7.791,7.791,0,0,1-3.462,13.335,2.278,2.278,0,0,0-.281.108Z"
            data-name="Path 7533" fill="#55AE7B" id="Path_7533"
            transform="translate(-201.256 -201.737)" />
        <path
            d="M309.761,305.989a.542.542,0,0,1,.436.2c.662.659,1.316,1.327,1.986,1.979a.5.5,0,0,1-.009.831q-1.91,1.894-3.8,3.806c-.327.332-.581.294-.886-.023-.613-.636-1.241-1.259-1.874-1.876-.281-.275-.372-.512-.021-.81a34.449,34.449,0,0,0,3.858-3.848A2.3,2.3,0,0,1,309.761,305.989Z"
            data-name="Path 7534" fill="#55AE7B" id="Path_7534"
            transform="translate(-191.829 -191.941)" />
        <path
            d="M178.42,185.784q3.451,0,6.9,0c.837,0,.877.051.594.8-.708,1.866-1.442,3.723-2.137,5.594a.918.918,0,0,1-1.007.691q-4.36-.035-8.721,0a.914.914,0,0,1-1-.693q-1.039-2.808-2.151-5.589c-.241-.6-.117-.815.547-.808C173.768,185.8,176.094,185.784,178.42,185.784Z"
            data-name="Path 7535" fill="#55AE7B" id="Path_7535"
            transform="translate(-84.535 -96.101)" />
    </g>
</svg>
