<svg height="69.882" viewBox="0 0 67.084 69.882" width="67.084" xmlns="http://www.w3.org/2000/svg">
    <defs>
        <clipPath id="itce1uyowa">
            <path style="fill:#55AE7B" d="M0 0h67.084v69.882H0z" data-name="Rectangle 17603" />
        </clipPath>
    </defs>
    <g style="clip-path:url(#itce1uyowa)" data-name="Group 9448">
        <path style="fill:#55AE7B"
            d="M0 49.368c1.941-1.312 3.894-2.6 5.843-3.9L12.537 41a1.4 1.4 0 0 1 1.519-.263c.577.3.621.839.607 1.409-.015.613 0 1.228 0 1.843 0 .983 0 .983 1.018.983s2.048.014 3.07-.006a2.141 2.141 0 0 1 1.272.376 23.927 23.927 0 0 0 35.5-11.379 1.89 1.89 0 0 1 .4-.782 4.488 4.488 0 0 1-.094 2.012 24.113 24.113 0 0 1-19.616 20.44 19.679 19.679 0 0 1-3.726.36q-8.459-.019-16.918 0c-.9 0-.9 0-.9.9 0 .637-.03 1.274.008 1.909a1.692 1.692 0 0 1-.6 1.514h-1.103c-.272-.2-.536-.419-.818-.607q-5.9-3.939-11.8-7.872"
            data-name="Path 8594" transform="translate(0 9.577)" />
        <path style="fill:#55AE7B"
            d="M51.058 0c.216.165.424.341.649.492Q57.75 4.525 63.8 8.552a2.144 2.144 0 0 1 .843.773c.3.6.084 1.152-.662 1.652q-4.224 2.826-8.455 5.64c-1.361.909-2.728 1.811-4.084 2.727a1.344 1.344 0 0 1-1.463.222 1.278 1.278 0 0 1-.607-1.34c.015-.682-.034-1.366.014-2.045.045-.64-.147-.893-.827-.86-1.112.053-2.228 0-3.342.019a1.947 1.947 0 0 1-1.146-.348A23.939 23.939 0 0 0 8.512 26.348a1.782 1.782 0 0 1-.4.776 4.59 4.59 0 0 1 .1-2.013A24.149 24.149 0 0 1 27.893 4.655a19.653 19.653 0 0 1 3.66-.338q8.459.015 16.919 0c.9 0 .9 0 .9-.9 0-.637.027-1.274-.008-1.91A1.688 1.688 0 0 1 49.966 0h1.091"
            data-name="Path 8595" transform="translate(2.317)" />
        <path style="fill:#55AE7B"
            d="M14.692 30.283A14.242 14.242 0 1 1 28.877 44.55a14.266 14.266 0 0 1-14.185-14.267m10.923-3.773v-.341a2.2 2.2 0 0 1 2.425-2.459c.66 0 1.32-.009 1.979 0a2.189 2.189 0 0 1 2.232 1.972 3.492 3.492 0 0 0 .057.4 1.032 1.032 0 0 0 1.143.844 1.094 1.094 0 0 0 .871-1.146 4.179 4.179 0 0 0-3.195-3.954c-.854-.177-1.267-.415-1.2-1.362a.926.926 0 0 0-1.008-.986c-.608.006-.921.424-1.017 1.006a.841.841 0 0 0-.013.272c.119.674-.209.889-.841.995a3.994 3.994 0 0 0-3.227 2.718 5.849 5.849 0 0 0-.24 2.961 4.318 4.318 0 0 0 4.478 3.912c.682.014 1.365-.012 2.046.009a2.155 2.155 0 0 1 2.14 2.126c.017.432.017.865 0 1.3a2.161 2.161 0 0 1-2.076 2.123c-.818.028-1.639.026-2.456 0a2.189 2.189 0 0 1-2.09-1.9 4.415 4.415 0 0 0-.064-.472 1.029 1.029 0 0 0-1.142-.844 1.093 1.093 0 0 0-.872 1.143 4.189 4.189 0 0 0 3.2 3.956c.856.177 1.267.415 1.2 1.362a.924.924 0 0 0 1.008.985c.61-.005.923-.424 1.015-1.006a1.112 1.112 0 0 0 .015-.339c-.094-.61.195-.821.774-.916a4.03 4.03 0 0 0 3.374-2.991 5.946 5.946 0 0 0 .16-2.7 4.323 4.323 0 0 0-4.491-3.911c-.7-.013-1.41.017-2.115-.012a2.171 2.171 0 0 1-2.068-2.063c-.012-.227 0-.455 0-.682"
            data-name="Path 8596" transform="translate(4.241 4.633)" />
        <path style="fill:#55AE7B"
            d="M42.031 29.32c-.728 0-1.456-.014-2.183.006-.448.013-.639-.143-.691-.613a15.974 15.974 0 0 0-3.539-8.576c-.352-.43-.339-.693.059-1.071a67.618 67.618 0 0 0 2.844-2.849c.45-.481.724-.5 1.164.026a21.909 21.909 0 0 1 4.875 10.59c.1.6.157 1.217.241 1.825.062.454-.09.683-.588.668-.727-.022-1.455-.005-2.183-.005"
            data-name="Path 8597" transform="translate(10.209 4.576)" />
        <path style="fill:#55AE7B"
            d="M44.792 28.669a21.8 21.8 0 0 1-5.207 12.449c-.335.4-.563.407-.92.037a187.367 187.367 0 0 0-3.085-3.092c-.272-.267-.334-.479-.064-.807a16.2 16.2 0 0 0 3.662-8.811c.037-.363.193-.523.561-.522q2.287.012 4.572 0c.442 0 .545.238.482.744"
            data-name="Path 8598" transform="translate(10.202 8.061)" />
        <path style="fill:#55AE7B"
            d="M27.958 43.357c0 .75-.013 1.5.005 2.251.01.447-.175.617-.615.577a21.988 21.988 0 0 1-12.628-5.274c-.34-.291-.365-.506-.04-.823 1.057-1.034 2.1-2.082 3.137-3.135.265-.268.478-.343.808-.071a16.13 16.13 0 0 0 8.809 3.664c.415.044.534.25.527.629-.013.727 0 1.455 0 2.183"
            data-name="Path 8599" transform="translate(4.171 10.597)" />
        <path style="fill:#55AE7B"
            d="M27.956 12.967c0 .727-.012 1.454 0 2.179.009.407-.113.62-.562.665a16.042 16.042 0 0 0-8.735 3.626.533.533 0 0 1-.86-.046 149.315 149.315 0 0 0-3.085-3.08c-.379-.366-.332-.593.052-.919A21.7 21.7 0 0 1 25.5 10.409c.581-.1 1.169-.149 1.753-.235.482-.07.727.079.707.613-.027.726-.006 1.452-.006 2.179"
            data-name="Path 8600" transform="translate(4.173 2.932)" />
        <path style="fill:#55AE7B"
            d="M26.557 12.949c0-.727.017-1.454-.006-2.179-.015-.486.192-.646.656-.6a21.961 21.961 0 0 1 11.65 4.508c1.445 1.115 1.433 1.129.149 2.414-.755.755-1.521 1.5-2.26 2.268-.3.317-.535.379-.91.071a16.037 16.037 0 0 0-8.737-3.62c-.4-.041-.552-.222-.545-.611.013-.749 0-1.5 0-2.247"
            data-name="Path 8601" transform="translate(7.664 2.933)" />
        <path style="fill:#55AE7B"
            d="M11.593 27.928c.749 0 1.5.01 2.247 0 .4-.008.558.165.6.558a16.071 16.071 0 0 0 3.628 8.736.534.534 0 0 1-.041.861 149.314 149.314 0 0 0-3.081 3.084c-.362.376-.591.339-.919-.046a21.729 21.729 0 0 1-4.989-10.737c-.1-.581-.148-1.169-.233-1.753-.07-.478.071-.731.61-.711.726.027 1.452.008 2.179.008"
            data-name="Path 8602" transform="translate(2.537 8.059)" />
        <path style="fill:#55AE7B"
            d="M26.556 43.368c0-.727.013-1.454-.005-2.179-.01-.418.138-.606.576-.652a16.079 16.079 0 0 0 8.68-3.592c.345-.284.581-.323.912.019q1.515 1.566 3.082 3.082c.393.378.3.6-.071.919A21.729 21.729 0 0 1 29 45.942c-.6.1-1.214.159-1.821.237-.429.055-.634-.108-.622-.563.017-.749 0-1.5 0-2.247"
            data-name="Path 8603" transform="translate(7.664 10.6)" />
        <path style="fill:#55AE7B"
            d="M11.6 29.325c-.727 0-1.454-.015-2.179.005-.464.013-.67-.149-.624-.635A22.09 22.09 0 0 1 14.02 16.14c.376-.442.613-.37.968-.005q1.471 1.517 2.987 2.986a.59.59 0 0 1 .054.964 15.994 15.994 0 0 0-3.588 8.68c-.046.446-.254.573-.662.564-.726-.015-1.452 0-2.179 0"
            data-name="Path 8604" transform="translate(2.537 4.571)" />
    </g>
</svg>
