<svg height="70.028" viewBox="0 0 70.668 70.028" width="70.668" xmlns="http://www.w3.org/2000/svg">
    <g id="empty_wishlist_icon" transform="translate(-64.749 -66.732)">
        <path
            d="M64.749,133.252V66.781c.3-.016.595-.046.892-.046q24.1,0,48.2,0c1.124,0,1.128,0,1.128,1.162q0,17.411,0,34.822c0,.115,0,.23,0,.345-.031.675-.113.722-.736.425a11.8,11.8,0,0,0-11.946.738,3.994,3.994,0,0,1-2.246.65c-5.057-.024-10.113-.013-15.17-.01-.861,0-.9.045-.9.9,0,.9,0,1.793,0,2.689,0,1.04,0,1.043,1.026,1.043q5.9,0,11.791,0c.815,0,.86.061.571.824a14.621,14.621,0,0,0-.728,7.191c.151,1.158.162,1.158-.989,1.159q-5.344,0-10.688,0c-.968,0-.98.014-.983.949q0,1.345,0,2.689c0,.977.011.987,1.018.988q6.275,0,12.55,0a1.1,1.1,0,0,1,1.16.635,33.872,33.872,0,0,0,6.152,8.347c.241.248.744.471.577.834-.155.336-.669.164-1.023.164q-19.376.01-38.752,0C65.346,133.276,65.047,133.261,64.749,133.252ZM95.3,95.55c3.514,0,7.029-.011,10.543.01.633,0,.864-.225.847-.845-.028-1.033-.026-2.067,0-3.1.014-.6-.235-.82-.825-.8-.779.032-1.562.008-2.343.008H84.916c-.948,0-.952.006-.954.973s.033,1.931-.012,2.894c-.031.669.214.873.875.868C88.317,95.536,91.809,95.55,95.3,95.55Zm.054-18.521q-5.237,0-10.475,0c-.9,0-.915.023-.918.941,0,.85,0,1.7,0,2.55,0,1.15,0,1.152,1.14,1.153h18.606c.712,0,1.425-.024,2.136.005.631.025.861-.252.845-.864-.025-.964,0-1.93-.008-2.894-.007-.824-.076-.89-.921-.891Q100.558,77.027,95.355,77.029ZM78.106,93.212a2.577,2.577,0,0,0-2.623-2.674,2.652,2.652,0,1,0-.045,5.3A2.577,2.577,0,0,0,78.106,93.212Zm0,13.993a2.648,2.648,0,0,0-2.605-2.721,2.677,2.677,0,0,0-2.706,2.639,2.626,2.626,0,0,0,2.626,2.689A2.562,2.562,0,0,0,78.106,107.2ZM75.5,76.723a2.621,2.621,0,0,0-2.707,2.6,2.665,2.665,0,0,0,2.625,2.711,2.633,2.633,0,0,0,2.686-2.63A2.563,2.563,0,0,0,75.5,76.723Zm2.6,44.248a2.668,2.668,0,0,0-2.657-2.684,2.7,2.7,0,0,0,.025,5.392A2.665,2.665,0,0,0,78.106,120.97Z"
            data-name="Path 7536" fill="#55AE7B" id="Path_7536" />
        <path
            d="M296.418,292.487a14.059,14.059,0,0,1-1.83,7.357,33.069,33.069,0,0,1-7.939,9.175,69.219,69.219,0,0,1-7.06,5.168.869.869,0,0,1-1.116.083,52.2,52.2,0,0,1-12.15-10.925,19.6,19.6,0,0,1-4-8.155,8.855,8.855,0,0,1,3.494-9.361,7.063,7.063,0,0,1,9.814,1.666,11.261,11.261,0,0,1,1.309,2.183,2.369,2.369,0,0,0,4.4-.068,7.78,7.78,0,0,1,2.517-3.473,7.1,7.1,0,0,1,7.757-.465A7.9,7.9,0,0,1,296.418,292.487Z"
            data-name="Path 7537" fill="#55AE7B" id="Path_7537"
            transform="translate(-161 -177.678)" />
    </g>
</svg>
