<svg height="24.002" viewBox="0 0 24 24.002" width="24" xmlns="http://www.w3.org/2000/svg">
    <g id="notification_iocn" transform="translate(1453 902.001)">
        <g data-name="Group 9439" id="Group_9439">
            <rect data-name="Rectangle 17596" fill="none" height="24" id="Rectangle_17596"
                transform="translate(-1453 -902)" width="24" />
            <path
                d="M83.833,111.664l-1.9-6.835a9.319,9.319,0,0,0-18.075.474l-1.471,6.614a5,5,0,0,0,3.8,5.964,4.888,4.888,0,0,0,1.085.119H68.38a5,5,0,0,0,9.8,0h.838a5,5,0,0,0,4.817-6.337ZM73.279,120a3,3,0,0,1-2.815-2H76.1A3,3,0,0,1,73.279,120Zm8.125-5.184A2.974,2.974,0,0,1,79.015,116H67.266a3,3,0,0,1-3-3,2.963,2.963,0,0,1,.072-.65l1.469-6.615a7.32,7.32,0,0,1,14.2-.372l1.9,6.835A2.972,2.972,0,0,1,81.4,114.816Z"
                data-name="Path 8580" fill="#121418" id="Path_8580"
                transform="translate(-1514.141 -1000.006)" />
        </g>
    </g>
</svg>
