<svg height="24" viewBox="0 0 24 24" width="24" xmlns="http://www.w3.org/2000/svg">
    <g id="password_icon" transform="translate(-2088 -9088)">
        <rect data-name="Rectangle 17564" fill="none" height="24" id="Rectangle_17564"
            transform="translate(2088 9088)" width="24" />
        <g data-name="password_icon" id="password_icon-2" transform="translate(2088 9088)">
            <path
                d="M19,8.424V7A7,7,0,1,0,5,7V8.424A5,5,0,0,0,2,13v6a5.006,5.006,0,0,0,5,5H17a5.006,5.006,0,0,0,5-5V13A5,5,0,0,0,19,8.424ZM7,7A5,5,0,0,1,17,7V8H7ZM20,19a3,3,0,0,1-3,3H7a3,3,0,0,1-3-3V13a3,3,0,0,1,3-3H17a3,3,0,0,1,3,3Z"
                data-name="Path 7161" fill="#121418" id="Path_7161" />
            <path d="M12,14a1,1,0,0,0-1,1v2a1,1,0,0,0,2,0V15A1,1,0,0,0,12,14Z" data-name="Path 7162"
                fill="#121418" id="Path_7162" />
        </g>
    </g>
</svg>
