<svg width="214" height="376" viewBox="0 0 214 376" fill="none" xmlns="http://www.w3.org/2000/svg">
    <path d="M181.515 4H32.1066C16.604 4 4 16.604 4 32.1066V343.893C4 359.395 16.604 372 32.1066 372H181.515C197.017 372 209.622 359.396 209.622 343.893V32.1066C209.622 16.604 197.018 4 181.515 4ZM192.618 343.893C192.618 350.014 187.631 355 181.511 355H32.1066C25.9864 355 21 350.014 21 343.893V307.227H192.618V343.893ZM192.618 290.227H21V61.8823H192.618V290.227ZM192.618 44.8823H21V32.1066C21 25.9864 25.9864 21 32.1066 21H181.511C187.631 21 192.618 25.9864 192.618 32.1066V44.8823Z" fill="black" stroke="black" stroke-width="8"/>
    <path d="M106.811 309.365C94.3874 309.365 84.2847 319.468 84.2847 331.892C84.2847 344.317 94.3886 354.414 106.811 354.414C119.235 354.414 129.338 344.311 129.338 331.887C129.338 319.462 119.234 309.365 106.811 309.365ZM106.811 337.418C103.769 337.418 101.285 334.934 101.285 331.892C101.285 328.85 103.769 326.365 106.811 326.365C109.853 326.365 112.338 328.85 112.338 331.892C112.338 334.934 109.853 337.418 106.811 337.418Z" fill="black" stroke="black" stroke-width="8"/>
</svg>
