<svg height="24" viewBox="0 0 24 24" width="24" xmlns="http://www.w3.org/2000/svg">
    <g id="phone_icon" transform="translate(-2127 -9088)">
        <rect data-name="Rectangle 17565" fill="none" height="24" id="Rectangle_17565"
            transform="translate(2127 9088)" width="24" />
        <g data-name="phone_icon" id="phone_icon-2" transform="translate(2127 9088)">
            <path
                d="M15,0H9A5.006,5.006,0,0,0,4,5V19a5.006,5.006,0,0,0,5,5h6a5.006,5.006,0,0,0,5-5V5A5.006,5.006,0,0,0,15,0ZM9,2h6a3,3,0,0,1,3,3V16H6V5A3,3,0,0,1,9,2Zm6,20H9a3,3,0,0,1-3-3V18H18v1A3,3,0,0,1,15,22Z"
                data-name="Path 7160" fill="#121418" id="Path_7160" />
            <circle cx="1" cy="1" data-name="Ellipse 48" fill="#121418" id="Ellipse_48" r="1"
                transform="translate(11 19)" />
        </g>
    </g>
</svg>
