<svg height="150" width="150" xmlns="http://www.w3.org/2000/svg">
    <g class="layer">
        <title>Layer 1</title>
        <g class="layer" id="svg_2">
            <g id="svg_1">
                <g data-name="Group 8650" id="Group_8650">
                    <g data-name="Group 8649" id="Group_8649">
                        <path
                            d="m447.13,1413.61c-3.15,-0.65 -6.32,-0.31 -9.49,-0.36c-1.35,-0.02 -1.9,-0.42 -1.96,-1.84a39.59,39.59 0 0 0 -0.79,-5.6c-4.89,-24.66 -33.83,-38.16 -55.81,-25.95c-12.39,6.89 -19.31,17.5 -20.53,31.7c-0.12,1.36 -0.66,1.72 -1.89,1.69c-2.16,-0.05 -4.33,-0.06 -6.48,0c-10.22,0.3 -18.66,9.69 -17.49,19.6c0.57,4.81 1.43,9.6 2.15,14.39c1.69,11.19 3.44,22.37 5.01,33.58c0.8,5.74 2.52,10.88 7.31,14.58c3.77,2.91 8.11,3.83 12.72,3.83q18.64,0.03 37.27,0.01c12.48,0 24.97,0.05 37.46,-0.01c10.9,-0.06 17.71,-5.72 19.43,-16.42c2.57,-16.1 4.86,-32.24 7.36,-48.35a18.31,18.31 0 0 0 -14.28,-20.86l0.01,0.01zm-85.37,8.9a3.36,3.36 0 1 1 3.35,-3.36a3.36,3.36 0 0 1 -3.35,3.36zm61.9,35.22a4.41,4.41 0 0 1 -1.41,2.14a4.59,4.59 0 0 1 -2.96,1.03l-21.9,0a4.4,4.4 0 0 1 -4.37,-4.91a4.47,4.47 0 0 1 4.48,-3.87l17.07,0l-0.52,-1.45a17.86,17.86 0 0 0 -4.52,-6.98a17.59,17.59 0 0 0 -12.15,-4.85c-0.33,0 -0.65,0.01 -0.98,0.03a17.79,17.79 0 0 0 -16.67,16.68a17.66,17.66 0 0 0 17.64,18.63l21.55,0a4.71,4.71 0 0 1 4.71,4.71a4.07,4.07 0 0 1 -4.07,4.07l-22.19,0a26.45,26.45 0 0 1 -26.42,-27.86a26.67,26.67 0 0 1 25,-24.99c0.48,-0.03 0.96,-0.04 1.43,-0.04a26.46,26.46 0 0 1 26.26,23.38l0,4.28l0.02,0zm1.29,-44.5l-27.92,0c-9.98,0 -19.97,-0.03 -29.95,0.03c-1.58,0.01 -2.05,-0.36 -1.94,-2.04c0.83,-13.99 12.59,-26.85 26.56,-28.93c17.96,-2.66 33.57,8.33 37.11,26.12c0.96,4.82 0.96,4.82 -3.86,4.82zm7.72,10.11a3.36,3.36 0 1 1 3.35,-3.36a3.36,3.36 0 0 1 -3.35,3.36z"
                            data-name="Path 7538" fill="#DAF4E7" id="Path_7538"
                            transform="translate(-322.111 -1362.28)" />
                    </g>
                </g>
                <g data-name="Group 8653" id="Group_8653">
                    <g data-name="Group 8651" id="Group_8651">
                        <circle cx="42.12" cy="67.34" data-name="Ellipse 84" fill="#DAF4E7"
                            id="Ellipse_84" r="1.61" />
                    </g>
                    <g data-name="Group 8652" id="Group_8652" transform="translate(71.464 0.845)">
                        <circle cx="42.12" cy="67.34" data-name="Ellipse 85" fill="#DAF4E7"
                            id="Ellipse_85" r="1.61" />
                    </g>
                </g>
            </g>
        </g>
    </g>

</svg>