<svg height="24" viewBox="0 0 24 24" width="24" xmlns="http://www.w3.org/2000/svg">
    <g id="privacy_icon" transform="translate(-2166 -9088)">
        <rect data-name="Rectangle 17566" fill="none" height="24" id="Rectangle_17566"
            transform="translate(2166 9088)" width="24" />
        <g data-name="privacy_icon" id="privacy_icon-2" transform="translate(2103.33 8727.324)">
            <path
                d="M81.25,362.814l-6.265-2.089a.992.992,0,0,0-.632,0l-6.265,2.089a4.992,4.992,0,0,0-3.419,4.743v5.117c0,7.562,9.2,11.739,9.594,11.913a1,1,0,0,0,.812,0c.394-.174,9.594-4.351,9.594-11.913v-5.117a4.992,4.992,0,0,0-3.419-4.743Zm1.419,9.86c0,5.454-6.319,9.032-8,9.888-1.683-.853-8-4.42-8-9.888v-5.117a3,3,0,0,1,2.052-2.846l5.948-1.983,5.948,1.983a3,3,0,0,1,2.052,2.846Z"
                data-name="Path 7170" fill="#121418" id="Path_7170" opacity="0.99" />
            <path
                d="M77.932,368.992l-4.169,4.453-2.234-2.481a.953.953,0,0,0-1.407-.067,1.107,1.107,0,0,0-.063,1.5c.011.014.023.026.035.039l2.3,2.544a1.815,1.815,0,0,0,1.339.636h.033a1.813,1.813,0,0,0,1.329-.586l4.253-4.529a1.114,1.114,0,0,0,0-1.505.956.956,0,0,0-1.413,0Z"
                data-name="Path 7171" fill="#121418" id="Path_7171" opacity="0.99"
                transform="translate(0.023 -0.18)" />
        </g>
    </g>
</svg>
