<svg fill="none" height="17" viewBox="0 0 18 17" width="18" xmlns="http://www.w3.org/2000/svg">
    <path
        d="M16.5002 5.49988H15.3169L12.2236 0.0865479L10.7769 0.913215L13.3977 5.49988H4.60274L7.22441 0.913215L5.77691 0.0865479L2.68357 5.49988H1.50024C1.37215 5.50002 1.24582 5.52966 1.13103 5.58649C1.01625 5.64332 0.916088 5.72583 0.838324 5.82761C0.76056 5.92938 0.707278 6.0477 0.682609 6.17339C0.65794 6.29908 0.662547 6.42876 0.696072 6.55238L3.02857 15.1057C3.12553 15.458 3.33533 15.7689 3.62582 15.9906C3.91631 16.2123 4.27148 16.3326 4.63691 16.3332H13.3644C14.1127 16.3332 14.7744 15.829 14.9727 15.104L17.3052 6.55155C17.3392 6.42788 17.344 6.29805 17.3195 6.17219C17.2949 6.04633 17.2415 5.92786 17.1636 5.82604C17.0857 5.72421 16.9852 5.64179 16.8701 5.58521C16.7551 5.52863 16.6285 5.49942 16.5002 5.49988ZM13.3636 14.6665H4.63691L2.59191 7.16655H15.4086L13.3636 14.6665Z"
        fill="#55AE7B" />
    <path d="M6.5 8.83337H8.16667V13H6.5V8.83337ZM9.83333 8.83337H11.5V13H9.83333V8.83337Z"
        fill="#55AE7B" />
</svg>
