<svg fill="none" height="30" viewBox="0 0 30 30" width="30" xmlns="http://www.w3.org/2000/svg">
    <g clip-path="url(#clip0_194_2360)">
        <path
            d="M15.84 18.86C16.02 19.01 16.19 19.15 16.37 19.3C16.54 19.45 16.71 19.52 16.89 19.52C16.98 19.52 17.07 19.5 17.15 19.46C17.59 19.28 17.59 18.87 17.59 18.74V16.71C16.85 17.28 16.25 18.01 15.84 18.86ZM22.78 15.5C22.46 15.44 22.19 15.4 21.92 15.39C21.76 15.38 21.61 15.38 21.48 15.38H21.45C20.8 15.38 20.18 15.48 19.6 15.66C21.89 15.66 22.9 15.66 23.34 15.66C23.15 15.6 22.97 15.55 22.78 15.51V15.5ZM23.66 15.76V16.99L24.37 16.08C24.13 15.95 23.9 15.84 23.66 15.76ZM22.34 11.86C22.17 11.64 21.94 11.53 21.65 11.53L15.34 11.57L15.38 12.92L16.21 12.88L16.25 14.32L14.28 14.34L14.26 13.23L12.23 11.54H8.83998C8.57998 11.54 8.35998 11.65 8.16998 11.86L7.69998 12.43C7.10998 13.14 6.52998 13.84 5.92998 14.54C5.59998 14.9 5.43998 15.34 5.43998 15.86V18.89L5.36998 18.98H4.21998C3.95998 18.98 3.73998 19.09 3.60998 19.28C3.47998 19.47 3.44998 19.7 3.52998 19.92C3.58998 20.09 3.75998 20.37 4.25998 20.36H5.37998L5.44998 20.41V21.3L5.38998 21.39H3.61998C3.35998 21.39 3.12998 21.5 2.99998 21.68C2.86998 21.85 2.83998 22.07 2.90998 22.29C2.97998 22.51 3.16998 22.78 3.65998 22.78H5.32998C5.39998 22.78 5.42998 22.81 5.42998 22.87V28.41C5.42998 29.33 5.95998 29.87 6.85998 29.87V29.83H6.88998C7.96998 29.82 9.05998 29.82 10.14 29.82H19.18C18.51 29.65 17.86 29.38 17.25 29.02C16.96 28.86 16.69 28.69 16.43 28.49H6.93998C6.87998 28.49 6.83998 28.5 6.81998 28.51C6.81998 28.48 6.74998 25.2 6.74998 25.2H6.72998L6.79998 25.14V25.18H11.71C11.83 25.18 11.96 25.18 12.09 25.15C12.42 25.07 12.63 24.81 12.63 24.48C12.63 24.15 12.44 23.9 12.1 23.81C11.96 23.77 11.82 23.77 11.71 23.78H6.85998L6.79998 23.75V23.36C6.79998 23.15 6.79998 22.94 6.76998 22.77H9.85998C10.45 22.77 10.71 22.4 10.71 22.07C10.71 21.74 10.48 21.38 9.85998 21.38L6.78998 21.4L6.80998 21C6.82998 20.78 6.82998 20.56 6.80998 20.36H11.65C11.77 20.36 11.9 20.36 12.03 20.33C12.39 20.28 12.65 19.98 12.63 19.62C12.6 19.26 12.33 19 11.94 18.98H6.79998V16.79C6.79998 16.79 6.79998 15.7 6.76998 15.67H9.79998C11.33 15.67 12.88 15.64 12.88 15.64V18.7C12.88 18.87 12.88 19.23 13.24 19.43C13.47 18.59 13.82 17.8 14.28 17.08L14.26 15.74L14.47 15.72L15.4 15.69C16.03 15.04 16.77 14.5 17.58 14.08L17.53 12.92H21.38L21.59 13.16C21.72 13.16 21.84 13.16 21.96 13.17C22.25 13.18 22.57 13.21 22.91 13.27L22.96 13.29L23.05 13.33C23.27 13.37 23.48 13.41 23.69 13.47C23.24 12.93 22.79 12.4 22.34 11.86ZM7.87998 14.39C8.26998 13.92 8.65998 13.45 9.13998 12.94L12.9 12.93L12.93 14.32L7.87998 14.39ZM23.73 29.82C24.11 29.82 24.43 29.71 24.65 29.5C24.35 29.63 24.04 29.73 23.73 29.82ZM23.66 20.61V27.46C24.15 27.29 24.61 27.04 25.03 26.74V18.85L23.66 20.61Z"
            fill="#55AE7B" />
        <path
            d="M4.12999 25.19C3.95999 25.19 3.79999 25.19 3.62999 25.18C3.24999 25.15 2.98999 24.85 3.00999 24.46C3.02999 24.1 3.28999 23.83 3.64999 23.81H4.60999C4.99999 23.84 5.26999 24.12 5.26999 24.49C5.26999 24.88 5.01999 25.15 4.63999 25.18C4.46999 25.18 4.29999 25.19 4.13999 25.19H4.12999Z"
            fill="#55AE7B" />
        <path
            d="M1.87003 22.81C1.56003 22.81 1.30003 22.71 1.15003 22.53C1.03003 22.39 0.98003 22.2 1.01003 22.01C1.05003 21.65 1.35003 21.43 1.80003 21.41C2.51003 21.41 2.69003 21.76 2.73003 21.97C2.77003 22.18 2.73003 22.37 2.60003 22.52C2.45003 22.71 2.19003 22.81 1.88003 22.81H1.87003Z"
            fill="#55AE7B" />
        <path
            d="M28.37 17.66L28.31 17.62C28.05 17.5 27.89 17.15 27.92 16.79L27.96 16.44C27.99 16.05 28.27 15.74 28.63 15.69H28.78C29.22 15.74 29.53 16.15 29.48 16.62L29.44 17.01C29.39 17.4 29.1 17.71 28.74 17.74L28.52 17.7L28.36 17.65H28.37V17.66Z"
            fill="#55AE7B" />
        <path
            d="M28.34 15.05C27.92 15.05 27.57 14.7 27.57 14.28C27.57 9.03 23.32 4.7 18.1 4.62H14.92L14.96 5.84C14.96 6.27 14.61 6.62 14.18 6.62C13.75 6.62 13.41 6.28 13.41 5.84V2.35L8.86002 6.3L13.49 10.17L13.42 8.68C13.42 8.57 13.45 8.48 13.47 8.39C13.59 8.09 13.88 7.89 14.19 7.89H19.99C20.07 7.89 20.14 7.91 20.18 7.92C20.89 7.92 21.67 8.09 22.43 8.41C23.18 8.72 23.86 9.19 24.46 9.79C24.61 9.95 24.68 10.14 24.68 10.35C24.68 10.56 24.59 10.76 24.44 10.9C24.31 11.04 24.12 11.11 23.92 11.11C23.72 11.11 23.54 11.04 23.38 10.9C22.47 9.97 21.25 9.46 19.94 9.46C19.89 9.46 19.82 9.46 19.75 9.44H14.92L14.96 11.78C14.96 12.08 14.79 12.35 14.52 12.47C14.4 12.52 14.29 12.55 14.19 12.55C14.01 12.55 13.83 12.48 13.69 12.36L12.99 11.76L11.43 10.45L7.23002 6.88C7.06002 6.74 6.96002 6.52 6.96002 6.29C6.96002 6.06 7.06002 5.85 7.23002 5.71L13.71 0.18C13.86 0.06 14.03 0 14.2 0C14.32 0 14.42 0.02 14.52 0.06C14.79 0.19 14.97 0.47 14.97 0.76V3.13L17.87 3.09H17.97C19.48 3.09 20.94 3.38 22.31 3.96C23.64 4.53 24.83 5.34 25.85 6.36C26.88 7.39 27.68 8.59 28.23 9.92C28.81 11.28 29.11 12.74 29.11 14.27C29.11 14.51 29 14.74 28.8 14.88L28.62 14.97L28.34 15.05Z"
            fill="#55AE7B" />
        <path
            d="M21.45 29.95C20.98 29.95 20.5 29.91 20.02 29.82C19.09 29.67 18.18 29.35 17.34 28.87C14.74 27.41 13.13 24.64 13.13 21.65C13.13 17.07 16.86 13.34 21.44 13.34C21.61 13.34 21.77 13.34 21.94 13.36C22.23 13.36 22.55 13.4 22.88 13.46H22.93L22.97 13.51C26.87 14.15 29.77 17.59 29.77 21.65C29.77 26.23 26.04 29.96 21.46 29.96L21.45 29.95ZM18.27 27.22C19.24 27.78 20.33 28.07 21.44 28.07H21.47C21.61 28.07 21.76 28.07 21.9 28.05C22.16 28.03 22.41 28 22.67 27.95L22.81 27.91C25.75 27.28 27.89 24.64 27.89 21.63C27.89 19.95 27.26 18.38 26.1 17.19L18.28 27.22H18.27ZM15.02 21.62C15.02 23.3 15.65 24.87 16.81 26.06L24.64 16.02C24.04 15.67 23.44 15.44 22.81 15.32C22.49 15.26 22.21 15.22 21.92 15.21C21.77 15.19 21.62 15.19 21.47 15.19H21.45C17.98 15.19 15.14 17.95 15.02 21.39V21.62Z"
            fill="#F52C45" />
    </g>
    <defs>
        <clipPath id="clip0_194_2360">
            <rect fill="white" height="29.95" transform="translate(1)" width="28.76" />
        </clipPath>
    </defs>
</svg>
