<svg fill="none" height="30" viewBox="0 0 30 30" width="30" xmlns="http://www.w3.org/2000/svg">
    <g clip-path="url(#clip0_193_2352)">
        <path
            d="M6.85998 29.87C5.95998 29.87 5.42998 29.33 5.42998 28.41V22.87C5.42998 22.81 5.39665 22.78 5.32998 22.78H3.65998C3.16998 22.78 2.97998 22.51 2.90998 22.29C2.83998 22.07 2.86998 21.85 2.99998 21.68C3.12998 21.5 3.35998 21.39 3.61998 21.39H5.38998L5.44998 21.3V20.41L5.37998 20.36H4.25998C3.75998 20.37 3.58998 20.09 3.52998 19.92C3.44998 19.7 3.47998 19.47 3.60998 19.28C3.73998 19.09 3.95998 18.98 4.21998 18.98H5.36998L5.43998 18.89V15.86C5.43998 15.34 5.59998 14.9 5.92998 14.54C6.52998 13.84 7.10998 13.14 7.69998 12.43L8.16998 11.86C8.35998 11.65 8.57998 11.54 8.83998 11.54H12.23L14.26 13.23L14.28 14.34L16.25 14.32L16.21 12.88L15.38 12.92L15.34 11.57L21.65 11.53C21.94 11.53 22.17 11.64 22.34 11.86C23.12 12.8 23.9 13.72 24.71 14.67C24.92 14.93 25.03 15.24 25.03 15.6V28.53C25.03 29.33 24.53 29.82 23.73 29.82H15.23C14.39 29.82 13.55 29.82 12.71 29.82H10.14C9.05998 29.82 7.96998 29.82 6.88998 29.83H6.85998V29.87ZM6.74998 25.2C6.74998 25.2 6.81998 28.48 6.81998 28.51C6.83998 28.5 6.87998 28.49 6.93998 28.49C6.93998 28.49 23.63 28.49 23.66 28.49C23.66 28.48 23.66 28.46 23.66 28.43C23.66 28.29 23.66 16.12 23.66 15.63C23.59 15.66 22.86 15.66 17.59 15.66V18.74C17.59 18.87 17.59 19.28 17.15 19.46C17.07 19.5 16.98 19.52 16.89 19.52C16.71 19.52 16.54 19.45 16.37 19.3C15.97 18.97 15.57 18.64 15.18 18.29C15.04 18.51 14.77 18.74 14.51 18.96L14.15 19.27C14.01 19.39 13.83 19.53 13.58 19.53C13.49 19.53 13.4 19.51 13.31 19.47C12.88 19.28 12.88 18.88 12.88 18.7V15.64C12.88 15.64 11.33 15.67 9.79998 15.67C8.35998 15.67 6.91998 15.67 6.76998 15.67C6.79998 15.7 6.79998 16.79 6.79998 16.79C6.79998 17.52 6.79998 18.25 6.79998 18.98H11.94C12.33 19 12.6 19.26 12.63 19.62C12.65 19.98 12.39 20.28 12.03 20.33C11.9 20.36 11.77 20.36 11.65 20.36H6.80998C6.82998 20.56 6.82998 20.78 6.80998 21L6.78998 21.4L9.85998 21.38C10.48 21.38 10.71 21.74 10.71 22.07C10.71 22.4 10.45 22.77 9.85998 22.77H6.76998C6.79998 22.94 6.79998 23.15 6.79998 23.36V23.75L6.85998 23.78H11.71C11.82 23.77 11.96 23.77 12.1 23.81C12.44 23.9 12.63 24.15 12.63 24.48C12.63 24.81 12.42 25.07 12.09 25.15C11.96 25.18 11.83 25.18 11.71 25.18H6.79998V25.14L6.72998 25.19L6.74998 25.2ZM14.29 17.51L14.6 17.15L14.71 17.06C14.84 16.95 15.02 16.82 15.25 16.82C15.48 16.82 15.64 16.94 15.77 17.04L16.28 17.48L16.2 15.66L14.47 15.72L14.26 15.74L14.29 17.51ZM9.13998 12.94C8.65998 13.45 8.26998 13.92 7.87998 14.39L12.93 14.32L12.9 12.93H9.13998V12.94ZM17.59 14.27L17.65 14.32H22.64L21.38 12.92H17.53L17.59 14.27Z"
            fill="#55AE7B" />
        <path
            d="M4.12999 25.19C3.95999 25.19 3.79999 25.19 3.62999 25.18C3.24999 25.15 2.98999 24.85 3.00999 24.46C3.02999 24.1 3.28999 23.83 3.64999 23.81C3.70999 23.81 3.76999 23.81 3.82999 23.81H4.60999C4.99999 23.84 5.26999 24.12 5.26999 24.49C5.26999 24.88 5.01999 25.15 4.63999 25.18C4.46999 25.18 4.29999 25.19 4.13999 25.19H4.12999Z"
            fill="#55AE7B" />
        <path
            d="M1.87003 22.81C1.56003 22.81 1.30003 22.71 1.15003 22.53C1.03003 22.39 0.98003 22.2 1.01003 22.01C1.05003 21.65 1.35003 21.43 1.80003 21.41C2.51003 21.41 2.69003 21.76 2.73003 21.97C2.77003 22.18 2.73003 22.37 2.60003 22.52C2.45003 22.71 2.19003 22.81 1.88003 22.81H1.87003Z"
            fill="#55AE7B" />
        <path
            d="M28.37 17.66L28.31 17.62C28.05 17.5 27.89 17.15 27.92 16.79L27.96 16.44C27.99 16.05 28.27 15.74 28.63 15.69H28.78C29.22 15.74 29.53 16.15 29.48 16.62L29.44 17.01C29.39 17.4 29.1 17.71 28.74 17.74L28.52 17.7L28.36 17.65L28.37 17.66Z"
            fill="#55AE7B" />
        <path
            d="M28.34 15.05C27.92 15.05 27.57 14.7 27.57 14.28C27.57 9.03 23.32 4.7 18.1 4.62H14.92L14.96 5.84C14.96 6.27 14.61 6.62 14.18 6.62C13.75 6.62 13.41 6.28 13.41 5.84V2.35L8.86002 6.3L13.49 10.17L13.42 8.68C13.42 8.57 13.45 8.48 13.47 8.39C13.59 8.09 13.88 7.89 14.19 7.89H19.99C20.07 7.89 20.14 7.91 20.18 7.92C20.89 7.92 21.67 8.09 22.43 8.41C23.18 8.72 23.86 9.19 24.46 9.79C24.61 9.95 24.68 10.14 24.68 10.35C24.68 10.56 24.59 10.76 24.44 10.9C24.31 11.04 24.12 11.11 23.92 11.11C23.72 11.11 23.54 11.04 23.38 10.9C22.47 9.97 21.25 9.46 19.94 9.46C19.89 9.46 19.82 9.46 19.75 9.44H14.92L14.96 11.78C14.96 12.08 14.79 12.35 14.52 12.47C14.4 12.52 14.29 12.55 14.19 12.55C14.01 12.55 13.83 12.48 13.69 12.36L12.99 11.76L11.43 10.45L7.23002 6.88C7.06002 6.74 6.96002 6.52 6.96002 6.29C6.96002 6.07 7.06002 5.85 7.23002 5.71L13.71 0.18C13.86 0.06 14.03 0 14.2 0C14.32 0 14.42 0.02 14.52 0.06C14.79 0.19 14.97 0.47 14.97 0.76V3.13L17.87 3.09C17.87 3.09 17.87 3.09 17.97 3.09C19.48 3.09 20.94 3.38 22.31 3.96C23.64 4.53 24.83 5.34 25.85 6.36C26.88 7.39 27.68 8.59 28.23 9.92C28.81 11.28 29.11 12.74 29.11 14.27C29.11 14.51 29 14.74 28.8 14.88L28.62 14.97L28.34 15.05Z"
            fill="#55AE7B" />
    </g>
    <defs>
        <clipPath id="clip0_193_2352">
            <rect fill="white" height="29.87" transform="translate(1)" width="28.49" />
        </clipPath>
    </defs>
</svg>
