<svg fill="none" height="30" viewBox="0 0 30 30" width="30" xmlns="http://www.w3.org/2000/svg">
    <g clip-path="url(#clip0_191_2340)">
        <path
            d="M14.98 28.94C14.79 28.94 14.6 28.91 14.36 28.84L3.45 25.38L0.73 24.51C0.17 24.34 0 24.13 0 23.57V6.4C0 5.84 0.17 5.61 0.71 5.44C5.33 3.98 9.95 2.52 14.56 1.06C14.69 1.02 14.81 1 14.96 1C15.11 1 15.25 1.02 15.38 1.07L29.07 5.4C29.75 5.61 29.89 5.8 29.89 6.52V15.1V23.51C29.89 24.15 29.73 24.36 29.12 24.54L28.36 24.78L27.25 25.12V23.59L27.48 23.51C27.71 23.43 27.93 23.36 28.16 23.29L28.26 23.26C28.39 23.22 28.39 23.2 28.39 23.09V7.18L28.22 7.24C27.14 7.6 26.08 7.94 25.02 8.25C24.8 8.32 24.8 8.35 24.81 8.51C24.81 9.31 24.81 10.09 24.81 10.87V12.04C24.81 12.54 24.52 12.86 24.07 12.86C23.97 12.86 23.87 12.85 23.77 12.82C23.47 12.74 23.17 12.65 22.87 12.55C22.72 12.51 22.6 12.49 22.49 12.49C22.21 12.49 21.96 12.6 21.74 12.82L21.48 13.07C21.3 13.25 21.1 13.43 20.89 13.62C20.79 13.72 20.66 13.84 20.54 13.94C20.38 14.08 20.2 14.16 20.01 14.16C19.71 14.16 19.44 13.97 19.34 13.67C19.31 13.61 19.28 13.5 19.28 13.37C19.28 13.36 19.28 13.27 19.28 13.2V10.08L18.01 10.48C17.3 10.71 16.58 10.93 15.87 11.15C15.71 11.2 15.69 11.22 15.69 11.39V14.38H15.35C15.13 14.38 14.9 14.42 14.68 14.51L14.21 14.7V11.27C14.05 11.15 13.91 11.11 13.78 11.07L13.41 10.95C9.44 9.7 5.48 8.44 1.52 7.18H1.51V23.11C1.51 23.2 1.52 23.22 1.52 23.22C2.14 23.4 2.67 23.57 3.2 23.74L13.87 27.12L13.94 27.22C14.24 27.7 14.77 27.99 15.36 27.99H16.02L16.12 28.65L15.56 28.83C15.41 28.89 15.22 28.92 15 28.92L14.98 28.94ZM22.98 8.92C22.26 9.15 21.55 9.38 20.83 9.6L20.75 9.71V11.79C20.98 11.58 21.19 11.39 21.39 11.18C21.64 10.92 21.9 10.86 22.08 10.86C22.19 10.86 22.31 10.88 22.44 10.93C22.62 11 22.78 11.05 22.94 11.09C23.05 11.12 23.18 11.15 23.3 11.19V8.81L22.97 8.92H22.98ZM14.79 9.87C14.86 9.89 14.92 9.91 14.96 9.91L17.57 9.09L14.23 8.03C11.6 7.2 8.97 6.36 6.35 5.52C6.14 5.46 5.96 5.43 5.81 5.43C5.66 5.43 5.5 5.46 5.32 5.52C4.67 5.76 4 5.96 3.32 6.17L3.24 6.19L14.79 9.86V9.87ZM19.84 8.26C19.91 8.28 19.96 8.29 20.04 8.29C20.11 8.29 20.17 8.29 20.21 8.27L21.64 7.81L10.02 4.14C10.02 4.14 9.95 4.12 9.92 4.11H9.86L8.3 4.6C8.79 4.75 19.85 8.26 19.85 8.26H19.84ZM13.99 3.84L23.87 6.97C23.96 7 24.02 7.01 24.07 7.01C24.12 7.01 24.18 7 24.24 6.98L26.71 6.2L22.32 4.82C20.12 4.13 17.93 3.43 15.73 2.72C15.42 2.63 15.15 2.58 14.92 2.58C14.7 2.58 14.5 2.62 14.29 2.7C13.68 2.92 13.08 3.11 12.44 3.3L12.36 3.33L14.01 3.85L13.99 3.84Z"
            fill="#55AE7B" />
        <path
            d="M15.33 29.36C14.5 29.36 13.69 29.01 13.12 28.41C12.82 28.1 12.58 27.7 12.43 27.26C12.33 26.93 12.28 26.62 12.28 26.33V16.1C12.28 14.76 13.14 13.59 14.42 13.19C14.71 13.1 15.01 13.06 15.32 13.06H25.55C27.23 13.06 28.59 14.42 28.59 16.1V26.33C28.59 28.01 27.23 29.37 25.55 29.37H15.32L15.33 29.36ZM15.33 14.4C15.11 14.4 14.88 14.44 14.66 14.53C14.04 14.79 13.64 15.4 13.64 16.09V26.32C13.64 26.66 13.73 26.96 13.91 27.24C14.22 27.72 14.75 28.01 15.33 28.01H25.56C26.51 28.01 27.25 27.27 27.25 26.32V16.09C27.25 15.14 26.51 14.4 25.56 14.4H15.33Z"
            fill="#2DB34A" />
        <path
            d="M24.86 16.58L18.63 22.81L16.16 20.35L14.45 22.06L18.64 26.24L26.58 18.3L24.87 16.59L24.86 16.58Z"
            fill="#2DB34A" />
    </g>
    <defs>
        <clipPath id="clip0_191_2340">
            <rect fill="white" height="28.36" transform="translate(0 1)" width="29.89" />
        </clipPath>
    </defs>
</svg>
