<svg fill="none" height="30" viewBox="0 0 30 30" width="30" xmlns="http://www.w3.org/2000/svg">
    <g clip-path="url(#clip0_180_2260)">
        <g clip-path="url(#clip1_180_2260)">
            <path
                d="M29.93 8.02C29.87 7.82 29.68 7.71 29.51 7.61C29.2 7.44 28.91 7.24 28.62 7.06C28.32 6.87 28.03 6.68 27.73 6.49C26.95 5.99 26.16 5.49 25.38 5C24.6 4.51 23.83 4.02 23.05 3.53C22.27 3.04 21.5 2.55 20.72 2.06C20.38 1.83 19.98 1.78 19.59 1.7C19.17 1.61 18.74 1.53 18.32 1.44C17.58 1.29 16.84 1.15 16.11 1C15.21 0.820001 14.3 0.640001 13.4 0.460001C12.94 0.370001 12.49 0.280001 12.03 0.190001C11.8 0.140001 11.57 0.100001 11.34 0.0600014C11.13 0.0200014 10.95 -0.0199986 10.74 0.0300014C10.36 0.130001 10.18 0.620001 10.39 0.940001C10.51 1.12 10.69 1.24 10.88 1.35C11.27 1.6 11.66 1.84 12.05 2.09C12.44 2.34 12.84 2.59 13.23 2.84C13.43 2.96 13.62 3.09 13.82 3.21C13.92 3.27 14.02 3.33 14.12 3.4C14.19 3.44 14.29 3.54 14.37 3.54C14.22 3.58 14.07 3.62 13.92 3.67L11.7 4.34C11.67 4.35 11.64 4.36 11.6 4.36C11.52 4.36 11.45 4.32 11.37 4.27L10.61 3.8C10.07 3.46 9.53003 3.11 8.99003 2.76C8.80003 2.63 8.62003 2.57 8.46003 2.57C8.30003 2.57 8.11003 2.63 7.93003 2.75C7.41003 3.1 6.88003 3.45 6.34003 3.8L4.67003 4.9C3.45003 5.71 1.63003 6.88 0.780029 7.44L0.320029 7.74C0.230029 7.8 0.140029 7.85 0.0300293 7.99V23.78L0.120029 23.85C0.420029 24.1 0.760029 24.3 1.10003 24.51L1.84003 24.96L9.06003 29.49L9.50003 29.77L9.60003 29.82L9.78003 29.85H10.04C10.04 29.85 10.18 29.85 10.37 29.77L15.54 28.21L14.85 27.96C14.59 27.87 14.35 27.7 14.15 27.49L14.04 27.37L13.89 27.42C13.67 27.49 13.44 27.56 13.2 27.62L10.64 28.38H10.51C10.51 28.38 10.49 28.35 10.49 28.28V14.79C10.49 14.72 10.48 14.57 10.48 14.56C10.49 14.55 10.55 14.53 10.73 14.48C10.81 14.46 11.66 14.21 11.66 14.21L12.29 14.02C17.7 12.41 23.12 10.8 28.54 9.2C28.59 9.19 28.62 9.18 28.66 9.18C28.7 9.18 28.73 9.18 28.73 9.32V22.87C28.73 23.03 28.71 23.04 28.61 23.06L28.49 23.09C28.49 23.09 28.46 23.09 28.44 23.1C28.44 23.45 28.44 23.81 28.43 24.16C28.43 24.24 28.43 24.33 28.42 24.41H28.43C28.9 24.26 29.25 24.15 29.45 24.1C29.52 24.07 29.6 24.04 29.75 23.96C29.79 23.93 29.83 23.9 29.93 23.81L30 23.54V8.73C30 8.51 30.04 8.25 29.97 8.03L29.93 8.02ZM13.55 1.52L13.74 1.57C14.27 1.71 14.81 1.85 15.06 1.9C15.59 2 16.11 2.12 16.63 2.23L18.3 2.59C18.79 2.7 19.29 2.8 19.79 2.9C19.89 2.92 20.01 3 20.17 3.1C20.97 3.61 21.76 4.12 22.62 4.69L23.34 5.16C24.25 5.76 25.17 6.37 26.12 6.95L24.1 6.55C22.89 6.3 21.68 6.06 20.46 5.82C20.38 5.81 20.31 5.78 20.21 5.73L13.55 1.52ZM9.17003 28.11L1.50003 23.25C1.36003 23.16 1.31003 23.11 1.31003 22.98V9.45L1.62003 9.65C2.26003 10.05 2.88003 10.44 3.49003 10.83L8.97003 14.29C9.11003 14.38 9.16003 14.46 9.16003 14.62V28.11H9.17003ZM10 13.18C9.92003 13.23 9.86003 13.26 9.82003 13.26C9.77003 13.26 9.70003 13.23 9.63003 13.18C9.55003 13.13 1.88003 8.26 1.85003 8.26L1.95003 8.2C2.45003 7.88 5.98003 5.59 6.46003 5.26L6.55003 5.19L7.03003 4.88C7.45003 4.61 7.86003 4.34 8.27003 4.06C8.36003 4 8.42003 3.98 8.46003 3.98C8.50003 3.98 8.55003 3.98 8.64003 4.05C9.43003 4.55 16.39 8.97 16.42 8.97L13.89 10.62L12.35 11.64C11.57 12.15 10.79 12.67 10.02 13.19L10 13.18ZM13.8 12.23L17.82 9.6C17.97 9.5 18.16 9.38 18.22 9.12C18.32 8.68 17.99 8.46 17.81 8.34C17.43 8.11 16.43 7.47 15.51 6.89L13.83 5.83L12.98 5.31C13.59 5.13 14.91 4.73 14.91 4.73C15.02 4.7 15.13 4.67 15.25 4.62C15.39 4.56 15.51 4.53 15.64 4.53C15.82 4.53 16.03 4.6 16.27 4.76C16.77 5.1 17.28 5.42 17.79 5.74L18.21 6.01C18.54 6.22 18.86 6.42 19.19 6.64C19.6 6.91 20.06 7.09 20.63 7.21L26.73 8.39L13.81 12.25L13.8 12.23Z"
                fill="#55AE7B" />
            <path
                d="M20.91 23.41L17.59 26.75L15.67 24.85L19.01 21.5L15.67 18.18L17.57 16.26L20.92 19.6L24.25 16.26L26.16 18.16L22.82 21.51L26.16 24.83L24.25 26.76L20.91 23.41Z"
                fill="#F52C45" />
            <path
                d="M15.85 29.4C15.21 29.4 14.61 29.2 14.1 28.82C13.84 28.63 13.62 28.4 13.45 28.15C13.1 27.65 12.92 27.07 12.92 26.48V16.27C12.92 14.66 14.23 13.34 15.85 13.34H26.06C27.67 13.34 28.99 14.65 28.99 16.27V26.48C28.99 28.09 27.68 29.41 26.06 29.41H15.85V29.4ZM15.85 14.49C14.87 14.49 14.08 15.28 14.08 16.26V26.47C14.08 26.91 14.24 27.33 14.54 27.65C14.73 27.87 14.97 28.03 15.24 28.12C15.43 28.2 15.63 28.23 15.86 28.23H26.07C27.05 28.23 27.84 27.44 27.84 26.46V16.25C27.84 15.27 27.05 14.48 26.07 14.48H15.86L15.85 14.49Z"
                fill="#F52C45" />
        </g>
    </g>
    <defs>
        <clipPath id="clip0_180_2260">
            <rect fill="white" height="30" width="30" />
        </clipPath>
        <clipPath id="clip1_180_2260">
            <rect fill="white" height="29.83" width="29.97" />
        </clipPath>
    </defs>
</svg>
