<svg height="24.004" viewBox="0 0 24 24.004" width="24" xmlns="http://www.w3.org/2000/svg">
    <g id="profile_dark_active_icon" transform="translate(-2205 -9088)">
        <rect data-name="Rectangle 17567" fill="none" height="24" id="Rectangle_17567"
            transform="translate(2205 9088)" width="24" />
        <g data-name="Group 9427" id="Group_9427" transform="translate(1906.15 8842.18)">
            <g data-name="Group 9426" id="Group_9426">
                <path
                    d="M316.511,250.531a5.543,5.543,0,0,0-3.063-4.145,7.141,7.141,0,0,0-1.88-.566l-1.436.01-.111.02a5.625,5.625,0,0,0-4.913,5.3,6.4,6.4,0,0,0,1.577,4.85,5.316,5.316,0,0,0,3.68,1.921c.172.01.343.02.505.02a5.37,5.37,0,0,0,4.489-2.375,6.283,6.283,0,0,0,1.152-5.035Zm-2.861,4.62a3.877,3.877,0,0,1-2.8,1.223,3.951,3.951,0,0,1-3.083-1.536,5.075,5.075,0,0,1-1.1-3.306,4.1,4.1,0,0,1,1.718-3.387,4.316,4.316,0,0,1,2.477-.778,4.053,4.053,0,0,1,4,3.073,4.723,4.723,0,0,1-1.212,4.711Z"
                    data-name="Path 8570" fill="#fff" id="Path_8570" />
                <path
                    d="M321.819,266.625a8.1,8.1,0,0,0-4.307-5.813,13.335,13.335,0,0,0-5.368-1.334c-.415-.03-.819-.04-1.223-.04-.607,0-1.234.03-1.87.08a13.878,13.878,0,0,0-4.034.91,8.066,8.066,0,0,0-4.408,4.014,10.745,10.745,0,0,0-.95,4.4.978.978,0,0,0,.232.718,1,1,0,0,0,.728.263h.01c1.587-.01,3.175-.01,4.762-.01h15.761a.788.788,0,0,0,.889-.9,12.641,12.641,0,0,0-.222-2.288Zm-1.466,1.527c-.051.05-.121.081-.3.081H301.64a.373.373,0,0,1-.283-.081c-.071-.081-.06-.212-.03-.435a7.588,7.588,0,0,1,1.021-3.144,6.441,6.441,0,0,1,3.073-2.608,11.793,11.793,0,0,1,3.72-.87c.6-.05,1.2-.08,1.78-.08a17.372,17.372,0,0,1,2.932.242,8.583,8.583,0,0,1,4.185,1.779,6.465,6.465,0,0,1,2.143,3.539,10.424,10.424,0,0,1,.222,1.314A.3.3,0,0,1,320.353,268.152Z"
                    data-name="Path 8571" fill="#fff" id="Path_8571" />
            </g>
            <path
                d="M313.65,255.151a3.877,3.877,0,0,1-2.8,1.223,3.951,3.951,0,0,1-3.083-1.536,5.075,5.075,0,0,1-1.1-3.306,4.1,4.1,0,0,1,1.718-3.387,4.316,4.316,0,0,1,2.477-.778,4.053,4.053,0,0,1,4,3.073,4.723,4.723,0,0,1-1.212,4.711Z"
                data-name="Path 8572" fill="#55AE7B" id="Path_8572" />
            <path
                d="M320.353,268.152c-.051.05-.121.081-.3.081H301.64a.373.373,0,0,1-.283-.081c-.071-.081-.06-.212-.03-.435a7.588,7.588,0,0,1,1.021-3.144,6.441,6.441,0,0,1,3.073-2.608,11.793,11.793,0,0,1,3.72-.87c.6-.05,1.2-.08,1.78-.08a17.372,17.372,0,0,1,2.932.242,8.583,8.583,0,0,1,4.185,1.779,6.465,6.465,0,0,1,2.143,3.539,10.424,10.424,0,0,1,.222,1.314A.3.3,0,0,1,320.353,268.152Z"
                data-name="Path 8573" fill="#55AE7B" id="Path_8573" />
        </g>
    </g>
</svg>
