<svg height="24" viewBox="0 0 24 24" width="24" xmlns="http://www.w3.org/2000/svg">
    <g id="profile_light_icon" transform="translate(-2283 -9088)">
        <rect data-name="Rectangle 17569" fill="none" height="24" id="Rectangle_17569"
            transform="translate(2283 9088)" width="24" />
        <g data-name="Group 9424" id="Group_9424" transform="translate(2010.028 8842.047)">
            <path
                d="M284.995,257.938c-.166,0-.337-.006-.51-.02a5.4,5.4,0,0,1-3.718-1.9,6.21,6.21,0,0,1-1.592-4.8,5.593,5.593,0,0,1,4.963-5.232l.11-.025,1.445-.007a7.011,7.011,0,0,1,1.9.56,5.477,5.477,0,0,1,3.094,4.092,6.123,6.123,0,0,1-1.157,4.982A5.464,5.464,0,0,1,284.995,257.938Zm-.016-10.455a4.391,4.391,0,0,0-2.5.767,4,4,0,0,0-1.73,3.348,4.923,4.923,0,0,0,1.108,3.277,4.049,4.049,0,0,0,3.117,1.512,3.965,3.965,0,0,0,2.832-1.211,4.6,4.6,0,0,0,1.224-4.653A4.077,4.077,0,0,0,284.978,247.483Z"
                data-name="Path 8568" fill="#121418" id="Path_8568" />
            <path
                d="M274.742,269.691a.98.98,0,0,1-.725-.261.941.941,0,0,1-.239-.71,10.481,10.481,0,0,1,.956-4.348,7.979,7.979,0,0,1,4.409-3.968,13.821,13.821,0,0,1,4.026-.9c.641-.057,1.27-.085,1.869-.085q.613,0,1.226.041a13.416,13.416,0,0,1,5.367,1.321,7.973,7.973,0,0,1,4.306,5.753,11.743,11.743,0,0,1,.228,2.251.893.893,0,0,1-.221.67.916.916,0,0,1-.672.227l-15.757,0q-2.383,0-4.766.011Zm10.3-8.711c-.579,0-1.18.028-1.784.082a11.71,11.71,0,0,0-3.721.863,6.466,6.466,0,0,0-3.074,2.573,7.6,7.6,0,0,0-1.021,3.112c-.027.218-.038.345.039.432a.356.356,0,0,0,.281.081l18.41,0c.181,0,.252-.028.3-.083a.323.323,0,0,0,.057-.256,11.694,11.694,0,0,0-.226-1.3,6.348,6.348,0,0,0-2.146-3.5,8.553,8.553,0,0,0-4.183-1.759A17.7,17.7,0,0,0,285.044,260.98Z"
                data-name="Path 8569" fill="#121418" id="Path_8569"
                transform="translate(0 0.262)" />
        </g>
    </g>
</svg>
