<svg height="24" viewBox="0 0 20.248 24" width="20.248" xmlns="http://www.w3.org/2000/svg">
    <g id="profile_light_active_icon" transform="translate(-417.873 -133)">
        <g data-name="Group 8480" id="Group_8480">
            <path
                d="M437.46,150.25a10.136,10.136,0,0,0-3.96-4.9,9.757,9.757,0,0,0-1.67-.87.446.446,0,0,1-.31-.34.433.433,0,0,1,.21-.4,6,6,0,0,0,.46-.4A5.889,5.889,0,0,0,434,138.7a5.747,5.747,0,0,0-1.07-3.13,5.985,5.985,0,0,0-4.89-2.57,6.079,6.079,0,0,0-2.62.6,5.987,5.987,0,0,0-1.26,10.04c.19.16.34.29.31.51s-.21.29-.45.39a10.19,10.19,0,0,0-6.14,8.87,3.37,3.37,0,0,0,.67,2.37,3.19,3.19,0,0,0,2.01,1.22h14.83l.03-.01.04-.01a3.188,3.188,0,0,0,2.66-3.29A9.832,9.832,0,0,0,437.46,150.25Zm-14.14-11.22a4.68,4.68,0,1,1,4.68,4.69A4.657,4.657,0,0,1,423.32,139.03Zm12.96,16.1a1.948,1.948,0,0,1-1.39.56H421.15a1.834,1.834,0,0,1-1.75-1.05,1.787,1.787,0,0,1-.19-.92,8.818,8.818,0,0,1,2.32-5.82,8.445,8.445,0,0,1,4.73-2.67,9.8,9.8,0,0,1,1.84-.18,8.513,8.513,0,0,1,5.83,2.32,8.616,8.616,0,0,1,2.68,4.72,8.268,8.268,0,0,1,.18,1.63A1.933,1.933,0,0,1,436.28,155.13Z"
                data-name="Path 7155" fill="#121418" id="Path_7155" />
        </g>
        <path d="M432.68,139.02a4.688,4.688,0,1,1-4.68-4.68A4.636,4.636,0,0,1,432.68,139.02Z"
            data-name="Path 7156" fill="#55AE7B" id="Path_7156" />
        <path
            d="M436.79,153.72a1.837,1.837,0,0,1-1.9,1.97H421.15a1.834,1.834,0,0,1-1.75-1.05,1.787,1.787,0,0,1-.19-.92,8.818,8.818,0,0,1,2.32-5.82,8.445,8.445,0,0,1,4.73-2.67,9.8,9.8,0,0,1,1.84-.18,8.513,8.513,0,0,1,5.83,2.32,8.616,8.616,0,0,1,2.68,4.72A8.268,8.268,0,0,1,436.79,153.72Z"
            data-name="Path 7157" fill="#55AE7B" id="Path_7157" />
    </g>
</svg>
