<svg fill="none" height="16" viewBox="0 0 16 16" width="16" xmlns="http://www.w3.org/2000/svg">
    <path
        d="M2.63879 14.7494C2.6688 14.3842 2.75885 13.9564 2.82888 13.5182C2.99896 12.4957 3.15904 11.4731 3.33912 10.4611C3.35913 10.315 3.30911 10.2315 3.21906 10.1376C2.25861 9.16728 1.30816 8.19694 0.347704 7.21617C0.087581 6.95532 -0.0324759 6.63187 0.0075431 6.26669C0.0775763 5.6824 0.437747 5.30678 1.00802 5.22331C2.30863 5.02507 3.61925 4.82683 4.91987 4.63902C5.07995 4.61815 5.16999 4.53468 5.24002 4.38861C5.8303 3.14699 6.41058 1.89494 7.01086 0.653317C7.311 0.0377242 8.00133 -0.181385 8.5716 0.16293C8.7917 0.298569 8.93177 0.496811 9.04182 0.736788C9.61209 1.94711 10.1924 3.15743 10.7526 4.36774C10.8327 4.54512 10.9427 4.61815 11.1328 4.64946C12.4334 4.83726 13.724 5.03551 15.0247 5.23375C15.4849 5.30678 15.815 5.56763 15.9451 6.03715C16.0752 6.49624 15.9751 6.91359 15.6349 7.24747C14.6845 8.20738 13.744 9.16728 12.8036 10.1168C12.6835 10.242 12.6435 10.3567 12.6735 10.5341C12.9036 11.8801 13.1238 13.226 13.3439 14.572C13.4639 15.3023 13.0637 15.8762 12.3634 15.991C12.1533 16.0223 11.9532 15.9701 11.7631 15.8658C10.5826 15.2189 9.40199 14.5824 8.23144 13.9251C8.07136 13.8312 7.9513 13.8208 7.78122 13.9251C6.62067 14.572 5.45012 15.198 4.27957 15.8449C3.99943 16.0014 3.7093 16.0431 3.39915 15.9388C2.92893 15.7823 2.62878 15.3545 2.62878 14.7598L2.63879 14.7494Z"
        fill="#F4CD32" />
</svg>
