<svg height="24" viewBox="0 0 24 24" width="24" xmlns="http://www.w3.org/2000/svg">
    <g id="rate_icon" transform="translate(-2322 -9088)">
        <rect data-name="Rectangle 17570" fill="none" height="24" id="Rectangle_17570"
            transform="translate(2322 9088)" width="24" />
        <path
            d="M85.531,218.046a3.179,3.179,0,0,0-3.067-2.226h-4.37l-1.327-4.137a3.228,3.228,0,0,0-6.147,0l-1.328,4.137H64.922a3.228,3.228,0,0,0-1.9,5.833l3.557,2.6-1.352,4.188a3.229,3.229,0,0,0,4.985,3.6l3.481-2.563,3.483,2.56a3.228,3.228,0,0,0,4.984-3.592l-1.355-4.193,3.561-2.6a3.178,3.178,0,0,0,1.164-3.607Zm-2.343,1.992-4.145,3.029a1,1,0,0,0-.362,1.116l1.575,4.871a1.227,1.227,0,0,1-1.9,1.365l-4.076-3a1,1,0,0,0-1.184,0l-4.076,3a1.227,1.227,0,0,1-1.9-1.365l1.58-4.871a1,1,0,0,0-.362-1.116l-4.144-3.029a1.227,1.227,0,0,1,.724-2.218h5.1a1,1,0,0,0,.952-.694l1.55-4.832a1.227,1.227,0,0,1,2.336,0l1.551,4.832a1,1,0,0,0,.952.694h5.1a1.228,1.228,0,0,1,.724,2.218Z"
            data-name="rate_icon" fill="#121418" id="rate_icon-2"
            transform="translate(2260.301 8878.943)" />
    </g>
</svg>
