<svg height="24" viewBox="0 0 23.987 24" width="23.987" xmlns="http://www.w3.org/2000/svg">
    <g data-name="recent _search_icon" id="recent__search_icon" transform="translate(-0.011)">
        <path
            d="M23,11a1,1,0,0,0-1,1,10.033,10.033,0,1,1-2.9-7.02A.862.862,0,0,1,19,5H16a1,1,0,1,0,0,2h3a3,3,0,0,0,3-3V1a1,1,0,0,0-2,0V3.065A11.993,11.993,0,1,0,24,12,1,1,0,0,0,23,11Z"
            data-name="Path 7106" fill="#121418" id="Path_7106" />
        <path
            d="M11.625,6A.625.625,0,0,0,11,6.625V9.752a.625.625,0,0,0,.183.442l1.876,1.876a.625.625,0,1,0,.884-.884L12.251,9.493V6.625A.625.625,0,0,0,11.625,6Z"
            data-name="Path 7107" fill="#121418" id="Path_7107"
            transform="translate(1.083 1.605)" />
    </g>
</svg>
