<svg height="23.994" viewBox="0 0 24 23.994" width="24" xmlns="http://www.w3.org/2000/svg">
    <g id="step_3" transform="translate(-73.847 -272.862)">
        <path
            d="M89.97,272.862a.638.638,0,0,1,.337.653c-.01,1.64,0,3.28-.01,4.92,0,.192.041.248.239.244.576-.014.57,0,.659-.573.132-.855.255-1.713.418-2.562a1.315,1.315,0,0,1,1.3-1.081c1.476-.016,2.952-.01,4.428-.005a.464.464,0,0,1,.5.5q.012.9,0,1.8c-.005.336-.2.506-.567.506-.961,0-1.921.006-2.882,0-.178,0-.231.049-.258.225-.314,2.059-.64,4.115-.961,6.172q-.5,3.225-1,6.45c-.118.754-.224,1.512-.37,2.261a1.348,1.348,0,0,1-1.372,1.11c-.577.009-1.154,0-1.765,0a2.16,2.16,0,0,1,.226,1.981,2.085,2.085,0,0,1-.817,1.027,2.128,2.128,0,0,1-2.671-.234,2.159,2.159,0,0,1-.317-2.756H79.668a2.152,2.152,0,0,1-3.187,2.832,2.188,2.188,0,0,1-.391-2.863c-1.007.09-1.919.007-2.243-1.158v-.469a1.4,1.4,0,0,1,1.515-1.243q4.026,0,8.05,0c.446,0,.625.124.717.48a.551.551,0,0,1-.577.6c-.1.006-.2,0-.305,0H75.584a1.345,1.345,0,0,0-.395.03.407.407,0,0,0-.308.37.412.412,0,0,0,.313.367,1.1,1.1,0,0,0,.3.027h14.74c.447,0,.563-.114.638-.6q.588-3.822,1.189-7.641.564-3.6,1.124-7.2c.009-.062.02-.123.032-.185a.617.617,0,0,1,.709-.589c.8,0,1.593,0,2.39,0,.558,0,.513.065.518-.542,0-.178-.067-.253-.248-.253-1.172,0-2.344,0-3.515,0-.337,0-.467.139-.528.533-.143.926-.29,1.852-.433,2.778q-.5,3.241-1.011,6.483-.441,2.813-.878,5.626a2.1,2.1,0,0,1-.076.367.551.551,0,0,1-.533.419c-.734.015-1.468.018-2.2,0-.345-.009-.506-.174-.576-.531a.561.561,0,0,1,.619-.538c.476-.013.953,0,1.429-.005.272,0,.283-.014.33-.283.038-.223.074-.446.111-.67.024-.15-.031-.223-.187-.215-.07,0-.14,0-.211,0H76.6c-.1,0-.2,0-.3,0a.6.6,0,0,1-.654-.539c-.163-.748-.3-1.5-.442-2.253q-.567-2.957-1.136-5.913a7.634,7.634,0,0,1-.2-1.388v-.349c.006-.2.134-.286.3-.344a1.133,1.133,0,0,1,.371-.043h1.38c.38,0,.382,0,.383-.372,0-.585,0-1.17,0-1.755,0-.094,0-.188.007-.281a.589.589,0,0,1,.584-.585c.109-.01.219-.006.328-.006h5.57c.07,0,.14,0,.21,0,.261-.005.282-.022.283-.279,0-.546,0-1.092,0-1.638,0-.094,0-.188,0-.281a.5.5,0,0,1,.444-.539Z"
            data-name="Path 7420" id="Path_7420" />
        <path d="M73.885,279.34l-.038-.011V279a.053.053,0,0,1,.041-.008Z" data-name="Path 7421"
            fill="#4d4d4d" id="Path_7421" />
        <path
            d="M90.959,279.623c-.15.964-.3,1.919-.447,2.874l-.87,5.57a.242.242,0,0,0,0,.047c0,.25-.109.316-.364.315q-6.221-.015-12.44,0c-.2,0-.291-.051-.31-.251a3.3,3.3,0,0,0-.086-.46c-.04-.162-.029-.24.183-.237.945.013,1.89.006,2.835.005.427,0,.654-.158.66-.46s-.228-.477-.668-.477c-1,0-2-.005-3,.005-.186,0-.244-.049-.279-.233q-.615-3.262-1.253-6.52c-.031-.158-.007-.192.152-.192q7.872.006,15.743,0C90.858,279.611,90.9,279.618,90.959,279.623Z"
            data-name="Path 7422" fill="#c8f2fe" id="Path_7422" />
        <path
            d="M85.952,291.115a7.2,7.2,0,0,0,.929.026c.117.383.231.467.639.468.672,0,1.344,0,2.015,0a.5.5,0,0,0,.578-.5q.917-5.873,1.833-11.745.273-1.746.551-3.49a.486.486,0,0,1,.553-.477c1.227,0,2.453,0,3.679,0,.145,0,.19.036.18.181a4.079,4.079,0,0,0,0,.585c.011.152-.045.179-.184.178-.938-.006-1.875,0-2.812,0-.417,0-.559.122-.623.533q-.845,5.409-1.689,10.82-.342,2.184-.689,4.368a.5.5,0,0,1-.584.495q-7.476,0-14.95,0c-.331,0-.514-.119-.576-.368a.457.457,0,0,1,.372-.554,1.535,1.535,0,0,1,.28-.015h8.014c.4,0,.554-.123.609-.489a9.271,9.271,0,0,0,.928.021c.075.026.093.1.122.16a.383.383,0,0,0,.365.238.4.4,0,0,0,.37-.27C85.887,291.215,85.885,291.144,85.952,291.115Z"
            data-name="Path 7423" fill="#72d7fe" id="Path_7423" />
        <path
            d="M86.825,273.8c.772,0,1.545,0,2.318,0,.163,0,.228.023.226.211q-.012,2.236,0,4.473c0,.148-.032.2-.191.2q-1.779-.01-3.56,0c-.177,0-.2-.065-.2-.216.007-.726,0-1.452,0-2.178,0-.447-.162-.608-.606-.61-.515,0-.515,0-.515-.524,0-.391.007-.781,0-1.171,0-.146.04-.185.184-.183C85.263,273.8,86.044,273.8,86.825,273.8Z"
            data-name="Path 7424" fill="#fe5d5d" id="Path_7424" />
        <path
            d="M80.875,278.673c-1.116,0-2.232,0-3.348.005-.178,0-.22-.046-.216-.219.012-.546.009-1.093,0-1.639,0-.152.021-.214.2-.213q3.395.009,6.789,0c.155,0,.195.044.192.2-.009.562-.01,1.124,0,1.685,0,.161-.052.19-.2.189C83.154,278.671,82.014,278.673,80.875,278.673Z"
            data-name="Path 7425" fill="#4db9f5" id="Path_7425" />
        <path d="M77.877,293.485a1.217,1.217,0,1,1-1.218,1.22A1.229,1.229,0,0,1,77.877,293.485Z"
            data-name="Path 7426" fill="#686c82" id="Path_7426" />
        <path d="M86.867,295.919a1.217,1.217,0,1,1,1.228-1.211A1.228,1.228,0,0,1,86.867,295.919Z"
            data-name="Path 7427" fill="#686c82" id="Path_7427" />
        <path
            d="M85.952,291.115c-.04.3-.186.467-.432.489s-.413-.134-.514-.463a.556.556,0,0,1,.286-.421C85.585,290.588,85.866,290.754,85.952,291.115Z"
            data-name="Path 7428" fill="#010101" id="Path_7428" />
        <path
            d="M81.99,287.006a.485.485,0,0,1-.451.475.466.466,0,1,1-.02-.931A.487.487,0,0,1,81.99,287.006Z"
            data-name="Path 7429" fill="#010101" id="Path_7429" />
    </g>
</svg>
