<svg height="23.999" viewBox="0 0 23.999 23.999" width="23.999" xmlns="http://www.w3.org/2000/svg">
    <g id="Step_1" transform="translate(-74.118 -114.18)">
        <path
            d="M98.115,132.723a3.272,3.272,0,0,0-2.528-3.216c-.454-.114-.91-.218-1.364-.329a.317.317,0,0,1-.166-.068.834.834,0,0,1,.138-.7,2.9,2.9,0,0,0,1.254-2.081,11,11,0,0,0-.007-2.64,2.892,2.892,0,0,0-1.912-2.405,2.969,2.969,0,0,0-3.079.477c-.126.1-.242.21-.358.312a4.02,4.02,0,0,0-3.585-2.912,4.062,4.062,0,0,0-4.372,2.924,3.252,3.252,0,0,0-1.842-.988,3.09,3.09,0,0,0-3.5,2.536,12.933,12.933,0,0,0-.023,2.595,2.763,2.763,0,0,0,1.119,2.054.7.7,0,0,1,.308.683c-.009.136-.049.187-.176.215-.4.089-.8.187-1.206.283a3.272,3.272,0,0,0-2.624,2.554c-.016.068.009.16-.072.209v3.75a.662.662,0,0,0,.658.332c1.123-.011,2.247,0,3.371-.008.153,0,.2.038.192.192-.012.351,0,.7,0,1.054,0,.479.153.632.629.633h4.824c.4,0,.52-.085.637-.469a.446.446,0,0,0-.305-.487.95.95,0,0,0-.347-.048H82.368c-.487,0-.449.018-.45-.441,0-.507.009-1.015,0-1.522a.528.528,0,1,0-1.055-.046,1.841,1.841,0,0,0-.01.257c0,.469,0,.938,0,1.406,0,.345,0,.345-.356.346h-.843c-.3,0-.307-.009-.308-.3,0-.609,0-1.218,0-1.827a3.373,3.373,0,0,1,2.26-3.092c.775-.242,1.577-.387,2.364-.588a.22.22,0,0,1,.291.158c.062.16.14.313.209.47.374.859.746,1.719,1.133,2.572a.552.552,0,0,0,.511.383.569.569,0,0,0,.531-.392c.1-.22.2-.442.3-.664.343-.786.692-1.572,1.037-2.358.051-.116.109-.206.261-.167a23.424,23.424,0,0,1,2.45.62,3.2,3.2,0,0,1,2.155,2.639,18.932,18.932,0,0,1,.055,2.335c.006.149-.063.211-.211.21-.344,0-.687,0-1.031,0-.239,0-.263-.027-.264-.275,0-.5,0-1,0-1.5a1.183,1.183,0,0,0-.03-.325.555.555,0,0,0-.555-.416.58.58,0,0,0-.476.482,1.694,1.694,0,0,0-.009.257c0,.5,0,1,0,1.5,0,.263-.014.276-.281.277-.585,0-1.171,0-1.757,0a.882.882,0,0,0-.411.074.409.409,0,0,0-.255.461c.09.353.224.468.565.468q2.578,0,5.155,0a.5.5,0,0,0,.561-.563c0-.368.013-.735,0-1.1-.008-.181.048-.215.219-.213,1.14.008,2.281,0,3.42,0,.417,0,.588-.169.588-.582C98.117,134.722,98.119,133.722,98.115,132.723Zm-14.106-3.241a3.684,3.684,0,0,0,0,.425,9.294,9.294,0,0,0-2.395-.737c-.1-.025-.13-.065-.139-.172a.66.66,0,0,1,.318-.72,2.331,2.331,0,0,0,.652-.712c.173.233.3.485.478.7a3.681,3.681,0,0,0,.875.8A.383.383,0,0,1,84.009,129.482Zm6.74-.421c.007.139-.148.1-.235.126-.531.149-1.076.243-1.6.411a5.614,5.614,0,0,0-.687.31c0-.22,0-.41,0-.6a.143.143,0,0,1,.077-.132,4.193,4.193,0,0,0,1.488-1.622,3.845,3.845,0,0,0,.883.917C90.862,128.618,90.739,128.862,90.749,129.061Z"
            data-name="Path 7322" id="Path_7322" />
        <path
            d="M86.21,114.18c.427.216.5.625.158.851a.458.458,0,0,1-.526-.749,1.528,1.528,0,0,1,.181-.1Z"
            data-name="Path 7323" fill="#010101" id="Path_7323" />
        <path
            d="M84.425,137.71c-.119-.385-.232-.468-.64-.468-.578,0-1.156-.008-1.734,0-.17,0-.205-.051-.2-.21.01-.594.006-1.188,0-1.781a.48.48,0,0,0-.347-.52.468.468,0,0,0-.588.508c-.006.594-.008,1.188,0,1.781,0,.17-.033.229-.215.222-.422-.015-.844-.005-1.266-.005-.085,0-.171.018-.167-.121a20.327,20.327,0,0,1,.046-2.457,3.3,3.3,0,0,1,2.527-2.846c.719-.207,1.455-.35,2.18-.534.15-.038.2,0,.259.133.447,1.03.9,2.056,1.352,3.084a.677.677,0,0,0,.207.306.469.469,0,0,0,.725-.241c.279-.618.547-1.241.819-1.862.188-.428.38-.855.561-1.286.051-.119.1-.166.241-.131.755.19,1.519.352,2.27.559A3.375,3.375,0,0,1,92.948,135c.023.692,0,1.385.011,2.077,0,.141-.052.167-.177.165-.43-.007-.86-.01-1.289,0-.153,0-.179-.051-.177-.187.007-.586,0-1.172,0-1.758a.608.608,0,0,0-.091-.379.433.433,0,0,0-.489-.188.464.464,0,0,0-.356.488c-.005.531,0,1.062,0,1.593a1.839,1.839,0,0,0,0,.235c.019.15-.034.2-.191.2-.663-.009-1.327,0-1.991,0-.365,0-.5.11-.59.468H86.585c-.06-.017-.081-.068-.1-.119a.4.4,0,0,0-.39-.279.4.4,0,0,0-.371.27c-.022.047-.031.106-.089.129Z"
            data-name="Path 7324" fill="#fe5a5a" id="Path_7324" />
        <path
            d="M86.585,117.048c0,.195.006.39,0,.584a.465.465,0,0,1-.476.495.459.459,0,0,1-.457-.489c-.009-.39-.009-.779,0-1.169a.468.468,0,1,1,.933-.006C86.591,116.658,86.585,116.853,86.585,117.048Z"
            data-name="Path 7325" id="Path_7325" />
        <path
            d="M87.608,116.369a.463.463,0,0,1,.166-.348c.207-.212.414-.425.629-.629a.469.469,0,1,1,.666.654q-.333.347-.682.676a.43.43,0,0,1-.519.081A.446.446,0,0,1,87.608,116.369Z"
            data-name="Path 7326" id="Path_7326" />
        <path
            d="M84.61,116.387a.457.457,0,0,1-.686.4,3.792,3.792,0,0,1-.869-.869.438.438,0,0,1,.083-.552.446.446,0,0,1,.557-.052,5.983,5.983,0,0,1,.828.818A.478.478,0,0,1,84.61,116.387Z"
            data-name="Path 7327" id="Path_7327" />
        <path
            d="M94.935,116.054a.729.729,0,0,1-.032.322.443.443,0,0,1-.464.286.427.427,0,0,1-.4-.332,1.081,1.081,0,0,1-.015-.509.459.459,0,0,1,.914.046C94.94,115.928,94.935,115.991,94.935,116.054Z"
            data-name="Path 7328" fill="#010101" id="Path_7328" />
        <path
            d="M94.939,118.261c0,.517-.252.763-.607.655-.236-.072-.339-.274-.33-.649.006-.311.13-.5.36-.56a.459.459,0,0,1,.566.381A1.3,1.3,0,0,1,94.939,118.261Z"
            data-name="Path 7329" fill="#010101" id="Path_7329" />
        <path
            d="M76.592,116.711c.418,0,.636.17.625.488s-.233.457-.688.449c-.345-.005-.553-.179-.556-.465C75.971,116.878,76.189,116.711,76.592,116.711Z"
            data-name="Path 7330" id="Path_7330" />
        <path
            d="M78.871,117.657a2.137,2.137,0,0,1-.277-.034.458.458,0,0,1-.35-.442.468.468,0,0,1,.346-.446,1.277,1.277,0,0,1,.465-.018.473.473,0,0,1,.443.461.478.478,0,0,1-.439.465,1.458,1.458,0,0,1-.187,0Z"
            data-name="Path 7331" fill="#010101" id="Path_7331" />
        <path
            d="M93.326,117.648c-.392,0-.6-.158-.609-.456-.007-.318.209-.482.632-.481.4,0,.615.168.608.48S93.74,117.649,93.326,117.648Z"
            data-name="Path 7332" id="Path_7332" />
        <path
            d="M78.2,116.041a2,2,0,0,1-.014.233.459.459,0,0,1-.9.047,1.1,1.1,0,0,1-.012-.51.464.464,0,0,1,.476-.394.471.471,0,0,1,.442.461c0,.054,0,.109,0,.163Z"
            data-name="Path 7333" fill="#010101" id="Path_7333" />
        <path
            d="M78.2,118.264c0,.513-.243.751-.6.654-.248-.069-.351-.266-.343-.662.006-.306.134-.5.369-.551a.46.46,0,0,1,.556.37A1.058,1.058,0,0,1,78.2,118.264Z"
            data-name="Path 7334" fill="#010101" id="Path_7334" />
        <path
            d="M95.622,117.649c-.378,0-.55-.1-.619-.368a.4.4,0,0,1,0-.205c.07-.263.241-.366.621-.365.35,0,.534.114.6.367C96.305,117.411,96.056,117.648,95.622,117.649Z"
            data-name="Path 7335" fill="#010101" id="Path_7335" />
        <path
            d="M85.635,137.711c.06-.3.222-.461.459-.467s.389.144.491.466a.575.575,0,0,1-.268.411C86.014,138.275,85.714,138.1,85.635,137.711Z"
            data-name="Path 7336" fill="#010101" id="Path_7336" />
        <path
            d="M83.982,124.592A4.454,4.454,0,0,0,87,123.649c.031-.024.063-.046.093-.07.342-.283.342-.283.731-.054l1.33.782c.071.042.154.068.149.183a14.786,14.786,0,0,1-.043,1.684,3.181,3.181,0,0,1-6.294-.057c-.063-.46-.021-.92-.039-1.38,0-.111.032-.15.146-.147C83.341,124.6,83.606,124.592,83.982,124.592Z"
            data-name="Path 7337" fill="#feccab" id="Path_7337" />
        <path
            d="M89.3,123.3l-1.275-.746-.141-.084c-.611-.36-.639-.349-1.133.145a3.4,3.4,0,0,1-2.318,1.027c-.444.02-.89.006-1.335.011-.106,0-.165-.006-.173-.144a3.194,3.194,0,1,1,6.375-.38C89.3,123.176,89.3,123.22,89.3,123.3Z"
            data-name="Path 7338" fill="#f4b855" id="Path_7338" />
        <path
            d="M97.178,133.9c0,.422,0,.843,0,1.265,0,.14-.017.218-.185.2-.246-.026-.576.1-.716-.052-.122-.135-.037-.459-.038-.7,0-.413,0-.827,0-1.241,0-.347-.179-.551-.468-.551s-.466.205-.468.553c0,.593-.009,1.186,0,1.779,0,.184-.055.22-.223.213-.335-.013-.671-.009-1.007,0-.133,0-.19-.018-.19-.174a4.33,4.33,0,0,0-.876-2.684.226.226,0,0,1-.024-.257q.434-1.021.856-2.048c.035-.085.057-.145.181-.112.5.131,1,.224,1.5.376a2.28,2.28,0,0,1,1.655,2.217C97.185,133.092,97.178,133.5,97.178,133.9Z"
            data-name="Path 7339" fill="#a4db69" id="Path_7339" />
        <path
            d="M75.055,133.88c0-.367,0-.734,0-1.1a2.333,2.333,0,0,1,1.836-2.37c.423-.108.851-.195,1.273-.3.122-.031.174-.018.224.1.275.679.558,1.354.844,2.027a.242.242,0,0,1-.023.277,4.279,4.279,0,0,0-.871,2.684c0,.127-.027.176-.165.173-.359-.01-.719-.009-1.078,0-.132,0-.17-.035-.168-.168.007-.57,0-1.14,0-1.71,0-.063,0-.125,0-.187a.464.464,0,0,0-.47-.479.456.456,0,0,0-.463.484c-.008.578,0,1.156,0,1.734,0,.323,0,.327-.312.322-.2,0-.463.086-.586-.034s-.033-.384-.038-.584C75.05,134.458,75.055,134.169,75.055,133.88Z"
            data-name="Path 7340" fill="#78d1f9" id="Path_7340" />
        <path
            d="M90.242,124.575c.319.122.6.237.883.337a8.766,8.766,0,0,0,3.077.34c.353,0,.344,0,.355.356a2.3,2.3,0,0,1-.579,1.748,2.147,2.147,0,0,1-3.6-.737,2.408,2.408,0,0,1-.134-.849C90.241,125.38,90.242,124.99,90.242,124.575Z"
            data-name="Path 7341" fill="#feccab" id="Path_7341" />
        <path
            d="M78.695,125.251a6.881,6.881,0,0,0,3.116-.615c.122-.057.193-.078.183.109a13.928,13.928,0,0,1-.04,1.473,2.142,2.142,0,0,1-3.408,1.4,2.2,2.2,0,0,1-.87-1.945c.011-.42,0-.42.41-.42Z"
            data-name="Path 7342" fill="#feccab" id="Path_7342" />
        <path
            d="M93.449,124.312a5.809,5.809,0,0,1-2.939-.664c-.156-.08-.167-.148-.106-.3a2.156,2.156,0,0,1,2.437-1.3,2.188,2.188,0,0,1,1.716,2.1c0,.139-.047.172-.175.169C94.109,124.307,93.835,124.312,93.449,124.312Z"
            data-name="Path 7343" fill="#868690" id="Path_7343" />
        <path
            d="M78.668,124.312c-.273,0-.547,0-.82,0-.131,0-.178-.036-.171-.171a2.112,2.112,0,0,1,1.255-1.936,2.063,2.063,0,0,1,2.21.24,2.107,2.107,0,0,1,.7.922c.057.138.034.2-.1.267a5.835,5.835,0,0,1-2.862.676C78.809,124.311,78.739,124.312,78.668,124.312Z"
            data-name="Path 7344" fill="#868690" id="Path_7344" />
        <path
            d="M87.286,129.635a3.093,3.093,0,0,1-.191,1.431c-.322.63-.581,1.292-.867,1.94-.03.069-.064.136-.113.238-.046-.1-.08-.164-.109-.231-.334-.755-.673-1.508-1-2.266a3.03,3.03,0,0,1-.063-1.041c0-.072.058-.063.1-.051A4.207,4.207,0,0,0,87.286,129.635Z"
            data-name="Path 7345" fill="#feb386" id="Path_7345" />
        <path
            d="M79.833,131.243c-.241-.578-.461-1.092-.669-1.611a1.784,1.784,0,0,1-.032-.648c0-.1.075-.054.12-.046a2.985,2.985,0,0,0,1.161,0c.114-.023.127.017.129.115a1.849,1.849,0,0,1-.143.862C80.2,130.328,80.035,130.762,79.833,131.243Z"
            data-name="Path 7346" fill="#feb386" id="Path_7346" />
        <path
            d="M91.7,128.914a3.086,3.086,0,0,0,1.283.021c.1-.02.123.007.122.1a1.85,1.85,0,0,1-.124.819c-.207.434-.376.885-.566,1.34-.089-.045-.093-.128-.121-.194-.155-.365-.29-.739-.466-1.093A1.938,1.938,0,0,1,91.7,128.914Z"
            data-name="Path 7347" fill="#feb386" id="Path_7347" />
        <path
            d="M89.075,130.527c.6-.2,1.165-.292,1.713-.442.1-.027.122.031.15.1.128.309.255.617.4.973A19.923,19.923,0,0,0,89.075,130.527Z"
            data-name="Path 7348" fill="#a4da68" id="Path_7348" />
        <path
            d="M80.888,131.157c.15-.36.278-.668.4-.976.028-.068.052-.123.151-.1.547.15,1.108.247,1.7.436A20.7,20.7,0,0,0,80.888,131.157Z"
            data-name="Path 7349" fill="#77d0f8" id="Path_7349" />
        <path
            d="M86.093,127.774a1.291,1.291,0,0,1-.843-.328.467.467,0,0,1-.091-.663.437.437,0,0,1,.642-.078.454.454,0,0,0,.612,0,.437.437,0,0,1,.64.085.46.46,0,0,1-.08.648A1.3,1.3,0,0,1,86.093,127.774Z"
            data-name="Path 7350" id="Path_7350" />
        <path
            d="M88.139,125.478a.46.46,0,0,1-.445.471.469.469,0,0,1-.48-.464.482.482,0,0,1,.461-.464A.474.474,0,0,1,88.139,125.478Z"
            data-name="Path 7351" fill="#010101" id="Path_7351" />
        <path d="M85,125.491a.461.461,0,0,1-.922,0,.461.461,0,1,1,.922,0Z" data-name="Path 7352"
            fill="#010101" id="Path_7352" />
    </g>
</svg>
