<svg height="23.999" viewBox="0 0 24 23.999" width="24" xmlns="http://www.w3.org/2000/svg">
    <g id="step_2" transform="translate(-76.112 -193.907)">
        <path
            d="M100.112,210.227v.047a.951.951,0,0,0,0,.468v.14a2.128,2.128,0,0,1-1.092,1.657c-.264.162-.413.133-.629-.1-.114-.286-.084-.419.189-.589a1.585,1.585,0,0,0,.7-.9,1.184,1.184,0,0,0-.019-.871,23.76,23.76,0,0,1-.892-2.758,21.929,21.929,0,0,0-1.629-3.573c-.194-.356-.353-.731-.568-1.076a.808.808,0,0,0-1.432,0,.612.612,0,0,0,0,.624c.161.321.355.624.5.951a.822.822,0,0,1,.1.263.355.355,0,0,1-.189.393.393.393,0,0,1-.478-.056,1.311,1.311,0,0,1-.246-.368c-.133-.256-.274-.51-.39-.773a.757.757,0,0,0-1.271-.083.61.61,0,0,0-.062.755c.19.341.352.7.54,1.038a.387.387,0,0,1-.145.564.408.408,0,0,1-.579-.179c-.177-.33-.358-.658-.528-.991a.708.708,0,0,0-.981-.342.751.751,0,0,0-.383,1.039c.165.327.322.659.5.979a.42.42,0,0,1,.052.38.438.438,0,0,1-.352.275.354.354,0,0,1-.371-.194c-.148-.229-.273-.473-.4-.715q-1.282-2.471-2.585-4.933c-.248-.468-.62-.626-1.014-.436a.879.879,0,0,0-.428,1.15c.22.5.5.972.752,1.455.4.758.8,1.519,1.2,2.279.443.842.893,1.681,1.318,2.532.032.063.065.125.093.19a.412.412,0,0,1-.561.565q-.648-.327-1.285-.673a6.854,6.854,0,0,0-.669-.336.724.724,0,0,0-.915.3.76.76,0,0,0,.062,1.007,1.455,1.455,0,0,0,.388.257c1.668.851,3.364,1.646,5.035,2.491a2.585,2.585,0,0,1,1.2,1.142,1.472,1.472,0,0,0,.889.749,1.5,1.5,0,0,0,1.2-.109c.66-.33,1.311-.679,1.965-1.022a.43.43,0,0,1,.656.153c.086.269.042.415-.2.545-.73.387-1.45.794-2.2,1.145a2.345,2.345,0,0,1-2.969-.961,2.189,2.189,0,0,0-1.165-1.023c-.182-.069-.351-.17-.526-.255-.2-.1-.225-.083-.226.139,0,.725,0,1.45,0,2.175,0,.545.007,1.091,0,1.636a1.513,1.513,0,0,1-.684,1.357,1.819,1.819,0,0,1-.552.161H77.215a1.42,1.42,0,0,1-.6-.238,1.323,1.323,0,0,1-.5-1.08c.009-.881,0-1.763,0-2.644q0-9.322,0-18.646a1.312,1.312,0,0,1,.348-.983,1.23,1.23,0,0,1,.912-.406c.359,0,.717,0,1.076,0,.279,0,.374.1.415.4a.445.445,0,0,1-.468.4c-.264.017-.53,0-.8.008a.624.624,0,0,0-.682.687c-.007.195.005.39,0,.584s.08.269.266.257c.085-.005.171,0,.257,0h9.983a2.356,2.356,0,0,1,.3.008c.411-.008.823-.006,1.234,0,.186,0,.273-.062.264-.256-.012-.217.013-.435-.015-.652a.634.634,0,0,0-.694-.63c-.342-.005-.683-.008-1.025,0q-3.434.008-6.867,0c-.386,0-.487-.066-.6-.361.015-.334.114-.441.434-.441q4.131,0,8.26,0a1.327,1.327,0,0,1,1.287,1.058,3.157,3.157,0,0,1,.062.651q0,4.118,0,8.236a1.163,1.163,0,0,0,.006.229c.01.018.025.021.038.006a1.624,1.624,0,0,1,1.459-.527.327.327,0,0,0,.37-.2,1.591,1.591,0,0,1,1.645-.879.371.371,0,0,0,.422-.227,1.571,1.571,0,0,1,1.461-.85,1.519,1.519,0,0,1,1.421.835,34.623,34.623,0,0,1,2.163,4.483c.231.648.4,1.312.585,1.973a2.469,2.469,0,0,0,.164.487A2.607,2.607,0,0,1,100.112,210.227Z"
            data-name="Path 7380" fill="#060606" id="Path_7380" />
        <path d="M100.112,210.742a.521.521,0,0,1,0-.468Z" data-name="Path 7381" fill="#191919"
            id="Path_7381" />
        <path
            d="M76.852,213.223c0-.061-.011-.123-.011-.185q0-7.892,0-15.783c0-.062.007-.124.01-.186a.427.427,0,0,1,.229-.022H87.494c.307,0,.33.02.335.328,0,.273,0,.546,0,.819a.362.362,0,0,1-.079.284h-9.1a.844.844,0,0,0-.954.945q0,1.136,0,2.27a.843.843,0,0,0,.94.937q3.311,0,6.622,0a.324.324,0,0,1,.34.2c.689,1.333,1.389,2.662,2.085,3.992.028.054.049.112.074.169a1.112,1.112,0,0,1,.066.36c-.006.085.012.2-.12.214a3.947,3.947,0,0,0-.791-.333c-.1-.015-.085-.1-.094-.162a3.785,3.785,0,1,0-4.3,4.2,3.7,3.7,0,0,0,3.157-1.01.209.209,0,0,1,.292-.035c.576.306,1.158.6,1.739.9a.3.3,0,0,1,.124.287c0,.522.008,1.044,0,1.566-.005.249-.041.276-.291.276H77.058A.364.364,0,0,1,76.852,213.223Z"
            data-name="Path 7382" fill="#e0f2fe" id="Path_7382" />
        <path
            d="M93.509,214.015a1.373,1.373,0,0,1-.882-.713,2.721,2.721,0,0,0-1.3-1.223c-1.693-.824-3.378-1.666-5.064-2.5a.85.85,0,0,1-.331-1.33A.791.791,0,0,1,87.006,208q.882.454,1.757.924c.183.1.361.171.534,0s.1-.349.005-.534q-1.627-3.1-3.251-6.205a.939.939,0,0,1,.137-1.216.792.792,0,0,1,1.32.241c.461.866.911,1.737,1.366,2.606q.786,1.5,1.571,3c.071.137.152.258.324.267a.352.352,0,0,0,.339-.513c-.168-.342-.354-.675-.53-1.014a.787.787,0,0,1,.11-.932.885.885,0,0,1,.955-.262.606.606,0,0,1,.359.311c.181.362.371.72.562,1.076a.342.342,0,0,0,.5.183.331.331,0,0,0,.124-.5c-.173-.34-.352-.677-.528-1.015a.793.793,0,0,1,.651-1.172.687.687,0,0,1,.773.421c.173.331.344.663.52.993.127.237.315.3.516.19s.23-.28.1-.524c-.179-.345-.355-.693-.545-1.032a.6.6,0,0,1,.009-.659c.163-.041.194.1.246.191.184.326.342.665.52.994a19.634,19.634,0,0,1,1.954,4.92,4.348,4.348,0,0,0,.327.9,1.985,1.985,0,0,1-.758,2.594c-.431.269-.895.476-1.341.716-.624.337-1.259.653-1.882.992A.655.655,0,0,1,93.509,214.015Z"
            data-name="Path 7383" fill="#fef0aa" id="Path_7383" />
        <path
            d="M87.517,217.2c-.085,0-.171.007-.257.007H77.689c-.613,0-.848-.235-.849-.846,0-.733,0-1.467,0-2.2,0-.127.011-.2.172-.2q5.347.007,10.694,0a.233.233,0,0,1,.046.008.413.413,0,0,1,.076.308c0,.744.007,1.488,0,2.232A.675.675,0,0,1,87.517,217.2Z"
            data-name="Path 7384" fill="#6b46ce" id="Path_7384" />
        <path
            d="M87.714,200.348l-.163-.091a1.476,1.476,0,0,0-1.635.013,1.5,1.5,0,0,0-.751,1.478c.014.154-.027.182-.17.182q-3.182-.006-6.363,0c-.168,0-.24-.055-.239-.229q.009-1.147,0-2.293c0-.173.067-.23.237-.23q4.434.006,8.867,0c.162,0,.223.057.219.218C87.708,199.7,87.714,200.013,87.714,200.348Z"
            data-name="Path 7385" fill="#fd75a6" id="Path_7385" />
        <path
            d="M78.813,194.292h1.256c.058.27.232.346.5.345,2.224-.007,4.448,0,6.672,0,.094,0,.187,0,.28.007a.493.493,0,0,1,.279.431,5.891,5.891,0,0,1,.015,1.119.2.2,0,0,1-.061.124c-.078,0-.155.009-.233.009q-5.205,0-10.411.005c-.207,0-.29-.043-.271-.265.022-.248,0-.5.007-.748a.665.665,0,0,1,.682-.681c.273-.007.546-.011.819,0A.4.4,0,0,0,78.813,194.292Z"
            data-name="Path 7386" fill="#6b46ce" id="Path_7386" />
        <path
            d="M82.663,210.569A3.078,3.078,0,0,1,81,205.231a2.714,2.714,0,0,1,1.785-.768,1.963,1.963,0,0,1,.908.62A2.952,2.952,0,0,1,84.4,206.2c0,.114-.091.177-.161.248q-.835.837-1.672,1.672c-.227.225-.27.224-.5,0-.161-.159-.319-.321-.481-.479a.5.5,0,0,0-.233-.15.285.285,0,0,0-.313.1.242.242,0,0,0,0,.324A7.956,7.956,0,0,0,82.14,209c.178.139.318.04.449-.091l1.656-1.656c.05-.049.1-.1.15-.147s.115-.111.206-.081a.22.22,0,0,1,.074.187,3.484,3.484,0,0,1-1.479,3.167A.666.666,0,0,1,82.663,210.569Z"
            data-name="Path 7387" fill="#cfed7e" id="Path_7387" />
        <path
            d="M93.509,214.015c.49-.32,1.029-.547,1.539-.831.6-.332,1.217-.628,1.816-.961a1.9,1.9,0,0,0,.8-2.589,11.219,11.219,0,0,1-.584-1.864,15.74,15.74,0,0,0-.843-2.245c-.429-.891-.892-1.766-1.343-2.646-.048-.094-.084-.2-.2-.241a.858.858,0,0,1,1.509-.052,30.515,30.515,0,0,1,2.2,4.6c.15.451.293.9.405,1.364a6.42,6.42,0,0,0,.443,1.275,1.561,1.561,0,0,1-.606,2.056c-.269.169-.3.24-.211.534l-1.12.57c-.207-.228-.294-.246-.563-.106-.667.347-1.33.7-2,1.042A1.44,1.44,0,0,1,93.509,214.015Z"
            data-name="Path 7388" fill="#fee97f" id="Path_7388" />
        <path
            d="M84.378,206.205a4.5,4.5,0,0,0-.79-1.148,5.12,5.12,0,0,0-.8-.594,2.8,2.8,0,0,1,1.932.461A3.065,3.065,0,0,1,86.1,207a.266.266,0,0,1-.181.352,1.546,1.546,0,0,0-.724,2.134.208.208,0,0,1-.055.309,3.023,3.023,0,0,1-2.48.772,1.359,1.359,0,0,0,.684-.38,3.444,3.444,0,0,0,1.26-3.064.319.319,0,0,0-.035-.084c-.034-.106.052-.154.106-.214.1-.115.222-.217.326-.333a.31.31,0,0,0,.029-.438.315.315,0,0,0-.422.022C84.54,206.133,84.491,206.229,84.378,206.205Z"
            data-name="Path 7389" fill="#ade517" id="Path_7389" />
        <path
            d="M87.75,198.477c0-.39-.008-.78,0-1.17.005-.179-.042-.245-.234-.241-.615.012-1.232,0-1.848,0H76.851c.054-.088.14-.039.208-.04q5.993,0,11.985,0c.171,0,.242.024.241.223-.008,1.865-.005,3.729-.005,5.594v.13l-.047.016a8.564,8.564,0,0,0-.418-.787,2.467,2.467,0,0,1-.4-1.636c.03-.364,0-.733,0-1.1A.862.862,0,0,0,87.75,198.477Z"
            data-name="Path 7390" fill="#cbeafe" id="Path_7390" />
        <path
            d="M87.517,217.2a1.13,1.13,0,0,0,.237-.733c-.01-.83,0-1.659,0-2.488.46,0,.92,0,1.38-.011.131,0,.155.056.155.169,0,.78,0,1.56-.005,2.34a.679.679,0,0,1-.757.73C88.188,217.2,87.853,217.2,87.517,217.2Z"
            data-name="Path 7391" fill="#5f36ce" id="Path_7391" />
        <path
            d="M76.852,213.223q5.3,0,10.6,0c.23,0,.313-.045.3-.293-.021-.514-.007-1.029-.006-1.544a.486.486,0,0,0-.047-.273c.492.231.983.462,1.477.69a.153.153,0,0,1,.1.162c0,.382,0,.764,0,1.146,0,.136-.063.149-.172.149-.507,0-1.014,0-1.521,0q-5.251,0-10.5,0C77.01,213.26,76.918,213.309,76.852,213.223Z"
            data-name="Path 7392" fill="#cbeafe" id="Path_7392" />
        <path
            d="M87.75,196.316c0-.32-.009-.64,0-.959a1.075,1.075,0,0,0-.236-.715c.367,0,.733-.012,1.1,0a.638.638,0,0,1,.644.564,7.8,7.8,0,0,1,.023,1c0,.115-.068.121-.153.12Z"
            data-name="Path 7393" fill="#5f36ce" id="Path_7393" />
        <path d="M87.7,207.56c.108-.183.02-.385.054-.574l.444.8A1.255,1.255,0,0,1,87.7,207.56Z"
            data-name="Path 7394" fill="#c6e4f8" id="Path_7394" />
        <path
            d="M83.058,216.514c-.359,0-.718.01-1.077,0a.931.931,0,0,1-.1-1.846,20.214,20.214,0,0,1,2.361-.009.234.234,0,0,1,.046.009.886.886,0,0,1,.709,1,.857.857,0,0,1-.811.842c-.031,0-.063,0-.094,0h-1.03Z"
            data-name="Path 7395" fill="#060606" id="Path_7395" />
        <path
            d="M84.378,206.205c.052-.046.106-.089.156-.137.2-.191.39-.213.548-.06s.143.356-.061.565c-.15.155-.3.312-.45.468q-.922.913-1.845,1.827c-.364.362-.468.362-.838-.008-.271-.27-.543-.539-.811-.811-.2-.2-.21-.383-.039-.547.156-.151.345-.136.533.048q.318.311.629.629c.066.067.113.116.205.022C83.06,207.533,83.72,206.87,84.378,206.205Z"
            data-name="Path 7396" fill="#060606" id="Path_7396" />
        <path
            d="M83.068,215.342h.959c.169,0,.3.06.3.249s-.131.228-.29.228q-.97,0-1.941,0c-.167,0-.3-.044-.294-.245s.149-.232.31-.232Z"
            data-name="Path 7397" fill="#5dd6f3" id="Path_7397" />
    </g>
</svg>
