<svg height="24" viewBox="0 0 24.024 24" width="24.024" xmlns="http://www.w3.org/2000/svg">
    <g id="step_4" transform="translate(-72.993 -350.819)">
        <path
            d="M97.017,366.132c-.052-.244-.027-.494-.066-.738a15.626,15.626,0,0,0-1.626-4.886,13.3,13.3,0,0,0-3.2-3.984,4.1,4.1,0,0,1,2.188.763c.105.083.193.183.3.264a.437.437,0,0,0,.581-.008.457.457,0,0,0,.1-.555.78.78,0,0,0-.159-.2,3.89,3.89,0,0,0-1.654-.939c-.287-.094-.287-.086-.115-.325a1.723,1.723,0,0,0,.162-1.935,2.093,2.093,0,0,0-1.06-.983.31.31,0,0,1-.218-.341c.007-.133.023-.264.038-.4a.862.862,0,0,0-1.023-1,1.513,1.513,0,0,0-.756.4.976.976,0,0,1-1.362.034,1.787,1.787,0,0,0-1.085-.48h-.563a1.765,1.765,0,0,0-1.038.48.975.975,0,0,1-1.31,0,2.417,2.417,0,0,0-.478-.337.862.862,0,0,0-1.329.711,6.171,6.171,0,0,0,.059,1.119,5.119,5.119,0,0,0,1.184,2.681c.129.142.059.213-.063.29a9.977,9.977,0,0,0-1.34,1.021c-.028.025-.059.054-.1.022a.63.63,0,0,1-.019-.252q0-1.253,0-2.5a1.2,1.2,0,0,0-.468-.954,2.769,2.769,0,0,0-.706-.411,4.371,4.371,0,0,0-1.459-.32,4.871,4.871,0,0,0-2.6.458,1.524,1.524,0,0,0-.917,1.5c.025,1.123.009,2.247.007,3.37,0,.269-.017.278-.283.33a4.575,4.575,0,0,0-1.011.294,1.654,1.654,0,0,0-1.111,1.661c.031,3.089.012,6.178.012,9.267a1.663,1.663,0,0,0,0,.187.313.313,0,0,1-.271.39,1.774,1.774,0,0,0-.514.226,1.385,1.385,0,0,0-.744.908v2.435a1.271,1.271,0,0,0,.688.919,3.1,3.1,0,0,0,.859.366,6.885,6.885,0,0,0,1.979.132,3.67,3.67,0,0,0,1.706-.447,1.638,1.638,0,0,0,.648-.595.209.209,0,0,1,.32-.1,5.144,5.144,0,0,0,3.331.241,2.694,2.694,0,0,0,1.38-.708,1.207,1.207,0,0,0,.368-.883c0-.125,0-.249,0-.374.008-1.552,0-3.1,0-4.656a1.267,1.267,0,0,0-.417-.935,2.12,2.12,0,0,0-.662-.433,4.992,4.992,0,0,0-2.177-.375c-.348.012-.358-.007-.358-.348q0-2.166,0-4.33c-.01-.374-.01-.748,0-1.122a1.3,1.3,0,0,0-.6-1.147,3.805,3.805,0,0,0-1.939-.625c-.2-.017-.278-.079-.277-.28,0-.741,0-1.481,0-2.222,0-.214.028-.227.236-.146a5.237,5.237,0,0,0,3.82.01c.212-.079.218-.077.219.154,0,.694,0,1.388,0,2.082a.652.652,0,0,1-.159.449,7.667,7.667,0,0,0-.554.7.474.474,0,0,0,.062.691.454.454,0,0,0,.645-.107c.08-.086.149-.181.221-.273a10.992,10.992,0,0,1,2.984-2.668.47.47,0,0,1,.462-.044c.231.094.23.081.051.271-.227.238-.488.439-.717.673a.456.456,0,0,0,0,.7.429.429,0,0,0,.613-.032c.479-.412.938-.847,1.391-1.287.047-.046.093-.125.174-.084.064.033.042.112.043.172,0,.281-.01.562.007.842a.5.5,0,0,0,.463.5.48.48,0,0,0,.446-.525c0-.3,0-.592,0-.889,0-.046,0-.1.043-.126s.085.022.119.053c.138.127.293.233.421.371.3.327.663.594.97.917a.522.522,0,0,0,.46.186.431.431,0,0,0,.374-.311.441.441,0,0,0-.147-.486c-.265-.242-.5-.516-.789-.733-.129-.1-.092-.159.049-.19a.521.521,0,0,1,.53,0,11.636,11.636,0,0,1,3.649,3.611,14.247,14.247,0,0,1,1.9,4.533,8.872,8.872,0,0,1,.23,3.546,3.97,3.97,0,0,1-3.159,3.307,7.954,7.954,0,0,1-1.858.2c-1.641-.005-3.283,0-4.924,0-.1,0-.2,0-.305.007a.441.441,0,0,0-.456.459.473.473,0,0,0,.466.464,2.59,2.59,0,0,0,.305.007q2.59,0,5.183,0a7,7,0,0,0,2.194-.33,4.849,4.849,0,0,0,3.326-3.342,7.7,7.7,0,0,0,.181-1.171v-.468a1.164,1.164,0,0,1-.024-.367c.012-.1-.027-.2.024-.289Zm-6.131-10.585c.157-.212.32-.418.467-.634a4.368,4.368,0,0,0,.621-1.4c.03-.12.063-.176.195-.111a1.192,1.192,0,0,1,.711.947.984.984,0,0,1-.5.937A1.845,1.845,0,0,1,90.886,355.547Z"
            data-name="Path 7462" id="Path_7462" />
        <path d="M97.017,367.162c-.093-.116-.028-.251-.045-.376.016-.02.031-.019.045,0Z"
            data-name="Path 7463" fill="#151515" id="Path_7463" />
        <path d="M97.017,366.788l-.045,0c.016-.093-.045-.2.045-.279Z" data-name="Path 7464"
            fill="#242424" id="Path_7464" />
        <path
            d="M85.395,372l-1.181,0c0-1.527-.02-3.054,0-4.581a1.356,1.356,0,0,0-.7-1.253,3.968,3.968,0,0,0-1.891-.538,8.167,8.167,0,0,0-.843,0c-.123.005-.18-.009-.179-.155.008-1.543.009-3.085.012-4.628a6.678,6.678,0,0,1,.805-1.388c.026-.037.058-.075.114-.064.3.1.409.063.618-.211a11.337,11.337,0,0,1,3.126-2.862.489.489,0,0,1,.554-.053,1.776,1.776,0,0,0,.331.11c-.336.313-.654.61-.973.906a.419.419,0,0,0-.16.436.4.4,0,0,0,.689.163c.462-.421.916-.851,1.374-1.277l.12-.111c.047-.043.1-.089.165-.054s.036.1.036.148c0,.335,0,.671,0,1.006a.387.387,0,0,0,.315.41.381.381,0,0,0,.424-.175.447.447,0,0,0,.059-.269c0-.32,0-.64,0-.96,0-.058-.031-.134.042-.169s.13.028.18.075q.712.663,1.423,1.327a.527.527,0,0,0,.344.18.376.376,0,0,0,.376-.229.386.386,0,0,0-.1-.469c-.295-.279-.594-.554-.892-.831l-.13-.119.286-.065a.367.367,0,0,1,.366.093,9.764,9.764,0,0,1,.84.675,13.3,13.3,0,0,1,3.634,5.428,14.722,14.722,0,0,1,.844,3.47,4.441,4.441,0,0,1,.06.885c-.007.088.022.2-.1.236-.065-.016-.1-.072-.148-.11a.322.322,0,0,0-.545.178,2.352,2.352,0,0,0-.054.393,2.62,2.62,0,0,1-.851,1.77,3.251,3.251,0,0,1-1.851.716c-.14.015-.278.035-.418.051-.238.027-.352.14-.344.33a.375.375,0,0,0,.386.334,2.957,2.957,0,0,0,.42-.04,3.936,3.936,0,0,0,2.478-1.093,3.379,3.379,0,0,0,.581-.928c.037-.076.055-.164.135-.214.178.05.079.176.056.257a4.307,4.307,0,0,1-.862,1.614,3.333,3.333,0,0,1-1.383,1.036,4.943,4.943,0,0,1-1.592.225c-1.82.006-3.641,0-5.462,0C85.578,371.6,85.485,371.674,85.395,372Z"
            data-name="Path 7465" fill="#fedb00" id="Path_7465" />
        <path
            d="M75.392,365.17c0-1.4,0-2.808,0-4.212,0-.2.03-.226.225-.145a4.967,4.967,0,0,0,4-.016c.176-.076.185-.02.184.132,0,1.552-.005,3.1,0,4.657a.222.222,0,0,1-.194.254,2.541,2.541,0,0,0-.95.49,1.193,1.193,0,0,0-.463.976c.012.85,0,1.7.006,2.551,0,.171-.005.241-.2.147a4.5,4.5,0,0,0-2.353-.388c-.247.022-.257-.064-.257-.257C75.394,367.963,75.392,366.567,75.392,365.17Z"
            data-name="Path 7466" fill="#fe9701" id="Path_7466" />
        <path
            d="M83.406,368.325v.885c0,.991-.011,1.981.007,2.972a.616.616,0,0,1-.35.6,3.448,3.448,0,0,1-1.433.392,4.375,4.375,0,0,1-2-.255,2.311,2.311,0,0,1-.373-.193.516.516,0,0,1-.261-.484c.01-1.232,0-2.465,0-3.7v-.225A5.216,5.216,0,0,0,83.406,368.325Z"
            data-name="Path 7467" fill="#fedb00" id="Path_7467" />
        <path
            d="M89.03,355.547a10.157,10.157,0,0,0,.732-1.714c.09-.307.012-.514-.232-.594s-.436.046-.531.352a7.272,7.272,0,0,1-.885,1.873.367.367,0,0,1-.611,0,7.3,7.3,0,0,1-.856-1.785,2.016,2.016,0,0,0-.066-.2.391.391,0,0,0-.494-.238.386.386,0,0,0-.255.5,8.227,8.227,0,0,0,.7,1.676c.026.047.05.1.076.144a1.225,1.225,0,0,1-.916-.245,2.924,2.924,0,0,1-.887-1.011,5.261,5.261,0,0,1-.612-2.6,1.072,1.072,0,0,1,.387.246,1.835,1.835,0,0,0,2.459-.015,1.046,1.046,0,0,1,1.512-.005,1.883,1.883,0,0,0,2.034.321.2.2,0,0,1,.052.194,4.939,4.939,0,0,1-1.142,2.791C89.371,355.381,89.259,355.559,89.03,355.547Z"
            data-name="Path 7468" fill="#fedb00" id="Path_7468" />
        <path
            d="M81.526,359.387a10.245,10.245,0,0,0-.822,1.327.252.252,0,0,1-.1.125c0-.366-.02-.733-.006-1.1a1.2,1.2,0,0,0-.535-1.058,3.658,3.658,0,0,0-2.022-.644c-.208-.013-.258-.07-.255-.271.011-.865,0-1.731,0-2.639a5.065,5.065,0,0,0,2.2.488,4.971,4.971,0,0,0,2.2-.49v.6c0,.647,0,1.3,0,1.942a.435.435,0,0,1-.117.314c-.2.236-.4.479-.591.726C81.277,358.992,81.288,359.133,81.526,359.387Z"
            data-name="Path 7469" fill="#fe9701" id="Path_7469" />
        <path
            d="M92.982,371.375a6.084,6.084,0,0,0,.935-.651,4.23,4.23,0,0,0,1.3-2.212c0-.011-.015-.026-.023-.039a.132.132,0,0,1-.028-.151,4.969,4.969,0,0,0,.176-1.175.1.1,0,0,1,.043-.078,1.313,1.313,0,0,0,.029-.6,15.788,15.788,0,0,0-.407-2.4,14.594,14.594,0,0,0-2.52-5.273,12.188,12.188,0,0,0-2.376-2.328.575.575,0,0,0-.375-.171.5.5,0,0,1,.631.024,12.007,12.007,0,0,1,4.626,5.473,12.962,12.962,0,0,1,1.218,5.123,4.631,4.631,0,0,1-.894,3.01A4.056,4.056,0,0,1,92.982,371.375Z"
            data-name="Path 7470" fill="#fdc008" id="Path_7470" />
        <path
            d="M81.192,366.407a3.9,3.9,0,0,1,1.729.336c.209.1.474.2.468.467,0,.25-.255.365-.461.45a4.4,4.4,0,0,1-3.458,0c-.2-.085-.453-.2-.457-.452s.251-.359.451-.456A3.887,3.887,0,0,1,81.192,366.407Z"
            data-name="Path 7471" fill="#feea3a" id="Path_7471" />
        <path
            d="M77.612,358.816a3.861,3.861,0,0,1,1.706.335c.208.1.472.2.466.468-.006.252-.256.364-.461.448a4.38,4.38,0,0,1-3.457,0c-.206-.085-.455-.2-.458-.451s.252-.357.453-.455A3.89,3.89,0,0,1,77.612,358.816Z"
            data-name="Path 7472" fill="#fedb00" id="Path_7472" />
        <path
            d="M76,371.994a3.909,3.909,0,0,1-1.73-.336c-.208-.1-.472-.2-.465-.469.006-.251.257-.364.463-.448a4.391,4.391,0,0,1,3.458,0c.2.085.454.2.456.453s-.255.353-.454.455A3.912,3.912,0,0,1,76,371.994Z"
            data-name="Path 7473" fill="#feea3a" id="Path_7473" />
        <path
            d="M80,354.81a3.9,3.9,0,0,1-1.728-.336c-.2-.1-.456-.2-.463-.449-.008-.27.254-.381.465-.468a4.386,4.386,0,0,1,3.435,0c.21.085.473.192.471.463s-.267.361-.473.463A3.908,3.908,0,0,1,80,354.81Z"
            data-name="Path 7474" fill="#fedb00" id="Path_7474" />
        <path
            d="M73.792,372.322a5.24,5.24,0,0,0,4.406,0c0,.3.008.58,0,.864-.007.184-.155.281-.293.369a2.816,2.816,0,0,1-1.075.371,4.646,4.646,0,0,1-2.287-.159,2.7,2.7,0,0,1-.443-.207.528.528,0,0,1-.31-.551C73.81,372.787,73.792,372.561,73.792,372.322Z"
            data-name="Path 7475" fill="#fedb00" id="Path_7475" />
        <path
            d="M89.03,355.547a2.79,2.79,0,0,0,1.032-1.26,5.112,5.112,0,0,0,.523-2.031l.819-.578a5.748,5.748,0,0,1-.062.949,4.371,4.371,0,0,1-.874,2.16,2,2,0,0,1-1.18.789.419.419,0,0,1-.273,0,.021.021,0,0,1,0-.016C89.017,355.557,89.024,355.553,89.03,355.547Z"
            data-name="Path 7476" fill="#fdc008" id="Path_7476" />
        <path
            d="M87.4,364.386v-.117a1.67,1.67,0,0,0-.015-.58c-.077-.2-.337-.1-.51-.168a1.625,1.625,0,0,1-1.068-1.666,1.59,1.59,0,0,1,1.414-1.429c.166-.015.19-.077.181-.213a1.04,1.04,0,0,1,.012-.279.388.388,0,0,1,.428-.316.378.378,0,0,1,.354.368c.011.131-.034.3.033.383s.241.062.367.093a1.579,1.579,0,0,1,1.2,1.419c.018.315-.1.491-.343.517s-.418-.129-.454-.444a.793.793,0,0,0-.578-.716c-.151-.045-.23-.038-.224.157.013.413.008.827,0,1.24,0,.126.029.165.163.183a1.593,1.593,0,0,1-.017,3.173c-.111.014-.153.046-.145.155a2.005,2.005,0,0,1,0,.257.38.38,0,0,1-.356.391c-.219.019-.446-.121-.424-.335.041-.387-.142-.459-.471-.533a1.551,1.551,0,0,1-1.144-1.438.4.4,0,0,1,.371-.474c.246-.015.4.132.427.418a.818.818,0,0,0,.582.742c.149.045.234.037.22-.157S87.4,364.6,87.4,364.386Z"
            data-name="Path 7477" id="Path_7477" />
        <path
            d="M95.386,367.069a3.76,3.76,0,0,1-.191,1.4,3.515,3.515,0,0,1-3.3,2.3,2.468,2.468,0,0,1-.42.022.385.385,0,0,1-.377-.4.376.376,0,0,1,.381-.39,5.086,5.086,0,0,0,1.445-.266,2.479,2.479,0,0,0,1.66-2.2c.011-.093.018-.187.021-.28a.407.407,0,0,1,.312-.438A.4.4,0,0,1,95.386,367.069Z"
            data-name="Path 7478" id="Path_7478" />
        <path
            d="M88.2,364.395c0-.218,0-.435,0-.652,0-.118.037-.147.151-.127a.8.8,0,0,1,.031,1.572c-.121.025-.191.012-.183-.141C88.213,364.83,88.2,364.612,88.2,364.395Z"
            data-name="Path 7479" fill="#fdda00" id="Path_7479" />
        <path
            d="M87.4,361.991c0,.218-.01.437,0,.654.01.171-.063.174-.194.138a.8.8,0,0,1-.014-1.547c.137-.039.222-.039.208.147C87.393,361.585,87.4,361.788,87.4,361.991Z"
            data-name="Path 7480" fill="#fedb00" id="Path_7480" />
    </g>
</svg>
