<svg height="27.98" viewBox="0 0 14.792 27.98" width="14.792" xmlns="http://www.w3.org/2000/svg">
    <g id="rf_arrow_right" transform="translate(-71.207 -150.661)">
        <path
            d="M84.246,177.7l-.81.193c-.08.02-.162.037-.24.065-.2.069-.322.2-.269.422a.315.315,0,0,0,.406.248c.851-.187,1.7-.385,2.547-.583.142-.033.146-.126.073-.235-.469-.7-.934-1.4-1.409-2.092a.327.327,0,0,0-.486-.117.337.337,0,0,0-.085.516,4.82,4.82,0,0,1,.466.83c-.54-.255-1.086-.5-1.618-.769a21.909,21.909,0,0,1-6.028-4.358,16.979,16.979,0,0,1-4.582-9.191,23.446,23.446,0,0,1,.986-11.3c.02-.059.043-.117.059-.177.056-.2.024-.386-.188-.467a.334.334,0,0,0-.469.232c-.167.491-.336.983-.474,1.482a24.679,24.679,0,0,0-.875,8.072A18.108,18.108,0,0,0,76.284,172.3a23.514,23.514,0,0,0,7.375,5.06c.2.09.4.177.592.266Z"
            data-name="Path 7379" fill="#fff" id="Path_7379" />
    </g>
</svg>
