<svg height="24" viewBox="0 0 24 24" width="24" xmlns="http://www.w3.org/2000/svg">
    <g id="share_icon" transform="translate(-2439 -9088)">
        <rect data-name="Rectangle 17573" fill="none" height="24" id="Rectangle_17573"
            transform="translate(2439 9088)" width="24" />
        <path
            d="M19.311,14.65a4.655,4.655,0,0,0-3.835,2.022l-6.5-2.936a4.569,4.569,0,0,0,0-3.484l6.5-2.952a4.655,4.655,0,1,0-.826-2.64,4.628,4.628,0,0,0,.08.785l-6.9,3.136A4.663,4.663,0,1,0,7.809,15.4l6.92,3.124a4.731,4.731,0,0,0-.079.784,4.662,4.662,0,1,0,4.661-4.661Zm0-12.65a2.664,2.664,0,1,1-2.663,2.664A2.664,2.664,0,0,1,19.311,2ZM4.662,14.65a2.664,2.664,0,1,1,2.663-2.664A2.664,2.664,0,0,1,4.662,14.65Zm14.649,7.325a2.664,2.664,0,1,1,2.664-2.664,2.664,2.664,0,0,1-2.664,2.664Z"
            data-name="share_icon" fill="#121418" id="share_icon-2"
            transform="translate(2439.027 9088.016)" />
    </g>
</svg>
