<svg fill="none" height="23" viewBox="0 0 24 23" width="24" xmlns="http://www.w3.org/2000/svg">
    <path
        d="M16.0636 12.9136L14.8636 11.7136C15.3364 10.4227 15.0909 9.35 14.1273 8.49546C13.1636 7.64091 12.1182 7.42273 10.9909 7.84091L9.79091 6.64091C10.1 6.44091 10.4455 6.29545 10.8273 6.20455C11.2091 6.11364 11.6 6.06818 12 6.06818C13.2909 6.06818 14.3864 6.51818 15.2864 7.41818C16.1864 8.31818 16.6364 9.41364 16.6364 10.7045C16.6364 11.1045 16.5864 11.5 16.4864 11.8909C16.3864 12.2818 16.2455 12.6227 16.0636 12.9136ZM19.5818 16.4318L18.4909 15.3409C19.3818 14.6864 20.1591 13.9545 20.8227 13.1455C21.4864 12.3364 21.9727 11.5227 22.2818 10.7045C21.3727 8.68636 20.0091 7.09091 18.1909 5.91818C16.3727 4.74545 14.4 4.15909 12.2727 4.15909C11.5091 4.15909 10.7273 4.23182 9.92727 4.37727C9.12727 4.52273 8.5 4.69545 8.04545 4.89545L6.79091 3.61364C7.42727 3.32273 8.24091 3.06818 9.23182 2.85C10.2227 2.63182 11.1909 2.52273 12.1364 2.52273C14.7364 2.52273 17.1136 3.26364 19.2682 4.74545C21.4227 6.22727 23 8.21364 24 10.7045C23.5273 11.8682 22.9182 12.9318 22.1727 13.8955C21.4273 14.8591 20.5636 15.7045 19.5818 16.4318ZM21.1636 22.5955L16.5818 18.0955C15.9455 18.35 15.2273 18.5455 14.4273 18.6818C13.6273 18.8182 12.8182 18.8864 12 18.8864C9.34545 18.8864 6.93636 18.1455 4.77273 16.6636C2.60909 15.1818 1.01818 13.1955 0 10.7045C0.363636 9.75909 0.868182 8.83636 1.51364 7.93636C2.15909 7.03636 2.94545 6.17727 3.87273 5.35909L0.436364 1.92273L1.58182 0.75L22.2273 21.3955L21.1636 22.5955ZM4.99091 6.50455C4.31818 6.99545 3.66818 7.64091 3.04091 8.44091C2.41364 9.24091 1.96364 9.99545 1.69091 10.7045C2.61818 12.7227 4.01364 14.3182 5.87727 15.4909C7.74091 16.6636 9.85455 17.25 12.2182 17.25C12.8182 17.25 13.4091 17.2136 13.9909 17.1409C14.5727 17.0682 15.0091 16.9591 15.3 16.8136L13.5545 15.0682C13.3545 15.1591 13.1091 15.2273 12.8182 15.2727C12.5273 15.3182 12.2545 15.3409 12 15.3409C10.7273 15.3409 9.63636 14.8955 8.72727 14.0045C7.81818 13.1136 7.36364 12.0136 7.36364 10.7045C7.36364 10.4318 7.38636 10.1591 7.43182 9.88636C7.47727 9.61364 7.54545 9.36818 7.63636 9.15L4.99091 6.50455Z"
        fill="black" />
</svg>
