<svg height="70" viewBox="0 0 70 70" width="70" xmlns="http://www.w3.org/2000/svg">
    <g data-name="Something Wrong!" id="Something_Wrong_" transform="translate(0 3.885)">
        <rect fill="none" height="70" id="back" transform="translate(0 -3.885)" width="70" />
        <path
            d="M69.186,53.312,38.368,2.3c-1.852-3.066-4.883-3.066-6.736,0L.815,53.312c-1.853,3.066-.437,5.575,3.146,5.575H66.04c3.583,0,5-2.509,3.146-5.575m-3.9,1.594a2.3,2.3,0,0,1-2.1,1.044H6.822a2.3,2.3,0,0,1-2.1-1.044,2.3,2.3,0,0,1,.194-2.34L33,6.066a2.2,2.2,0,0,1,3.993,0l28.091,46.5a2.3,2.3,0,0,1,.194,2.34M35.635,6.889c-.194-.322-.432-.514-.635-.514s-.44.192-.634.514h0L6.274,53.389a.863.863,0,0,0-.169.735.862.862,0,0,0,.717.236H63.178a.56.56,0,0,0,.548-.971ZM35,51.373a2.96,2.96,0,1,1,2.961-2.962A2.963,2.963,0,0,1,35,51.373m3.409-33.6L36.86,40.924c0,1.338-.013,2.423-1.9,2.42-1.839,0-1.891-1.037-1.891-2.334v-.09L31.591,17.769c0-1.34,1.531-2.42,3.41-2.419s3.409,1.087,3.409,2.424Z"
            data-name="Path 8749" fill="#55AE7B" id="Path_8749" transform="translate(0 1.671)" />
    </g>
</svg>
