<svg height="24" viewBox="0 0 24 24" width="24" xmlns="http://www.w3.org/2000/svg">
    <g id="sorting_icon" transform="translate(-2127 -9127)">
        <rect data-name="Rectangle 17575" fill="none" height="24" id="Rectangle_17575"
            transform="translate(2127 9127)" width="24" />
        <g data-name="sorting_icon" id="sorting_icon-2" transform="translate(2127.002 9127.003)">
            <path
                d="M0,3.04v8.107H11.147V0H3.04A3.04,3.04,0,0,0,0,3.04ZM9.12,9.12H2.027V3.04A1.013,1.013,0,0,1,3.04,2.027H9.12Z"
                data-name="Path 7122" fill="#121418" id="Path_7122" />
            <path
                d="M0,21.107a3.04,3.04,0,0,0,3.04,3.04h8.107V13H0Zm2.027-6.08H9.12V22.12H3.04a1.013,1.013,0,0,1-1.013-1.013Z"
                data-name="Path 7123" fill="#121418" id="Path_7123"
                transform="translate(0 -0.147)" />
            <path
                d="M20.08,21.417V2.586l2.62,2.58,1.435-1.415L21.216.876a3.069,3.069,0,0,0-4.3,0L14,3.746l1.432,1.415,2.614-2.579V21.416l-2.62-2.582L14,20.249l2.917,2.875a3.069,3.069,0,0,0,4.3,0l2.918-2.87L22.7,18.839Z"
                data-name="Path 7124" fill="#121418" id="Path_7124" transform="translate(-0.134)" />
        </g>
    </g>
</svg>
