<svg height="24" viewBox="0 0 24 24" width="24" xmlns="http://www.w3.org/2000/svg">
    <g data-name="Delivered " id="Delivered_" transform="translate(-17235 4804)">
        <rect fill="none" height="24" id="Back" transform="translate(17235 -4804)" width="24" />
        <path
            d="M7.242,5.835l.052.005a5.759,5.759,0,0,0,.651.043,3.765,3.765,0,0,0,2.6-1.076,5.782,5.782,0,0,0,.43-.491L11,4.276c.189-.232.307-.377.4-.484a1.509,1.509,0,0,1,.111-.12.765.765,0,0,1,.967,0,1.5,1.5,0,0,1,.111.12c.093.107.211.252.4.484l.033.04h0a5.763,5.763,0,0,0,.43.491,3.765,3.765,0,0,0,2.6,1.076,5.756,5.756,0,0,0,.651-.043h0l.052-.005c.3-.031.484-.05.625-.06a1.486,1.486,0,0,1,.164-.006.765.765,0,0,1,.684.684,1.488,1.488,0,0,1-.006.164c-.01.141-.029.328-.06.625l-.005.052h0a5.775,5.775,0,0,0-.043.651,3.765,3.765,0,0,0,1.076,2.6,5.785,5.785,0,0,0,.491.43h0l.04.033c.232.189.377.307.484.4a1.506,1.506,0,0,1,.12.111.765.765,0,0,1,0,.968,1.506,1.506,0,0,1-.12.111c-.107.093-.252.211-.484.4l-.04.033h0a5.785,5.785,0,0,0-.491.43,3.765,3.765,0,0,0-1.076,2.6,5.774,5.774,0,0,0,.043.651h0l.005.052c.031.3.05.484.06.625a1.488,1.488,0,0,1,.006.164.765.765,0,0,1-.684.684,1.489,1.489,0,0,1-.164-.006c-.141-.01-.327-.029-.625-.059l-.052-.005a5.752,5.752,0,0,0-.651-.043,3.765,3.765,0,0,0-2.6,1.076,5.753,5.753,0,0,0-.43.491h0l-.033.041c-.189.232-.307.377-.4.484a1.475,1.475,0,0,1-.111.12.765.765,0,0,1-.967,0,1.475,1.475,0,0,1-.111-.12c-.093-.107-.211-.252-.4-.484l-.033-.04a5.756,5.756,0,0,0-.43-.491,3.765,3.765,0,0,0-2.6-1.076,5.751,5.751,0,0,0-.651.043l-.052.005c-.3.031-.484.05-.625.059a1.487,1.487,0,0,1-.164.006.765.765,0,0,1-.684-.684,1.49,1.49,0,0,1,.006-.164c.01-.141.029-.327.06-.625l.005-.052a5.758,5.758,0,0,0,.043-.651,3.765,3.765,0,0,0-1.076-2.6,5.764,5.764,0,0,0-.491-.43h0l-.04-.033c-.232-.189-.377-.307-.484-.4a1.492,1.492,0,0,1-.12-.112.765.765,0,0,1,0-.967,1.49,1.49,0,0,1,.12-.112c.107-.093.252-.211.484-.4l.04-.033h0a5.745,5.745,0,0,0,.491-.43,3.765,3.765,0,0,0,1.076-2.6,5.759,5.759,0,0,0-.043-.651l-.005-.052c-.031-.3-.05-.484-.06-.625a1.49,1.49,0,0,1-.006-.164.765.765,0,0,1,.684-.684,1.485,1.485,0,0,1,.164.006c.141.01.328.029.625.06Zm-1.473.619h0Zm-2.1,6.03h0Zm2.781,5.747h0Zm6.03,2.1h0Zm7.844-8.811h0ZM17.546,5.769h0Zm-6.03-2.1h0ZM9.841,3.33h0a6.144,6.144,0,0,1,.725-.818,2.265,2.265,0,0,1,2.868,0,6.145,6.145,0,0,1,.725.818h0a5,5,0,0,0,.349.406,2.265,2.265,0,0,0,1.562.647,4.991,4.991,0,0,0,.534-.041A6.139,6.139,0,0,1,17.7,4.277,2.265,2.265,0,0,1,19.723,6.3,6.138,6.138,0,0,1,19.657,7.4a4.975,4.975,0,0,0-.041.534,2.265,2.265,0,0,0,.647,1.562,4.985,4.985,0,0,0,.406.349h0a6.136,6.136,0,0,1,.818.725,2.265,2.265,0,0,1,0,2.868,6.134,6.134,0,0,1-.818.725h0a4.98,4.98,0,0,0-.406.349,2.265,2.265,0,0,0-.647,1.562,4.975,4.975,0,0,0,.041.534,6.137,6.137,0,0,1,.066,1.091A2.265,2.265,0,0,1,17.7,19.723a6.142,6.142,0,0,1-1.091-.066,5,5,0,0,0-.534-.041,2.265,2.265,0,0,0-1.562.647,5.013,5.013,0,0,0-.349.406h0a6.146,6.146,0,0,1-.725.818,2.265,2.265,0,0,1-2.868,0,6.145,6.145,0,0,1-.725-.818h0a5.006,5.006,0,0,0-.349-.406,2.266,2.266,0,0,0-1.562-.647,5,5,0,0,0-.534.041,6.141,6.141,0,0,1-1.091.066A2.265,2.265,0,0,1,4.277,17.7,6.137,6.137,0,0,1,4.343,16.6a4.992,4.992,0,0,0,.041-.534,2.265,2.265,0,0,0-.647-1.562,4.985,4.985,0,0,0-.406-.349h0a6.131,6.131,0,0,1-.818-.725,2.265,2.265,0,0,1,0-2.868,6.132,6.132,0,0,1,.818-.725h0a4.992,4.992,0,0,0,.406-.349A2.265,2.265,0,0,0,4.383,7.93,4.992,4.992,0,0,0,4.343,7.4h0A6.138,6.138,0,0,1,4.277,6.3,2.265,2.265,0,0,1,6.3,4.277,6.138,6.138,0,0,1,7.4,4.343h0a4.99,4.99,0,0,0,.534.041,2.265,2.265,0,0,0,1.562-.647,4.992,4.992,0,0,0,.349-.406Zm5.689,7.2A.75.75,0,0,0,14.47,9.47L11,12.939,9.53,11.47A.75.75,0,0,0,8.47,12.53l2,2a.75.75,0,0,0,1.061,0Z"
            data-name="Path 8350" fill="#141a1f" fill-rule="evenodd" id="Path_8350"
            transform="translate(17235 -4804)" />
    </g>
</svg>
