<svg height="24" viewBox="0 0 24 24" width="24" xmlns="http://www.w3.org/2000/svg">
    <g data-name="Shipped " id="Shipped_" transform="translate(-16766 4804)">
        <rect fill="none" height="24" id="Back" transform="translate(16766 -4804)" width="24" />
        <g data-name="truck success" id="truck_success" transform="translate(16765.199 -4804.8)">
            <path
                d="M6.214,1.8a5.414,5.414,0,1,0,5.414,5.414A5.414,5.414,0,0,0,6.214,1.8Zm0,9.229a3.814,3.814,0,1,1,3.814-3.814,3.814,3.814,0,0,1-3.814,3.814Z"
                data-name="Path 8341" fill="#141a1f" fill-rule="evenodd" id="Path_8341" />
            <path
                d="M7.558,5.267,5.63,7.62,4.75,6.49a.8.8,0,1,0-1.262.984l1.5,1.92a.8.8,0,0,0,1.25.015l2.56-3.126A.8.8,0,0,0,7.558,5.267Z"
                data-name="Path 8342" fill="#141a1f" fill-rule="evenodd" id="Path_8342" />
            <path
                d="M13.6,4.2h-.8a.8.8,0,0,0,0,1.6h.8V20.2h-.8a.8.8,0,0,0,0,1.6h1.6a.8.8,0,0,0,.8-.8V5.8A1.6,1.6,0,0,0,13.6,4.2Z"
                data-name="Path 8343" fill="#141a1f" fill-rule="evenodd" id="Path_8343" />
            <path
                d="M8.4,18.2a2.8,2.8,0,0,0-2.684,2H3.2V13a.8.8,0,1,0-1.6,0v8a.8.8,0,0,0,.8.8H5.716A2.8,2.8,0,1,0,8.4,18.2Zm0,4A1.2,1.2,0,1,1,9.6,21,1.2,1.2,0,0,1,8.4,22.2Z"
                data-name="Path 8344" fill="#141a1f" fill-rule="evenodd" id="Path_8344" />
            <path
                d="M24.8,16.4a1.6,1.6,0,0,0-.172-.737L21.707,9.877A1.6,1.6,0,0,0,20.278,9H16.8a.8.8,0,1,0,0,1.6h3.477l2.923,5.79V20.2H21.484a2.8,2.8,0,1,0,0,1.6H24a.8.8,0,0,0,.8-.8Zm-6,5.8A1.2,1.2,0,1,1,20,21,1.2,1.2,0,0,1,18.8,22.2Z"
                data-name="Path 8345" fill="#141a1f" fill-rule="evenodd" id="Path_8345" />
            <path d="M8,17a.8.8,0,0,0,0-1.6H4.8a.8.8,0,0,0,0,1.6Z" data-name="Path 8346"
                fill="#141a1f" fill-rule="evenodd" id="Path_8346" />
        </g>
    </g>
</svg>
