<svg height="24" viewBox="0 0 24 24" width="24" xmlns="http://www.w3.org/2000/svg">
    <g id="terms_icon" transform="translate(-2166 -9127)">
        <rect data-name="Rectangle 17576" fill="none" height="24" id="Rectangle_17576"
            transform="translate(2166 9127)" width="24" />
        <path
            d="M79.615,337.345a1,1,0,0,1-1,1h-8a1,1,0,0,1,0-2h8A1,1,0,0,1,79.615,337.345Zm-4,3h-5a1,1,0,0,0,0,2h5a1,1,0,0,0,0-2Zm9-6.515v8.515a5.006,5.006,0,0,1-5,5h-10a5.006,5.006,0,0,1-5-5v-14a5.007,5.007,0,0,1,5-5H74.13a6.958,6.958,0,0,1,4.95,2.05l3.484,3.486A6.951,6.951,0,0,1,84.615,333.83Zm-6.949-7.021a4.987,4.987,0,0,0-1.051-.78v4.316a1,1,0,0,0,1,1h4.316a4.954,4.954,0,0,0-.781-1.05Zm4.949,7.021c0-.165-.032-.323-.047-.485H77.615a3,3,0,0,1-3-3v-4.953c-.162-.015-.321-.047-.485-.047H69.615a3,3,0,0,0-3,3v14a3,3,0,0,0,3,3h10a3,3,0,0,0,3-3Z"
            data-name="terms_icon" fill="#121418" id="terms_icon-2"
            transform="translate(2103.385 8803.655)" />
    </g>
</svg>
