<svg height="24" viewBox="0 0 24.005 24" width="24.005" xmlns="http://www.w3.org/2000/svg">
    <g id="theme_icon" transform="translate(-2204.998 -9127)">
        <rect data-name="Rectangle 17577" fill="none" height="24" id="Rectangle_17577"
            transform="translate(2205 9127)" width="24" />
        <g data-name="theme_icon" id="theme_icon-2" transform="translate(0.097 0.095)">
            <rect data-name="Rectangle 17577" fill="none" height="23.906" id="Rectangle_17577-2"
                transform="translate(2205 9126.999)" width="23.906" />
            <g data-name="theme_icon" id="theme_icon-3" transform="translate(2204.901 9126.905)">
                <path
                    d="M12.935,23.9h-1.96l-.181-.025-.066-.01-.281-.038A11.979,11.979,0,0,1,.046,10.9a11.519,11.519,0,0,1,1.423-4.69,11.829,11.829,0,0,1,12.6-6,11.731,11.731,0,0,1,9.363,8.4,12.494,12.494,0,0,1,.461,2.375v1.958c-.016.1-.029.206-.043.308l-.01.079c-.03.229-.062.491-.116.739a11.828,11.828,0,0,1-8.44,9.381A12.417,12.417,0,0,1,12.935,23.9ZM11.648,1.241h-.033c-.192,0-.389.012-.583.027-.251.02-.5.051-.751.091a10.506,10.506,0,0,0-6.53,3.7A10.78,10.78,0,0,0,2.15,16.31,10.663,10.663,0,0,0,3.4,18.429l.023.032.016.021.016.021.011.014.041.053a10.922,10.922,0,0,0,.732.841l.007.007.022.023.022.021.022.022.015.016.008.008.007.007.018.018.019.018.017.017.029.03.021.02a10.69,10.69,0,0,0,7.123,3.053l.134,0a.646.646,0,0,0,.1-.005c.142-.016.142-.095.142-.357V3.19c0-.545,0-1.108,0-1.669a.3.3,0,0,0-.059-.218.31.31,0,0,0-.229-.062Z"
                    data-name="Subtraction 1" fill="#121418" id="Subtraction_1" />
            </g>
        </g>
    </g>
</svg>
