<svg height="24" viewBox="0 0 24 24" width="24" xmlns="http://www.w3.org/2000/svg">
    <g data-name=" translate_icon" id="_translate_icon" transform="translate(-2283 -9127)">
        <rect data-name="Rectangle 17579" fill="none" height="24" id="Rectangle_17579"
            transform="translate(2283 9127)" width="24" />
        <g data-name=" translate_icon" id="_translate_icon-2"
            transform="translate(2055.413 8846.854)">
            <path
                d="M251.572,287.5v14.925a2.164,2.164,0,0,1-2.405,1.7h-9.122c-.61,0-.783-.123-.973-.7-.513-1.553-1.032-3.105-1.534-4.663a.379.379,0,0,0-.432-.308q-3.707.013-7.413,0a2.1,2.1,0,0,1-2.091-2.082q0-7.092,0-14.174a1.969,1.969,0,0,1,.2-.857,2.21,2.21,0,0,1,1.5-1.2h7.719a.973.973,0,0,1,.521.65c.513,1.561,1.04,3.117,1.546,4.681a.391.391,0,0,0,.449.317q4.978-.012,9.958,0a2.019,2.019,0,0,1,1.864,1.157A4.8,4.8,0,0,1,251.572,287.5Zm-22.532,1.8v6.852c0,.61.262.875.866.875h11.2c.283,0,.286-.006.2-.274q-2.476-7.452-4.951-14.906a.342.342,0,0,0-.386-.275c-2.011.008-4.022.005-6.033.005-.64,0-.9.254-.9.893Zm14.042,8.175c.369-.4.7-.766,1.046-1.127a.238.238,0,0,0,.016-.365,7.522,7.522,0,0,1-.462-.645.718.718,0,0,1,.173-.981.726.726,0,0,1,.99.124,3.694,3.694,0,0,1,.263.358c.081.119.145.114.227,0a9.516,9.516,0,0,0,1-1.712c.113-.262.106-.272-.175-.272h-3.649c-.511,0-.826-.273-.829-.713s.313-.725.84-.726h1.73c.169,0,.245-.059.238-.232a4.919,4.919,0,0,1,0-.514.719.719,0,0,1,1.432,0c.008.117,0,.234,0,.351,0,.391,0,.391.379.392.577,0,1.154-.005,1.731,0a.7.7,0,0,1,.684.563.642.642,0,0,1-.392.784c-.391.077-.453.337-.535.627a2.121,2.121,0,0,1-.094.24,10.469,10.469,0,0,1-1.4,2.341c-.11.144-.12.243.011.378.272.28.529.572.792.861a.728.728,0,1,1-1.049,1.006q-.354-.357-.685-.735c-.116-.133-.2-.136-.317,0-.239.268-.481.532-.74.779a.705.705,0,0,1-1.086-.083c-.144-.2-.176-.1-.241.04q-.953,2.11-1.911,4.217c-.109.241-.1.255.171.255h8.046c.586,0,.855-.272.855-.862V288.1c0-.592-.267-.858-.858-.858h-9.289c-.321,0-.325.005-.221.318l2.888,8.695c.146.4.28.8.421,1.227Zm-3.138,3.928c.434-.958.837-1.852,1.245-2.743.068-.15.023-.195-.13-.194-.623,0-1.246.006-1.868,0-.193,0-.2.069-.149.226.218.64.428,1.285.639,1.927Z"
                data-name="Path 7190" fill="#121418" id="Path_7190" />
            <path
                d="M235.74,288.61h1.03a.705.705,0,0,1,.737.734,3.548,3.548,0,0,1-3.439,3.519,3.585,3.585,0,0,1-3.58-2.972,3.547,3.547,0,0,1,2.849-4.038,3.47,3.47,0,0,1,3.068.9.741.741,0,0,1,.274.708.72.72,0,0,1-1.139.465c-.089-.063-.165-.143-.251-.21a2,2,0,0,0-2.069-.316,1.967,1.967,0,0,0-1.292,1.669,2.07,2.07,0,0,0,3.879,1.239c.126-.234.11-.262-.15-.263h-.913a.721.721,0,1,1-.011-1.438Z"
                data-name="Path 7191" fill="#121418" id="Path_7191" />
        </g>
    </g>
</svg>
