<svg height="24" viewBox="0 0 24 24" width="24" xmlns="http://www.w3.org/2000/svg">
    <g id="voice_search_icon" transform="translate(-2088 -9166)">
        <g id="home_dark_active_icon" transform="translate(-156 117)">
            <rect data-name="Rectangle 17558" fill="none" height="24" id="Rectangle_17558"
                transform="translate(2244 9049)" width="24" />
        </g>
        <g data-name="Group 9431" id="Group_9431" transform="translate(1813.351 8911.247)">
            <path
                d="M286.649,274.455a7.951,7.951,0,0,1-8-7.851v-4a8,8,0,0,1,16,0v4a7.951,7.951,0,0,1-8,7.851Zm-6.174-6.825a6.208,6.208,0,0,0,5.135,5.039,6.431,6.431,0,0,0,1.046.085,6.206,6.206,0,0,0,6.167-5.124l.03-.175h-3.147a.851.851,0,1,1,0-1.7h3.209v-2.3h-3.209a.851.851,0,1,1,0-1.7h3.147l-.03-.174a6.281,6.281,0,0,0-12.348,0l-.03.174h3.147a.851.851,0,1,1,0,1.7h-3.209v2.3h3.209a.851.851,0,1,1,0,1.7h-3.147Z"
                data-name="Path 8578" fill="#121418" id="Path_8578" transform="translate(0)" />
            <path
                d="M285.636,278.455A10.955,10.955,0,0,1,274.649,267.6a.862.862,0,0,1,1.723,0,9.232,9.232,0,0,0,9.264,9.15h2.025a9.231,9.231,0,0,0,9.264-9.15.862.862,0,0,1,1.723,0,10.953,10.953,0,0,1-10.987,10.851Z"
                data-name="Path 8579" fill="#121418" id="Path_8579"
                transform="translate(0 0.298)" />
        </g>
    </g>
</svg>
