<svg height="24" viewBox="0 0 24 24" width="24" xmlns="http://www.w3.org/2000/svg">
    <g id="wallet_icon" transform="translate(-2400 -9127)">
        <rect data-name="Rectangle 17582" fill="none" height="24" id="Rectangle_17582"
            transform="translate(2400 9127)" width="24" />
        <g data-name="Group 9423" id="Group_9423" transform="translate(2124.569 8878.076)">
            <path
                d="M278.182,272.92a2.79,2.79,0,0,1-2.749-2.749l0-12.574a2.619,2.619,0,0,1,.366-1.334,2.743,2.743,0,0,1,1.88-1.357c-.05-.127-.171-.471-.171-.471a1.9,1.9,0,0,1,1.185-2.531l8.156-2.964.731-.016a1.992,1.992,0,0,1,1.543,1.419c.07.222.152.44.233.658l.118.324a1.435,1.435,0,0,0,.091.225c0-.009.055-.011.124-.011l.573,0,1.941-.009c.559,0,1.121.007,1.681.033a1.836,1.836,0,0,1,1.762,1.855c0,.49,0,.98,0,1.471a2.747,2.747,0,0,1,2.429,2.805q0,1.225,0,2.452a2.052,2.052,0,0,1,1.346,1.42l.012,4.477a1.946,1.946,0,0,1-1.309,1.43l-.315.091.263,0c.008.864.007,1.727,0,2.593a2.773,2.773,0,0,1-2.757,2.762l-8.567,0Zm.259-16.122c-.752,0-1.073.321-1.074,1.072v12.092a.967.967,0,0,0,.359.84,1.028,1.028,0,0,0,.685.161l16.764,0a.865.865,0,0,0,.962-.963v-1.04c0-.464,0-.927,0-1.391l-1.622-.006-.562.006a4.124,4.124,0,0,1-.548-.031,3.724,3.724,0,0,1,.248-7.409c.4-.017.812-.02,1.218-.02l1.262,0c0-.03,0-2.228,0-2.228,0-.754-.322-1.077-1.069-1.077Zm15.616,5.266a2.712,2.712,0,0,0-.5.045,1.764,1.764,0,0,0,.416,3.493h3.385c.079,0,.125,0,.154-.007a.655.655,0,0,1,0-.136v-3.228a.992.992,0,0,0-.01-.168.1.1,0,0,1-.035,0Zm-14.72-8.309a.819.819,0,0,1,.044.112l.111.3c.074.2.15.4.212.6.023.076.024.081.125.081.466,0,2.915,0,2.915,0h2.948c0-.028,0-1.113,0-1.43a1.884,1.884,0,0,1,1.377-1.788,1.966,1.966,0,0,1,.4-.059c-.04-.11-.184-.516-.184-.516a1.57,1.57,0,0,0-.064-.157c-.032.008-.085.024-.171.056l-7.607,2.768C279.393,253.73,279.359,253.745,279.337,253.755Zm14.37,1.082c0-.021,0-.916,0-1.263l-.067-.072h-5.932a.434.434,0,0,0-.076,0c0,.012,0,1.306,0,1.33h6.078Z"
                data-name="Path 8566" fill="#121418" id="Path_8566" />
            <path d="M294.3,265.17a.924.924,0,1,1,.012,0Z" data-name="Path 8567" fill="#121418"
                id="Path_8567" transform="translate(-0.427 -0.341)" />
        </g>
    </g>
</svg>
