<?xml version="1.0" encoding="UTF-8" standalone="no"?>
<svg baseProfile="tiny" version="1.2" viewBox="0.00 0.00 512.00 512.00"
    xmlns="http://www.w3.org/2000/svg">
    <path d="
  M 163.61 0.00
  L 397.33 0.00
  Q 403.07 0.86 405.60 3.39
  Q 454.88 52.62 504.12 101.90
  C 508.52 106.29 511.06 109.63 511.05 115.43
  Q 510.75 363.36 511.10 458.91
  Q 511.14 471.27 509.72 477.40
  C 505.20 496.86 488.36 510.60 468.24 512.00
  L 131.63 512.00
  Q 83.47 509.68 47.94 479.16
  C -11.56 428.06 -14.81 337.17 40.51 281.76
  Q 73.18 249.05 120.49 242.82
  A 0.61 0.60 86.2 0 0 121.01 242.22
  Q 121.00 146.50 121.00 45.38
  C 121.00 20.90 139.26 2.07 163.61 0.00
  Z
  M 270.17 392.51
  C 265.77 427.66 248.73 458.89 221.31 481.50
  A 0.29 0.29 0.0 0 0 221.50 482.01
  Q 347.75 481.97 465.52 482.01
  C 474.96 482.02 480.98 474.97 480.98 465.82
  Q 480.94 295.88 481.09 131.13
  A 1.14 1.14 0.0 0 0 479.95 129.99
  Q 441.88 129.99 396.90 130.03
  C 386.95 130.04 380.89 123.02 380.94 113.37
  Q 381.14 73.05 380.93 31.28
  Q 380.93 30.03 379.67 30.02
  Q 270.70 29.96 166.38 30.03
  C 160.10 30.03 154.78 33.38 152.22 39.15
  Q 151.00 41.88 151.00 48.93
  Q 150.98 142.48 151.02 242.26
  Q 151.02 242.82 151.58 242.89
  Q 190.20 247.62 220.32 271.66
  Q 220.64 271.91 221.04 271.92
  Q 322.12 272.15 423.36 271.91
  Q 427.33 271.90 430.23 272.68
  C 438.59 274.93 443.14 284.45 439.92 292.42
  C 437.29 298.96 431.72 301.99 424.72 301.99
  Q 335.12 302.01 248.69 302.01
  A 0.28 0.28 0.0 0 0 248.46 302.45
  Q 266.36 329.62 270.06 361.54
  A 0.56 0.54 86.4 0 0 270.60 362.03
  Q 379.20 362.04 422.19 361.94
  Q 428.89 361.93 431.99 363.30
  C 443.98 368.58 443.86 385.28 432.02 390.70
  Q 429.09 392.04 422.16 392.04
  Q 349.03 391.95 270.72 392.02
  Q 270.23 392.02 270.17 392.51
  Z
  M 459.06 100.00
  A 0.31 0.31 0.0 0 0 459.28 99.47
  L 411.53 51.72
  A 0.31 0.31 0.0 0 0 411.00 51.94
  L 411.00 99.69
  A 0.31 0.31 0.0 0 0 411.31 100.00
  L 459.06 100.00
  Z
  M 240.97 376.99
  A 104.97 104.97 0.0 0 0 136.00 272.02
  A 104.97 104.97 0.0 0 0 31.03 376.99
  A 104.97 104.97 0.0 0 0 136.00 481.96
  A 104.97 104.97 0.0 0 0 240.97 376.99
  Z" fill="#000000" />
    <g>
        <path d="
  M 440.93 197.19
  A 14.80 14.80 0.0 0 1 426.13 211.99
  L 205.87 211.99
  A 14.80 14.80 0.0 0 1 191.07 197.19
  L 191.07 196.81
  A 14.80 14.80 0.0 0 1 205.87 182.01
  L 426.13 182.01
  A 14.80 14.80 0.0 0 1 440.93 196.81
  L 440.93 197.19
  Z" fill="#000000" />
        <path d="
  M 151.65 361.94
  Q 161.28 362.14 171.74 361.93
  Q 177.52 361.81 180.44 362.72
  C 187.01 364.76 191.41 371.13 190.94 377.96
  C 190.32 386.79 183.12 392.13 174.56 392.05
  Q 156.71 391.88 138.98 392.07
  Q 133.07 392.13 129.95 390.69
  C 123.74 387.81 120.94 382.33 120.96 375.58
  Q 121.07 348.51 120.96 318.39
  Q 120.94 313.81 122.49 310.62
  C 126.40 302.54 136.13 299.53 143.86 304.32
  C 149.04 307.53 151.03 312.43 151.02 318.50
  Q 150.95 340.41 151.05 361.33
  A 0.61 0.61 0.0 0 0 151.65 361.94
  Z" fill="#000000" />
    </g>
</svg>
