<svg fill="none" height="24" viewBox="0 0 24 24" width="24" xmlns="http://www.w3.org/2000/svg">
    <path
        d="M20.17 13.38C20.09 13.38 20.07 13.37 20.06 13.29C20.07 12.63 20.07 11.97 20.07 11.3C20.07 10.28 19.56 9.59004 18.64 9.41004V8.30004C18.64 7.50004 18 6.82004 17.19 6.76004C16.99 6.75004 16.8 6.74004 16.6 6.74004L16.04 6.76004L15.79 6.79004C15.79 6.79004 15.78 6.72004 15.78 6.68004V5.12004C15.78 4.60004 15.78 4.07004 15.77 3.55004C15.77 3.22004 15.73 2.74004 15.37 2.41004C15.28 2.33004 15.18 2.26004 15.09 2.21004C14.81 2.05004 14.49 2.02004 14.2 2.02004H9.72999C9.58999 2.01004 9.45999 2.02004 9.35999 2.04004C9.08999 2.09004 8.84999 2.23004 8.64999 2.42004C8.39999 2.66004 8.26999 2.98004 8.26999 3.34004V5.00004C8.26999 5.56004 8.26999 6.11004 8.25999 6.67004C8.25999 6.70004 8.25999 6.74004 8.27999 6.75004C8.24999 6.75004 7.51999 6.76004 7.51999 6.76004C7.29999 6.76004 7.07999 6.76004 6.85999 6.77004C6.07999 6.82004 5.40999 7.51004 5.40999 8.28004V9.41004C4.62999 9.57004 4.04999 10.23 4.00999 11.03C3.98999 11.23 3.98999 11.44 3.98999 11.64V19.77C3.98999 19.98 3.98999 20.18 4.02999 20.4C4.19999 21.14 4.68999 21.61 5.48999 21.83H18.61C19.42 21.57 19.91 21.06 20.03 20.28C20.06 20.13 20.05 19.96 20.05 19.79V17.89C20.05 17.89 20.05 17.81 20.03 17.8H20.14C20.72 17.8 20.9 17.6 20.9 17.04V14.18C20.9 13.62 20.69 13.42 20.15 13.42L20.17 13.38ZM9.15999 3.44004C9.15999 3.07004 9.35999 2.87004 9.73999 2.87004H14.33C14.71 2.87004 14.91 3.07004 14.91 3.45004L14.86 8.11004L9.16999 8.08004V3.44004H9.15999ZM6.29999 8.38004C6.29999 7.93004 6.60999 7.63004 7.05999 7.63004H7.64999C7.85999 7.63004 8.04999 7.63004 8.28999 7.64004C8.27999 7.80004 8.27999 7.97004 8.27999 8.11004C8.20999 8.11004 8.11999 8.11004 8.02999 8.14004C7.82999 8.20004 7.70999 8.36004 7.70999 8.56004C7.72999 8.78004 7.84999 8.92004 8.02999 8.97004C8.11999 8.99004 8.19999 9.00004 8.28999 9.00004H15.78C15.85 9.00004 15.92 8.99004 16.02 8.98004C16.23 8.94004 16.36 8.76004 16.36 8.55004C16.36 8.35004 16.24 8.19004 16.03 8.13004L15.95 8.11004H15.84C15.84 8.11004 15.8 8.11004 15.8 8.12004C15.79 8.10004 15.79 8.03004 15.79 7.96004V7.85004C15.8 7.77004 15.8 7.69004 15.78 7.63004H16.68C16.82 7.62004 16.98 7.62004 17.12 7.63004C17.48 7.65004 17.78 7.96004 17.78 8.34004C17.79 8.49004 17.79 8.66004 17.79 8.81004V9.35004L6.30999 9.32004V8.38004H6.29999ZM18.9 18.37C18.9 18.94 18.9 19.51 18.89 20.08C18.88 20.42 18.62 20.66 18.22 20.69H5.99999C5.85999 20.69 5.69999 20.69 5.56999 20.63C5.28999 20.51 5.15999 20.28 5.15999 19.94V11.31C5.15999 10.74 5.41999 10.5 5.96999 10.5H18.21C18.48 10.49 18.68 10.6 18.82 10.82C18.88 10.92 18.91 11.03 18.91 11.16V13.3L18.82 13.38H18.11C17.87 13.39 17.64 13.39 17.4 13.4C16.33 13.48 15.45 14.33 15.36 15.37C15.27 16.49 16 17.48 17.08 17.73C17.27 17.77 17.45 17.78 17.65 17.78H18.04L18.91 17.8V18.38L18.9 18.37ZM19.72 16.63H17.89C17.73 16.64 17.54 16.63 17.37 16.6C16.86 16.51 16.48 16.04 16.52 15.54C16.57 14.97 16.98 14.55 17.52 14.55H18.26L19 14.54L19.78 14.58L19.73 16.63H19.72Z"
        fill="#121418" />
    <path
        d="M11.5999 18.41V19.25H11.0299V18.43C10.7399 18.42 10.4499 18.37 10.1799 18.29C9.90986 18.21 9.62986 18.11 9.35986 17.98L9.78986 17.09C10.0399 17.21 10.2599 17.31 10.4499 17.37C10.6499 17.43 10.8399 17.47 11.0299 17.49V16.02C10.4199 15.87 9.99986 15.66 9.75986 15.38C9.51986 15.1 9.39986 14.76 9.39986 14.35C9.39986 13.94 9.54986 13.56 9.83986 13.27C10.1299 12.98 10.5299 12.8 11.0399 12.73V11.99H11.6099V12.71C11.8699 12.71 12.1199 12.76 12.3599 12.84C12.5999 12.92 12.8499 13.04 13.1099 13.2L12.6399 14.04C12.4499 13.92 12.2699 13.83 12.1099 13.76C11.9499 13.7 11.7799 13.66 11.6099 13.64V15.09C12.1599 15.23 12.5799 15.44 12.8399 15.71C13.1099 15.99 13.2399 16.33 13.2399 16.73C13.2399 17.19 13.0999 17.57 12.8199 17.87C12.5399 18.17 12.1299 18.36 11.6099 18.42L11.5999 18.41ZM11.0299 14.94V13.64C10.8399 13.67 10.6899 13.74 10.5899 13.84C10.4899 13.94 10.4399 14.08 10.4399 14.24C10.4399 14.4 10.4799 14.54 10.5699 14.65C10.6599 14.76 10.8099 14.86 11.0299 14.93V14.94ZM11.5999 16.15V17.48C11.7999 17.45 11.9499 17.37 12.0499 17.27C12.1499 17.17 12.1899 17.02 12.1899 16.83C12.1899 16.66 12.1499 16.52 12.0599 16.42C11.9699 16.32 11.8199 16.23 11.5999 16.15Z"
        fill="#121418" />
    <path
        d="M10.0701 3.81995H9.82014C9.72073 3.81995 9.64014 3.90053 9.64014 3.99995V4.00995C9.64014 4.10936 9.72073 4.18995 9.82014 4.18995H10.0701C10.1695 4.18995 10.2501 4.10936 10.2501 4.00995V3.99995C10.2501 3.90053 10.1695 3.81995 10.0701 3.81995Z"
        fill="#121418" />
    <path
        d="M10.0701 4.80005H9.82014C9.72073 4.80005 9.64014 4.88064 9.64014 4.98005V4.99005C9.64014 5.08946 9.72073 5.17005 9.82014 5.17005H10.0701C10.1695 5.17005 10.2501 5.08946 10.2501 4.99005V4.98005C10.2501 4.88064 10.1695 4.80005 10.0701 4.80005Z"
        fill="#121418" />
    <path
        d="M10.0701 5.84998H9.82014C9.72073 5.84998 9.64014 5.93056 9.64014 6.02998V6.03998C9.64014 6.13939 9.72073 6.21998 9.82014 6.21998H10.0701C10.1695 6.21998 10.2501 6.13939 10.2501 6.03998V6.02998C10.2501 5.93056 10.1695 5.84998 10.0701 5.84998Z"
        fill="#121418" />
    <path
        d="M10.0701 6.80005H9.82014C9.72073 6.80005 9.64014 6.88064 9.64014 6.98005V6.99005C9.64014 7.08946 9.72073 7.17005 9.82014 7.17005H10.0701C10.1695 7.17005 10.2501 7.08946 10.2501 6.99005V6.98005C10.2501 6.88064 10.1695 6.80005 10.0701 6.80005Z"
        fill="#121418" />
    <path
        d="M13.69 3.75H10.73C10.5919 3.75 10.48 3.86193 10.48 4V4.01C10.48 4.14807 10.5919 4.26 10.73 4.26H13.69C13.8281 4.26 13.94 4.14807 13.94 4.01V4C13.94 3.86193 13.8281 3.75 13.69 3.75Z"
        fill="#121418" />
    <path
        d="M13.69 4.72998H10.73C10.5919 4.72998 10.48 4.84191 10.48 4.97998V4.98998C10.48 5.12805 10.5919 5.23998 10.73 5.23998H13.69C13.8281 5.23998 13.94 5.12805 13.94 4.98998V4.97998C13.94 4.84191 13.8281 4.72998 13.69 4.72998Z"
        fill="#121418" />
    <path
        d="M13.69 5.78003H10.73C10.5919 5.78003 10.48 5.89196 10.48 6.03003V6.04003C10.48 6.1781 10.5919 6.29003 10.73 6.29003H13.69C13.8281 6.29003 13.94 6.1781 13.94 6.04003V6.03003C13.94 5.89196 13.8281 5.78003 13.69 5.78003Z"
        fill="#121418" />
    <path
        d="M13.69 6.71997H10.73C10.5919 6.71997 10.48 6.8319 10.48 6.96997V6.97997C10.48 7.11804 10.5919 7.22997 10.73 7.22997H13.69C13.8281 7.22997 13.94 7.11804 13.94 6.97997V6.96997C13.94 6.8319 13.8281 6.71997 13.69 6.71997Z"
        fill="#121418" />
</svg>
