<svg height="24" viewBox="0 0 24 24" width="24" xmlns="http://www.w3.org/2000/svg">
    <g id="wishlist_dark_icon" transform="translate(-2088 -9166)">
        <g id="home_dark_active_icon" transform="translate(-156 117)">
            <rect data-name="Rectangle 17558" fill="none" height="24" id="Rectangle_17558"
                transform="translate(2244 9049)" width="24" />
        </g>
        <g data-name="Group 9428" id="Group_9428" transform="translate(1812.083 8912.377)">
            <path
                d="M287.938,276.262a1.1,1.1,0,0,1-.727-.339c-.671-.581-3.529-3.036-3.529-3.036-1.333-1.143-2.712-2.324-3.979-3.589a15.522,15.522,0,0,1-2.759-3.488,7.746,7.746,0,0,1-.941-4.986,6.953,6.953,0,0,1,1.969-4.007,6.035,6.035,0,0,1,4.117-1.788q.143-.006.282-.006a5.939,5.939,0,0,1,4.815,2.469,7.686,7.686,0,0,1,.685,1.011c.017.03.048.083.069.114a.243.243,0,0,1,.045-.118,6.9,6.9,0,0,1,2.537-2.663,6.094,6.094,0,0,1,3.021-.851,6.192,6.192,0,0,1,3.247.982,6.664,6.664,0,0,1,3.09,5.046l.021.122.016,1.628-.043.236a9.862,9.862,0,0,1-.306,1.308,10.849,10.849,0,0,1-2.2,3.677,42.145,42.145,0,0,1-4.5,4.3l-.39.337q-1.428,1.237-2.865,2.465l-.956.819a1.146,1.146,0,0,1-.6.348A.931.931,0,0,1,287.938,276.262Zm-5.485-19.609a4.728,4.728,0,0,0-2.57.721,5.52,5.52,0,0,0-2.274,5.355,6.988,6.988,0,0,0,1.374,3.232,19.781,19.781,0,0,0,2.619,2.887c1.342,1.259,2.767,2.473,4.144,3.647.7.593,1.391,1.186,2.08,1.787a.168.168,0,0,0,.1.051c.03,0,.07-.023.131-.075.653-.57,1.313-1.132,1.973-1.694,1.291-1.1,2.625-2.239,3.895-3.407a21.2,21.2,0,0,0,3-3.262,6.366,6.366,0,0,0,1.206-5.354,4.8,4.8,0,0,0-3.918-3.827,4.875,4.875,0,0,0-.715-.054,4.137,4.137,0,0,0-2.465.812,6.652,6.652,0,0,0-2.241,3.167c-.211.545-.461.778-.833.778-.541-.024-.743-.384-.886-.77a7.413,7.413,0,0,0-1.394-2.4A4.383,4.383,0,0,0,282.453,256.653Z"
                data-name="Path 8575" fill="#fff" id="Path_8575" />
        </g>
    </g>
</svg>
