<svg height="24" viewBox="0 0 24.004 24" width="24.004" xmlns="http://www.w3.org/2000/svg">
    <g id="wishlist_dark_active_icon" transform="translate(-2088 -9166)">
        <g id="home_dark_active_icon" transform="translate(-156 117)">
            <rect data-name="Rectangle 17558" fill="none" height="24" id="Rectangle_17558"
                transform="translate(2244 9049)" width="24" />
        </g>
        <g data-name="Group 9430" id="Group_9430" transform="translate(1812.084 8912.375)">
            <g data-name="Group 9429" id="Group_9429">
                <path
                    d="M299.9,261.13l-.02-.12a6.634,6.634,0,0,0-3.09-5.04,6.225,6.225,0,0,0-3.25-.98,6.047,6.047,0,0,0-3.02.85,6.81,6.81,0,0,0-2.54,2.66.563.563,0,0,0-.04.12c-.02-.03-.05-.09-.07-.12a8.1,8.1,0,0,0-.68-1.01,5.962,5.962,0,0,0-4.82-2.47,2.622,2.622,0,0,0-.28.01,6.063,6.063,0,0,0-4.12,1.79,6.952,6.952,0,0,0-1.97,4,7.811,7.811,0,0,0,.94,4.99,15.565,15.565,0,0,0,2.76,3.49c1.27,1.26,2.65,2.44,3.98,3.59,0,0,2.86,2.45,3.53,3.03a1.093,1.093,0,0,0,.73.34.486.486,0,0,0,.12-.01,1.225,1.225,0,0,0,.6-.34l.95-.82c.96-.82,1.92-1.64,2.87-2.47l.39-.34a41.4,41.4,0,0,0,4.5-4.3,10.716,10.716,0,0,0,2.2-3.67,10.3,10.3,0,0,0,.3-1.31l.05-.24Zm-2.98,4.77a21.283,21.283,0,0,1-3,3.26c-1.27,1.16-2.6,2.3-3.89,3.4-.66.57-1.32,1.13-1.98,1.7a.234.234,0,0,1-.13.07.118.118,0,0,1-.09-.05c-.69-.6-1.39-1.19-2.08-1.78-1.38-1.18-2.81-2.39-4.15-3.65a20.054,20.054,0,0,1-2.62-2.89,6.953,6.953,0,0,1-1.37-3.23,5.548,5.548,0,0,1,2.27-5.36,4.816,4.816,0,0,1,2.57-.72,4.367,4.367,0,0,1,3.22,1.59,7.357,7.357,0,0,1,1.4,2.41.963.963,0,0,0,.88.77c.38,0,.63-.24.84-.78a6.638,6.638,0,0,1,2.24-3.17,4.1,4.1,0,0,1,2.46-.81,5.944,5.944,0,0,1,.72.05,4.816,4.816,0,0,1,3.92,3.83A6.405,6.405,0,0,1,296.92,265.9Z"
                    data-name="Path 8576" fill="#fff" id="Path_8576" />
            </g>
            <path
                d="M296.92,265.9a21.283,21.283,0,0,1-3,3.26c-1.27,1.16-2.6,2.3-3.89,3.4-.66.57-1.32,1.13-1.98,1.7a.234.234,0,0,1-.13.07.118.118,0,0,1-.09-.05c-.69-.6-1.39-1.19-2.08-1.78-1.38-1.18-2.81-2.39-4.15-3.65a20.054,20.054,0,0,1-2.62-2.89,6.953,6.953,0,0,1-1.37-3.23,5.548,5.548,0,0,1,2.27-5.36,4.816,4.816,0,0,1,2.57-.72,4.367,4.367,0,0,1,3.22,1.59,7.357,7.357,0,0,1,1.4,2.41.963.963,0,0,0,.88.77c.38,0,.63-.24.84-.78a6.638,6.638,0,0,1,2.24-3.17,4.1,4.1,0,0,1,2.46-.81,5.944,5.944,0,0,1,.72.05,4.816,4.816,0,0,1,3.92,3.83A6.405,6.405,0,0,1,296.92,265.9Z"
                data-name="Path 8577" fill="#55AE7B" id="Path_8577" />
        </g>
    </g>
</svg>
