<svg height="19.207" viewBox="0 0 24 19.207" width="24" xmlns="http://www.w3.org/2000/svg">
    <g id="wishlist_fill_icon" transform="translate(-8713.898 -261.842)">
        <g data-name="Group 8483" id="Group_8483" transform="translate(8713.898 261.842)">
            <g data-name="Group 8482" id="Group_8482" transform="translate(0.636 0.509)">
                <path
                    d="M380.728,146.235a28.065,28.065,0,0,1-2.674,2.653l-.249.217c-2,1.8-4.06,3.54-5.976,5.132a1.421,1.421,0,0,1-.942.368,1.381,1.381,0,0,1-.942-.368l-.79-.66c-2.49-2.09-5.067-4.244-7.449-6.615a6.984,6.984,0,0,1-2.014-3.346,5.8,5.8,0,0,1,4.883-7.157,4.766,4.766,0,0,1,.563-.032h.162a5.744,5.744,0,0,1,4.179,1.7l1.278,1.278a.587.587,0,0,0,.141.108c0-.011.043-.043.108-.108l1.429-1.429a5.842,5.842,0,0,1,9.625,2.8A5.914,5.914,0,0,1,380.728,146.235Z"
                    data-name="Path 7158" fill="#121418" id="Path_7158"
                    transform="translate(-359.526 -136.415)" />
            </g>
            <path
                d="M382.435,147.3a29.639,29.639,0,0,1-2.824,2.8l-.263.229c-2.115,1.9-4.287,3.738-6.311,5.419a1.5,1.5,0,0,1-.995.389,1.459,1.459,0,0,1-.995-.389l-.835-.7c-2.629-2.206-5.35-4.482-7.866-6.985a7.374,7.374,0,0,1-2.126-3.533,6.121,6.121,0,0,1,5.156-7.557,5.031,5.031,0,0,1,.595-.034h.171a6.065,6.065,0,0,1,4.413,1.795l1.349,1.349a.62.62,0,0,0,.149.114c0-.011.046-.046.114-.114l1.509-1.509a6.169,6.169,0,0,1,10.163,2.961A6.245,6.245,0,0,1,382.435,147.3Z"
                data-name="Path 7159" fill="#121418" id="Path_7159"
                transform="translate(-360.047 -136.93)" />
        </g>
    </g>
</svg>
